<svg width="691" height="451" viewBox="0 0 691 451" fill="none" xmlns="http://www.w3.org/2000/svg">
<path d="M689.531 398.874V25.8062C689.531 12.2805 678.307 1.32031 664.468 1.32031H165.795C151.95 1.32031 140.732 12.2859 140.732 25.8062V374.388C140.732 387.914 151.955 398.874 165.795 398.874H689.531Z" fill="#F4EAE2"/>
<path d="M689.53 399.418C689.226 399.418 688.977 399.174 688.977 398.876V25.8083C688.977 12.602 677.981 1.86374 664.468 1.86374H165.795C152.281 1.86374 141.285 12.6074 141.285 25.8083V374.391C141.285 387.597 152.281 398.335 165.795 398.335C166.099 398.335 166.348 398.579 166.348 398.876C166.348 399.174 166.099 399.418 165.795 399.418C151.667 399.418 140.179 388.187 140.179 374.391V25.8083C140.179 12.0066 151.673 0.78125 165.795 0.78125H664.462C678.589 0.78125 690.078 12.012 690.078 25.8083V398.876C690.078 399.174 689.829 399.418 689.525 399.418H689.53Z" fill="#3D3D3D"/>
<path d="M662.459 389.481H165.794C157.276 389.481 150.351 382.71 150.351 374.391V25.8086C150.351 17.4897 157.281 10.7188 165.794 10.7188H664.462C672.98 10.7188 679.905 17.4897 679.905 25.8086V372.431C679.905 381.833 672.078 389.475 662.459 389.475V389.481ZM165.794 11.8012C157.89 11.8012 151.457 18.0851 151.457 25.8086V374.391C151.457 382.114 157.89 388.398 165.794 388.398H662.465C671.476 388.398 678.805 381.238 678.805 372.437V25.8086C678.805 18.0851 672.372 11.8012 664.467 11.8012H165.794Z" fill="#3D3D3D"/>
<path d="M2.17554 398.352H689.53V401.924C689.53 421.668 673.152 437.695 652.973 437.695H38.7326C18.554 437.695 2.17554 421.668 2.17554 401.924V398.352Z" fill="#F4EAE2"/>
<path d="M652.968 438.233H38.7325C18.2718 438.233 1.62231 421.941 1.62231 401.921V398.354C1.62231 398.056 1.87123 397.812 2.17546 397.812H689.53C689.835 397.812 690.083 398.056 690.083 398.354V401.921C690.083 421.941 673.434 438.233 652.973 438.233H652.968ZM2.7286 398.89V401.915C2.7286 421.34 18.8803 437.145 38.7325 437.145H652.968C672.82 437.145 688.972 421.34 688.972 401.915V398.89H2.7286Z" fill="#3D3D3D"/>
<path d="M140.781 350.656L578.017 350.656C586.681 350.656 593.704 343.784 593.704 335.307V52.2527C593.704 43.7753 586.681 36.903 578.017 36.903L140.781 36.903C132.118 36.903 125.094 43.7753 125.094 52.2527L125.094 335.307C125.094 343.784 132.118 350.656 140.781 350.656Z" fill="#F4EAE2"/>
<path d="M578.022 351.197H140.787C131.831 351.197 124.547 344.069 124.547 335.307V52.2581C124.547 43.4954 131.831 36.3672 140.787 36.3672H578.022C586.978 36.3672 594.263 43.4954 594.263 52.2581V335.312C594.263 344.075 586.978 351.203 578.022 351.203V351.197ZM140.787 37.4497C132.44 37.4497 125.653 44.0907 125.653 52.2581V335.312C125.653 343.474 132.44 350.12 140.787 350.12H578.022C586.369 350.12 593.156 343.479 593.156 335.312V52.2581C593.156 44.0907 586.369 37.4497 578.022 37.4497H140.787Z" fill="#3D3D3D"/>
<path d="M593.742 61.2153H125.133C124.829 61.2153 124.58 60.9717 124.58 60.6741C124.58 60.3764 124.829 60.1328 125.133 60.1328H593.742C594.047 60.1328 594.296 60.3764 594.296 60.6741C594.296 60.9717 594.047 61.2153 593.742 61.2153Z" fill="#3D3D3D"/>
<path d="M579.383 54.571C576.69 54.571 574.499 52.4276 574.499 49.7972C574.499 47.1668 576.69 45.0234 579.383 45.0234C582.077 45.0234 584.268 47.1668 584.268 49.7972C584.268 52.4276 582.077 54.571 579.383 54.571ZM579.383 46.1059C577.298 46.1059 575.606 47.7621 575.606 49.7972C575.606 51.8323 577.298 53.4885 579.383 53.4885C581.469 53.4885 583.161 51.8323 583.161 49.7972C583.161 47.7621 581.469 46.1059 579.383 46.1059Z" fill="#3D3D3D"/>
<path d="M566.744 54.571C564.05 54.571 561.86 52.4276 561.86 49.7972C561.86 47.1668 564.05 45.0234 566.744 45.0234C569.438 45.0234 571.628 47.1668 571.628 49.7972C571.628 52.4276 569.438 54.571 566.744 54.571ZM566.744 46.1059C564.659 46.1059 562.966 47.7621 562.966 49.7972C562.966 51.8323 564.659 53.4885 566.744 53.4885C568.829 53.4885 570.522 51.8323 570.522 49.7972C570.522 47.7621 568.829 46.1059 566.744 46.1059Z" fill="#3D3D3D"/>
<path d="M554.11 54.571C551.417 54.571 549.226 52.4276 549.226 49.7972C549.226 47.1668 551.417 45.0234 554.11 45.0234C556.804 45.0234 558.995 47.1668 558.995 49.7972C558.995 52.4276 556.804 54.571 554.11 54.571ZM554.11 46.1059C552.025 46.1059 550.332 47.7621 550.332 49.7972C550.332 51.8323 552.025 53.4885 554.11 53.4885C556.196 53.4885 557.888 51.8323 557.888 49.7972C557.888 47.7621 556.196 46.1059 554.11 46.1059Z" fill="#3D3D3D"/>
<path d="M314.567 311.057V310.949C314.567 302.505 321.57 295.664 330.215 295.664H394.479C403.119 295.664 410.127 302.505 410.127 310.949C410.127 319.392 403.141 326.223 394.507 326.233L330.243 326.342C321.592 326.358 314.572 319.506 314.572 311.057H314.567Z" fill="#FF4D4F"/>
<path d="M362.347 174.7C386.588 174.7 406.239 155.503 406.239 131.823C406.239 108.142 386.588 88.9453 362.347 88.9453C338.107 88.9453 318.456 108.142 318.456 131.823C318.456 155.503 338.107 174.7 362.347 174.7Z" fill="#F4EAE2"/>
<path d="M362.347 175.243C337.843 175.243 317.902 155.764 317.902 131.825C317.902 107.886 337.838 88.4062 362.347 88.4062C386.857 88.4062 406.792 107.886 406.792 131.825C406.792 155.764 386.857 175.243 362.347 175.243ZM362.347 89.4833C338.452 89.4833 319.009 108.476 319.009 131.819C319.009 155.163 338.452 174.155 362.347 174.155C386.243 174.155 405.686 155.163 405.686 131.819C405.686 108.476 386.243 89.4833 362.347 89.4833Z" fill="#3D3D3D"/>
<path d="M362.679 127.67C370.295 127.67 376.469 121.638 376.469 114.198C376.469 106.758 370.295 100.727 362.679 100.727C355.063 100.727 348.889 106.758 348.889 114.198C348.889 121.638 355.063 127.67 362.679 127.67Z" fill="#FF4D4F"/>
<path d="M362.68 131.453C349.299 131.453 337.915 131.242 333.673 142.895C337.91 154.548 349.294 162.894 362.68 162.894C376.066 162.894 387.444 154.548 391.686 142.895C387.449 131.242 376.066 131.453 362.68 131.453Z" fill="#FF4D4F"/>
<path d="M452.548 276.003H271.455C271.151 276.003 270.902 275.759 270.902 275.462V246.354C270.902 246.056 271.151 245.812 271.455 245.812H453.234C453.538 245.812 453.787 246.056 453.787 246.354V275.31C453.787 275.77 453.366 276.003 452.548 276.003ZM272.008 274.921H452.548C452.598 274.921 452.642 274.921 452.68 274.921V246.9H272.008V274.926V274.921Z" fill="#3D3D3D"/>
<path d="M313.931 267.446C317.603 267.446 320.579 264.536 320.579 260.946C320.579 257.356 317.603 254.445 313.931 254.445C310.259 254.445 307.282 257.356 307.282 260.946C307.282 264.536 310.259 267.446 313.931 267.446Z" fill="#FF4D4F"/>
<path d="M333.34 267.446C337.012 267.446 339.989 264.536 339.989 260.946C339.989 257.356 337.012 254.445 333.34 254.445C329.668 254.445 326.692 257.356 326.692 260.946C326.692 264.536 329.668 267.446 333.34 267.446Z" fill="#FF4D4F"/>
<path d="M352.75 267.446C356.422 267.446 359.399 264.536 359.399 260.946C359.399 257.356 356.422 254.445 352.75 254.445C349.078 254.445 346.101 257.356 346.101 260.946C346.101 264.536 349.078 267.446 352.75 267.446Z" fill="#FF4D4F"/>
<path d="M371.939 267.446C375.611 267.446 378.588 264.536 378.588 260.946C378.588 257.356 375.611 254.445 371.939 254.445C368.267 254.445 365.29 257.356 365.29 260.946C365.29 264.536 368.267 267.446 371.939 267.446Z" fill="#FF4D4F"/>
<path d="M391.349 267.446C395.021 267.446 397.997 264.536 397.997 260.946C397.997 257.356 395.021 254.445 391.349 254.445C387.677 254.445 384.7 257.356 384.7 260.946C384.7 264.536 387.677 267.446 391.349 267.446Z" fill="#FF4D4F"/>
<path d="M410.758 267.446C414.43 267.446 417.407 264.536 417.407 260.946C417.407 257.356 414.43 254.445 410.758 254.445C407.086 254.445 404.11 257.356 404.11 260.946C404.11 264.536 407.086 267.446 410.758 267.446Z" fill="#FF4D4F"/>
<path d="M452.548 234.128H271.455C271.151 234.128 270.902 233.884 270.902 233.587V204.479C270.902 204.181 271.151 203.938 271.455 203.938H453.234C453.538 203.938 453.787 204.181 453.787 204.479V233.435C453.787 233.895 453.367 234.128 452.548 234.128ZM272.009 233.046H452.548C452.598 233.046 452.642 233.046 452.681 233.046V205.025H272.009V233.051V233.046Z" fill="#3D3D3D"/>
<path d="M323.479 225.56C327.166 225.56 330.155 222.64 330.155 219.038C330.155 215.436 327.166 212.516 323.479 212.516C319.792 212.516 316.802 215.436 316.802 219.038C316.802 222.64 319.792 225.56 323.479 225.56Z" fill="#FF4D4F"/>
<path d="M342.972 225.56C346.659 225.56 349.648 222.64 349.648 219.038C349.648 215.436 346.659 212.516 342.972 212.516C339.284 212.516 336.295 215.436 336.295 219.038C336.295 222.64 339.284 225.56 342.972 225.56Z" fill="#FF4D4F"/>
<path d="M362.459 225.56C366.146 225.56 369.135 222.64 369.135 219.038C369.135 215.436 366.146 212.516 362.459 212.516C358.771 212.516 355.782 215.436 355.782 219.038C355.782 222.64 358.771 225.56 362.459 225.56Z" fill="#FF4D4F"/>
<path d="M381.724 225.56C385.412 225.56 388.401 222.64 388.401 219.038C388.401 215.436 385.412 212.516 381.724 212.516C378.037 212.516 375.048 215.436 375.048 219.038C375.048 222.64 378.037 225.56 381.724 225.56Z" fill="#FF4D4F"/>
<path d="M401.217 225.56C404.904 225.56 407.894 222.64 407.894 219.038C407.894 215.436 404.904 212.516 401.217 212.516C397.53 212.516 394.541 215.436 394.541 219.038C394.541 222.64 397.53 225.56 401.217 225.56Z" fill="#FF4D4F"/>
<path d="M207.7 79.1928C207.7 79.1928 190.398 70.5491 170.745 96.2798C162.083 107.619 139.802 108.187 137.656 123.927C132.982 158.214 166.58 146.886 169.395 151.736C173.295 158.452 203.618 215.97 238.339 179.647C253.943 163.318 233.405 137.864 230.246 130.562C225.047 118.53 238.012 79.4526 207.706 79.1982L207.7 79.1928Z" fill="#3D3D3D"/>
<path d="M192.732 290.445L213.298 301.394L272.915 431.395L291.7 445.993C293.31 447.243 292.402 449.776 290.345 449.776H222.928C218.813 449.776 215.073 447.427 213.364 443.763L139.973 286.18L192.732 290.439V290.445Z" fill="#3D3D3D"/>
<path d="M290.35 450.317H222.933C218.608 450.317 214.658 447.833 212.866 443.99L139.475 286.407C139.393 286.234 139.415 286.028 139.525 285.871C139.636 285.714 139.83 285.622 140.023 285.644L192.782 289.903C192.859 289.909 192.931 289.93 193.003 289.968L213.563 300.918C213.668 300.972 213.751 301.064 213.801 301.172L273.363 431.054L292.043 445.57C292.961 446.285 293.309 447.448 292.922 448.531C292.535 449.619 291.523 450.317 290.35 450.317ZM140.869 286.797L213.873 443.541C215.483 446.999 219.039 449.234 222.933 449.234H290.35C291.202 449.234 291.7 448.688 291.882 448.174C292.065 447.659 292.026 446.929 291.362 446.415L272.578 431.817C272.511 431.763 272.456 431.693 272.417 431.617L212.877 301.784L192.583 290.975L140.88 286.802L140.869 286.797Z" fill="#3D3D3D"/>
<path d="M234.444 436.593C225.589 436.593 217.247 436.441 211.865 436.268C211.561 436.257 211.323 436.009 211.329 435.711C211.34 435.413 211.6 435.153 211.898 435.186C226.004 435.646 260.464 435.933 270.99 433.8C271.289 433.741 271.582 433.925 271.643 434.222C271.704 434.515 271.516 434.802 271.212 434.861C264.629 436.198 248.854 436.593 234.433 436.593H234.444Z" fill="#F4EAE2"/>
<path d="M87.4193 271.789V438.481C87.4193 444.852 92.7074 450.015 99.2234 450.015H173.129C176.066 450.015 177.471 446.481 175.297 444.548L158.404 429.507L150.538 274.668L87.4138 271.789H87.4193Z" fill="#3D3D3D"/>
<path d="M173.134 450.558H99.229C92.4143 450.558 86.8718 445.141 86.8718 438.483V271.791C86.8718 271.645 86.9327 271.499 87.0433 271.402C87.1539 271.299 87.3033 271.25 87.4526 271.25L150.577 274.129C150.859 274.14 151.091 274.362 151.103 274.644L158.957 429.261L175.679 444.15C176.857 445.2 177.233 446.754 176.658 448.204C176.082 449.66 174.733 450.564 173.14 450.564L173.134 450.558ZM87.9726 272.354V438.483C87.9726 444.545 93.0228 449.476 99.2235 449.476H173.129C174.478 449.476 175.297 448.615 175.618 447.809C175.933 447.008 175.922 445.833 174.926 444.946L158.033 429.905C157.923 429.807 157.862 429.672 157.851 429.531L150.013 275.185L87.9671 272.354H87.9726Z" fill="#3D3D3D"/>
<path d="M114.059 434.348C105.734 434.348 96.3692 434.023 89.8089 432.849C89.5102 432.795 89.3111 432.513 89.3664 432.221C89.4217 431.929 89.7093 431.729 90.008 431.788C108.323 435.068 153.63 432.021 156.319 430.348C156.418 430.159 156.628 430.04 156.855 430.056C157.159 430.083 157.386 430.343 157.358 430.641C157.347 430.781 157.281 430.993 157.038 431.177C155.456 432.362 141.594 433.531 129.353 434.034C125.901 434.175 120.27 434.354 114.053 434.354L114.059 434.348Z" fill="#F4EAE2"/>
<path d="M328.528 141.297C323.915 141.297 304.826 146.709 285.09 152.706C282.009 163.396 282.313 173.809 285.499 184.472C285.499 184.472 298.874 180.661 302.619 179.254C305.778 178.069 312.565 173.912 306.381 170.713C314.998 167.038 309.417 162.292 309.417 162.292C313.981 160.987 315.369 156.36 313.455 154C318.627 150 325.492 149.194 330.603 147.424C338.186 144.793 334.463 141.302 328.534 141.302L328.528 141.297Z" fill="#F4EAE2"/>
<path d="M285.5 185.01C285.262 185.01 285.041 184.858 284.969 184.62C281.661 173.552 281.528 163.068 284.559 152.557C284.609 152.378 284.747 152.243 284.93 152.189C309.899 144.601 324.568 140.758 328.529 140.758C332.185 140.758 335.067 142.041 335.382 143.805C335.576 144.893 334.934 146.49 330.785 147.929C329.32 148.438 327.743 148.86 326.067 149.309C322.162 150.354 317.759 151.534 314.208 154.116C314.905 155.274 315.037 156.784 314.556 158.267C313.937 160.167 312.416 161.715 310.408 162.527C311.066 163.301 311.968 164.708 311.708 166.369C311.442 168.064 310.048 169.541 307.559 170.775C308.881 171.668 309.517 172.697 309.445 173.844C309.268 176.723 304.605 179.089 302.824 179.76C299.101 181.156 286.208 184.837 285.66 184.994C285.61 185.01 285.555 185.015 285.505 185.015L285.5 185.01ZM285.544 153.136C282.701 163.182 282.811 173.222 285.876 183.797C288.398 183.072 299.162 179.971 302.42 178.748C304.804 177.849 308.217 175.717 308.339 173.779C308.394 172.854 307.653 171.982 306.126 171.192C305.938 171.094 305.822 170.9 305.833 170.694C305.839 170.488 305.971 170.299 306.165 170.218C308.881 169.059 310.38 167.706 310.612 166.202C310.911 164.302 309.075 162.716 309.058 162.7C308.903 162.57 308.837 162.37 308.881 162.175C308.925 161.98 309.075 161.828 309.268 161.769C311.331 161.179 312.919 159.745 313.505 157.937C313.942 156.595 313.765 155.247 313.024 154.332C312.935 154.219 312.891 154.078 312.908 153.932C312.924 153.791 313.002 153.661 313.112 153.569C316.913 150.635 321.62 149.374 325.774 148.259C327.428 147.816 328.988 147.399 330.415 146.906C333.003 146.008 334.453 144.915 334.287 143.984C334.104 142.95 331.853 141.835 328.529 141.835C324.745 141.835 309.888 145.743 285.544 153.131V153.136Z" fill="#3D3D3D"/>
<path d="M303.228 175.996C303.006 175.996 297.735 175.974 295.849 173.988C295.334 173.446 295.097 172.808 295.146 172.093C295.207 171.292 295.556 170.616 296.197 170.091C296.9 169.512 297.873 169.192 298.836 169.024C297.104 168.294 295.368 167.065 295.511 165.095C295.633 163.45 297.149 162.573 298.863 162.107C297.945 161.837 297.093 161.447 296.502 160.879C295.91 160.31 295.617 159.623 295.633 158.838C295.716 154.119 305.308 153.014 305.717 152.971C306.021 152.944 306.292 153.15 306.331 153.447C306.364 153.745 306.148 154.01 305.844 154.048C303.333 154.324 296.8 155.726 296.745 158.854C296.734 159.336 296.911 159.747 297.281 160.105C298.426 161.203 301.137 161.534 302.846 161.593C303.427 161.582 303.825 161.593 303.892 161.593C304.19 161.604 304.423 161.848 304.423 162.134C304.423 162.427 304.185 162.665 303.892 162.67C303.831 162.67 303.41 162.686 302.785 162.665C300.479 162.719 296.767 163.217 296.623 165.165C296.452 167.476 300.678 168.64 302.321 168.889C302.614 168.932 302.824 169.203 302.785 169.495C302.747 169.788 302.475 169.988 302.182 169.966C302.144 169.966 298.493 169.62 296.922 170.913C296.518 171.249 296.302 171.655 296.264 172.164C296.236 172.57 296.369 172.927 296.667 173.246C297.962 174.61 301.85 174.908 303.239 174.908C303.543 174.908 303.792 175.151 303.792 175.449C303.792 175.747 303.543 175.99 303.239 175.99L303.228 175.996Z" fill="#3D3D3D"/>
<path d="M286.185 151.815C261.681 159.257 236.187 167.603 236.187 167.603C227.387 164.588 193.092 134.376 193.092 134.376L192.987 134.295C188.506 129.981 181.055 126.729 175.502 125.089C164.931 121.966 153.99 123.741 144.924 129.9L106.896 155.739C106.896 155.739 84.8532 172.631 82.4028 204.034C79.3163 243.605 77.9666 284.799 79.6095 327.394C80.9149 327.838 156.95 336.574 225.229 322.594L161.253 190.411L178.091 178.385C178.091 178.385 179.628 176.967 181.846 174.601L211.849 200.906C218.708 206.919 228.498 208.527 236.989 205.03L286.329 184.723C283.143 174.066 283.104 162.494 286.185 151.804V151.815Z" fill="#1890FF"/>
<path d="M166.513 331.184L200.21 351.838L182.361 316.884L21.2473 146.496C16.3907 141.359 8.9012 140.396 4.52586 144.347C0.150516 148.298 0.537715 155.664 5.39982 160.801L166.513 331.184Z" fill="#F4EAE2"/>
<path d="M77.6623 237.759C77.5129 237.759 77.3636 237.699 77.2585 237.586L4.99064 161.167C2.26919 158.293 0.792302 154.602 0.936118 151.046C1.05228 148.237 2.19175 145.715 4.14987 143.95C8.74093 139.805 16.5955 140.784 21.6512 146.132L87.2759 215.535C87.4861 215.757 87.4695 216.098 87.2482 216.298C87.0214 216.499 86.6729 216.488 86.4683 216.266L20.8381 146.862C16.1917 141.953 9.04516 141.001 4.89661 144.741C3.15974 146.31 2.14196 148.562 2.0424 151.084C1.90965 154.353 3.28143 157.763 5.80376 160.431L78.0661 236.849C78.2763 237.071 78.2597 237.412 78.0384 237.613C77.9333 237.71 77.795 237.759 77.6623 237.759Z" fill="#3D3D3D"/>
<path d="M200.211 352.381C200.111 352.381 200.006 352.354 199.917 352.3L166.22 331.646C166.181 331.619 166.143 331.592 166.109 331.554L165.213 330.602C165.003 330.38 165.02 330.039 165.241 329.838C165.462 329.638 165.816 329.649 166.021 329.865L166.867 330.764L198.872 350.379L187.992 328.404C187.859 328.134 187.975 327.814 188.246 327.679C188.523 327.549 188.849 327.663 188.987 327.928L200.708 351.596C200.813 351.813 200.764 352.073 200.581 352.235C200.476 352.327 200.343 352.376 200.211 352.376V352.381Z" fill="#F4EAE2"/>
<path d="M191.88 335.516L200.211 351.84L184.479 342.195L191.88 335.516Z" fill="#3D3D3D"/>
<path d="M201.588 353.314L183.572 342.273L192.046 334.625L201.588 353.314ZM185.387 342.11L198.839 350.354L191.714 336.4L185.387 342.11Z" fill="#F4EAE2"/>
<path d="M19.1232 175.331L34.8489 161.14C36.1101 159.998 36.1875 158.076 35.0204 156.842L34.6166 156.415C33.4495 155.181 31.4803 155.105 30.2192 156.247L14.4934 170.438C13.2322 171.58 13.1548 173.502 14.3219 174.736L14.7257 175.163C15.8928 176.397 17.862 176.473 19.1232 175.331Z" fill="#F4EAE2"/>
<path d="M17.0158 176.676C16.0312 176.676 15.0466 176.291 14.322 175.528L13.9182 175.1C13.2544 174.397 12.9115 173.482 12.9502 172.53C12.9889 171.577 13.4038 170.689 14.1284 170.04L29.8542 155.848C31.3366 154.506 33.6598 154.598 35.0316 156.049L35.4354 156.476C36.0992 157.18 36.4421 158.095 36.4034 159.047C36.3647 160.005 35.9498 160.887 35.2307 161.537L19.5049 175.728C18.8024 176.362 17.9119 176.676 17.0213 176.676H17.0158ZM32.3323 155.973C31.7128 155.973 31.0877 156.189 30.5954 156.633L14.8696 170.825C14.3663 171.279 14.0786 171.896 14.051 172.562C14.0233 173.228 14.2667 173.866 14.7258 174.354L15.1296 174.781C16.0865 175.793 17.7072 175.858 18.7471 174.922L34.4729 160.73C34.9763 160.276 35.2639 159.659 35.2916 158.993C35.3192 158.327 35.0758 157.689 34.6167 157.202L34.2129 156.774C33.7096 156.244 33.0237 155.973 32.3323 155.973Z" fill="#3D3D3D"/>
<path d="M23.8141 180.3L39.5399 166.109C40.801 164.967 40.8785 163.045 39.7113 161.811L39.3075 161.384C38.1404 160.149 36.1712 160.074 34.9101 161.216L19.1843 175.407C17.9231 176.549 17.8457 178.471 19.0128 179.705L19.4166 180.132C20.5837 181.366 22.5529 181.442 23.8141 180.3Z" fill="#F4EAE2"/>
<path d="M21.7067 181.642C20.7166 181.642 19.7375 181.258 19.0129 180.495L18.6091 180.067C17.9454 179.364 17.6024 178.449 17.6411 177.496C17.6799 176.544 18.0947 175.656 18.8193 175.006L34.5451 160.815C36.0275 159.478 38.3507 159.565 39.7225 161.015L40.1263 161.443C40.7901 162.147 41.133 163.061 41.0943 164.014C41.0556 164.972 40.6407 165.854 39.9161 166.504L24.1903 180.695C23.4878 181.328 22.5917 181.642 21.7067 181.642ZM37.0232 160.94C36.4037 160.94 35.7786 161.162 35.2863 161.6L19.5605 175.791C19.0572 176.246 18.7695 176.863 18.7419 177.529C18.7142 178.194 18.9576 178.833 19.4167 179.32L19.8205 179.748C20.7774 180.76 22.3981 180.825 23.4381 179.889L39.1638 165.697C39.6672 165.242 39.9548 164.625 39.9825 163.96C40.0101 163.294 39.7668 162.655 39.3077 162.168L38.9039 161.741C38.4005 161.21 37.7146 160.94 37.0232 160.94Z" fill="#3D3D3D"/>
<path d="M176.409 322.415C176.144 322.415 175.911 322.231 175.867 321.966C175.602 320.467 176.05 319.065 177.101 318.118C178.152 317.165 179.617 316.835 181.133 317.219C181.432 317.295 181.609 317.587 181.531 317.88C181.454 318.167 181.155 318.345 180.856 318.269C179.717 317.988 178.622 318.221 177.853 318.913C177.084 319.606 176.758 320.656 176.962 321.782C177.012 322.074 176.813 322.356 176.514 322.41C176.481 322.41 176.448 322.415 176.42 322.415H176.409Z" fill="#3D3D3D"/>
<path d="M171.785 326.593C171.519 326.593 171.287 326.409 171.243 326.143C170.977 324.644 171.425 323.242 172.476 322.295C173.527 321.343 174.998 321.018 176.508 321.397C176.807 321.472 176.984 321.765 176.907 322.057C176.829 322.349 176.531 322.522 176.232 322.447C175.092 322.16 173.997 322.398 173.228 323.091C172.459 323.784 172.133 324.834 172.338 325.959C172.388 326.252 172.188 326.533 171.89 326.587C171.857 326.587 171.823 326.593 171.796 326.593H171.785Z" fill="#3D3D3D"/>
<path d="M167.161 330.757C166.895 330.757 166.663 330.573 166.619 330.307C166.353 328.808 166.801 327.406 167.852 326.459C168.903 325.507 170.374 325.182 171.884 325.561C172.183 325.637 172.36 325.929 172.283 326.221C172.205 326.513 171.907 326.687 171.608 326.611C170.468 326.324 169.373 326.562 168.604 327.255C167.835 327.948 167.509 328.998 167.714 330.123C167.764 330.416 167.564 330.697 167.266 330.751C167.233 330.751 167.199 330.757 167.172 330.757H167.161Z" fill="#3D3D3D"/>
<path d="M176.271 322.289C176.122 322.289 175.972 322.23 175.867 322.116L40.3698 178.822C40.1596 178.6 40.1762 178.259 40.3975 178.059C40.6187 177.853 40.9727 177.869 41.1774 178.091L176.675 321.385C176.885 321.607 176.868 321.948 176.647 322.148C176.542 322.246 176.404 322.295 176.271 322.295V322.289Z" fill="#3D3D3D"/>
<path d="M171.624 326.49C171.475 326.49 171.326 326.431 171.22 326.317L35.7231 183.023C35.5129 182.801 35.5295 182.46 35.7508 182.26C35.9775 182.059 36.326 182.07 36.5307 182.292L172.028 325.586C172.238 325.808 172.222 326.149 172 326.349C171.895 326.447 171.757 326.496 171.624 326.496V326.49Z" fill="#3D3D3D"/>
<path d="M167.537 123.634C167.537 123.634 66.5441 117.81 43.9705 134.589C34.8326 141.381 33.5935 154.295 39.5619 165.889C44.6342 175.739 51.2498 192.48 56.6872 203.711C66.2012 197.811 77.3138 194.369 88.5702 193.779C84.1229 182.554 80.1182 168.119 77.9001 161.267C77.9001 161.267 88.7859 160.65 121.443 159.881L167.537 123.634Z" fill="#1890FF"/>
<path d="M102.426 160.924C102.127 160.924 101.884 160.691 101.873 160.399C101.862 160.101 102.105 159.853 102.409 159.842C108.19 159.674 114.59 159.506 121.426 159.344H121.438C121.736 159.344 121.985 159.576 121.991 159.874C121.996 160.172 121.758 160.421 121.449 160.426C114.612 160.589 108.217 160.756 102.437 160.924H102.421H102.426Z" fill="#1890FF"/>
<path d="M88.5702 194.328C88.3489 194.328 88.1387 194.198 88.0557 193.981C87.1375 191.665 86.164 189.024 85.1683 186.139C85.0688 185.857 85.2237 185.549 85.5168 185.451C85.81 185.354 86.1197 185.505 86.2193 185.792C87.2094 188.666 88.1774 191.291 89.0901 193.592C89.2007 193.868 89.0569 194.182 88.7748 194.29C88.7084 194.317 88.6421 194.328 88.5757 194.328H88.5702Z" fill="#1890FF"/>
<path d="M83.1716 231.937C87.1265 226.525 89.6212 218.4 95.6726 226.774C101.729 235.147 102.742 230.844 102.93 229.886C103.046 229.296 95.6836 211.759 88.5647 193.79C71.1297 189.79 66.0685 197.281 56.5544 203.181C62.3624 215.169 67.1194 225.68 68.1372 229.896C68.1372 229.896 71.2127 240.581 76.0803 242.275C76.0803 242.275 76.3514 244.867 79.4711 245.381C82.5908 245.896 79.2719 237.268 83.166 231.937H83.1716Z" fill="#F4EAE2"/>
<path d="M79.731 245.942C79.6204 245.942 79.5043 245.931 79.3826 245.915C76.8602 245.498 75.848 243.766 75.5935 242.668C70.6983 240.595 67.739 230.484 67.6117 230.046C66.6437 226.041 62.3846 215.135 56.3996 202.773C56.2668 202.502 56.3885 202.177 56.6651 202.053C56.9416 201.923 57.268 202.042 57.4008 202.307C63.4245 214.74 67.7113 225.738 68.6848 229.775C68.7069 229.856 71.7326 240.183 76.2739 241.769C76.473 241.84 76.6169 242.018 76.639 242.224C76.65 242.31 76.9211 244.416 79.5706 244.849C79.8527 244.898 79.9468 244.816 79.98 244.789C80.428 244.427 80.4501 242.808 80.4778 241.25C80.522 238.424 80.5829 234.56 82.7235 231.626C83.4481 230.636 84.123 229.548 84.7812 228.487C86.6287 225.516 88.3766 222.712 90.816 222.631C92.4865 222.566 94.2178 223.827 96.1261 226.463C97.6971 228.639 99.0412 230.105 100.114 230.825C100.369 230.993 100.43 231.329 100.258 231.578C100.087 231.827 99.7437 231.886 99.4892 231.718C98.3055 230.923 96.8673 229.364 95.219 227.085C93.5706 224.807 92.1103 223.686 90.8492 223.713C89.0017 223.778 87.4086 226.338 85.7216 229.05C85.0523 230.122 84.3608 231.231 83.6141 232.254C81.6726 234.912 81.6173 238.435 81.573 241.266C81.5398 243.398 81.5177 244.941 80.6769 245.623C80.4114 245.839 80.0906 245.948 79.7255 245.948L79.731 245.942Z" fill="#3D3D3D"/>
<path d="M76.2132 240.781C75.9256 240.781 75.6877 240.565 75.6601 240.283C75.3171 236.072 76.4842 231.845 78.9457 228.381C79.1227 228.138 79.4657 228.073 79.7146 228.246C79.9635 228.419 80.0299 228.755 79.8529 228.998C77.5684 232.213 76.44 236.294 76.7608 240.197C76.7829 240.494 76.5561 240.754 76.2519 240.781C76.2353 240.781 76.2243 240.781 76.2077 240.781H76.2132Z" fill="#3D3D3D"/>
<path d="M72.2417 238.482C71.9541 238.482 71.7107 238.265 71.6886 237.984C71.4397 234.866 71.9596 231.695 73.1931 228.81C73.3093 228.534 73.6357 228.404 73.9178 228.518C74.1999 228.631 74.3326 228.951 74.2165 229.227C73.0493 231.955 72.557 234.953 72.7949 237.903C72.817 238.201 72.5902 238.46 72.286 238.487C72.2694 238.487 72.2583 238.487 72.2417 238.487V238.482Z" fill="#3D3D3D"/>
<path d="M173.472 124.519L192.373 108.883L206.362 116.796L189.048 131.983L176.26 151.733L173.472 124.519Z" fill="#F4EAE2"/>
<path d="M204.409 120.857C208.176 121.155 211.262 119.19 212.861 117.253C217.092 112.116 219.128 105.226 217.767 98.7694C213.292 99.9871 208.308 99.2835 204.37 96.875C203.856 98.4013 203.325 99.9547 202.34 101.237C201.35 102.52 199.807 103.505 198.169 103.419C196.681 103.337 195.343 102.417 193.86 102.347C191.93 102.26 190.138 103.781 189.701 105.621C189.258 107.456 190.033 109.453 191.421 110.769C192.107 111.418 192.931 111.911 193.816 112.263C194.452 112.517 195.968 112.522 196.432 112.901C197.019 113.378 197.915 120.343 204.42 120.857H204.409Z" fill="#F4EAE2"/>
<path d="M205.178 121.432C204.912 121.432 204.641 121.421 204.365 121.4C198.828 120.961 197.085 116.133 196.339 114.071C196.228 113.763 196.101 113.422 196.034 113.297C195.841 113.184 195.216 113.092 194.84 113.032C194.369 112.962 193.921 112.891 193.595 112.761C192.594 112.361 191.731 111.82 191.028 111.154C189.424 109.644 188.689 107.419 189.153 105.492C189.673 103.328 191.748 101.704 193.877 101.801C194.712 101.839 195.476 102.11 196.211 102.37C196.892 102.608 197.539 102.835 198.192 102.873C199.74 102.949 201.118 101.909 201.892 100.908C202.838 99.685 203.347 98.1695 203.839 96.7027C203.894 96.5457 204.016 96.4213 204.177 96.3617C204.337 96.3022 204.514 96.3238 204.658 96.4104C208.458 98.7324 213.298 99.4143 217.612 98.2398C217.762 98.1965 217.917 98.2236 218.049 98.2994C218.182 98.3751 218.271 98.505 218.304 98.6512C219.653 105.054 217.778 112.128 213.287 117.584C211.716 119.489 208.806 121.421 205.172 121.421L205.178 121.432ZM193.706 102.889C192.157 102.889 190.619 104.145 190.232 105.747C189.856 107.306 190.47 109.124 191.797 110.38C192.4 110.948 193.147 111.414 194.015 111.766C194.22 111.847 194.624 111.906 195.011 111.966C195.719 112.074 196.388 112.171 196.776 112.491C197.013 112.686 197.135 113.027 197.384 113.714C198.114 115.733 199.63 119.938 204.453 120.323C208.032 120.609 210.919 118.748 212.429 116.918C216.584 111.874 218.398 105.384 217.336 99.4468C213.104 100.437 208.463 99.7932 204.68 97.6932C204.226 98.9976 203.684 100.394 202.783 101.568C201.56 103.154 199.829 104.053 198.136 103.961C197.318 103.917 196.565 103.652 195.841 103.398C195.149 103.154 194.497 102.922 193.833 102.895C193.789 102.895 193.75 102.895 193.706 102.895V102.889Z" fill="#3D3D3D"/>
<path d="M197.567 109.925C197.39 109.925 197.218 109.844 197.108 109.687C196.317 108.551 194.945 107.831 193.54 107.809C193.236 107.809 192.992 107.56 192.998 107.257C192.998 106.959 193.28 106.721 193.562 106.727C195.327 106.754 197.036 107.652 198.026 109.076C198.197 109.325 198.131 109.66 197.882 109.828C197.788 109.893 197.677 109.92 197.572 109.92L197.567 109.925Z" fill="#3D3D3D"/>
<path d="M648.592 250.891H578.808V319.093H648.592V250.891Z" fill="#F4EAE2"/>
<path d="M648.592 319.628H578.808C578.503 319.628 578.254 319.385 578.254 319.087V250.885C578.254 250.587 578.503 250.344 578.808 250.344H644.598C644.902 250.344 645.151 250.587 645.151 250.885C645.151 251.183 644.902 251.426 644.598 251.426H579.361V318.546H648.039V269.211C648.039 268.914 648.288 268.67 648.592 268.67C648.896 268.67 649.145 268.914 649.145 269.211V319.087C649.145 319.385 648.896 319.628 648.592 319.628Z" fill="#3D3D3D"/>
<path d="M613.7 307.927C613.523 307.927 613.357 307.84 613.252 307.699L585.91 270.289C585.733 270.045 585.788 269.709 586.037 269.531C586.286 269.358 586.629 269.412 586.811 269.655L613.705 306.449L660.905 242.171C661.082 241.927 661.43 241.873 661.679 242.046C661.928 242.22 661.983 242.561 661.806 242.804L614.153 307.694C614.048 307.835 613.882 307.921 613.705 307.921L613.7 307.927Z" fill="#3D3D3D"/>
<path d="M574.521 233.477L565.234 228.508C518.609 203.562 508.172 157.508 503.713 105.841L507.165 105.316C538.644 103.173 554.049 98.0199 574.521 75.5312C598.953 97.1593 622.285 105.056 645.163 105.056L645.389 105.099C641.163 157.178 630.537 203.66 583.509 228.692L574.521 233.477Z" fill="#FF4D4F"/>
<path d="M574.554 221.091L566.888 216.988C528.378 196.389 519.755 158.345 516.076 115.673L518.925 115.24C544.922 113.47 557.65 109.216 574.56 90.6406C594.738 108.507 614.01 115.029 632.905 115.029L633.093 115.067C629.603 158.08 620.824 196.47 581.983 217.145L574.56 221.096L574.554 221.091Z" fill="#F4EAE2"/>
<path d="M597.183 148.086H551.925C550.227 148.086 548.844 149.428 548.844 151.09V164.329C548.844 175.63 558.247 184.793 569.847 184.793H579.261C590.861 184.793 600.264 175.63 600.264 164.329V151.09C600.264 149.434 598.887 148.086 597.183 148.086Z" fill="#F4EAE2"/>
<path d="M579.261 185.336H569.847C557.96 185.336 548.291 175.913 548.291 164.331V151.092C548.291 149.138 549.923 147.547 551.925 147.547H597.183C599.185 147.547 600.817 149.138 600.817 151.092V164.331C600.817 175.913 591.148 185.336 579.261 185.336ZM551.925 148.629C550.531 148.629 549.397 149.733 549.397 151.092V164.331C549.397 175.318 558.568 184.254 569.847 184.254H579.261C590.534 184.254 599.711 175.318 599.711 164.331V151.092C599.711 149.733 598.577 148.629 597.183 148.629H551.925Z" fill="#3D3D3D"/>
<path d="M592.902 144.576C591.856 144.576 591.01 143.754 591.01 142.736V136.517C591.01 129.237 584.931 123.311 577.458 123.311H571.645C564.172 123.311 558.093 129.237 558.093 136.517V142.736C558.093 143.754 557.246 144.576 556.201 144.576C555.155 144.576 554.309 143.754 554.309 142.736V136.517C554.309 127.202 562.086 119.625 571.639 119.625H577.453C587.011 119.625 594.782 127.202 594.782 136.517V142.736C594.782 143.754 593.936 144.576 592.891 144.576H592.902Z" fill="#F4EAE2"/>
<path d="M592.902 145.12C591.552 145.12 590.457 144.053 590.457 142.738V136.519C590.457 129.537 584.627 123.854 577.458 123.854H571.644C564.476 123.854 558.646 129.537 558.646 136.519V142.738C558.646 144.053 557.55 145.12 556.201 145.12C554.851 145.12 553.756 144.053 553.756 142.738V136.519C553.756 126.907 561.776 119.086 571.639 119.086H577.452C587.315 119.086 595.335 126.907 595.335 136.519V142.738C595.335 144.053 594.24 145.12 592.891 145.12H592.902ZM571.65 122.772H577.463C585.241 122.772 591.569 128.937 591.569 136.519V142.738C591.569 143.453 592.166 144.037 592.907 144.037C593.648 144.037 594.246 143.453 594.246 142.738V136.519C594.246 127.502 586.718 120.168 577.469 120.168H571.656C562.401 120.168 554.879 127.502 554.879 136.519V142.738C554.879 143.453 555.476 144.037 556.217 144.037C556.959 144.037 557.556 143.453 557.556 142.738V136.519C557.556 128.937 563.884 122.772 571.661 122.772H571.65Z" fill="#3D3D3D"/>
<path d="M579.195 160.402C579.195 157.907 577.121 155.883 574.554 155.883C571.988 155.883 569.913 157.907 569.913 160.402C569.913 162.113 570.887 163.601 572.325 164.37V173.084C572.325 174.28 573.321 175.254 574.549 175.254C575.777 175.254 576.772 174.285 576.772 173.084V164.37C578.21 163.601 579.184 162.113 579.184 160.402H579.195Z" fill="#3D3D3D"/>
<path d="M493.552 326.382C493.043 323.449 492.673 320.575 492.047 317.668C487.246 295.18 473.18 294.882 473.318 277.124C473.34 274.396 473.445 261.26 483.822 255.236C485.493 254.267 489.813 251.696 494.498 252.887C500.129 254.316 502.767 260.264 505.815 267.419C506.838 269.822 509.682 276.902 511.446 291.905C512.281 299.001 512.53 304.938 512.597 309.089L512.652 313.041C512.652 313.041 500.992 328.747 501.484 339.605C497.208 333.592 494.033 329.711 494.033 329.711L493.547 326.388L493.552 326.382Z" fill="#F4EAE2"/>
<path d="M493.552 326.925C493.286 326.925 493.054 326.741 493.01 326.476C492.833 325.464 492.678 324.462 492.517 323.467C492.224 321.605 491.915 319.678 491.511 317.784C489.188 306.894 484.652 301.254 480.653 296.28C476.382 290.965 472.698 286.381 472.77 277.125C472.853 266.701 476.675 258.761 483.545 254.777L483.623 254.734C485.316 253.754 489.802 251.14 494.641 252.369C500.654 253.895 503.414 260.368 506.329 267.215C508.874 273.18 510.782 281.472 511.999 291.847C512.674 297.568 513.061 303.37 513.15 309.086C513.15 309.383 512.912 309.632 512.607 309.638C512.303 309.638 512.049 309.405 512.043 309.107C511.949 303.424 511.568 297.666 510.898 291.977C509.687 281.699 507.806 273.51 505.306 267.637C502.496 261.04 499.841 254.81 494.359 253.419C489.967 252.304 485.913 254.658 484.182 255.665L484.104 255.714C477.583 259.497 473.954 267.107 473.871 277.142C473.799 286.013 477.378 290.467 481.515 295.62C485.587 300.691 490.205 306.434 492.584 317.572C492.993 319.499 493.303 321.437 493.602 323.315C493.762 324.311 493.917 325.307 494.094 326.314C494.144 326.606 493.945 326.887 493.64 326.936C493.607 326.936 493.579 326.941 493.546 326.941L493.552 326.925Z" fill="#3D3D3D"/>
<path d="M502.916 325.628C502.889 325.628 502.856 325.628 502.822 325.623C502.524 325.574 502.319 325.293 502.369 325.001L502.551 323.934C503.16 320.433 503.785 316.806 503.746 312.384C503.691 305.954 501.965 300.52 500.577 296.152C500.411 295.622 500.245 295.108 500.09 294.615C499.161 291.611 498.403 289.717 497.451 287.319C496.777 285.62 496.008 283.698 495.023 280.981C492.882 275.093 490.996 268.998 489.409 262.866C489.331 262.574 489.514 262.281 489.807 262.211C490.106 262.141 490.404 262.314 490.476 262.601C492.053 268.7 493.933 274.762 496.063 280.619C497.042 283.319 497.805 285.235 498.48 286.93C499.443 289.349 500.206 291.265 501.146 294.307C501.301 294.799 501.462 295.313 501.628 295.838C503.033 300.271 504.786 305.792 504.847 312.379C504.886 316.898 504.249 320.573 503.635 324.118L503.453 325.179C503.409 325.444 503.171 325.628 502.905 325.628H502.916Z" fill="#3D3D3D"/>
<path d="M495.549 281.331C495.471 281.331 495.394 281.315 495.322 281.282C495.045 281.158 494.918 280.839 495.045 280.568L497.496 275.28C497.623 275.009 497.949 274.885 498.226 275.009C498.502 275.134 498.63 275.453 498.502 275.724L496.052 281.012C495.958 281.212 495.759 281.331 495.549 281.331Z" fill="#3D3D3D"/>
<path d="M499.918 292.83C499.858 292.83 499.797 292.82 499.736 292.798C489.315 289.258 489.32 289.237 489.398 288.657C489.436 288.36 489.713 288.154 490.017 288.192C490.122 288.208 490.222 288.246 490.299 288.311C490.974 288.641 496.622 290.595 500.101 291.78C500.389 291.878 500.543 292.186 500.444 292.468C500.366 292.69 500.151 292.83 499.924 292.83H499.918Z" fill="#3D3D3D"/>
<path d="M503.58 305.768C503.47 305.768 503.353 305.735 503.259 305.665C503.011 305.492 502.955 305.151 503.132 304.907L506.479 300.366C506.656 300.123 507.004 300.069 507.253 300.242C507.502 300.415 507.557 300.756 507.38 301L504.034 305.541C503.923 305.687 503.757 305.768 503.586 305.768H503.58Z" fill="#3D3D3D"/>
<path d="M503.492 322.264C503.348 322.264 503.204 322.21 503.094 322.102L497.076 316.051C496.86 315.834 496.865 315.493 497.087 315.288C497.308 315.077 497.656 315.082 497.867 315.299L503.885 321.35C504.101 321.566 504.095 321.907 503.874 322.113C503.769 322.216 503.625 322.264 503.487 322.264H503.492Z" fill="#3D3D3D"/>
<path d="M513.382 358.963C513.863 355.467 514.704 351.402 516.524 347.186C527.227 322.348 560.393 318.43 560.996 300.471C561.052 298.891 561.124 294.653 557.838 292.114C553.07 288.429 543.567 290.123 538.412 291.893C538.412 291.893 536.36 292.596 534.645 293.489C528.378 296.748 506.014 313.418 501.34 336.193L500.798 338.716C500.798 338.716 508.774 352.003 510.661 360.847C510.799 361.372 511.507 361.572 511.507 361.572H513.2L513.377 358.963H513.382Z" fill="#F4EAE2"/>
<path d="M513.382 359.503C513.382 359.503 513.332 359.503 513.31 359.503C513.006 359.465 512.796 359.189 512.834 358.897C513.459 354.351 514.466 350.567 516.015 346.979C521.452 334.357 532.559 327.115 542.361 320.723C551.908 314.499 560.156 309.119 560.443 300.454C560.487 299.095 560.626 294.96 557.495 292.541C552.793 288.909 543.075 290.863 538.594 292.405C538.572 292.411 536.559 293.109 534.905 293.97C529.501 296.779 506.639 313.151 501.882 336.3C501.821 336.593 501.528 336.782 501.229 336.722C500.931 336.663 500.737 336.376 500.798 336.084C505.632 312.518 528.887 295.869 534.385 293.006C536.116 292.108 538.141 291.404 538.224 291.377C543.252 289.65 553.109 287.767 558.175 291.686C561.749 294.446 561.594 298.992 561.544 300.486C561.234 309.709 552.766 315.224 542.969 321.616C533.301 327.922 522.337 335.072 517.027 347.39C515.523 350.887 514.533 354.583 513.924 359.032C513.885 359.303 513.648 359.503 513.376 359.503H513.382Z" fill="#3D3D3D"/>
<path d="M506.866 346.534C506.811 346.534 506.761 346.529 506.705 346.513C506.412 346.426 506.246 346.123 506.335 345.836C512.674 325.247 526.519 308.512 545.32 298.71C545.652 298.537 545.962 298.374 546.061 298.309C546.233 298.147 546.504 298.104 546.725 298.228C546.991 298.38 547.079 298.71 546.924 298.97C546.814 299.154 546.703 299.213 545.84 299.663C527.299 309.324 513.647 325.832 507.391 346.144C507.319 346.377 507.098 346.529 506.86 346.529L506.866 346.534Z" fill="#3D3D3D"/>
<path d="M540.325 310.859C540.325 310.859 540.281 310.859 540.259 310.859L530.679 309.777C530.374 309.744 530.159 309.474 530.192 309.176C530.225 308.878 530.502 308.662 530.806 308.7L540.386 309.782C540.69 309.815 540.906 310.085 540.873 310.383C540.84 310.659 540.602 310.865 540.325 310.865V310.859Z" fill="#3D3D3D"/>
<path d="M521.933 318.694C521.651 318.694 521.408 318.483 521.386 318.201L520.528 309.282C520.501 308.984 520.722 308.719 521.026 308.692C521.325 308.654 521.602 308.881 521.629 309.179L522.487 318.098C522.514 318.396 522.293 318.661 521.989 318.688C521.972 318.688 521.956 318.688 521.939 318.688L521.933 318.694Z" fill="#3D3D3D"/>
<path d="M510.583 336.721C510.362 336.721 510.157 336.591 510.069 336.38C509.953 336.104 510.091 335.79 510.373 335.676L515.611 333.608C515.893 333.5 516.22 333.63 516.33 333.906C516.447 334.182 516.308 334.496 516.026 334.61L510.788 336.677C510.721 336.704 510.65 336.715 510.583 336.715V336.721Z" fill="#3D3D3D"/>
<path d="M455.601 313.565C456.337 313.153 459.695 311.394 466.697 312.742C480.952 315.486 492.142 327.599 493.22 328.795C511.347 348.843 514.621 374.606 510.888 375.754C510.041 376.013 506.877 372.771 500.594 366.276C485.117 350.283 485.327 350.434 484.188 349.298C466.199 331.361 449.926 329.315 450.734 320.46C451.005 317.494 453.295 314.858 455.601 313.565Z" fill="#F4EAE2"/>
<path d="M510.777 376.312C509.649 376.312 507.635 374.342 500.195 366.651C491.223 357.379 487.523 353.531 485.775 351.718C484.514 350.408 484.276 350.159 483.795 349.683C475.547 341.462 467.826 336.693 461.619 332.861C454.456 328.439 449.721 325.517 450.186 320.418C450.479 317.192 452.979 314.416 455.325 313.1C456.558 312.408 460.142 310.935 466.802 312.218C481.112 314.973 492.396 327.07 493.635 328.439C509.333 345.802 514.306 367.928 512.459 374.434C512.171 375.457 511.695 376.074 511.054 376.274C510.965 376.301 510.877 376.318 510.777 376.318V376.312ZM455.878 314.037C453.781 315.217 451.547 317.674 451.287 320.515C450.883 324.959 455.148 327.589 462.206 331.946C468.13 335.605 476.244 340.612 484.58 348.925C485.061 349.402 485.299 349.656 486.572 350.977C488.319 352.795 492.02 356.638 500.992 365.909C505.926 371.008 509.837 375.051 510.755 375.224C510.993 375.121 511.225 374.721 511.391 374.142C512.967 368.578 508.548 346.565 492.805 329.154C491.594 327.811 480.542 315.958 466.587 313.274C460.297 312.061 457.001 313.404 455.872 314.037H455.878Z" fill="#3D3D3D"/>
<path d="M505.926 363.335C505.704 363.335 505.494 363.206 505.411 362.989C501.157 352.153 492.202 337.134 473.688 327.11C469.042 324.593 464.003 322.52 458.698 320.945C458.405 320.859 458.239 320.556 458.328 320.269C458.416 319.982 458.726 319.82 459.019 319.906C464.396 321.503 469.512 323.603 474.225 326.157C493.032 336.344 502.125 351.596 506.445 362.594C506.556 362.875 506.412 363.184 506.125 363.292C506.058 363.319 505.992 363.33 505.926 363.33V363.335Z" fill="#3D3D3D"/>
<path d="M470.945 325.632C470.685 325.632 470.453 325.448 470.403 325.188C470.232 324.285 469.385 319.744 469.385 319.213C469.385 318.915 469.634 318.672 469.939 318.672C470.243 318.672 470.492 318.915 470.492 319.213C470.497 319.549 471.012 322.444 471.487 324.994C471.543 325.286 471.344 325.567 471.045 325.621C471.012 325.627 470.979 325.632 470.945 325.632Z" fill="#3D3D3D"/>
<path d="M473.866 332.709C473.567 332.709 473.318 332.476 473.313 332.178C473.307 331.881 473.55 331.632 473.855 331.626L482.379 331.453C482.699 331.453 482.937 331.686 482.943 331.984C482.948 332.281 482.705 332.53 482.401 332.536L473.877 332.709H473.866Z" fill="#3D3D3D"/>
<path d="M492.916 342.127C492.612 342.127 492.363 341.884 492.363 341.586V335.838C492.363 335.54 492.612 335.297 492.916 335.297C493.22 335.297 493.469 335.54 493.469 335.838V341.586C493.469 341.884 493.22 342.127 492.916 342.127Z" fill="#3D3D3D"/>
<path d="M499.72 351.123C499.675 351.123 499.631 351.123 499.587 351.107L494.293 349.808C493.995 349.737 493.818 349.44 493.89 349.153C493.961 348.861 494.266 348.687 494.559 348.758L499.852 350.057C500.151 350.127 500.328 350.425 500.256 350.712C500.195 350.955 499.969 351.123 499.72 351.123Z" fill="#3D3D3D"/>
<path d="M528.787 361.562H484.984V398.324H528.787V361.562Z" fill="#3D3D3D"/>
<path d="M623.548 111.151L615.24 104.836L537.347 202.953L545.655 209.269L623.548 111.151Z" fill="#FF4D4F"/>
</svg>
