<svg width="743" height="780" viewBox="0 0 743 780" fill="none" xmlns="http://www.w3.org/2000/svg">
<path d="M538.219 571.047H555.249C563.791 571.047 570.714 577.794 570.714 586.119C570.714 594.444 563.791 601.191 555.249 601.191H263.842C255.299 601.191 248.376 594.444 248.376 586.119C248.376 577.794 255.299 571.047 263.842 571.047H538.219Z" fill="#F6EBE2"/>
<path d="M526.082 510.773H292.996V571.075H526.082V510.773Z" fill="#F6EBE2"/>
<path d="M526.088 571.742H293.002C292.626 571.742 292.319 571.443 292.319 571.077V510.775C292.319 510.409 292.626 510.109 293.002 510.109C293.378 510.109 293.686 510.409 293.686 510.775V570.411H525.405V510.775C525.405 510.409 525.713 510.109 526.088 510.109C526.464 510.109 526.772 510.409 526.772 510.775V571.077C526.772 571.443 526.464 571.742 526.088 571.742Z" fill="#3D3D3D"/>
<path d="M555.242 601.858H263.835C254.93 601.858 247.693 594.798 247.693 586.12C247.693 577.443 254.937 570.383 263.835 570.383H279.505C279.881 570.383 280.188 570.682 280.188 571.048C280.188 571.414 279.881 571.714 279.505 571.714H263.835C255.689 571.714 249.06 578.175 249.06 586.12C249.06 594.066 255.689 600.527 263.835 600.527H555.242C563.388 600.527 570.017 594.066 570.017 586.12C570.017 578.175 563.388 571.714 555.242 571.714H538.212C537.836 571.714 537.528 571.414 537.528 571.048C537.528 570.682 537.836 570.383 538.212 570.383H555.242C564.147 570.383 571.384 577.443 571.384 586.12C571.384 594.798 564.14 601.858 555.242 601.858Z" fill="#3D3D3D"/>
<path d="M517.403 525.612H301.681C301.306 525.612 300.998 525.313 300.998 524.947C300.998 524.581 301.306 524.281 301.681 524.281H517.403C517.778 524.281 518.086 524.581 518.086 524.947C518.086 525.313 517.778 525.612 517.403 525.612Z" fill="#3D3D3D"/>
<path d="M688.6 478.697C688.6 496.411 673.839 510.771 655.647 510.751L115.148 510.192C104.173 510.192 95.2749 501.515 95.2749 490.814V133.135C95.2749 122.435 104.173 113.758 115.148 113.758H668.72C679.695 113.758 688.593 122.435 688.593 133.135V478.69L688.6 478.697Z" fill="#F6EBE2"/>
<path d="M688.593 144.448H95.2679C94.892 144.448 94.5845 144.149 94.5845 143.783C94.5845 143.417 94.892 143.117 95.2679 143.117H688.593C688.969 143.117 689.276 143.417 689.276 143.783C689.276 144.149 688.969 144.448 688.593 144.448Z" fill="#3D3D3D"/>
<path d="M113.453 136.062C110.056 136.062 107.289 133.367 107.289 130.047C107.289 126.726 110.056 124.031 113.453 124.031C116.849 124.031 119.617 126.726 119.617 130.047C119.617 133.367 116.849 136.062 113.453 136.062ZM113.453 125.362C110.808 125.362 108.655 127.465 108.655 130.047C108.655 132.629 110.808 134.731 113.453 134.731C116.098 134.731 118.25 132.629 118.25 130.047C118.25 127.465 116.098 125.362 113.453 125.362Z" fill="#3D3D3D"/>
<path d="M129.451 136.062C126.055 136.062 123.287 133.367 123.287 130.047C123.287 126.726 126.055 124.031 129.451 124.031C132.848 124.031 135.616 126.726 135.616 130.047C135.616 133.367 132.848 136.062 129.451 136.062ZM129.451 125.362C126.807 125.362 124.654 127.465 124.654 130.047C124.654 132.629 126.807 134.731 129.451 134.731C132.096 134.731 134.249 132.629 134.249 130.047C134.249 127.465 132.096 125.362 129.451 125.362Z" fill="#3D3D3D"/>
<path d="M145.449 136.062C142.053 136.062 139.285 133.367 139.285 130.047C139.285 126.726 142.053 124.031 145.449 124.031C148.846 124.031 151.614 126.726 151.614 130.047C151.614 133.367 148.846 136.062 145.449 136.062ZM145.449 125.362C142.805 125.362 140.652 127.465 140.652 130.047C140.652 132.629 142.805 134.731 145.449 134.731C148.094 134.731 150.247 132.629 150.247 130.047C150.247 127.465 148.094 125.362 145.449 125.362Z" fill="#3D3D3D"/>
<path d="M641.617 511.444L115.148 510.852C103.811 510.852 94.5918 501.862 94.5918 490.809V133.137C94.5918 122.084 103.818 113.094 115.148 113.094H668.72C680.058 113.094 689.277 122.084 689.277 133.137V316.085C689.277 316.451 688.969 316.751 688.594 316.751C688.218 316.751 687.91 316.451 687.91 316.085V133.137C687.91 122.816 679.299 114.425 668.72 114.425H115.148C104.563 114.425 95.9586 122.822 95.9586 133.137V490.809C95.9586 501.13 104.569 509.521 115.148 509.521L641.617 510.113C641.993 510.113 642.3 510.413 642.3 510.779C642.3 511.145 641.993 511.444 641.617 511.444Z" fill="#3D3D3D"/>
<path d="M538.929 435.987H254.916C254.54 435.987 254.233 435.688 254.233 435.322C254.233 434.956 254.54 434.656 254.916 434.656H538.929C539.305 434.656 539.613 434.956 539.613 435.322C539.613 435.688 539.305 435.987 538.929 435.987Z" fill="#3D3D3D"/>
<path d="M208.807 665.257H87.1692C87.1692 665.257 45.3795 650.105 73.9181 607.983C75.5173 605.627 79.2828 606.905 78.9958 609.713C77.6427 623.108 78.1962 645.361 94.8643 653.412V648.967C94.8643 638.733 98.0216 628.738 103.926 620.28L144.062 562.773C144.062 562.773 111.724 551.547 166.498 516.239C166.498 516.239 164.96 498.086 187.478 505.972C187.478 505.972 225.359 482.761 232.582 484.95C239.806 487.14 250.405 500.016 216.933 540.82L210.577 554.322C209.47 556.671 208.896 559.226 208.896 561.808V645.46C208.896 649.067 211.199 652.221 214.616 653.599C217.404 654.723 219.666 656.853 217.124 660.845C215.354 663.627 212.163 665.244 208.8 665.244L208.807 665.257Z" fill="#F6EBE2"/>
<path d="M208.807 665.925H87.1693C87.0873 665.925 87.0053 665.912 86.9302 665.885C86.7593 665.825 69.8452 659.537 64.7334 644.291C61.1661 633.658 64.0637 621.321 73.3442 607.619C74.2395 606.295 75.866 605.763 77.3968 606.288C78.9139 606.814 79.8297 608.218 79.6725 609.782C78.4219 622.186 78.6952 643.959 94.181 652.317V648.976C94.181 638.569 97.3588 628.521 103.359 619.917L143.023 563.088C140.809 562.117 134.809 558.909 133.989 552.348C132.772 542.606 143.474 530.342 165.794 515.902C165.746 514.338 165.883 508.682 170.175 505.488C173.92 502.693 179.715 502.613 187.396 505.248C192.433 502.174 225.619 482.164 232.788 484.327C234.421 484.82 238.391 486.536 240.045 491.793C242.321 499.013 240.257 513.447 217.514 541.189L211.192 554.617C210.119 556.893 209.573 559.322 209.573 561.831V645.483C209.573 648.757 211.65 651.711 214.869 653.009C216.94 653.84 218.231 654.998 218.703 656.429C219.167 657.826 218.826 659.443 217.691 661.22C215.839 664.128 212.429 665.932 208.787 665.932L208.807 665.925ZM87.2992 664.594H208.807C211.978 664.594 214.944 663.03 216.55 660.508C217.459 659.077 217.753 657.84 217.418 656.828C217.069 655.784 216.044 654.905 214.363 654.226C210.632 652.723 208.219 649.289 208.219 645.476V561.824C208.219 559.122 208.807 556.514 209.962 554.058L216.318 540.557C216.338 540.51 216.372 540.463 216.407 540.417C238.822 513.094 240.927 499.1 238.747 492.179C237.284 487.535 233.813 486.024 232.384 485.598C226.705 483.861 198.31 500.138 187.847 506.546C187.67 506.653 187.451 506.679 187.253 506.606C179.886 504.024 174.425 504.004 171.022 506.539C166.71 509.747 167.181 516.135 167.188 516.195C167.209 516.434 167.093 516.667 166.881 516.807C139.381 534.534 134.556 545.833 135.356 552.195C136.244 559.289 144.219 562.137 144.301 562.163C144.5 562.23 144.657 562.39 144.718 562.582C144.787 562.775 144.752 562.995 144.636 563.161L104.5 620.668C98.6504 629.053 95.5546 638.842 95.5546 648.983V653.428C95.5546 653.661 95.4316 653.874 95.2334 653.994C95.0284 654.113 94.7824 654.127 94.5705 654.027C77.3763 645.722 77.0141 622.665 78.3262 609.662C78.4424 608.498 77.6633 607.799 76.9594 607.553C76.2487 607.307 75.1757 607.373 74.4992 608.365C65.4578 621.707 62.6149 633.658 66.0456 643.892C70.7405 657.893 85.8641 664.048 87.3129 664.607L87.2992 664.594Z" fill="#3D3D3D"/>
<path d="M208.015 664.928C207.96 664.928 207.905 664.928 207.851 664.908C207.482 664.821 207.256 664.462 207.352 664.103C207.967 661.647 205.889 659.139 203.613 658.227C201.099 657.222 198.18 657.482 195.406 657.908L194.36 658.074C191.811 658.487 189.173 658.912 186.556 658.48C186.283 658.433 186.064 658.234 186.002 657.974C185.941 657.715 186.043 657.442 186.269 657.282C194.798 651.32 200.996 642.17 203.279 632.182C204.201 628.129 204.331 624.649 203.661 621.541C202.869 617.855 200.839 614.687 198.092 612.851C192.754 609.284 185.585 610.735 180.508 612.578C171.555 615.832 163.669 621.395 157.689 628.655C157.457 628.941 157.026 628.988 156.726 628.761C156.432 628.535 156.384 628.116 156.616 627.823C162.746 620.37 170.845 614.668 180.023 611.327C185.401 609.371 193.035 607.86 198.857 611.753C201.891 613.782 204.126 617.249 204.994 621.269C205.705 624.563 205.575 628.229 204.611 632.468C202.39 642.21 196.554 651.173 188.49 657.322C190.362 657.369 192.276 657.063 194.135 656.763L195.187 656.597C198.16 656.138 201.304 655.865 204.126 656.996C206.989 658.14 209.47 661.228 208.671 664.416C208.595 664.722 208.315 664.921 208.008 664.921L208.015 664.928Z" fill="#3D3D3D"/>
<path d="M191.162 610.111C191.073 610.111 190.977 610.091 190.895 610.057C190.547 609.911 190.39 609.518 190.54 609.186L198.515 591.112C198.665 590.773 199.069 590.62 199.41 590.766C199.759 590.913 199.916 591.305 199.766 591.638L191.79 609.711C191.681 609.964 191.428 610.117 191.162 610.117V610.111Z" fill="#3D3D3D"/>
<path d="M237.735 500.191C237.735 500.191 237.674 500.191 237.646 500.191C234.585 499.792 231.694 498.228 229.719 495.919C227.744 493.603 226.691 490.556 226.842 487.548C226.862 487.182 227.184 486.889 227.559 486.916C227.935 486.936 228.229 487.248 228.209 487.614C228.079 490.296 229.008 493.011 230.771 495.074C232.534 497.137 235.104 498.521 237.831 498.88C238.207 498.927 238.466 499.266 238.419 499.626C238.371 499.958 238.077 500.204 237.742 500.204L237.735 500.191Z" fill="#3D3D3D"/>
<path d="M183.016 578.595C182.08 578.595 181.157 578.522 180.248 578.369C174.268 577.364 169.396 572.912 168.398 567.549C167.551 562.997 169.478 558.393 171.255 554.892C175.246 547.007 180.542 539.894 186.986 533.738C187.26 533.479 187.69 533.485 187.95 533.745C188.216 534.004 188.21 534.43 187.943 534.683C181.608 540.725 176.407 547.726 172.478 555.471C170.797 558.792 168.965 563.137 169.744 567.303C170.626 572.054 175.143 576.147 180.48 577.045C185.36 577.863 190.854 576.233 195.173 572.68C198.884 569.625 201.809 565.26 203.873 559.69C205.725 554.693 206.675 549.363 207.591 544.206C207.652 543.846 208.008 543.6 208.383 543.667C208.753 543.726 209.005 544.072 208.937 544.438C208.008 549.655 207.044 555.046 205.158 560.149C203.012 565.939 199.95 570.504 196.055 573.704C192.228 576.852 187.519 578.589 183.016 578.589V578.595Z" fill="#3D3D3D"/>
<path d="M145.04 562.216C144.896 562.216 144.759 562.176 144.636 562.083C144.336 561.863 144.267 561.451 144.493 561.151L160.45 540.137C160.676 539.844 161.099 539.778 161.407 539.997C161.708 540.217 161.776 540.629 161.55 540.929L145.593 561.943C145.456 562.116 145.251 562.216 145.046 562.216H145.04Z" fill="#3D3D3D"/>
<path d="M167.086 536.605C167.086 536.605 167.045 536.605 167.024 536.605C163.983 536.339 161.222 534.402 159.992 531.674C158.762 528.946 159.165 525.658 161.024 523.29C162.616 521.267 165.152 520.062 167.742 520.036L166.464 517.8C166.279 517.48 166.402 517.074 166.731 516.895C167.059 516.722 167.475 516.828 167.66 517.154L169.553 520.461C169.683 520.681 169.669 520.954 169.519 521.167C169.368 521.38 169.116 521.48 168.856 521.446C166.355 521.08 163.648 522.145 162.118 524.108C160.58 526.064 160.231 528.893 161.25 531.148C162.268 533.404 164.639 535.068 167.154 535.287C167.53 535.321 167.81 535.647 167.776 536.013C167.742 536.359 167.448 536.618 167.093 536.618L167.086 536.605Z" fill="#3D3D3D"/>
<path d="M198.324 531.379C198.324 531.379 198.276 531.379 198.255 531.379C197.88 531.346 197.606 531.02 197.64 530.654C198.522 522.003 194.927 513.06 188.244 507.31C187.963 507.064 187.936 506.645 188.182 506.372C188.435 506.099 188.866 506.072 189.146 506.312C196.151 512.341 199.923 521.724 198.993 530.787C198.959 531.133 198.659 531.386 198.317 531.386L198.324 531.379Z" fill="#3D3D3D"/>
<path d="M191.606 571.901C191.237 571.901 190.93 571.615 190.923 571.249C190.684 560.322 195.399 549.303 203.531 541.783C203.805 541.53 204.235 541.544 204.495 541.81C204.755 542.076 204.741 542.495 204.468 542.748C196.609 550.021 192.057 560.662 192.283 571.222C192.29 571.588 191.989 571.894 191.613 571.901H191.599H191.606Z" fill="#3D3D3D"/>
<path d="M374.175 139.03L236.587 371.234C227.17 387.124 238.952 406.988 257.793 406.988H532.97C551.811 406.988 563.593 387.124 554.175 371.234L416.594 139.03C407.17 123.126 383.6 123.126 374.182 139.03H374.175Z" fill="#FF4D4F"/>
<path d="M385.001 158.574L259.385 370.575C254.772 378.361 260.54 388.083 269.773 388.083H521.01C530.236 388.083 536.011 378.354 531.398 370.575L405.783 158.574C401.17 150.788 389.627 150.788 385.007 158.574H385.001Z" fill="#F6EBE2"/>
<path d="M361.758 293.022H368.914V298.239H361.758V309.911H355.17V298.239H331.682V294.473L354.781 259.617H361.758V293.022ZM339.117 293.022H355.164V268.361L354.385 269.745L339.117 293.029V293.022Z" fill="#3D3D3D"/>
<path d="M407.177 288.461C407.177 295.947 405.865 301.503 403.248 305.143C400.623 308.783 396.53 310.6 390.953 310.6C385.377 310.6 381.372 308.823 378.727 305.263C376.083 301.703 374.709 296.393 374.62 289.319V280.788C374.62 273.395 375.932 267.905 378.55 264.312C381.174 260.719 385.281 258.922 390.878 258.922C396.475 258.922 400.514 260.652 403.138 264.119C405.762 267.586 407.109 272.936 407.177 280.163V288.454V288.461ZM400.623 279.723C400.623 274.313 399.844 270.367 398.286 267.892C396.728 265.417 394.261 264.179 390.885 264.179C387.509 264.179 385.083 265.41 383.552 267.872C382.014 270.334 381.222 274.127 381.181 279.238V289.465C381.181 294.902 381.987 298.915 383.607 301.503C385.226 304.092 387.673 305.389 390.96 305.389C394.247 305.389 396.598 304.172 398.17 301.729C399.742 299.287 400.562 295.441 400.63 290.191V279.723H400.623Z" fill="#3D3D3D"/>
<path d="M443.247 293.022H450.402V298.239H443.247V309.911H436.659V298.239H413.17V294.473L436.269 259.617H443.247V293.022ZM420.606 293.022H436.652V268.361L435.873 269.745L420.606 293.029V293.022Z" fill="#3D3D3D"/>
<path d="M347.339 344.621H333.924V355.314H349.505V358.568H329.844V328.391H349.293V331.645H333.924V341.367H347.339V344.621Z" fill="#3D3D3D"/>
<path d="M365.941 346.364H358.669V358.568H354.569V328.391H364.813C368.298 328.391 370.984 329.163 372.857 330.713C374.736 332.263 375.672 334.513 375.672 337.467C375.672 339.344 375.153 340.981 374.107 342.378C373.068 343.776 371.62 344.82 369.761 345.506L377.032 358.315V358.562H372.652L365.934 346.357L365.941 346.364ZM358.669 343.11H364.943C366.966 343.11 368.578 342.598 369.781 341.573C370.977 340.548 371.579 339.177 371.579 337.461C371.579 335.591 371.011 334.16 369.87 333.162C368.729 332.164 367.082 331.658 364.929 331.645H358.683V343.103L358.669 343.11Z" fill="#3D3D3D"/>
<path d="M392.744 346.364H385.472V358.568H381.372V328.391H391.616C395.102 328.391 397.787 329.163 399.66 330.713C401.539 332.263 402.475 334.513 402.475 337.467C402.475 339.344 401.956 340.981 400.91 342.378C399.872 343.776 398.423 344.82 396.564 345.506L403.835 358.315V358.562H399.455L392.737 346.357L392.744 346.364ZM385.472 343.11H391.746C393.769 343.11 395.382 342.598 396.584 341.573C397.78 340.548 398.382 339.177 398.382 337.461C398.382 335.591 397.808 334.16 396.673 333.162C395.532 332.164 393.885 331.658 391.732 331.645H385.486V343.103L385.472 343.11Z" fill="#3D3D3D"/>
<path d="M432.005 344.461C432.005 347.415 431.492 349.997 430.474 352.2C429.455 354.402 428.007 356.086 426.134 357.244C424.262 358.401 422.082 358.987 419.587 358.987C417.093 358.987 414.988 358.401 413.102 357.237C411.216 356.072 409.753 354.402 408.714 352.24C407.676 350.077 407.136 347.575 407.108 344.727V342.551C407.108 339.649 407.628 337.088 408.66 334.865C409.692 332.642 411.154 330.939 413.047 329.754C414.94 328.57 417.106 327.984 419.539 327.984C421.972 327.984 424.207 328.57 426.1 329.734C427.993 330.899 429.449 332.596 430.467 334.812C431.485 337.028 431.998 339.61 431.998 342.551V344.461H432.005ZM427.945 342.511C427.945 338.931 427.207 336.189 425.738 334.273C424.262 332.356 422.205 331.405 419.553 331.405C416.901 331.405 414.94 332.363 413.464 334.273C411.981 336.189 411.222 338.844 411.181 342.245V344.461C411.181 347.928 411.926 350.656 413.423 352.639C414.92 354.622 416.977 355.613 419.601 355.613C422.225 355.613 424.275 354.675 425.724 352.805C427.173 350.935 427.911 348.247 427.959 344.753V342.518L427.945 342.511Z" fill="#3D3D3D"/>
<path d="M449.479 346.364H442.208V358.568H438.107V328.391H448.352C451.837 328.391 454.523 329.163 456.395 330.713C458.274 332.263 459.211 334.513 459.211 337.467C459.211 339.344 458.691 340.981 457.646 342.378C456.607 343.776 455.158 344.82 453.299 345.506L460.571 358.315V358.562H456.19L449.472 346.357L449.479 346.364ZM442.208 343.11H448.481C450.504 343.11 452.117 342.598 453.32 341.573C454.516 340.548 455.117 339.177 455.117 337.461C455.117 335.591 454.55 334.16 453.409 333.162C452.267 332.164 450.62 331.658 448.468 331.645H442.221V343.103L442.208 343.11Z" fill="#3D3D3D"/>
<path d="M198.112 174.43H76.5015C63.5307 174.43 53.02 184.677 53.02 197.327V234.439C53.02 247.082 63.5375 257.336 76.5015 257.336H198.112C211.083 257.336 221.594 247.089 221.594 234.439V197.327C221.594 184.684 211.083 174.43 198.112 174.43Z" fill="#FF4D4F"/>
<path d="M137.303 246.621C154.714 246.621 168.829 232.86 168.829 215.885C168.829 198.91 154.714 185.148 137.303 185.148C119.893 185.148 105.778 198.91 105.778 215.885C105.778 232.86 119.893 246.621 137.303 246.621Z" fill="#F6EBE2"/>
<path d="M125.665 211.412C127.273 211.412 128.576 210.143 128.576 208.577C128.576 207.011 127.273 205.742 125.665 205.742C124.057 205.742 122.754 207.011 122.754 208.577C122.754 210.143 124.057 211.412 125.665 211.412Z" fill="#3D3D3D"/>
<path d="M148.948 211.412C150.556 211.412 151.86 210.143 151.86 208.577C151.86 207.011 150.556 205.742 148.948 205.742C147.341 205.742 146.037 207.011 146.037 208.577C146.037 210.143 147.341 211.412 148.948 211.412Z" fill="#3D3D3D"/>
<path d="M124.1 229.357C124.005 229.357 123.909 229.337 123.813 229.297C123.472 229.144 123.321 228.745 123.478 228.412C123.513 228.332 127.326 220.547 137.085 220.547C146.844 220.547 150.924 228.273 150.965 228.346C151.129 228.679 150.985 229.071 150.65 229.237C150.309 229.397 149.905 229.264 149.734 228.931C149.591 228.645 146.085 221.878 137.085 221.878C128.084 221.878 124.859 228.685 124.715 228.971C124.599 229.211 124.353 229.357 124.093 229.357H124.1Z" fill="#3D3D3D"/>
<path d="M223.644 299.038C202.616 299.038 185.503 282.355 185.503 261.853C185.503 261.487 185.811 261.188 186.187 261.188C186.563 261.188 186.87 261.487 186.87 261.853C186.87 281.623 203.367 297.707 223.644 297.707C224.02 297.707 224.327 298.006 224.327 298.372C224.327 298.738 224.02 299.038 223.644 299.038Z" fill="#3D3D3D"/>
<path d="M615.647 223.83C615.579 223.83 615.511 223.823 615.442 223.797C615.08 223.684 614.882 223.311 614.998 222.958L619.713 208.591C619.768 208.425 619.891 208.285 620.055 208.205C620.219 208.126 620.404 208.112 620.575 208.166C626.91 210.149 633.662 209.61 639.58 206.648C645.505 203.681 649.892 198.636 651.922 192.448C656.118 179.678 648.874 165.957 635.78 161.858C625.727 158.71 614.691 162.097 608.314 170.296C608.089 170.588 607.658 170.648 607.358 170.422C607.057 170.202 606.995 169.783 607.228 169.49C613.952 160.846 625.598 157.273 636.204 160.593C650.015 164.919 657.649 179.392 653.227 192.861C651.081 199.388 646.462 204.712 640.209 207.839C634.167 210.861 627.306 211.499 620.814 209.636L616.303 223.371C616.208 223.65 615.941 223.837 615.654 223.837L615.647 223.83Z" fill="#3D3D3D"/>
<path d="M611.581 236.264C611.513 236.264 611.444 236.258 611.376 236.231C611.014 236.118 610.815 235.745 610.932 235.392L612.9 229.41C613.016 229.058 613.399 228.865 613.761 228.978C614.123 229.091 614.321 229.463 614.205 229.816L612.237 235.798C612.141 236.078 611.875 236.264 611.588 236.264H611.581Z" fill="#3D3D3D"/>
<path d="M527.769 239.61C527.701 239.61 527.632 239.604 527.564 239.577C527.202 239.464 527.004 239.091 527.12 238.738L531.111 226.588C531.166 226.421 531.289 226.281 531.453 226.195C531.617 226.115 531.801 226.102 531.972 226.155C537.303 227.825 542.988 227.373 547.97 224.877C552.959 222.382 556.65 218.137 558.358 212.926C561.884 202.179 555.795 190.627 544.772 187.174C536.312 184.525 527.017 187.38 521.653 194.274C521.427 194.567 520.997 194.627 520.696 194.4C520.395 194.181 520.334 193.762 520.566 193.469C526.286 186.122 536.189 183.088 545.196 185.909C556.937 189.583 563.422 201.887 559.663 213.332C557.839 218.882 553.909 223.4 548.599 226.062C543.494 228.617 537.706 229.163 532.211 227.619L528.425 239.144C528.33 239.424 528.063 239.61 527.776 239.61H527.769Z" fill="#3D3D3D"/>
<path d="M524.332 250.135C524.264 250.135 524.195 250.128 524.127 250.102C523.765 249.989 523.566 249.616 523.683 249.263L525.343 244.199C525.459 243.847 525.842 243.654 526.204 243.767C526.567 243.88 526.765 244.252 526.649 244.605L524.988 249.669C524.892 249.949 524.626 250.135 524.339 250.135H524.332Z" fill="#3D3D3D"/>
<path d="M624.019 444.902C623.944 444.902 623.875 444.888 623.8 444.868C623.445 444.749 623.253 444.376 623.37 444.023L628.222 430.016C628.276 429.849 628.406 429.71 628.563 429.63C628.727 429.55 628.912 429.543 629.083 429.597C635.274 431.633 641.903 431.194 647.753 428.366C653.603 425.537 657.977 420.66 660.068 414.631C664.38 402.181 657.492 388.639 644.719 384.44C634.912 381.219 624.033 384.38 617.65 392.319C617.417 392.605 616.987 392.658 616.693 392.432C616.392 392.206 616.344 391.786 616.577 391.5C623.315 383.123 634.803 379.782 645.156 383.182C658.647 387.614 665.918 401.914 661.36 415.057C659.152 421.425 654.539 426.576 648.355 429.557C642.382 432.445 635.637 432.97 629.288 431.061L624.648 444.449C624.552 444.729 624.285 444.902 623.998 444.902H624.019Z" fill="#3D3D3D"/>
<path d="M619.837 457.036C619.761 457.036 619.693 457.023 619.618 457.003C619.262 456.883 619.071 456.511 619.187 456.158L621.21 450.322C621.333 449.976 621.716 449.783 622.078 449.903C622.433 450.023 622.625 450.395 622.509 450.748L620.486 456.584C620.39 456.863 620.124 457.036 619.837 457.036Z" fill="#3D3D3D"/>
<path d="M91.8987 484.319C140.059 484.319 179.1 446.253 179.1 399.296C179.1 352.339 140.059 314.273 91.8987 314.273C43.7387 314.273 4.69727 352.339 4.69727 399.296C4.69727 446.253 43.7387 484.319 91.8987 484.319Z" fill="#F6EBE2"/>
<path d="M126.492 434.592C128.651 433.082 130.702 431.398 132.622 429.542C133.018 429.841 133.421 430.134 133.866 430.393C139.75 433.894 147.431 432.077 151.019 426.341C154.607 420.605 152.748 413.119 146.857 409.618C146.42 409.359 145.969 409.133 145.511 408.933C147.055 404.135 147.827 399.204 147.855 394.3C148.354 394.24 148.853 394.167 149.351 394.047C156.049 392.463 160.163 385.889 158.536 379.354C156.91 372.826 150.165 368.814 143.467 370.398C142.968 370.517 142.49 370.67 142.019 370.843C139.695 366.498 136.695 362.459 133.059 358.885C133.367 358.5 133.667 358.107 133.934 357.674C137.522 351.938 135.663 344.452 129.772 340.952C123.888 337.452 116.207 339.268 112.619 345.004C112.352 345.43 112.127 345.87 111.915 346.315C106.994 344.805 101.937 344.06 96.9075 344.033C96.846 343.547 96.7709 343.061 96.6478 342.576C95.0214 336.048 88.2762 332.035 81.5789 333.619C74.8816 335.203 70.7676 341.777 72.3941 348.312C72.5171 348.797 72.6743 349.263 72.852 349.722C70.3712 350.987 67.9862 352.451 65.731 354.114L69.8313 369.579L78.4148 370.504L82.6382 375.961C90.0052 370.544 100.311 369.739 108.669 374.71C119.596 381.204 123.054 395.105 116.391 405.766C114.826 408.274 112.838 410.377 110.569 412.041L113.425 425.23L120.539 426.161L126.492 434.592Z" fill="#1890FF"/>
<path d="M100.53 419.802C93.1626 425.219 82.857 426.024 74.499 421.053C63.5715 414.559 60.1135 400.658 66.7766 389.998C68.3416 387.489 70.3303 385.386 72.5992 383.722L68.6765 378.658L59.6625 377.434L55.6919 361.883C53.8946 363.207 52.1724 364.658 50.546 366.221C50.1496 365.922 49.7464 365.629 49.3022 365.37C43.4181 361.869 35.7367 363.686 32.1489 369.422C28.5611 375.158 30.4199 382.644 36.3108 386.145C36.7482 386.404 37.1992 386.63 37.6571 386.83C36.1126 391.628 35.3404 396.559 35.313 401.463C34.8142 401.523 34.3153 401.596 33.8164 401.716C27.1191 403.3 23.0051 409.874 24.6315 416.409C26.258 422.937 33.0032 426.949 39.7004 425.365C40.1993 425.246 40.6777 425.093 41.1492 424.92C43.4728 429.265 46.4729 433.304 50.1086 436.878C49.8011 437.264 49.5004 437.656 49.2338 438.089C45.646 443.825 47.5048 451.311 53.3957 454.811C59.2798 458.311 66.9611 456.495 70.549 450.759C70.8155 450.333 71.041 449.893 71.2529 449.448C76.1733 450.958 81.2305 451.703 86.2603 451.73C86.3218 452.216 86.3969 452.702 86.52 453.187C88.1464 459.715 94.8916 463.728 101.589 462.144C108.286 460.56 112.4 453.986 110.774 447.451C110.651 446.966 110.494 446.5 110.323 446.041C112.448 444.963 114.498 443.732 116.46 442.361L110.289 433.617L103.967 433.57L100.536 419.809L100.53 419.802Z" fill="#1890FF"/>
<path d="M90.9964 484.993C88.2082 484.966 85.3994 484.813 82.6453 484.527C82.2694 484.487 81.9961 484.161 82.0371 483.795C82.0781 483.429 82.413 483.163 82.7888 483.203C85.5019 483.482 88.2697 483.635 91.0101 483.655C91.386 483.655 91.6935 483.961 91.6867 484.327C91.6867 484.693 91.3791 484.986 91.0033 484.986L90.9964 484.993ZM99.2997 484.68C98.9512 484.68 98.6505 484.42 98.6163 484.074C98.5821 483.708 98.8623 483.382 99.2382 483.356C100.578 483.243 101.938 483.096 103.284 482.923C104.664 482.743 106.052 482.531 107.405 482.291C107.781 482.224 108.129 482.464 108.198 482.83C108.266 483.189 108.02 483.535 107.644 483.602C106.27 483.841 104.863 484.061 103.462 484.241C102.095 484.42 100.714 484.567 99.3544 484.68C99.3339 484.68 99.3134 484.68 99.2929 484.68H99.2997ZM74.5061 483.302C74.4582 483.302 74.4172 483.302 74.3694 483.289C71.6495 482.75 68.9227 482.071 66.2575 481.279C65.8953 481.173 65.6902 480.8 65.8064 480.448C65.9158 480.095 66.2985 479.895 66.6607 480.008C69.2849 480.787 71.9707 481.452 74.6427 481.985C75.0118 482.058 75.251 482.411 75.1758 482.77C75.1074 483.083 74.8272 483.302 74.5061 483.302ZM115.619 481.792C115.319 481.792 115.045 481.599 114.963 481.306C114.861 480.953 115.072 480.587 115.435 480.488C118.073 479.762 120.704 478.911 123.246 477.946C123.601 477.813 123.991 477.986 124.134 478.325C124.271 478.671 124.093 479.05 123.745 479.183C121.155 480.162 118.489 481.027 115.811 481.765C115.749 481.785 115.688 481.792 115.626 481.792H115.619ZM58.6444 478.578C58.5556 478.578 58.4667 478.565 58.3847 478.525C55.8152 477.487 53.2661 476.322 50.8127 475.051C50.4778 474.878 50.3548 474.479 50.5325 474.153C50.7102 473.827 51.1202 473.707 51.4551 473.88C53.8743 475.131 56.3755 476.275 58.9109 477.3C59.2595 477.44 59.4235 477.833 59.28 478.172C59.1706 478.425 58.9178 478.584 58.6512 478.584L58.6444 478.578ZM131.078 475.943C130.825 475.943 130.586 475.81 130.469 475.577C130.299 475.251 130.435 474.851 130.77 474.685C133.21 473.487 135.622 472.156 137.939 470.739C138.26 470.546 138.684 470.639 138.882 470.945C139.08 471.258 138.985 471.664 138.67 471.864C136.319 473.308 133.866 474.658 131.385 475.876C131.289 475.923 131.18 475.949 131.078 475.949V475.943ZM43.9855 471.005C43.8557 471.005 43.7259 470.972 43.6097 470.892C41.2861 469.401 39.0104 467.784 36.8509 466.094C36.557 465.861 36.5092 465.442 36.7484 465.156C36.9876 464.87 37.4181 464.823 37.712 465.056C39.8442 466.726 42.0789 468.317 44.3683 469.781C44.6826 469.98 44.7715 470.393 44.5664 470.699C44.4366 470.892 44.2179 470.999 43.9924 470.999L43.9855 471.005ZM145.108 467.339C144.903 467.339 144.698 467.252 144.568 467.079C144.336 466.786 144.39 466.367 144.691 466.147C146.85 464.517 148.962 462.774 150.964 460.95C151.238 460.698 151.675 460.711 151.928 460.984C152.188 461.25 152.174 461.676 151.894 461.922C149.864 463.772 147.718 465.549 145.525 467.206C145.402 467.299 145.251 467.345 145.108 467.345V467.339ZM31.0625 460.884C30.8917 460.884 30.7208 460.824 30.5841 460.698C28.5886 458.808 26.6683 456.805 24.8709 454.742C24.6249 454.462 24.6591 454.043 24.9529 453.804C25.24 453.564 25.6705 453.604 25.9165 453.883C27.6865 455.913 29.5795 457.883 31.5409 459.746C31.8143 460.005 31.8143 460.425 31.5546 460.684C31.4179 460.817 31.2402 460.884 31.0625 460.884ZM157.211 456.299C157.047 456.299 156.89 456.246 156.76 456.133C156.48 455.886 156.452 455.467 156.698 455.194C158.509 453.198 160.245 451.095 161.851 448.939C162.07 448.64 162.5 448.573 162.808 448.793C163.115 449.006 163.184 449.425 162.958 449.724C161.325 451.914 159.562 454.05 157.723 456.079C157.587 456.226 157.402 456.306 157.211 456.306V456.299ZM20.3332 448.573C20.1145 448.573 19.9026 448.473 19.7728 448.287C18.1805 446.065 16.6838 443.742 15.3239 441.393C15.1394 441.074 15.2555 440.668 15.5836 440.488C15.9116 440.309 16.3285 440.422 16.513 440.741C17.8525 443.057 19.3286 445.346 20.8936 447.529C21.1123 447.828 21.0303 448.247 20.7227 448.453C20.6065 448.533 20.4699 448.573 20.3332 448.573ZM166.963 443.23C166.847 443.23 166.724 443.197 166.614 443.137C166.286 442.95 166.184 442.544 166.375 442.225C167.769 439.929 169.068 437.54 170.229 435.131C170.387 434.799 170.797 434.652 171.138 434.812C171.48 434.972 171.624 435.364 171.466 435.697C170.284 438.146 168.972 440.568 167.551 442.897C167.421 443.11 167.195 443.223 166.963 443.223V443.23ZM12.1871 434.506C11.9274 434.506 11.6745 434.36 11.5652 434.113C10.4376 431.645 9.42617 429.083 8.54459 426.514C8.42841 426.168 8.61976 425.789 8.97513 425.669C9.3305 425.556 9.72003 425.742 9.83621 426.088C10.7041 428.617 11.7019 431.132 12.809 433.568C12.9593 433.9 12.809 434.3 12.4605 434.446C12.3716 434.486 12.2759 434.506 12.1871 434.506ZM174.022 428.61C173.947 428.61 173.865 428.597 173.79 428.57C173.435 428.444 173.25 428.064 173.38 427.718C174.303 425.21 175.116 422.628 175.785 420.046C175.881 419.687 176.25 419.474 176.619 419.567C176.988 419.66 177.207 420.019 177.111 420.379C176.428 423.001 175.608 425.622 174.665 428.171C174.562 428.444 174.302 428.61 174.022 428.61ZM6.94544 419.188C6.63791 419.188 6.35089 418.981 6.28255 418.669C5.66065 416.04 5.15494 413.345 4.78591 410.657C4.73807 410.291 4.99776 409.958 5.37363 409.911C5.7495 409.865 6.09119 410.118 6.13903 410.484C6.50123 413.132 7.00011 415.787 7.60834 418.376C7.69034 418.735 7.46482 419.094 7.09579 419.174C7.04112 419.188 6.99328 419.194 6.93861 419.194L6.94544 419.188ZM178.102 412.952C178.068 412.952 178.034 412.952 178 412.946C177.624 412.893 177.371 412.553 177.426 412.187C177.842 409.559 178.13 406.87 178.287 404.209C178.307 403.843 178.635 403.57 179.004 403.583C179.38 403.603 179.667 403.916 179.647 404.282C179.489 406.983 179.196 409.712 178.772 412.387C178.717 412.713 178.43 412.952 178.095 412.952H178.102ZM4.75174 403.177C4.38954 403.177 4.08201 402.898 4.06834 402.538C4.0205 401.42 4 400.296 4 399.191C4 397.594 4.04784 395.977 4.13668 394.387C4.15718 394.021 4.48521 393.741 4.85425 393.761C5.23011 393.781 5.51714 394.094 5.49664 394.46C5.4078 396.024 5.35996 397.614 5.35996 399.191C5.35996 400.283 5.38046 401.387 5.4283 402.485C5.44197 402.851 5.14811 403.164 4.77224 403.177C4.7654 403.177 4.75174 403.177 4.7449 403.177H4.75174ZM179.045 396.829C178.683 396.829 178.376 396.549 178.362 396.19C178.259 393.535 178.02 390.84 177.658 388.198L177.637 388.045C177.59 387.679 177.849 387.346 178.225 387.3C178.601 387.253 178.943 387.506 178.991 387.872L179.011 388.019C179.38 390.707 179.619 393.435 179.722 396.137C179.736 396.503 179.442 396.816 179.066 396.829C179.059 396.829 179.045 396.829 179.038 396.829H179.045ZM5.68116 387.047C5.64699 387.047 5.61282 387.047 5.57865 387.04C5.20278 386.987 4.94992 386.648 5.00459 386.282C5.4283 383.607 5.98185 380.918 6.66525 378.296C6.76092 377.937 7.12996 377.731 7.49216 377.817C7.86119 377.911 8.07988 378.27 7.9842 378.623C7.31447 381.204 6.76092 383.853 6.35089 386.488C6.29621 386.814 6.00919 387.054 5.67432 387.054L5.68116 387.047ZM176.831 380.672C176.517 380.672 176.237 380.466 176.168 380.16C175.553 377.558 174.801 374.963 173.933 372.441C173.817 372.095 174.009 371.715 174.364 371.602C174.719 371.482 175.109 371.675 175.225 372.021C176.107 374.583 176.865 377.218 177.494 379.86C177.576 380.22 177.35 380.579 176.981 380.659C176.927 380.672 176.879 380.679 176.824 380.679L176.831 380.672ZM9.74737 371.389C9.67219 371.389 9.59019 371.376 9.51501 371.349C9.15965 371.223 8.97513 370.844 9.09814 370.498C10.0344 367.949 11.1073 365.414 12.2828 362.965C12.44 362.632 12.85 362.486 13.1917 362.645C13.5334 362.798 13.6837 363.198 13.5197 363.53C12.3579 365.946 11.3055 368.441 10.3829 370.95C10.2804 371.223 10.0207 371.389 9.74053 371.389H9.74737ZM171.576 365.354C171.316 365.354 171.063 365.207 170.947 364.961C169.833 362.526 168.589 360.117 167.243 357.794C167.058 357.475 167.175 357.069 167.503 356.889C167.831 356.71 168.248 356.823 168.432 357.142C169.799 359.498 171.063 361.947 172.191 364.422C172.341 364.755 172.191 365.154 171.842 365.301C171.753 365.34 171.658 365.36 171.562 365.36L171.576 365.354ZM16.7864 356.763C16.6702 356.763 16.5472 356.736 16.4378 356.67C16.1098 356.483 16.0073 356.078 16.1986 355.758C17.6133 353.429 19.1577 351.133 20.7842 348.944C21.0029 348.645 21.4335 348.578 21.741 348.798C22.0485 349.011 22.1169 349.43 21.8913 349.729C20.2853 351.885 18.7614 354.141 17.3741 356.437C17.2442 356.65 17.0187 356.763 16.7864 356.763ZM163.416 351.293C163.197 351.293 162.985 351.193 162.856 351.007C161.291 348.824 159.596 346.688 157.826 344.659C157.58 344.379 157.614 343.96 157.901 343.72C158.188 343.481 158.619 343.514 158.865 343.794C160.669 345.856 162.384 348.026 163.976 350.242C164.195 350.541 164.113 350.96 163.806 351.167C163.689 351.246 163.553 351.286 163.416 351.286V351.293ZM26.5248 343.687C26.3607 343.687 26.2036 343.634 26.0737 343.521C25.7935 343.275 25.7662 342.855 26.0122 342.582C27.8505 340.553 29.8051 338.583 31.8348 336.733C32.1081 336.48 32.5455 336.494 32.7983 336.76C33.058 337.026 33.0444 337.452 32.771 337.698C30.7755 339.521 28.8483 341.458 27.0373 343.461C26.9006 343.607 26.7161 343.687 26.5248 343.687ZM152.673 338.996C152.502 338.996 152.331 338.936 152.195 338.809C150.233 336.953 148.156 335.163 146.024 333.499C145.73 333.266 145.682 332.854 145.921 332.561C146.16 332.275 146.591 332.228 146.885 332.461C149.051 334.158 151.163 335.968 153.151 337.858C153.425 338.111 153.432 338.537 153.165 338.796C153.028 338.929 152.851 338.996 152.673 338.996ZM38.6209 332.641C38.4159 332.641 38.2177 332.554 38.081 332.381C37.8486 332.089 37.9033 331.669 38.204 331.45C40.4046 329.793 42.7076 328.222 45.0585 326.778C45.3797 326.585 45.7966 326.679 46.0016 326.985C46.1998 327.297 46.1109 327.703 45.7897 327.903C43.4798 329.32 41.211 330.871 39.0446 332.501C38.9216 332.594 38.7712 332.641 38.6277 332.641H38.6209ZM139.743 328.881C139.613 328.881 139.483 328.848 139.367 328.775C137.078 327.311 134.693 325.933 132.28 324.689C131.946 324.516 131.823 324.117 131.993 323.791C132.164 323.464 132.581 323.345 132.916 323.511C135.369 324.775 137.795 326.173 140.119 327.663C140.433 327.863 140.522 328.276 140.317 328.582C140.187 328.775 139.969 328.881 139.743 328.881ZM52.6442 324.017C52.3913 324.017 52.1521 323.884 52.036 323.651C51.8651 323.325 52.0018 322.925 52.3367 322.759C54.8242 321.541 57.3938 320.423 59.977 319.445C60.3256 319.312 60.7219 319.479 60.8586 319.825C60.9953 320.164 60.8244 320.55 60.4691 320.683C57.92 321.648 55.3914 322.746 52.9449 323.95C52.8492 323.997 52.7399 324.023 52.6374 324.023L52.6442 324.017ZM125.077 321.328C124.989 321.328 124.9 321.315 124.818 321.275C122.289 320.257 119.679 319.345 117.061 318.574C116.699 318.467 116.494 318.094 116.61 317.742C116.719 317.389 117.102 317.189 117.464 317.303C120.123 318.094 122.774 319.019 125.344 320.051C125.692 320.191 125.856 320.576 125.713 320.923C125.604 321.182 125.351 321.335 125.084 321.335L125.077 321.328ZM68.1026 318.161C67.8019 318.161 67.5286 317.968 67.4466 317.675C67.3441 317.323 67.5559 316.957 67.9181 316.857C70.5834 316.125 73.3238 315.506 76.0642 315.013C76.4332 314.947 76.7886 315.186 76.8569 315.546C76.9253 315.905 76.6793 316.251 76.3102 316.318C73.6108 316.797 70.9114 317.409 68.2871 318.128C68.2256 318.148 68.1641 318.154 68.1026 318.154V318.161ZM109.216 316.617C109.168 316.617 109.127 316.617 109.079 316.604C106.393 316.071 103.653 315.666 100.933 315.386C100.557 315.346 100.284 315.02 100.325 314.654C100.366 314.288 100.694 314.015 101.077 314.062C103.837 314.341 106.626 314.761 109.352 315.293C109.721 315.366 109.961 315.719 109.886 316.078C109.817 316.391 109.537 316.61 109.216 316.61V316.617ZM84.4153 315.26C84.0668 315.26 83.7661 315 83.7319 314.654C83.6977 314.288 83.9779 313.962 84.3538 313.935C86.8892 313.722 89.4656 313.609 92.001 313.609H92.7186C93.0945 313.609 93.402 313.915 93.3951 314.281C93.3951 314.647 93.0876 314.94 92.7117 314.94H92.001C89.4998 314.94 86.9712 315.047 84.47 315.26C84.4495 315.26 84.429 315.26 84.4085 315.26H84.4153Z" fill="#3D3D3D"/>
<path d="M662.669 309.695L664.5 311.818C685.207 335.88 696.948 366.064 697.809 397.46C699.804 470.591 703.249 605.462 702.818 652.202C702.757 659.269 696.852 664.959 689.601 664.959H614.4C609.309 664.959 606.466 659.229 609.623 655.337L620.653 641.722L635.025 475.655L577.059 656.355C575.187 661.512 570.184 664.959 564.574 664.959H484.377C479.122 664.959 476.334 658.903 479.826 655.07L494.655 638.82L601.819 358.958L662.669 309.695Z" fill="#3D3D3D"/>
<path d="M578.269 644.963C578.269 644.963 578.249 644.963 578.242 644.963C552.355 643.898 526.16 641.982 500.403 639.273C500.027 639.234 499.754 638.908 499.795 638.542C499.836 638.176 500.184 637.909 500.546 637.949C526.276 640.658 552.437 642.567 578.296 643.632C578.672 643.645 578.966 643.958 578.952 644.324C578.939 644.684 578.631 644.963 578.269 644.963Z" fill="#F6EBE2"/>
<path d="M676.672 644.378C659.525 644.378 642.331 643.919 625.301 643.008C624.925 642.988 624.638 642.675 624.658 642.309C624.679 641.943 625.014 641.643 625.376 641.683C650.552 643.027 676.104 643.38 701.308 642.735C701.657 642.721 701.998 643.014 702.012 643.38C702.019 643.746 701.725 644.052 701.349 644.066C693.155 644.278 684.92 644.385 676.678 644.385L676.672 644.378Z" fill="#F6EBE2"/>
<path d="M635.374 474.085C635.319 474.085 635.258 474.078 635.203 474.065C634.841 473.971 634.622 473.605 634.718 473.253L650.614 414.288C652.349 407.847 654.516 401.272 660.147 397.845C660.468 397.646 660.885 397.746 661.09 398.058C661.288 398.371 661.193 398.777 660.871 398.977C655.664 402.151 653.668 408.193 651.933 414.634L636.037 473.599C635.955 473.898 635.681 474.098 635.374 474.098V474.085Z" fill="#F6EBE2"/>
<path d="M596.167 194.391C596.167 194.391 586.716 224.375 598.955 226.944C608.407 228.927 619.697 224.309 619.997 223.623C620.298 222.938 624.48 204.126 624.48 204.126L596.167 194.397V194.391Z" fill="#F6EBE2"/>
<path d="M603.951 228.087C602.208 228.087 600.466 227.941 598.819 227.595C596.748 227.162 595.122 225.984 593.987 224.094C588.869 215.59 595.245 195.061 595.518 194.196C595.573 194.023 595.696 193.877 595.867 193.797C596.037 193.717 596.229 193.704 596.4 193.764L624.713 203.492C625.034 203.606 625.225 203.932 625.15 204.264C624.446 207.419 620.934 223.176 620.626 223.881C620.154 224.966 611.988 228.087 603.944 228.087H603.951ZM596.625 195.254C595.566 198.874 590.837 216.242 595.163 223.422C596.113 224.999 597.397 225.938 599.106 226.29C607.888 228.134 618.275 224.048 619.403 223.269C619.772 222.018 622.095 211.731 623.694 204.557L596.632 195.254H596.625Z" fill="#3D3D3D"/>
<path d="M602.776 219.697L605.776 242.608L630.187 241.643L623.476 207.586L602.776 219.697Z" fill="#F6EBE2"/>
<path d="M605.776 243.274C605.434 243.274 605.14 243.028 605.099 242.695L602.099 219.784C602.051 219.418 602.318 219.085 602.694 219.039C603.07 218.992 603.411 219.252 603.459 219.618L606.384 241.923L629.374 241.018L622.813 207.72C622.745 207.36 622.984 207.008 623.353 206.941C623.722 206.874 624.084 207.107 624.152 207.467L630.863 241.524C630.898 241.717 630.85 241.91 630.727 242.063C630.604 242.216 630.419 242.309 630.221 242.316L605.81 243.281C605.81 243.281 605.79 243.281 605.783 243.281L605.776 243.274Z" fill="#3D3D3D"/>
<path d="M620.647 182.565C620.647 182.565 617.414 174.52 603.821 174.659C598.71 174.713 595.798 174.3 594.151 173.761C590.803 172.67 587.092 174.287 585.964 177.541C585.178 179.81 585.684 182.685 589.32 186.065C589.32 186.065 583.579 191.056 592.662 195.774C592.662 195.774 590.147 202.907 601.416 204.478C601.416 204.478 603.159 200.911 606.712 202.914C608.803 204.092 608.981 208.836 605.25 213.042C605.25 213.042 611.188 224.6 621.87 224.474C632.551 224.348 632.565 212.143 632.647 208.131C632.729 204.118 638.6 193.298 631.581 185.293C627.364 180.482 620.647 182.565 620.647 182.565Z" fill="#3D3D3D"/>
<path d="M605.899 205.062C605.899 205.062 602.277 202.893 602.858 209.714L605.899 205.062Z" fill="#F6EBE2"/>
<path d="M602.858 210.376C602.509 210.376 602.208 210.117 602.174 209.764C601.921 206.849 602.379 205.086 603.562 204.374C604.546 203.788 605.714 204.174 606.254 204.494C606.575 204.687 606.678 205.099 606.48 205.412C606.281 205.725 605.865 205.825 605.543 205.632C605.53 205.625 604.778 205.206 604.279 205.512C603.965 205.705 603.268 206.483 603.541 209.658C603.575 210.024 603.295 210.343 602.919 210.376C602.899 210.376 602.878 210.376 602.865 210.376H602.858Z" fill="#3D3D3D"/>
<path d="M554.022 275.838L547.311 273.263L537.177 283.75C537.177 283.75 504.606 262.084 488.245 247.757C471.885 233.43 456.235 225.092 452.34 226.024C448.444 226.955 449.914 232.226 458.046 236.791C458.046 236.791 450.952 238.687 452.34 244.503C452.34 244.503 447.289 244.616 448.431 251.663C448.431 251.663 442.67 254.677 445.239 260.939C447.809 267.194 454.95 267.374 454.95 267.374C454.95 267.374 474.345 289.666 494.744 309.09C513.476 326.931 541.824 331.229 565.128 319.578C572.399 315.944 579.137 309.21 583.798 304.226L554.015 275.838H554.022Z" fill="#F6EBE2"/>
<path d="M537.457 326.771C521.698 326.771 506.123 320.862 494.266 309.569C475.145 291.356 456.686 270.382 454.622 268.026C453.146 267.913 447.03 267.088 444.604 261.192C442.266 255.503 446.333 252.235 447.686 251.337C447.351 248.815 447.761 246.859 448.909 245.521C449.763 244.523 450.829 244.117 451.54 243.957C451.007 240.091 453.987 237.722 456.474 236.651C451.909 233.809 449.251 230.449 449.627 227.894C449.811 226.623 450.72 225.731 452.176 225.385C456.461 224.367 472.514 233.104 488.696 247.271C503.758 260.46 532.967 280.137 537.074 282.885L546.806 272.817C546.997 272.618 547.298 272.558 547.557 272.651L554.268 275.226C554.35 275.259 554.432 275.306 554.494 275.373L584.276 303.76C584.536 304.013 584.55 304.419 584.304 304.685C579.739 309.569 572.816 316.49 565.442 320.183C556.571 324.622 546.983 326.778 537.457 326.778V326.771ZM453.057 226.616C452.852 226.616 452.668 226.636 452.511 226.669C451.608 226.882 451.096 227.355 450.987 228.073C450.727 229.85 452.934 233.151 458.395 236.218C458.634 236.351 458.764 236.611 458.729 236.877C458.695 237.143 458.497 237.363 458.237 237.436C457.971 237.509 451.8 239.239 453.016 244.357C453.064 244.55 453.016 244.756 452.893 244.916C452.77 245.075 452.572 245.168 452.367 245.175C452.312 245.175 450.939 245.235 449.961 246.393C449.025 247.497 448.738 249.241 449.114 251.563C449.162 251.843 449.018 252.122 448.766 252.255C448.554 252.368 443.579 255.083 445.888 260.693C448.26 266.456 454.711 266.702 454.984 266.709C455.176 266.709 455.36 266.802 455.49 266.942C455.682 267.161 475.097 289.427 495.237 308.611C513.839 326.325 541.803 330.497 564.827 318.985C571.777 315.512 578.372 309.024 582.862 304.253L553.653 276.411L547.503 274.048L537.689 284.203C537.457 284.443 537.081 284.482 536.808 284.296C536.48 284.077 504.011 262.443 487.801 248.249C472.131 234.528 457.356 226.609 453.064 226.609L453.057 226.616Z" fill="#3D3D3D"/>
<path d="M455.183 268.346C454.964 268.346 454.752 268.246 454.622 268.06C452.538 265.152 450.604 262.091 448.854 258.976C448.677 258.657 448.8 258.251 449.128 258.071C449.456 257.898 449.873 258.018 450.057 258.338C451.772 261.412 453.686 264.426 455.743 267.294C455.962 267.594 455.88 268.013 455.572 268.219C455.456 268.299 455.319 268.339 455.183 268.339V268.346Z" fill="#3D3D3D"/>
<path d="M455.839 255.068C455.682 255.068 455.518 255.015 455.388 254.902C453.427 253.238 450.83 252.353 448.226 252.467C448.219 252.467 448.205 252.467 448.192 252.467C447.83 252.467 447.529 252.187 447.508 251.828C447.488 251.462 447.782 251.149 448.158 251.136C451.089 251.009 454.055 252.014 456.283 253.897C456.57 254.137 456.598 254.556 456.351 254.835C456.215 254.989 456.023 255.062 455.839 255.062V255.068Z" fill="#3D3D3D"/>
<path d="M461.381 249.434C461.21 249.434 461.039 249.374 460.909 249.248C458.579 247.085 455.538 245.668 452.346 245.262C451.97 245.215 451.711 244.883 451.759 244.517C451.806 244.151 452.148 243.891 452.524 243.944C456.002 244.384 459.31 245.927 461.852 248.283C462.126 248.536 462.139 248.955 461.873 249.221C461.736 249.361 461.559 249.428 461.381 249.428V249.434Z" fill="#3D3D3D"/>
<path d="M465.987 242.41C465.837 242.41 465.693 242.364 465.563 242.271C463.11 240.387 460.417 238.817 457.561 237.586C457.219 237.439 457.062 237.047 457.212 236.707C457.363 236.375 457.766 236.222 458.114 236.368C461.074 237.639 463.869 239.276 466.411 241.226C466.705 241.452 466.759 241.871 466.527 242.157C466.39 242.324 466.192 242.41 465.987 242.41Z" fill="#3D3D3D"/>
<path d="M627.652 174.223C624.563 172.626 621.699 171.908 620.182 173.837C618.665 175.76 619.833 179.314 622.471 180.811C620.64 179.673 618.74 178.502 616.71 178.043C614.681 177.59 612.46 178.03 611.68 179.593C610.99 180.964 611.578 182.854 612.699 184.331C613.252 185.057 613.908 185.709 614.619 186.314C613.266 185.902 611.735 186.088 610.901 186.953C609.48 188.43 609.459 190.766 610.901 192.762C612.118 194.453 614.325 196.289 616.437 197.9C618.781 199.803 620.606 201.134 623.947 203.416C620.148 202.844 613.621 202.205 614.161 206.737C614.913 213.038 643.814 216.711 648.324 219.406C656.764 224.444 663.304 228.13 663.304 228.13C667.172 227.857 682.029 209.358 684.394 203.196C680.847 200.342 651.065 181.363 638.88 174.33C636.836 173.152 634.697 171.947 632.476 171.655C630.255 171.362 627.952 172.287 627.652 174.237V174.223Z" fill="#F6EBE2"/>
<path d="M663.305 228.781C663.181 228.781 663.065 228.748 662.963 228.694C662.894 228.654 656.32 224.948 647.969 219.964C646.527 219.105 642.194 218.081 637.171 216.89C624.064 213.795 613.997 211.08 613.485 206.802C613.334 205.517 613.663 204.479 614.476 203.721C615.938 202.35 618.72 202.217 621.344 202.423C619.26 200.959 617.777 199.841 616 198.404C614.079 196.94 611.681 195.003 610.341 193.14C608.722 190.891 608.749 188.216 610.41 186.492C610.977 185.9 611.824 185.547 612.767 185.454C612.542 185.208 612.344 184.962 612.152 184.716C611.045 183.252 610.184 181.062 611.073 179.292C612.07 177.303 614.701 176.903 616.868 177.389C617.715 177.582 618.542 177.888 619.342 178.261C619.164 177.855 619.027 177.429 618.938 176.997C618.658 175.626 618.911 174.361 619.642 173.43C621.631 170.908 625.314 172.332 627.228 173.264C628.048 171.434 630.44 170.708 632.565 170.988C634.998 171.307 637.342 172.658 639.228 173.749C651.55 180.856 681.251 199.794 684.832 202.676C685.057 202.855 685.139 203.155 685.037 203.421C682.638 209.676 667.747 228.475 663.352 228.788C663.339 228.788 663.318 228.788 663.305 228.788V228.781ZM619.478 203.667C617.859 203.667 616.26 203.894 615.433 204.679C614.941 205.138 614.749 205.783 614.852 206.648C615.296 210.348 628.656 213.502 637.499 215.592C642.844 216.856 647.067 217.854 648.687 218.819C656.197 223.298 662.266 226.751 663.441 227.417C666.906 226.605 680.629 210.215 683.574 203.388C678.647 199.708 650.457 181.761 638.531 174.881C636.755 173.856 634.54 172.578 632.381 172.299C630.577 172.059 628.567 172.751 628.328 174.315C628.294 174.528 628.157 174.714 627.959 174.814C627.761 174.914 627.529 174.907 627.33 174.814C623.954 173.071 621.788 172.884 620.722 174.242C620.23 174.861 620.073 175.752 620.278 176.744C620.544 178.041 621.364 179.266 622.472 180.018C622.595 180.098 622.718 180.171 622.841 180.251C623.155 180.444 623.251 180.849 623.052 181.156C622.861 181.462 622.451 181.568 622.123 181.382C621.986 181.302 621.85 181.215 621.713 181.129C620.121 180.144 618.351 179.093 616.553 178.693C614.968 178.341 612.959 178.56 612.289 179.885C611.776 180.903 612.152 182.493 613.239 183.937C613.704 184.549 614.298 185.168 615.064 185.814C615.31 186.02 615.371 186.366 615.207 186.639C615.05 186.912 614.715 187.038 614.407 186.945C613.239 186.586 612.002 186.772 611.394 187.404C610.191 188.655 610.211 190.658 611.448 192.382C612.699 194.125 615.132 196.061 616.847 197.372C619.171 199.255 620.982 200.586 624.33 202.862C624.59 203.042 624.693 203.368 624.57 203.654C624.453 203.94 624.146 204.107 623.831 204.067C622.97 203.94 621.2 203.667 619.458 203.667H619.478Z" fill="#3D3D3D"/>
<path d="M637.397 212.219C637.274 212.219 637.151 212.186 637.041 212.126C636.939 212.066 626.948 206.164 623.572 203.961C623.257 203.755 623.175 203.342 623.387 203.036C623.599 202.73 624.023 202.65 624.337 202.857C627.693 205.046 637.656 210.928 637.759 210.988C638.08 211.181 638.183 211.587 637.991 211.9C637.861 212.106 637.636 212.219 637.404 212.219H637.397Z" fill="#3D3D3D"/>
<path d="M631.294 199.165C631.151 199.165 631 199.119 630.877 199.025C626.1 195.392 619.977 191.04 615.057 187.54L614.161 186.908C613.854 186.688 613.792 186.276 614.011 185.976C614.237 185.677 614.66 185.617 614.968 185.83L615.863 186.469C620.79 189.975 626.927 194.341 631.718 197.981C632.019 198.207 632.066 198.626 631.834 198.912C631.697 199.079 631.499 199.165 631.294 199.165Z" fill="#3D3D3D"/>
<path d="M637.021 191.152C636.885 191.152 636.748 191.112 636.632 191.032L622.424 181.43C622.116 181.224 622.034 180.804 622.253 180.505C622.465 180.206 622.895 180.126 623.203 180.339L637.411 189.941C637.718 190.147 637.8 190.566 637.582 190.866C637.452 191.052 637.233 191.152 637.021 191.152Z" fill="#3D3D3D"/>
<path d="M641.333 183.8C641.197 183.8 641.053 183.76 640.93 183.673C636.768 180.732 632.436 177.904 628.048 175.275C627.727 175.082 627.625 174.67 627.823 174.357C628.021 174.044 628.445 173.945 628.766 174.138C633.181 176.786 637.541 179.627 641.73 182.589C642.037 182.802 642.106 183.221 641.88 183.52C641.744 183.7 641.539 183.793 641.327 183.793L641.333 183.8Z" fill="#3D3D3D"/>
<path d="M686.13 347.683C685.857 347.683 685.604 347.523 685.494 347.27L677.382 327.766C677.239 327.427 677.41 327.041 677.758 326.901C678.107 326.761 678.503 326.928 678.647 327.267L686.759 346.771C686.902 347.11 686.731 347.496 686.383 347.636C686.301 347.669 686.212 347.683 686.13 347.683Z" fill="#3D3D3D"/>
<path d="M670.111 192.388C670.111 192.388 666.783 206.629 650.012 221.075C655.418 226.086 676.446 242.23 676.446 242.23C676.446 242.23 629.367 240.466 615.931 239.974C592.798 239.135 574.06 244.818 562.879 255.665L536.288 280.08L501.168 255.352L470.778 286.062L499.672 313.964C521.021 333.581 554.35 333.594 575.72 313.997L587.987 303.184L591.192 368.836L695.035 354.223L680.594 286.255C680.594 286.255 730.639 289.056 733.366 262.412C737.412 222.945 670.111 192.375 670.111 192.375V192.388Z" fill="#1890FF"/>
<path d="M704.834 243.986C704.834 243.986 704.814 243.986 704.807 243.986L676.412 242.902C676.036 242.888 675.742 242.576 675.756 242.21C675.769 241.844 676.118 241.557 676.467 241.571L704.862 242.655C705.238 242.669 705.531 242.981 705.518 243.347C705.504 243.707 705.203 243.986 704.834 243.986Z" fill="#3D3D3D"/>
<path d="M587.981 303.858C587.618 303.858 587.318 303.586 587.297 303.226L586.785 293.584C586.764 293.218 587.058 292.905 587.434 292.885C587.81 292.852 588.131 293.145 588.151 293.518L588.664 303.16C588.685 303.526 588.391 303.838 588.015 303.858C588.001 303.858 587.987 303.858 587.981 303.858Z" fill="#3D3D3D"/>
</svg>
