<svg width="735" height="478" viewBox="0 0 735 478" fill="none" xmlns="http://www.w3.org/2000/svg">
<path d="M118.914 42.0179C123.433 42.0179 127.097 38.441 127.097 34.0285C127.097 29.6161 123.433 26.0391 118.914 26.0391C114.395 26.0391 110.732 29.6161 110.732 34.0285C110.732 38.441 114.395 42.0179 118.914 42.0179Z" fill="#F4EAE2"/>
<path d="M118.914 42.5877C114.075 42.5877 110.143 38.748 110.143 34.0243C110.143 29.3007 114.081 25.4609 118.914 25.4609C123.747 25.4609 127.685 29.3007 127.685 34.0243C127.685 36.3087 126.773 38.461 125.119 40.0795C123.464 41.6981 121.257 42.5877 118.914 42.5877ZM118.914 26.6088C114.723 26.6088 111.32 29.9378 111.32 34.0243C111.32 38.1109 114.729 41.4398 118.914 41.4398C120.945 41.4398 122.852 40.6707 124.283 39.2703C125.719 37.8698 126.508 36.0102 126.508 34.0243C126.508 29.9378 123.1 26.6088 118.914 26.6088Z" fill="#3D3D3D"/>
<path d="M86.8433 34.0285C86.8433 38.4422 90.5048 42.0179 95.0258 42.0179C99.5468 42.0179 103.208 38.4422 103.208 34.0285C103.208 29.6148 99.5468 26.0391 95.0258 26.0391C90.5048 26.0391 86.8433 29.6148 86.8433 34.0285Z" fill="#F4EAE2"/>
<path d="M95.0258 42.5877C90.1869 42.5877 86.2546 38.748 86.2546 34.0243C86.2546 29.3007 90.1928 25.4609 95.0258 25.4609C99.8588 25.4609 103.797 29.3007 103.797 34.0243C103.797 38.748 99.8588 42.5877 95.0258 42.5877ZM95.0258 26.6088C90.8344 26.6088 87.4319 29.9378 87.4319 34.0243C87.4319 38.1109 90.8403 41.4398 95.0258 41.4398C99.2112 41.4398 102.62 38.1109 102.62 34.0243C102.62 29.9378 99.2112 26.6088 95.0258 26.6088Z" fill="#3D3D3D"/>
<path d="M71.1578 42.021C75.6769 42.0141 79.3346 38.4315 79.3275 34.0191C79.3204 29.6066 75.6512 26.0352 71.1321 26.0422C66.613 26.0491 62.9553 29.6317 62.9625 34.0441C62.9696 38.4566 66.6388 42.0279 71.1578 42.021Z" fill="#F4EAE2"/>
<path d="M71.1434 42.5877C66.3045 42.5877 62.3722 38.748 62.3722 34.0243C62.3722 29.3007 66.3104 25.4609 71.1434 25.4609C75.9764 25.4609 79.9146 29.3007 79.9146 34.0243C79.9146 38.748 75.9764 42.5877 71.1434 42.5877ZM71.1434 26.6088C66.9521 26.6088 63.5495 29.9378 63.5495 34.0243C63.5495 38.1109 66.9579 41.4398 71.1434 41.4398C75.3288 41.4398 78.7372 38.1109 78.7372 34.0243C78.7372 29.9378 75.3288 26.6088 71.1434 26.6088Z" fill="#3D3D3D"/>
<path d="M20.7061 293.408C20.3823 293.408 20.1174 293.15 20.1174 292.834V34.0271C20.1174 33.7114 20.3823 33.4531 20.7061 33.4531H54.4016C54.7254 33.4531 54.9903 33.7114 54.9903 34.0271C54.9903 34.3428 54.7254 34.601 54.4016 34.601H21.2948V292.834C21.2948 293.15 21.0299 293.408 20.7061 293.408Z" fill="#3D3D3D"/>
<path d="M498.707 433.543C503.414 433.543 507.231 429.817 507.231 425.221C507.231 420.624 503.414 416.898 498.707 416.898C493.999 416.898 490.183 420.624 490.183 425.221C490.183 429.817 493.999 433.543 498.707 433.543Z" fill="#F4EAE2"/>
<path d="M498.707 434.113C493.68 434.113 489.594 430.124 489.594 425.217C489.594 420.309 493.685 416.32 498.707 416.32C503.728 416.32 507.819 420.309 507.819 425.217C507.819 430.124 503.728 434.113 498.707 434.113ZM498.707 417.468C494.327 417.468 490.771 420.946 490.771 425.217C490.771 429.487 494.333 432.965 498.707 432.965C503.081 432.965 506.642 429.487 506.642 425.217C506.642 420.946 503.081 417.468 498.707 417.468Z" fill="#3D3D3D"/>
<path d="M523.59 433.543C528.298 433.543 532.114 429.817 532.114 425.221C532.114 420.624 528.298 416.898 523.59 416.898C518.882 416.898 515.066 420.624 515.066 425.221C515.066 429.817 518.882 433.543 523.59 433.543Z" fill="#F4EAE2"/>
<path d="M523.59 434.113C518.563 434.113 514.477 430.124 514.477 425.217C514.477 420.309 518.569 416.32 523.59 416.32C528.611 416.32 532.703 420.309 532.703 425.217C532.703 430.124 528.611 434.113 523.59 434.113ZM523.59 417.468C519.21 417.468 515.655 420.946 515.655 425.217C515.655 429.487 519.216 432.965 523.59 432.965C527.964 432.965 531.525 429.487 531.525 425.217C531.525 420.946 527.964 417.468 523.59 417.468Z" fill="#3D3D3D"/>
<path d="M548.473 433.543C553.181 433.543 556.997 429.817 556.997 425.221C556.997 420.624 553.181 416.898 548.473 416.898C543.765 416.898 539.949 420.624 539.949 425.221C539.949 429.817 543.765 433.543 548.473 433.543Z" fill="#F4EAE2"/>
<path d="M548.473 434.113C543.446 434.113 539.36 430.124 539.36 425.217C539.36 420.309 543.452 416.32 548.473 416.32C553.494 416.32 557.586 420.309 557.586 425.217C557.586 430.124 553.494 434.113 548.473 434.113ZM548.473 417.468C544.099 417.468 540.538 420.946 540.538 425.217C540.538 429.487 544.099 432.965 548.473 432.965C552.847 432.965 556.408 429.487 556.408 425.217C556.408 420.946 552.847 417.468 548.473 417.468Z" fill="#3D3D3D"/>
<path d="M601.018 425.784H565.909C565.586 425.784 565.321 425.526 565.321 425.21C565.321 424.894 565.586 424.636 565.909 424.636H600.429V368.027C600.429 367.711 600.694 367.453 601.018 367.453C601.342 367.453 601.606 367.711 601.606 368.027V425.21C601.606 425.526 601.342 425.784 601.018 425.784Z" fill="#3D3D3D"/>
<path d="M512.923 27.875H334.897V138.476H512.923V27.875Z" fill="#F4EAE2"/>
<path d="M512.923 139.046H334.897C334.574 139.046 334.309 138.787 334.309 138.472V27.8708C334.309 27.5552 334.574 27.2969 334.897 27.2969H512.923C513.247 27.2969 513.512 27.5552 513.512 27.8708V138.472C513.512 138.787 513.247 139.046 512.923 139.046ZM335.486 137.898H512.334V28.4448H335.486V137.898Z" fill="#3D3D3D"/>
<path d="M400.746 46.3588H364.967C364.643 46.3588 364.378 46.1006 364.378 45.7849C364.378 45.4692 364.643 45.2109 364.967 45.2109H400.746C401.07 45.2109 401.335 45.4692 401.335 45.7849C401.335 46.1006 401.07 46.3588 400.746 46.3588Z" fill="#3D3D3D"/>
<path d="M442.989 46.3588H407.21C406.886 46.3588 406.621 46.1006 406.621 45.7849C406.621 45.4692 406.886 45.2109 407.21 45.2109H442.989C443.313 45.2109 443.578 45.4692 443.578 45.7849C443.578 46.1006 443.313 46.3588 442.989 46.3588Z" fill="#3D3D3D"/>
<path d="M474.671 46.3588H449.453C449.129 46.3588 448.864 46.1006 448.864 45.7849C448.864 45.4692 449.129 45.2109 449.453 45.2109H474.671C474.995 45.2109 475.26 45.4692 475.26 45.7849C475.26 46.1006 474.995 46.3588 474.671 46.3588Z" fill="#3D3D3D"/>
<path d="M395.466 58.3354H364.967C364.643 58.3354 364.378 58.0771 364.378 57.7615C364.378 57.4458 364.643 57.1875 364.967 57.1875H395.466C395.789 57.1875 396.054 57.4458 396.054 57.7615C396.054 58.0771 395.789 58.3354 395.466 58.3354Z" fill="#3D3D3D"/>
<path d="M432.428 58.3354H401.929C401.605 58.3354 401.341 58.0771 401.341 57.7615C401.341 57.4458 401.605 57.1875 401.929 57.1875H432.428C432.752 57.1875 433.017 57.4458 433.017 57.7615C433.017 58.0771 432.752 58.3354 432.428 58.3354Z" fill="#3D3D3D"/>
<path d="M485.226 58.3354H438.886C438.562 58.3354 438.297 58.0771 438.297 57.7615C438.297 57.4458 438.562 57.1875 438.886 57.1875H485.226C485.55 57.1875 485.815 57.4458 485.815 57.7615C485.815 58.0771 485.55 58.3354 485.226 58.3354Z" fill="#3D3D3D"/>
<path d="M390.185 70.2963H364.967C364.643 70.2963 364.378 70.0381 364.378 69.7224C364.378 69.4067 364.643 69.1484 364.967 69.1484H390.185C390.509 69.1484 390.774 69.4067 390.774 69.7224C390.774 70.0381 390.509 70.2963 390.185 70.2963Z" fill="#3D3D3D"/>
<path d="M432.428 70.2963H396.649C396.325 70.2963 396.06 70.0381 396.06 69.7224C396.06 69.4067 396.325 69.1484 396.649 69.1484H432.428C432.752 69.1484 433.017 69.4067 433.017 69.7224C433.017 70.0381 432.752 70.2963 432.428 70.2963Z" fill="#3D3D3D"/>
<path d="M464.111 70.2963H438.892C438.568 70.2963 438.303 70.0381 438.303 69.7224C438.303 69.4067 438.568 69.1484 438.892 69.1484H464.111C464.434 69.1484 464.699 69.4067 464.699 69.7224C464.699 70.0381 464.434 70.2963 464.111 70.2963Z" fill="#3D3D3D"/>
<path d="M390.185 94.2182H364.967C364.643 94.2182 364.378 93.9599 364.378 93.6443C364.378 93.3286 364.643 93.0703 364.967 93.0703H390.185C390.509 93.0703 390.774 93.3286 390.774 93.6443C390.774 93.9599 390.509 94.2182 390.185 94.2182Z" fill="#3D3D3D"/>
<path d="M432.428 94.2182H396.649C396.325 94.2182 396.06 93.9599 396.06 93.6443C396.06 93.3286 396.325 93.0703 396.649 93.0703H432.428C432.752 93.0703 433.017 93.3286 433.017 93.6443C433.017 93.9599 432.752 94.2182 432.428 94.2182Z" fill="#3D3D3D"/>
<path d="M374.35 106.187H364.972C364.649 106.187 364.384 105.929 364.384 105.613C364.384 105.297 364.649 105.039 364.972 105.039H374.35C374.674 105.039 374.939 105.297 374.939 105.613C374.939 105.929 374.674 106.187 374.35 106.187Z" fill="#3D3D3D"/>
<path d="M458.536 106.187H424.552C424.228 106.187 423.963 105.929 423.963 105.613C423.963 105.297 424.228 105.039 424.552 105.039H458.536C458.86 105.039 459.124 105.297 459.124 105.613C459.124 105.929 458.86 106.187 458.536 106.187Z" fill="#3D3D3D"/>
<path d="M417.176 106.187H380.808C380.484 106.187 380.219 105.929 380.219 105.613C380.219 105.297 380.484 105.039 380.808 105.039H417.176C417.5 105.039 417.765 105.297 417.765 105.613C417.765 105.929 417.5 106.187 417.176 106.187Z" fill="#3D3D3D"/>
<path d="M400.746 118.156H364.967C364.643 118.156 364.378 117.897 364.378 117.582C364.378 117.266 364.643 117.008 364.967 117.008H400.746C401.07 117.008 401.335 117.266 401.335 117.582C401.335 117.897 401.07 118.156 400.746 118.156Z" fill="#3D3D3D"/>
<path d="M442.989 118.156H407.21C406.886 118.156 406.621 117.897 406.621 117.582C406.621 117.266 406.886 117.008 407.21 117.008H442.989C443.313 117.008 443.578 117.266 443.578 117.582C443.578 117.897 443.313 118.156 442.989 118.156Z" fill="#3D3D3D"/>
<path d="M485.226 118.156H449.447C449.123 118.156 448.858 117.897 448.858 117.582C448.858 117.266 449.123 117.008 449.447 117.008H485.226C485.55 117.008 485.815 117.266 485.815 117.582C485.815 117.897 485.55 118.156 485.226 118.156Z" fill="#3D3D3D"/>
<path d="M675.673 394.388L588.691 357.971V207.836L675.673 212.657V394.388Z" fill="#F4EAE2"/>
<path d="M675.673 394.959C675.596 394.959 675.514 394.942 675.443 394.914L588.467 358.496C588.249 358.404 588.108 358.198 588.108 357.968V207.833C588.108 207.673 588.173 207.523 588.291 207.414C588.408 207.305 588.561 207.248 588.726 207.259L675.702 212.08C676.014 212.098 676.256 212.35 676.256 212.654V394.385C676.256 394.581 676.156 394.759 675.991 394.862C675.891 394.925 675.779 394.959 675.667 394.959H675.673ZM589.28 357.589L675.078 393.513V213.194L589.28 208.442V357.589Z" fill="#3D3D3D"/>
<path d="M622.487 347.41C622.416 347.41 622.345 347.398 622.28 347.375L597.645 338.45C597.415 338.364 597.262 338.152 597.262 337.911V246.847C597.262 246.681 597.338 246.52 597.468 246.411C597.597 246.302 597.774 246.256 597.939 246.279L622.575 249.889C622.863 249.93 623.075 250.171 623.075 250.458V346.83C623.075 347.02 622.981 347.192 622.822 347.301C622.722 347.37 622.604 347.404 622.487 347.404V347.41ZM598.439 337.515L621.898 346.009V250.957L598.439 247.519V337.515Z" fill="#3D3D3D"/>
<path d="M664.906 289.839L630.016 282.361V250.719L664.906 255.77V289.839Z" fill="#F4EAE2"/>
<path d="M664.906 290.407C664.865 290.407 664.824 290.407 664.782 290.396L629.892 282.917C629.621 282.86 629.427 282.624 629.427 282.355V250.707C629.427 250.54 629.503 250.38 629.633 250.271C629.762 250.162 629.933 250.116 630.104 250.139L664.994 255.189C665.283 255.23 665.495 255.471 665.495 255.758V289.833C665.495 290.005 665.412 290.172 665.277 290.281C665.171 290.361 665.041 290.407 664.906 290.407ZM630.604 281.895L664.317 289.122V256.257L630.604 251.378V281.895Z" fill="#3D3D3D"/>
<path d="M664.906 362.208L630.016 349.569V296.484L664.906 305.048V362.208Z" fill="#3D3D3D"/>
<path d="M664.912 234.913C664.912 234.913 664.871 234.913 664.853 234.913L597.792 228.146C597.468 228.111 597.232 227.83 597.268 227.514C597.303 227.199 597.592 226.969 597.915 227.003L664.977 233.77C665.3 233.805 665.536 234.086 665.501 234.402C665.471 234.694 665.212 234.918 664.918 234.918L664.912 234.913Z" fill="#3D3D3D"/>
<path d="M733.421 165.118L644.344 170.054V37.9987L733.421 0.703125V165.118Z" fill="#F4EAE2"/>
<path d="M644.344 170.624C644.197 170.624 644.049 170.566 643.938 170.469C643.82 170.36 643.755 170.21 643.755 170.05V37.9944C643.755 37.7649 643.896 37.5582 644.114 37.4664L733.192 0.17086C733.374 0.0962462 733.586 0.113465 733.745 0.216777C733.91 0.325828 734.01 0.503754 734.01 0.698898V165.114C734.01 165.418 733.769 165.671 733.457 165.688L644.379 170.624C644.379 170.624 644.356 170.624 644.344 170.624ZM644.932 38.3732V169.441L732.833 164.569V1.57131L644.932 38.3732Z" fill="#3D3D3D"/>
<path d="M632.158 210.23C631.834 210.23 631.57 209.971 631.57 209.656V123C631.57 122.736 631.752 122.507 632.017 122.443L644.202 119.516C644.52 119.442 644.838 119.631 644.915 119.935C644.991 120.245 644.797 120.555 644.485 120.63L632.747 123.448V209.65C632.747 209.966 632.482 210.224 632.158 210.224V210.23Z" fill="#3D3D3D"/>
<path d="M629.297 209.501C629.297 214.236 630.575 218.174 632.158 218.3C633.759 218.426 635.066 214.632 635.066 209.823C635.066 205.013 633.759 201.07 632.158 201.024C630.575 200.972 629.297 204.772 629.297 209.507V209.501Z" fill="#3D3D3D"/>
<path d="M656.841 55.4642C656.6 55.4642 656.376 55.3207 656.288 55.0911C656.176 54.7927 656.329 54.4655 656.635 54.3565L672.677 48.5825C672.983 48.4735 673.318 48.6227 673.436 48.9211C673.548 49.2196 673.395 49.5467 673.089 49.6558L657.047 55.4298C656.983 55.4527 656.912 55.4642 656.841 55.4642Z" fill="#3D3D3D"/>
<path d="M675.926 48.5862C675.685 48.5862 675.461 48.4427 675.373 48.2131C675.261 47.9146 675.414 47.5875 675.72 47.4784L693.468 41.0903C693.774 40.9813 694.11 41.1305 694.228 41.429C694.34 41.7274 694.186 42.0546 693.88 42.1636L676.132 48.5517C676.067 48.5747 675.997 48.5862 675.926 48.5862Z" fill="#3D3D3D"/>
<path d="M697.053 40.9835C696.812 40.9835 696.588 40.8401 696.5 40.6105C696.388 40.312 696.541 39.9849 696.847 39.8758L710.575 34.9341C710.881 34.825 711.217 34.9742 711.335 35.2727C711.446 35.5712 711.293 35.8983 710.987 36.0074L697.259 40.9491C697.195 40.9721 697.124 40.9835 697.053 40.9835Z" fill="#3D3D3D"/>
<path d="M656.841 70.2306C656.594 70.2306 656.364 70.0756 656.282 69.8345C656.182 69.5361 656.347 69.2089 656.659 69.1113L670.245 64.755C670.557 64.6575 670.887 64.8182 670.987 65.1224C671.087 65.4208 670.922 65.748 670.61 65.8455L657.024 70.2019C656.965 70.2191 656.9 70.2306 656.841 70.2306Z" fill="#3D3D3D"/>
<path d="M673.436 64.9136C673.189 64.9136 672.959 64.7586 672.877 64.5175C672.777 64.2191 672.941 63.8919 673.253 63.7944L688.094 59.0363C688.4 58.9387 688.735 59.0994 688.835 59.4036C688.936 59.7021 688.771 60.0292 688.459 60.1268L673.618 64.8849C673.559 64.9021 673.495 64.9136 673.436 64.9136Z" fill="#3D3D3D"/>
<path d="M691.561 59.0998C691.314 59.0998 691.084 58.9448 691.002 58.7038C690.902 58.4053 691.067 58.0782 691.379 57.9806L716.615 49.8878C716.927 49.7903 717.257 49.951 717.357 50.2552C717.457 50.5536 717.292 50.8808 716.98 50.9784L691.744 59.0711C691.685 59.0883 691.62 59.0998 691.561 59.0998Z" fill="#3D3D3D"/>
<path d="M656.841 85.0132C656.588 85.0132 656.353 84.8467 656.276 84.5999C656.188 84.2957 656.364 83.9801 656.676 83.8882L667.844 80.7487C668.161 80.6626 668.479 80.8348 668.573 81.139C668.662 81.4432 668.485 81.7646 668.173 81.8507L657.006 84.9902C656.953 85.0074 656.894 85.0132 656.841 85.0132Z" fill="#3D3D3D"/>
<path d="M670.975 81.0455C670.722 81.0455 670.487 80.8848 670.41 80.6322C670.322 80.328 670.498 80.0066 670.81 79.9205L688.106 75.0534C688.424 74.9673 688.747 75.1395 688.836 75.4437C688.924 75.7479 688.747 76.0636 688.435 76.1554L671.14 81.0225C671.087 81.0397 671.028 81.0455 670.975 81.0455Z" fill="#3D3D3D"/>
<path d="M691.561 75.2502C691.308 75.2502 691.073 75.0838 690.996 74.837C690.908 74.5328 691.084 74.2171 691.396 74.1253L704.759 70.3659C705.077 70.2798 705.395 70.452 705.489 70.7562C705.577 71.0604 705.401 71.3761 705.089 71.4679L691.726 75.2273C691.673 75.2445 691.614 75.2502 691.561 75.2502Z" fill="#3D3D3D"/>
<path d="M656.841 114.574C656.57 114.574 656.323 114.39 656.264 114.115C656.2 113.805 656.406 113.5 656.723 113.437L667.891 111.176C668.208 111.113 668.52 111.308 668.585 111.624C668.65 111.934 668.444 112.238 668.126 112.301L656.959 114.562C656.918 114.568 656.877 114.574 656.841 114.574Z" fill="#3D3D3D"/>
<path d="M670.975 111.71C670.704 111.71 670.457 111.526 670.398 111.251C670.333 110.941 670.54 110.637 670.857 110.573L688.153 107.067C688.47 107.003 688.782 107.199 688.847 107.514C688.912 107.824 688.706 108.128 688.388 108.191L671.093 111.698C671.052 111.704 671.011 111.71 670.975 111.71Z" fill="#3D3D3D"/>
<path d="M656.841 129.355C656.559 129.355 656.311 129.154 656.258 128.873C656.205 128.563 656.423 128.264 656.741 128.213L660.821 127.547C661.139 127.495 661.445 127.708 661.498 128.017C661.551 128.327 661.333 128.626 661.015 128.677L656.935 129.343C656.9 129.343 656.871 129.349 656.835 129.349L656.841 129.355Z" fill="#3D3D3D"/>
<path d="M684.338 124.863C684.055 124.863 683.808 124.663 683.755 124.381C683.702 124.071 683.92 123.773 684.238 123.721L701.798 120.851C702.116 120.8 702.422 121.012 702.475 121.322C702.528 121.632 702.31 121.931 701.992 121.982L684.432 124.852C684.397 124.852 684.367 124.858 684.332 124.858L684.338 124.863Z" fill="#3D3D3D"/>
<path d="M663.782 128.215C663.499 128.215 663.252 128.014 663.199 127.739C663.146 127.429 663.364 127.131 663.682 127.079L680.624 124.312C680.941 124.261 681.248 124.473 681.3 124.783C681.353 125.093 681.136 125.391 680.818 125.443L663.876 128.21C663.841 128.21 663.811 128.215 663.776 128.215H663.782Z" fill="#3D3D3D"/>
<path d="M656.841 144.123C656.547 144.123 656.294 143.91 656.258 143.623C656.217 143.308 656.447 143.021 656.771 142.981L672.812 140.989C673.142 140.949 673.43 141.173 673.471 141.488C673.512 141.804 673.283 142.091 672.959 142.131L656.918 144.123C656.918 144.123 656.871 144.123 656.841 144.123Z" fill="#3D3D3D"/>
<path d="M675.926 141.757C675.632 141.757 675.378 141.545 675.343 141.258C675.302 140.942 675.532 140.655 675.855 140.615L693.604 138.411C693.933 138.371 694.222 138.595 694.263 138.91C694.304 139.226 694.075 139.513 693.751 139.553L676.002 141.757C676.002 141.757 675.949 141.757 675.926 141.757Z" fill="#3D3D3D"/>
<path d="M697.053 139.137C696.759 139.137 696.506 138.924 696.47 138.637C696.429 138.322 696.659 138.035 696.983 137.995L716.727 135.544C717.056 135.504 717.345 135.727 717.386 136.043C717.427 136.359 717.198 136.646 716.874 136.686L697.13 139.137C697.13 139.137 697.077 139.137 697.053 139.137Z" fill="#3D3D3D"/>
<path d="M723.402 82.8721L653.15 99.5397V55.1387L723.402 28.8516V82.8721Z" fill="#FF4D4F"/>
<path d="M657.913 82.6413C657.86 82.6413 657.801 82.6356 657.742 82.6184C657.43 82.5265 657.253 82.2051 657.348 81.9067C659.384 75.2832 661.704 71.1623 664.247 69.6528C666.654 68.2236 668.356 69.5207 669.863 70.6687C671.299 71.7592 672.535 72.7062 674.425 71.7305C676.738 70.5309 678.192 67.5349 679.599 64.6364C681.171 61.3993 682.655 58.3401 685.321 58.0359C687.446 57.7949 688.518 59.4708 689.454 60.9459C690.354 62.3693 691.143 63.5918 692.668 63.5057C694.746 63.3909 696.271 61.0664 698.195 58.1278C700.038 55.3154 702.128 52.1299 705.407 49.7365C708.303 47.6244 711.405 46.6602 714.637 46.8725C714.961 46.8955 715.208 47.1652 715.185 47.4809C715.161 47.7966 714.872 48.0376 714.56 48.0147C711.623 47.8253 708.78 48.7092 706.113 50.6549C703.005 52.922 700.974 56.0156 699.19 58.7419C697.165 61.8298 695.417 64.5044 692.738 64.6479C690.49 64.7741 689.418 63.058 688.459 61.5428C687.458 59.9701 686.758 59.0231 685.463 59.1666C683.449 59.3962 682.095 62.1741 680.671 65.1128C679.181 68.1777 677.639 71.3517 674.984 72.7291C672.423 74.055 670.61 72.6717 669.145 71.5583C667.549 70.3472 666.496 69.6528 664.865 70.617C662.581 71.9715 660.432 75.8744 658.484 82.2166C658.407 82.4634 658.172 82.6241 657.919 82.6241L657.913 82.6413Z" fill="#3D3D3D"/>
<path d="M12.4529 434.686L80.0323 406.391V289.734L12.4529 293.482V434.686Z" fill="#F4EAE2"/>
<path d="M12.4469 435.258C12.3351 435.258 12.2233 435.223 12.1232 435.16C11.9584 435.057 11.8583 434.873 11.8583 434.684V293.48C11.8583 293.175 12.0996 292.923 12.4116 292.906L79.991 289.158C80.15 289.146 80.3089 289.204 80.4267 289.313C80.5444 289.422 80.6091 289.571 80.6091 289.732V406.382C80.6091 406.612 80.4678 406.818 80.25 406.91L12.6706 435.206C12.5941 435.235 12.5176 435.252 12.4411 435.252L12.4469 435.258ZM13.0356 294.019V433.811L79.4377 406.009V290.34L13.0356 294.019Z" fill="#3D3D3D"/>
<path d="M49.8746 398.74L20.3115 409.519V312.216L49.8746 309.57V398.74Z" fill="#F4EAE2"/>
<path d="M20.3116 410.091C20.1938 410.091 20.0761 410.057 19.976 409.988C19.8171 409.879 19.7229 409.707 19.7229 409.518V312.221C19.7229 311.922 19.9525 311.676 20.2586 311.647L49.8216 308.995C49.9924 308.978 50.1513 309.035 50.2749 309.144C50.3985 309.253 50.4692 309.408 50.4692 309.569V398.739C50.4692 398.98 50.3161 399.192 50.0865 399.278L20.5235 410.051C20.4587 410.074 20.3881 410.086 20.3175 410.086L20.3116 410.091ZM20.9002 312.743V408.691L49.286 398.343V310.2L20.9002 312.743Z" fill="#3D3D3D"/>
<path d="M58.3927 311.405C58.0925 311.405 57.8394 311.181 57.8099 310.888C57.7805 310.573 58.016 310.291 58.3397 310.263L75.4818 308.604C75.7997 308.575 76.094 308.805 76.1235 309.121C76.1529 309.436 75.9174 309.717 75.5937 309.746L58.4516 311.405C58.4516 311.405 58.4104 311.405 58.3927 311.405Z" fill="#3D3D3D"/>
<path d="M58.3926 322.358C58.1042 322.358 57.8511 322.151 57.8098 321.864C57.7628 321.548 57.9923 321.261 58.3102 321.215L75.4523 318.897C75.7761 318.851 76.0704 319.075 76.1175 319.384C76.1646 319.7 75.935 319.987 75.6171 320.033L58.475 322.352C58.475 322.352 58.4221 322.352 58.3926 322.352V322.358Z" fill="#3D3D3D"/>
<path d="M58.3927 333.328C58.1101 333.328 57.8629 333.133 57.8158 332.857C57.7569 332.547 57.9747 332.249 58.2926 332.191L75.4347 329.213C75.7585 329.155 76.0587 329.367 76.1175 329.677C76.1764 329.987 75.9586 330.286 75.6407 330.343L58.4986 333.322C58.4633 333.328 58.428 333.333 58.3927 333.333V333.328Z" fill="#3D3D3D"/>
<path d="M1.11505 248.071L90.1927 253.007V120.958L1.11505 83.6562V248.071Z" fill="#F4EAE2"/>
<path d="M90.1928 253.573C90.1928 253.573 90.1692 253.573 90.1574 253.573L1.07978 248.637C0.767783 248.62 0.526428 248.367 0.526428 248.063V83.6484C0.526428 83.4532 0.626502 83.2753 0.79133 83.1663C0.956158 83.0572 1.16219 83.04 1.34468 83.1204L90.4223 120.416C90.6402 120.508 90.7814 120.714 90.7814 120.944V252.994C90.7814 253.154 90.7167 253.303 90.5989 253.413C90.4871 253.516 90.3458 253.567 90.1928 253.567V253.573ZM1.70377 247.518L89.6041 252.391V121.323L1.70377 84.5208V247.518Z" fill="#3D3D3D"/>
<path d="M77.6952 138.41C77.6246 138.41 77.5598 138.398 77.4892 138.375L61.4479 132.601C61.1418 132.492 60.9887 132.159 61.1006 131.866C61.2124 131.568 61.5539 131.419 61.86 131.528L77.9012 137.302C78.2073 137.411 78.3604 137.744 78.2486 138.036C78.1603 138.266 77.9366 138.41 77.6952 138.41Z" fill="#3D3D3D"/>
<path d="M58.6105 131.531C58.5399 131.531 58.4751 131.52 58.4045 131.497L40.6561 125.109C40.35 125 40.1969 124.667 40.3088 124.374C40.4206 124.076 40.762 123.927 41.0682 124.036L58.8166 130.424C59.1227 130.533 59.2757 130.866 59.1639 131.158C59.0756 131.388 58.8519 131.531 58.6105 131.531Z" fill="#3D3D3D"/>
<path d="M37.4832 123.929C37.4125 123.929 37.3478 123.917 37.2771 123.894L23.5493 118.953C23.2432 118.844 23.0902 118.511 23.202 118.218C23.3139 117.92 23.6553 117.77 23.9614 117.879L37.6892 122.821C37.9953 122.93 38.1484 123.263 38.0365 123.556C37.9482 123.785 37.7245 123.929 37.4832 123.929Z" fill="#3D3D3D"/>
<path d="M77.6954 153.175C77.6365 153.175 77.5717 153.164 77.5129 153.147L63.9263 148.79C63.6202 148.693 63.4495 148.366 63.5496 148.067C63.6497 147.769 63.9852 147.602 64.2913 147.7L77.8778 152.056C78.1839 152.154 78.3547 152.481 78.2546 152.779C78.1722 153.02 77.9426 153.175 77.6954 153.175Z" fill="#3D3D3D"/>
<path d="M61.1007 147.859C61.0418 147.859 60.9771 147.847 60.9182 147.83L46.0778 143.072C45.7717 142.975 45.601 142.647 45.7011 142.349C45.8012 142.045 46.1367 141.884 46.4428 141.982L61.2832 146.74C61.5893 146.837 61.76 147.164 61.6599 147.463C61.5775 147.704 61.348 147.859 61.1007 147.859Z" fill="#3D3D3D"/>
<path d="M42.9755 142.045C42.9167 142.045 42.8519 142.033 42.793 142.016L17.5567 133.923C17.2506 133.826 17.0799 133.498 17.18 133.2C17.28 132.902 17.6156 132.735 17.9217 132.833L43.158 140.925C43.4641 141.023 43.6348 141.35 43.5348 141.649C43.4523 141.89 43.2228 142.045 42.9755 142.045Z" fill="#3D3D3D"/>
<path d="M77.6953 167.961C77.6423 167.961 77.5893 167.955 77.5304 167.938L66.3634 164.798C66.0514 164.712 65.8689 164.391 65.9631 164.086C66.0514 163.782 66.381 163.604 66.693 163.696L77.8601 166.836C78.1721 166.922 78.3546 167.243 78.2604 167.547C78.1839 167.8 77.9484 167.961 77.6953 167.961Z" fill="#3D3D3D"/>
<path d="M63.5613 163.985C63.5083 163.985 63.4554 163.979 63.3965 163.962L46.1013 159.095C45.7893 159.009 45.6068 158.687 45.701 158.383C45.7893 158.079 46.1131 157.901 46.431 157.993L63.7261 162.86C64.0381 162.946 64.2206 163.268 64.1264 163.572C64.0499 163.824 63.8144 163.985 63.5613 163.985Z" fill="#3D3D3D"/>
<path d="M42.9755 158.19C42.9225 158.19 42.8695 158.184 42.8107 158.167L29.4478 154.407C29.1358 154.321 28.9533 154 29.0475 153.696C29.1358 153.392 29.4596 153.214 29.7775 153.305L43.1403 157.065C43.4523 157.151 43.6348 157.472 43.5406 157.777C43.4641 158.029 43.2286 158.19 42.9755 158.19Z" fill="#3D3D3D"/>
<path d="M63.5613 194.651C63.5201 194.651 63.4789 194.651 63.4436 194.64L16.6207 185.152C16.3028 185.089 16.0968 184.785 16.1616 184.475C16.2263 184.165 16.5383 183.964 16.8562 184.027L63.6791 193.515C63.9969 193.578 64.203 193.882 64.1382 194.192C64.0794 194.462 63.838 194.651 63.5613 194.651Z" fill="#3D3D3D"/>
<path d="M77.6954 212.294C77.6659 212.294 77.6306 212.294 77.5953 212.289L73.5158 211.623C73.1979 211.571 72.9801 211.273 73.0331 210.963C73.0861 210.653 73.3922 210.44 73.7101 210.492L77.7895 211.158C78.1074 211.21 78.3252 211.508 78.2723 211.818C78.2252 212.099 77.972 212.294 77.6895 212.294H77.6954Z" fill="#3D3D3D"/>
<path d="M50.1985 207.804C50.1691 207.804 50.1338 207.804 50.0985 207.798L16.6384 202.334C16.3205 202.282 16.1027 201.984 16.1557 201.674C16.2087 201.364 16.5089 201.151 16.8327 201.203L50.2927 206.667C50.6106 206.719 50.8284 207.017 50.7754 207.327C50.7283 207.608 50.4752 207.804 50.1927 207.804H50.1985Z" fill="#3D3D3D"/>
<path d="M58.6106 224.707C58.6106 224.707 58.5635 224.707 58.534 224.707L17.6626 219.639C17.3388 219.599 17.1093 219.312 17.1505 218.996C17.1917 218.681 17.486 218.457 17.8098 218.497L58.6812 223.565C59.005 223.605 59.2346 223.892 59.1933 224.208C59.158 224.495 58.899 224.707 58.6106 224.707Z" fill="#3D3D3D"/>
<path d="M11.1343 165.81L81.3862 182.477V138.076L11.1343 111.789V165.81Z" fill="#FF4D4F"/>
<path d="M18.7516 165.159C18.628 165.159 18.5044 165.118 18.3925 165.038C18.1335 164.843 18.0864 164.487 18.2807 164.235L52.8004 120.207C53.024 119.925 53.5126 119.925 53.7363 120.207L66.1808 136.082L88.5739 107.522C88.774 107.27 89.139 107.224 89.398 107.413C89.657 107.608 89.7041 107.964 89.5099 108.217L66.6518 137.374C66.4281 137.655 65.9395 137.655 65.7158 137.374L53.2713 121.498L19.2167 164.935C19.099 165.084 18.9223 165.159 18.7457 165.159H18.7516Z" fill="#3D3D3D"/>
<path d="M87.7969 115.479L86.6725 115.134L88.9742 107.96L82.4812 112.012L81.8454 111.048L91.064 105.297L87.7969 115.479Z" fill="#3D3D3D"/>
<path d="M288.21 131.815H266.405C266.082 131.815 265.817 131.557 265.817 131.241C265.817 130.926 266.082 130.667 266.405 130.667H287.621V60.863C287.621 60.5473 287.886 60.2891 288.21 60.2891H331.636C331.96 60.2891 332.225 60.5473 332.225 60.863C332.225 61.1787 331.96 61.437 331.636 61.437H288.798V131.241C288.798 131.557 288.534 131.815 288.21 131.815Z" fill="#3D3D3D"/>
<path d="M255.992 137.714C259.662 137.714 262.638 134.815 262.638 131.24C262.638 127.664 259.662 124.766 255.992 124.766C252.321 124.766 249.346 127.664 249.346 131.24C249.346 134.815 252.321 137.714 255.992 137.714Z" fill="#3D3D3D"/>
<path d="M79.6004 389.213C83.271 389.208 86.2424 386.305 86.2372 382.73C86.2321 379.154 83.2524 376.259 79.5819 376.264C75.9113 376.269 72.9399 379.172 72.9451 382.748C72.9502 386.323 75.9299 389.218 79.6004 389.213Z" fill="#3D3D3D"/>
<path d="M219.877 383.312H94.596C94.2722 383.312 94.0073 383.054 94.0073 382.738C94.0073 382.422 94.2722 382.164 94.596 382.164H219.877C220.201 382.164 220.466 382.422 220.466 382.738C220.466 383.054 220.201 383.312 219.877 383.312Z" fill="#3D3D3D"/>
<path d="M219.877 407.445H127.302C126.979 407.445 126.714 407.187 126.714 406.871C126.714 406.555 126.979 406.297 127.302 406.297H219.877C220.201 406.297 220.466 406.555 220.466 406.871C220.466 407.187 220.201 407.445 219.877 407.445Z" fill="#3D3D3D"/>
<path d="M219.877 431.578H127.302C126.979 431.578 126.714 431.319 126.714 431.004C126.714 430.688 126.979 430.43 127.302 430.43H219.877C220.201 430.43 220.466 430.688 220.466 431.004C220.466 431.319 220.201 431.578 219.877 431.578Z" fill="#3D3D3D"/>
<path d="M663.782 29.4187C663.458 29.4187 663.193 29.1604 663.193 28.8447V13.0151H477.35V27.869C477.35 28.1847 477.085 28.443 476.761 28.443C476.437 28.443 476.172 28.1847 476.172 27.869V12.4411C476.172 12.1255 476.437 11.8672 476.761 11.8672H663.782C664.105 11.8672 664.37 12.1255 664.37 12.4411V28.8447C664.37 29.1604 664.105 29.4187 663.782 29.4187Z" fill="#3D3D3D"/>
<path d="M193.84 183.02C216.087 183.02 234.123 165.48 234.123 143.842C234.123 122.205 216.087 104.664 193.84 104.664C171.592 104.664 153.557 122.205 153.557 143.842C153.557 165.48 171.592 183.02 193.84 183.02Z" fill="#F4EAE2"/>
<path d="M193.84 183.598C171.306 183.598 152.969 165.765 152.969 143.846C152.969 121.926 171.3 104.094 193.84 104.094C216.38 104.094 234.705 121.926 234.705 143.846C234.705 165.765 216.374 183.598 193.84 183.598ZM193.84 105.236C171.953 105.236 154.146 122.552 154.146 143.84C154.146 165.128 171.953 182.444 193.84 182.444C215.727 182.444 233.528 165.128 233.528 143.84C233.528 122.552 215.721 105.236 193.84 105.236Z" fill="#3D3D3D"/>
<path d="M238.967 133.088C234.146 113.229 215.833 98.4381 193.958 98.375V143.683C193.958 143.683 231.462 134.769 238.967 133.088Z" fill="#3D3D3D"/>
<path d="M167.609 109.977C158.149 116.875 152.109 127.144 150.537 138.221C161.192 139.61 194.005 143.828 194.005 143.828C194.005 143.828 171.936 115.647 167.609 109.977Z" fill="#F4EAE2"/>
<path d="M194.005 144.407C194.005 144.407 193.952 144.407 193.928 144.407C193.928 144.407 161.116 140.188 150.461 138.799C150.308 138.776 150.167 138.701 150.072 138.575C149.978 138.455 149.937 138.3 149.96 138.15C151.573 126.798 157.884 116.363 167.261 109.522C167.385 109.43 167.544 109.39 167.697 109.413C167.85 109.436 167.991 109.516 168.086 109.636C172.359 115.244 194.258 143.201 194.476 143.482C194.623 143.666 194.635 143.919 194.517 144.12C194.411 144.298 194.217 144.407 194.005 144.407ZM151.203 137.731C161.01 139.006 186.423 142.277 192.674 143.081C188.671 137.973 171.918 116.558 167.491 110.784C158.773 117.327 152.874 127.09 151.203 137.731Z" fill="#3D3D3D"/>
<path d="M161.51 32.9219H141.484V82.0696H161.51V32.9219Z" fill="#F4EAE2"/>
<path d="M161.51 82.6393H141.484C141.16 82.6393 140.895 82.3811 140.895 82.0654V32.9177C140.895 32.602 141.16 32.3438 141.484 32.3438H161.51C161.834 32.3438 162.099 32.602 162.099 32.9177V82.0654C162.099 82.3811 161.834 82.6393 161.51 82.6393ZM142.072 81.4914H160.922V33.4917H142.072V81.4914Z" fill="#3D3D3D"/>
<path d="M141.489 53.3438H121.463V82.0759H141.489V53.3438Z" fill="#F4EAE2"/>
<path d="M141.49 82.6457H121.463C121.139 82.6457 120.874 82.3874 120.874 82.0717V53.3396C120.874 53.0239 121.139 52.7656 121.463 52.7656H141.49C141.813 52.7656 142.078 53.0239 142.078 53.3396V82.0717C142.078 82.3874 141.813 82.6457 141.49 82.6457ZM122.052 81.4978H140.901V53.9135H122.052V81.4978Z" fill="#3D3D3D"/>
<path d="M201.563 9.07812H181.537V82.0793H201.563V9.07812Z" fill="#F4EAE2"/>
<path d="M201.558 82.6434H181.531C181.207 82.6434 180.942 82.3851 180.942 82.0694V9.07395C180.942 8.75828 181.207 8.5 181.531 8.5H201.558C201.881 8.5 202.146 8.75828 202.146 9.07395V82.0752C202.146 82.3908 201.881 82.6491 201.558 82.6491V82.6434ZM182.125 81.4955H200.975V9.64791H182.125V81.5012V81.4955Z" fill="#3D3D3D"/>
<path d="M181.537 19.375H161.51V82.068H181.537V19.375Z" fill="#F4EAE2"/>
<path d="M181.537 82.6378H161.51C161.186 82.6378 160.922 82.3795 160.922 82.0638V19.3708C160.922 19.0552 161.186 18.7969 161.51 18.7969H181.537C181.861 18.7969 182.125 19.0552 182.125 19.3708V82.0638C182.125 82.3795 181.861 82.6378 181.537 82.6378ZM162.099 81.4899H180.948V19.9448H162.099V81.4899Z" fill="#3D3D3D"/>
<path d="M241.611 48.6641H221.584V82.0739H241.611V48.6641Z" fill="#F4EAE2"/>
<path d="M241.611 82.6437H221.584C221.26 82.6437 220.995 82.3854 220.995 82.0698V48.6599C220.995 48.3442 221.26 48.0859 221.584 48.0859H241.611C241.934 48.0859 242.199 48.3442 242.199 48.6599V82.0698C242.199 82.3854 241.934 82.6437 241.611 82.6437ZM222.173 81.4958H241.022V49.2338H222.173V81.4958Z" fill="#3D3D3D"/>
<path d="M221.584 26.6641H201.557V82.0678H221.584V26.6641Z" fill="#F4EAE2"/>
<path d="M221.584 82.6376H201.558C201.234 82.6376 200.969 82.3793 200.969 82.0637V26.6599C200.969 26.3442 201.234 26.0859 201.558 26.0859H221.584C221.908 26.0859 222.173 26.3442 222.173 26.6599V82.0637C222.173 82.3793 221.908 82.6376 221.584 82.6376ZM202.146 81.4897H220.995V27.2338H202.146V81.4897Z" fill="#3D3D3D"/>
<path d="M261.631 26.6641H241.605V82.0678H261.631V26.6641Z" fill="#F4EAE2"/>
<path d="M261.631 82.6376H241.605C241.281 82.6376 241.016 82.3793 241.016 82.0637V26.6599C241.016 26.3442 241.281 26.0859 241.605 26.0859H261.631C261.955 26.0859 262.22 26.3442 262.22 26.6599V82.0637C262.22 82.3793 261.955 82.6376 261.631 82.6376ZM242.199 81.4897H261.048V27.2338H242.199V81.4897Z" fill="#3D3D3D"/>
<path d="M431.239 476.329C429.838 439.338 429.379 435.022 428.69 413.303L295.462 355.047L247.362 476.639L431.233 476.323L431.239 476.329Z" fill="#3D3D3D"/>
<path d="M367.928 477.016C367.928 477.016 367.892 477.016 367.875 477.016C367.551 476.988 367.31 476.706 367.339 476.391L370.695 440.438C370.718 440.151 370.959 439.933 371.248 439.916C371.366 439.91 383.227 439.21 388.337 430.715C388.502 430.44 388.861 430.348 389.143 430.509C389.426 430.669 389.52 431.02 389.355 431.295C384.481 439.394 374.256 440.8 371.825 441.018L368.511 476.488C368.481 476.787 368.228 477.011 367.922 477.011L367.928 477.016Z" fill="#F4EAE2"/>
<path d="M610.437 72.7611C615.894 73.6048 617.724 76.4287 616.612 82.3748C616.123 84.9978 613.021 86.9148 612.521 89.5263C611.879 92.8667 614.569 94.9157 617.324 94.6402C620.079 94.3647 628.591 84.2861 628.562 80.1594C628.544 77.7889 625 71.1885 622.487 69.4264C622.487 69.4264 615.782 69.2829 613.616 70.6088C611.443 71.9346 610.984 72.3306 610.984 72.3306L610.431 72.7553L610.437 72.7611Z" fill="#F4EAE2"/>
<path d="M616.836 95.2511C615.393 95.2511 614.016 94.6886 613.074 93.6957C612.032 92.5879 611.626 91.0784 611.944 89.4312C612.214 88.002 613.304 86.7393 614.357 85.5168C615.399 84.3058 616.382 83.1636 616.547 81.9813C617.006 78.6638 615.817 75.2832 613.716 73.9344C612.627 73.2342 611.432 73.2285 610.266 73.9115C609.989 74.0722 609.624 73.9861 609.46 73.7163C609.289 73.4466 609.383 73.0907 609.66 72.93C611.22 72.0117 612.886 72.0289 614.363 72.9759C616.824 74.5543 618.231 78.4055 617.713 82.1362C617.501 83.6515 616.365 84.9773 615.258 86.2572C614.257 87.4166 613.315 88.5129 613.103 89.6435C612.791 91.2851 613.386 92.3297 613.939 92.9208C614.752 93.776 615.988 94.2122 617.265 94.086C619.532 93.8621 628.003 84.1393 627.979 80.179C627.961 78.0325 625.301 72.1609 622.958 70.5194C622.693 70.3357 622.634 69.9741 622.822 69.7159C623.011 69.4576 623.382 69.4002 623.646 69.5838C626.354 71.4836 629.139 77.7512 629.156 80.1676C629.186 84.5354 620.515 94.9124 617.389 95.2224C617.206 95.2396 617.018 95.2511 616.836 95.2511Z" fill="#3D3D3D"/>
<path d="M612.509 77.8705C617.966 78.7142 619.797 81.538 618.684 87.4842C618.195 90.1072 615.093 92.0242 614.593 94.6357C613.951 97.9761 616.641 100.025 619.396 99.7496C622.151 99.4741 630.663 89.3955 630.634 85.2687C630.616 82.8983 627.073 76.2978 624.559 74.5358C624.559 74.5358 617.854 74.3923 615.688 75.7181C613.515 77.044 613.056 77.44 613.056 77.44L612.503 77.8647L612.509 77.8705Z" fill="#F4EAE2"/>
<path d="M618.908 100.353C617.465 100.353 616.088 99.7902 615.152 98.7972C614.11 97.6895 613.704 96.18 614.022 94.5327C614.292 93.1036 615.381 91.8409 616.435 90.6184C617.477 89.4073 618.46 88.2652 618.625 87.0828C619.102 83.662 617.259 80.534 615.193 79.2139C614.363 78.6801 612.715 77.9455 610.99 78.9556C610.707 79.1163 610.348 79.0302 610.184 78.7605C610.013 78.4907 610.107 78.1349 610.384 77.9742C612.05 76.9984 614.039 77.096 615.841 78.2554C618.654 80.0576 620.279 83.7539 619.791 87.2378C619.579 88.753 618.443 90.0789 617.336 91.3588C616.335 92.5182 615.393 93.6144 615.181 94.7451C614.869 96.3866 615.464 97.4312 616.017 98.0224C616.83 98.8776 618.072 99.3138 619.343 99.1875C621.61 98.9637 630.086 89.2409 630.057 85.2806C630.039 83.134 627.379 77.2625 625.036 75.621C624.771 75.4373 624.712 75.0757 624.9 74.8174C625.089 74.5591 625.46 74.5017 625.724 74.6854C628.432 76.5852 631.217 82.8528 631.234 85.2691C631.264 89.6369 622.593 100.014 619.467 100.324C619.284 100.341 619.096 100.353 618.913 100.353H618.908Z" fill="#3D3D3D"/>
<path d="M616.671 75.3483C617.954 76.0486 620.821 79.498 621.486 80.7091C622.463 82.4711 623.346 84.5259 623.105 86.7528C622.81 89.4848 620.103 91.8725 619.967 94.6102C619.797 98.1056 622.834 99.8275 625.607 99.1674C628.379 98.5074 635.602 87.057 634.978 82.8557C634.619 80.4451 633.171 76.2724 630.357 74.8203L616.665 75.3483H616.671Z" fill="#F4EAE2"/>
<path d="M624.435 99.8767C623.228 99.8767 622.057 99.4864 621.15 98.7575C619.932 97.776 619.302 96.2952 619.384 94.5791C619.473 92.6908 620.691 90.527 621.863 88.432C622.493 87.3071 623.087 86.2453 623.464 85.304C624.082 83.7543 623.664 82.0497 622.181 80.0982C621.922 79.7538 621.663 79.375 621.392 78.979C619.944 76.8439 618.766 75.3688 616.824 75.8969C616.512 75.983 616.188 75.805 616.1 75.4951C616.011 75.1909 616.194 74.8752 616.512 74.7891C619.432 73.9971 621.062 76.4077 622.375 78.3419C622.634 78.7207 622.881 79.0881 623.128 79.4152C624.847 81.6766 625.33 83.8002 624.565 85.7172C624.159 86.7274 623.546 87.8236 622.899 88.9773C621.786 90.9574 620.638 93.0007 620.562 94.625C620.479 96.3469 621.245 97.3398 621.898 97.8621C622.852 98.6255 624.188 98.901 625.477 98.5968C627.738 98.0572 635.585 86.3314 634.967 82.1932C634.619 79.8686 632.7 76.666 630.086 75.3172C629.798 75.168 629.692 74.8236 629.839 74.5423C629.992 74.2611 630.345 74.1521 630.634 74.3013C633.577 75.8165 635.738 79.421 636.126 82.0267C636.791 86.4978 628.962 98.9469 625.748 99.7102C625.312 99.8135 624.865 99.8652 624.429 99.8652L624.435 99.8767Z" fill="#3D3D3D"/>
<path d="M584.753 149.652L592.341 114.974C592.341 114.974 619.596 117.378 620.909 117.327C624.953 117.166 637.139 101.4 632.082 98.1166C627.025 94.8336 621.845 104.333 619.443 103.776C618.031 103.449 611.85 101.87 609.76 100.619C607.941 99.5342 604.574 97.5943 604.88 95.5338C605.015 94.6097 605.798 90.2419 607.087 84.1465C608.176 79.0039 614.269 74.9174 619.661 74.8829C630.263 74.8198 640.129 74.814 650.825 74.814C653.786 74.814 655.853 72.656 655.994 71.4335C656.324 68.6268 655.929 66.5721 653.869 65.0052C651.773 63.4096 648.335 62.8414 643.349 62.8184C629.669 62.7667 606.616 62.7381 587.949 62.7266C570.03 62.7151 553.93 73.3906 547.361 89.6335L529.795 133.07L584.741 149.64L584.753 149.652Z" fill="#F4EAE2"/>
<path d="M583.752 154.97C583.711 154.97 583.676 154.97 583.634 154.958C583.317 154.895 583.111 154.591 583.175 154.281L591.464 114.827C591.523 114.54 591.799 114.345 592.094 114.368C603.055 115.355 619.679 116.819 620.632 116.779C623.293 116.675 630.758 108.141 632.371 102.539C632.942 100.559 632.73 99.2329 631.752 98.5958C628.968 96.7879 626.072 99.4625 623.523 101.821C621.839 103.383 620.509 104.617 619.302 104.335C617.766 103.98 611.596 102.395 609.448 101.11C608.529 100.559 603.967 97.6832 604.373 94.9455C604.509 94.0271 605.209 90.153 606.504 84.0403C607.593 78.8977 613.739 74.352 619.655 74.3176C622.875 74.3003 626.131 74.3061 629.286 74.3118C636.491 74.329 643.944 74.3405 651.373 74.0421C651.979 74.0191 652.562 73.8699 653.098 73.5944C653.386 73.4509 653.739 73.5599 653.892 73.8412C654.04 74.1224 653.928 74.4668 653.639 74.616C652.95 74.9661 652.203 75.1613 651.42 75.19C643.961 75.4884 636.497 75.4769 629.28 75.4597C626.131 75.454 622.875 75.4482 619.661 75.4655C614.251 75.4999 608.647 79.6152 607.658 84.2699C606.369 90.3538 605.674 94.1993 605.539 95.1062C605.321 96.5698 607.729 98.7393 610.06 100.128C612.05 101.322 618.166 102.889 619.567 103.216C620.156 103.354 621.504 102.097 622.705 100.989C625.289 98.5958 628.833 95.3243 632.4 97.6373C633.401 98.2859 634.401 99.715 633.501 102.849C631.8 108.772 624.129 117.795 620.674 117.927C619.396 117.972 597.003 115.964 592.506 115.562L584.323 154.516C584.264 154.786 584.023 154.975 583.746 154.975L583.752 154.97Z" fill="#3D3D3D"/>
<path d="M529.806 133.656C529.736 133.656 529.659 133.644 529.589 133.616C529.288 133.501 529.135 133.168 529.259 132.869L546.825 89.4326C553.524 72.8626 569.659 62.1641 587.932 62.1641H587.961C605.527 62.1755 629.398 62.1985 643.361 62.2559C647.599 62.2731 651.255 62.2846 653.639 63.4555C653.928 63.5989 654.045 63.9433 653.898 64.2246C653.751 64.5058 653.398 64.6206 653.109 64.4771C650.972 63.4268 647.276 63.4153 643.355 63.3981C629.392 63.3407 605.521 63.3177 587.961 63.3062H587.932C570.148 63.3062 554.442 73.7235 547.92 89.8516L530.354 133.288C530.26 133.512 530.042 133.65 529.806 133.65V133.656Z" fill="#3D3D3D"/>
<path d="M168.215 243.742C168.215 243.742 161.575 280.315 141.566 298.572L83.1406 257.988C83.1406 257.988 78.2487 260.094 72.986 256.978C67.7233 253.861 61.6541 248.081 67.4702 243.145C67.4702 243.145 62.025 237.044 71.4319 235.012C71.4319 235.012 63.9499 226.196 78.3547 223.022L63.9382 211.297C61.5953 209.391 61.1479 206.051 62.908 203.629C64.6092 201.287 67.8293 200.541 70.4253 201.884L100.006 217.151C100.006 217.151 111.356 213.254 118.62 217.237C125.884 221.22 168.209 243.748 168.209 243.748L168.215 243.742Z" fill="#F4EAE2"/>
<path d="M141.566 299.142C141.448 299.142 141.331 299.108 141.225 299.033L83.0582 258.627C81.8455 259.051 77.4246 260.274 72.6799 257.456C70.3546 256.078 64.9153 252.399 64.5327 248.02C64.3737 246.218 65.0978 244.559 66.6754 243.067C66.0397 242.2 64.8388 240.197 65.5158 238.2C66.0691 236.564 67.7233 235.37 70.4488 234.647C69.6365 233.424 68.2884 230.836 69.2126 228.196C70.0838 225.705 72.7329 223.868 77.089 222.726L63.5614 211.723C61.0007 209.64 60.5062 205.932 62.4311 203.28C64.2972 200.715 67.8528 199.888 70.7078 201.357L100.065 216.51C101.819 215.947 112.015 212.934 118.92 216.716C126.102 220.648 168.08 242.998 168.504 243.222C168.786 243.371 168.892 243.721 168.739 244.002C168.586 244.278 168.227 244.381 167.939 244.232C167.515 244.008 125.531 221.652 118.343 217.715C111.391 213.904 100.324 217.635 100.212 217.669C100.059 217.721 99.8882 217.709 99.7411 217.635L70.1604 202.368C67.8292 201.162 64.9212 201.84 63.3966 203.94C61.8248 206.11 62.231 209.135 64.3208 210.839L78.7373 222.565C78.908 222.703 78.9846 222.927 78.9316 223.139C78.8786 223.351 78.7079 223.518 78.4901 223.564C73.8808 224.58 71.1317 226.261 70.3311 228.557C69.295 231.519 71.8675 234.595 71.8911 234.63C72.0206 234.785 72.0618 234.991 71.9911 235.181C71.9264 235.37 71.7616 235.513 71.5614 235.554C68.7593 236.156 67.1052 237.166 66.6342 238.555C65.9632 240.53 67.8999 242.728 67.9175 242.751C68.1295 242.992 68.1059 243.354 67.8587 243.56C66.2928 244.886 65.5687 246.355 65.7041 247.917C65.9396 250.591 68.7711 253.788 73.2921 256.469C78.2075 259.384 82.858 257.467 82.9051 257.444C83.0935 257.364 83.3172 257.387 83.482 257.502L141.908 298.086C142.172 298.27 142.231 298.625 142.043 298.884C141.925 299.039 141.749 299.125 141.56 299.125L141.566 299.142Z" fill="#3D3D3D"/>
<path d="M88.4033 246.124C87.6733 246.124 86.9375 245.964 86.2605 245.573C84.9831 244.833 84.1413 243.306 84.0589 241.602C83.9883 240.127 84.4356 238.686 84.9242 237.349C87.7322 229.704 92.6123 222.925 99.0288 217.748C99.2819 217.547 99.6469 217.582 99.8588 217.823C100.065 218.07 100.03 218.431 99.7823 218.632C93.5306 223.683 88.7742 230.283 86.0368 237.733C85.5188 239.151 85.1833 240.339 85.2362 241.544C85.301 242.87 85.925 244.035 86.8669 244.586C88.315 245.43 90.2164 244.787 91.4055 243.978C92.265 243.392 93.0008 242.663 93.7779 241.889C94.29 241.378 94.8257 240.844 95.3967 240.362C99.3643 237.016 105.463 236.166 110.231 238.296C111.238 238.743 112.18 239.306 113.092 239.851C114.24 240.54 115.329 241.188 116.524 241.625C118.473 242.342 121.157 242.336 122.452 240.643C122.646 240.391 123.017 240.333 123.276 240.523C123.535 240.712 123.594 241.074 123.4 241.326C121.746 243.501 118.467 243.565 116.112 242.698C114.811 242.222 113.622 241.51 112.48 240.827C111.597 240.299 110.684 239.754 109.743 239.335C105.381 237.389 99.7941 238.164 96.1679 241.229C95.6322 241.682 95.1141 242.193 94.6197 242.692C93.8426 243.467 93.0361 244.271 92.0825 244.919C91.1229 245.568 89.769 246.124 88.4092 246.124H88.4033Z" fill="#3D3D3D"/>
<path d="M89.3746 229.632C89.2922 229.632 89.2098 229.614 89.1274 229.58C85.3422 227.864 81.6983 225.786 78.3017 223.41C78.0368 223.226 77.9779 222.865 78.1663 222.606C78.3547 222.348 78.7255 222.291 78.9904 222.474C82.3282 224.805 85.9073 226.848 89.6277 228.535C89.9221 228.667 90.0516 229.012 89.9103 229.299C89.8102 229.505 89.5983 229.632 89.3746 229.632Z" fill="#3D3D3D"/>
<path d="M84.4474 242.989C84.3415 242.989 84.2355 242.96 84.1413 242.903L71.8204 235.527C71.5438 235.361 71.4555 235.011 71.6262 234.735C71.7969 234.466 72.1619 234.379 72.4385 234.546L84.7594 241.921C85.0361 242.088 85.1244 242.438 84.9537 242.713C84.8418 242.891 84.6476 242.989 84.4533 242.989H84.4474Z" fill="#3D3D3D"/>
<path d="M87.4084 254.175C85.6895 254.175 84.0295 253.716 82.705 253.286C77.1656 251.478 72.0795 248.367 68.0058 244.286C67.7763 244.057 67.7822 243.695 68.0176 243.477C68.2531 243.253 68.624 243.259 68.8476 243.488C72.7976 247.437 77.7189 250.445 83.0817 252.201C84.5946 252.695 86.5784 253.228 88.468 252.964C90.3459 252.7 91.9 251.604 92.418 250.169C92.7006 249.394 92.6005 248.43 92.159 247.661C91.7882 247.018 91.2407 246.593 90.6049 246.467C90.287 246.404 90.081 246.1 90.1516 245.784C90.2164 245.474 90.5284 245.273 90.8522 245.342C91.8235 245.543 92.6535 246.169 93.1892 247.099C93.8014 248.166 93.9309 249.452 93.5306 250.548C92.8654 252.373 90.9463 253.768 88.6388 254.095C88.2326 254.152 87.8205 254.181 87.4143 254.181L87.4084 254.175Z" fill="#3D3D3D"/>
<path d="M84.2944 258.037C84.0413 258.037 83.8058 257.876 83.7293 257.63C83.6351 257.325 83.8117 257.004 84.1237 256.912C85.6307 256.47 86.8492 255.219 87.226 253.732C87.3025 253.423 87.6204 253.239 87.9383 253.313C88.2561 253.388 88.4445 253.704 88.368 254.008C87.8912 255.879 86.3547 257.446 84.4651 258.008C84.4062 258.026 84.3532 258.031 84.2944 258.031V258.037Z" fill="#3D3D3D"/>
<path d="M455.239 262.797L533.662 242.249C554.848 239.213 572.473 224.813 579.231 205.017C587.108 181.938 588.208 156.983 590.516 127.837L538.913 105.648L516.167 167.348C516.167 167.348 430.916 184.602 398.233 186.14C384.14 186.806 342.662 195.702 342.662 195.702L295.38 284.102L267.636 413.885H428.926L455.251 262.797H455.239Z" fill="#1890FF"/>
<path d="M272.339 220.276C294.621 202.11 350.974 194.924 351.186 195.154C368.999 214.726 348.631 253.559 328.875 271.272C319.527 279.651 296.628 306.616 275.954 324.11C253.055 343.492 224.804 351.533 198.108 337.494C167.056 321.165 134.437 298.259 125.484 288.88L154.994 235.669L222.049 269.865C222.049 269.865 260.042 230.297 272.339 220.276Z" fill="#1890FF"/>
<path d="M455.493 262.616C455.234 262.616 454.998 262.45 454.927 262.197C453.944 258.748 454.68 254.805 456.858 251.918C459.036 249.031 462.668 247.16 466.342 247.039C466.642 247.039 466.936 247.274 466.948 247.596C466.96 247.911 466.707 248.175 466.377 248.187C463.057 248.296 459.772 249.983 457.8 252.595C455.834 255.206 455.169 258.765 456.058 261.887C456.146 262.191 455.963 262.507 455.646 262.593C455.593 262.605 455.54 262.616 455.487 262.616H455.493Z" fill="#3D3D3D"/>
<path d="M292.49 303.903C292.419 303.903 292.348 303.892 292.278 303.863C291.977 303.748 291.824 303.416 291.942 303.123C293.149 300.104 292.843 296.499 291.153 293.71C289.464 290.921 286.367 288.923 283.071 288.493C282.747 288.453 282.523 288.16 282.565 287.85C282.606 287.534 282.9 287.316 283.224 287.356C286.868 287.833 290.294 290.042 292.166 293.125C294.038 296.207 294.367 300.201 293.037 303.536C292.949 303.766 292.725 303.903 292.49 303.903Z" fill="#3D3D3D"/>
<path d="M331.73 150.087C329.388 147.407 327.433 144.353 326.815 141.156C326.197 137.954 327.103 134.602 329.729 132.834C324.555 128.937 321.717 122.841 321.535 117.177C321.293 109.669 325.137 104.217 326.897 101.909C333.897 92.7203 342.003 93.1852 358.715 84.7539C377.27 75.3984 378.43 69.1997 383.94 70.6576C399.975 74.8933 389.291 127.146 388.514 130.159C388.255 131.17 387.342 133.356 385.429 134.676C385.099 134.906 384.64 135.027 383.987 134.998C380.502 134.843 376.934 134.751 373.82 135.778C372.413 136.243 371.024 141.851 370.489 143.177C369.399 145.851 368.416 148.572 367.533 151.333C366.656 154.093 365.879 156.894 365.214 159.729C364.519 162.691 364.831 163.828 361.205 163.828C350.497 163.816 338.871 158.277 331.73 150.099V150.087Z" fill="#3D3D3D"/>
<path d="M369.223 182.617C369.223 182.617 339.76 176.258 331.725 186.583C323.689 196.908 325.691 206.757 325.691 206.757C325.691 206.757 334.462 224.848 366.321 229.423L373.232 209.794L385.453 220.848C385.453 220.848 394.324 206.034 388.855 191.921C386.277 185.269 369.223 182.617 369.223 182.617Z" fill="#F4EAE2"/>
<path d="M325.691 207.323C325.414 207.323 325.167 207.133 325.114 206.858C325.031 206.445 323.154 196.636 331.254 186.224C339.424 175.727 368.134 181.782 369.352 182.046C369.67 182.115 369.87 182.419 369.8 182.729C369.729 183.039 369.411 183.234 369.099 183.165C368.811 183.102 339.907 177.001 332.195 186.919C324.431 196.9 326.256 206.542 326.273 206.634C326.338 206.944 326.126 207.248 325.808 207.306C325.767 207.311 325.732 207.317 325.697 207.317L325.691 207.323Z" fill="#3D3D3D"/>
<path d="M354.118 166.451L342.945 194.77C342.945 194.77 357.408 211.025 381.985 197.054L387.619 176.036C387.619 176.036 368.575 157.216 354.112 166.446L354.118 166.451Z" fill="#F4EAE2"/>
<path d="M362.771 203.253C349.926 203.253 342.603 195.257 342.497 195.143C342.356 194.982 342.315 194.758 342.391 194.563L353.564 166.244C353.611 166.129 353.688 166.037 353.794 165.969C368.493 156.59 387.248 174.853 388.043 175.634C388.19 175.777 388.243 175.984 388.196 176.185L382.562 197.203C382.521 197.352 382.427 197.479 382.291 197.553C374.856 201.778 368.305 203.258 362.777 203.258L362.771 203.253ZM343.627 194.638C344.528 195.544 347.954 198.718 353.499 200.624C359.439 202.667 369.105 203.631 381.479 196.675L386.965 176.214C384.752 174.136 367.616 158.731 354.594 166.829L343.627 194.638Z" fill="#3D3D3D"/>
<path d="M363.101 203.305C362.377 203.305 361.641 203.282 360.881 203.236C345.111 202.295 337.317 188.899 337.24 188.767C337.081 188.491 337.187 188.141 337.47 187.986C337.753 187.831 338.112 187.935 338.271 188.21C338.347 188.342 345.841 201.193 360.952 202.094C376.14 202.995 384.728 194.11 384.811 194.024C385.029 193.789 385.405 193.778 385.641 193.99C385.882 194.202 385.894 194.57 385.676 194.799C385.594 194.891 377.447 203.305 363.101 203.305Z" fill="#3D3D3D"/>
<path d="M384.075 111.898C384.075 111.898 403.901 148.098 404.372 160.507C404.996 176.973 378.359 192.889 361.723 171.073C361.723 171.073 342.821 174.023 340.714 160.937C338.812 149.108 354.724 154.578 356.878 158.722L360.622 158.062C360.622 158.062 350.515 142.955 352.045 134.346C353.576 125.736 384.069 111.904 384.069 111.904L384.075 111.898Z" fill="#F4EAE2"/>
<path d="M381.132 182.311C373.779 182.311 366.88 178.649 361.464 171.682C359.551 171.928 350.621 172.812 344.84 168.714C342.244 166.878 340.661 164.289 340.137 161.018C339.33 156.013 341.602 154.188 343.651 153.545C348.213 152.104 355.283 155.301 357.185 158.073L359.663 157.637C357.644 154.475 350.097 141.98 351.474 134.231C353.04 125.427 382.574 111.939 383.828 111.365C384.116 111.239 384.446 111.348 384.593 111.617C385.405 113.098 404.49 148.075 404.961 160.472C405.285 169.047 398.539 177.668 388.914 180.963C386.294 181.858 383.687 182.3 381.132 182.3V182.311ZM361.729 170.494C361.912 170.494 362.088 170.58 362.2 170.723C369.188 179.883 378.783 183.224 388.525 179.883C397.526 176.796 404.09 168.473 403.79 160.518C403.36 149.154 386.165 116.984 383.822 112.645C379.86 114.493 353.994 126.804 352.634 134.432C351.157 142.726 361.023 157.591 361.123 157.74C361.229 157.901 361.246 158.102 361.17 158.28C361.093 158.458 360.929 158.584 360.734 158.619L356.99 159.279C356.731 159.324 356.478 159.198 356.36 158.974C355.083 156.518 348.09 153.355 344.01 154.641C341.667 155.381 340.755 157.465 341.296 160.845C341.773 163.801 343.192 166.137 345.523 167.79C351.486 172.02 361.529 170.522 361.629 170.505C361.658 170.505 361.688 170.499 361.723 170.499L361.729 170.494Z" fill="#3D3D3D"/>
<path d="M358.809 165.404C358.721 165.404 358.627 165.387 358.544 165.341C356.278 164.228 353.588 164.004 351.162 164.733C350.85 164.825 350.521 164.658 350.427 164.354C350.332 164.05 350.503 163.728 350.815 163.637C353.529 162.822 356.537 163.068 359.074 164.32C359.363 164.463 359.48 164.807 359.333 165.089C359.227 165.29 359.021 165.404 358.809 165.404Z" fill="#3D3D3D"/>
</svg>
