<svg width="723" height="470" viewBox="0 0 723 470" fill="none" xmlns="http://www.w3.org/2000/svg">
<path d="M675.597 91.3555C701.383 91.3555 722.286 71.0378 722.286 45.9746C722.286 20.9115 701.383 0.59375 675.597 0.59375C649.811 0.59375 628.907 20.9115 628.907 45.9746C628.907 71.0378 649.811 91.3555 675.597 91.3555Z" fill="#F4EAE2"/>
<path d="M675.597 91.9239C649.532 91.9239 628.328 71.3117 628.328 45.9776C628.328 20.6435 649.532 0.03125 675.597 0.03125C701.662 0.03125 722.867 20.6435 722.867 45.9776C722.867 71.3117 701.662 91.9239 675.597 91.9239ZM675.597 1.16224C650.176 1.16224 629.488 21.2655 629.488 45.9776C629.488 70.6897 650.17 90.793 675.597 90.793C701.024 90.793 721.707 70.6897 721.707 45.9776C721.707 21.2655 701.024 1.16224 675.597 1.16224Z" fill="#3D3D3D"/>
<path d="M675.597 81.3526C665.877 81.3526 656.736 77.6712 649.863 70.9928C642.99 64.3143 639.203 55.4304 639.203 45.981C639.203 36.5316 642.99 27.6477 649.863 20.9692C656.736 14.2907 665.877 10.6094 675.597 10.6094C685.318 10.6094 694.459 14.2907 701.332 20.9692C708.205 27.6477 711.992 36.5316 711.992 45.981C711.992 55.4304 708.205 64.3143 701.332 70.9928C694.459 77.6712 685.318 81.3526 675.597 81.3526Z" fill="#FF4D4F"/>
<path d="M675.597 70.0376C668.985 70.0376 662.768 67.5324 658.093 62.9915C653.418 58.4449 650.843 52.4055 650.843 45.9758C650.843 39.5462 653.418 33.5067 658.093 28.9601C662.768 24.4135 668.985 21.9141 675.597 21.9141C682.209 21.9141 688.427 24.4192 693.102 28.9601C697.776 33.5067 700.351 39.5462 700.351 45.9758C700.351 52.4055 697.776 58.4449 693.102 62.9915C688.427 67.5381 682.209 70.0376 675.597 70.0376Z" fill="#F4EAE2"/>
<path d="M675.597 59.2003C671.96 59.2003 668.544 57.8261 665.975 55.3267C663.405 52.8272 661.99 49.5077 661.99 45.9791C661.99 42.4504 663.405 39.1253 665.975 36.6314C668.544 34.132 671.96 32.7578 675.597 32.7578C679.233 32.7578 682.65 34.132 685.219 36.6314C687.788 39.1309 689.204 42.4504 689.204 45.9791C689.204 49.5077 687.788 52.8328 685.219 55.3267C682.65 57.8261 679.233 59.2003 675.597 59.2003Z" fill="#FF4D4F"/>
<path d="M675.597 51.4628C674.089 51.4628 672.674 50.8916 671.607 49.8568C670.54 48.8219 669.954 47.4421 669.954 45.9775C669.954 44.5128 670.54 43.133 671.607 42.0982C672.674 41.0633 674.089 40.4922 675.597 40.4922C677.105 40.4922 678.521 41.0633 679.588 42.0982C680.655 43.133 681.241 44.5128 681.241 45.9775C681.241 47.4421 680.655 48.8219 679.588 49.8568C678.521 50.8916 677.105 51.4628 675.597 51.4628Z" fill="#3D3D3D"/>
<path d="M484.704 336.697C484.606 337.257 484.559 337.811 484.53 338.365C478.678 338.806 473.017 340.095 467.699 342.137C467.426 341.65 467.13 341.17 466.794 340.706C462.247 334.503 453.384 333.055 446.999 337.483C440.619 341.905 439.134 350.523 443.681 356.726C444.018 357.19 444.389 357.614 444.772 358.027C441.054 362.246 437.951 367.03 435.613 372.266C435.068 372.108 434.511 371.972 433.931 371.882C426.2 370.621 418.886 375.693 417.587 383.209C416.294 390.724 421.508 397.838 429.239 399.099C429.814 399.195 430.388 399.24 430.956 399.269C431.409 404.957 432.737 410.465 434.836 415.634C434.337 415.9 433.845 416.188 433.369 416.516C426.989 420.938 425.504 429.556 430.051 435.76C434.598 441.963 443.461 443.411 449.847 438.983C450.322 438.655 450.763 438.293 451.18 437.92C455.519 441.534 460.443 444.553 465.825 446.821C465.663 447.352 465.524 447.895 465.425 448.455C464.132 455.971 469.346 463.085 477.077 464.346C484.809 465.607 492.122 460.534 493.421 453.019C493.52 452.459 493.566 451.905 493.595 451.351C499.448 450.909 505.108 449.62 510.427 447.579C510.699 448.065 510.995 448.546 511.332 449.004C515.879 455.207 524.741 456.655 531.127 452.227C537.507 447.805 538.991 439.187 534.444 432.983C534.108 432.52 533.737 432.095 533.354 431.683C537.072 427.464 540.175 422.68 542.512 417.444C543.057 417.602 543.614 417.738 544.194 417.828C551.925 419.089 559.239 414.017 560.538 406.501C561.832 398.986 556.617 391.872 548.886 390.611C548.312 390.515 547.738 390.469 547.169 390.441C546.717 384.752 545.389 379.244 543.289 374.076C543.788 373.81 544.281 373.522 544.757 373.194C551.137 368.772 552.621 360.153 548.074 353.95C543.527 347.746 534.665 346.299 528.279 350.727C527.803 351.055 527.363 351.416 526.945 351.79C522.607 348.171 517.683 345.156 512.3 342.889C512.463 342.357 512.602 341.814 512.7 341.255C513.994 333.739 508.78 326.625 501.048 325.364C493.317 324.103 486.003 329.176 484.704 336.691V336.697ZM515.061 399.093C512.654 413.05 499.071 422.471 484.716 420.13C470.361 417.788 460.675 404.579 463.082 390.622C465.489 376.666 479.072 367.245 493.427 369.586C507.782 371.927 517.468 385.137 515.061 399.093Z" fill="#F4EAE2"/>
<path d="M479.443 465.101C478.637 465.101 477.819 465.039 476.996 464.903C473.104 464.27 469.7 462.2 467.409 459.078C465.118 455.957 464.213 452.151 464.868 448.368C464.932 447.983 465.025 447.582 465.141 447.152C460.101 444.975 455.414 442.125 451.198 438.675C450.85 438.97 450.519 439.224 450.189 439.45C443.559 444.048 434.314 442.543 429.587 436.091C427.296 432.97 426.397 429.17 427.047 425.386C427.696 421.598 429.825 418.289 433.044 416.056C433.375 415.83 433.728 415.609 434.123 415.383C432.145 410.384 430.904 405.153 430.428 399.809C429.97 399.775 429.547 399.73 429.152 399.662C425.26 399.029 421.856 396.959 419.565 393.837C417.274 390.716 416.369 386.91 417.025 383.127C418.37 375.318 426.003 370.025 434.036 371.336C434.43 371.399 434.848 371.489 435.289 371.602C437.527 366.699 440.456 362.142 444.006 358.047C443.704 357.708 443.443 357.386 443.211 357.069C440.92 353.948 440.021 350.147 440.671 346.364C441.32 342.576 443.449 339.267 446.668 337.034C453.303 332.436 462.542 333.94 467.269 340.393C467.501 340.709 467.733 341.06 467.96 341.445C473.104 339.516 478.486 338.312 483.985 337.854C484.02 337.407 484.066 337 484.136 336.615C485.481 328.806 493.108 323.513 501.147 324.825C505.039 325.458 508.443 327.528 510.734 330.649C513.025 333.771 513.93 337.577 513.274 341.36C513.211 341.744 513.118 342.146 513.002 342.575C518.048 344.753 522.734 347.603 526.945 351.052C527.293 350.758 527.623 350.504 527.954 350.278C534.583 345.68 543.828 347.184 548.555 353.637C550.846 356.758 551.745 360.558 551.096 364.341C550.446 368.13 548.318 371.438 545.099 373.672C544.768 373.898 544.414 374.119 544.02 374.345C545.998 379.344 547.239 384.575 547.714 389.919C548.173 389.953 548.596 389.998 548.99 390.066C552.882 390.699 556.287 392.769 558.578 395.89C560.869 399.012 561.773 402.818 561.118 406.601C559.773 414.41 552.14 419.703 544.107 418.391C543.712 418.329 543.295 418.239 542.854 418.125C540.615 423.028 537.686 427.586 534.137 431.68C534.438 432.02 534.699 432.342 534.931 432.659C537.222 435.78 538.121 439.58 537.472 443.363C536.822 447.152 534.694 450.46 531.475 452.694C524.845 457.292 515.6 455.787 510.873 449.335C510.641 449.018 510.409 448.668 510.183 448.283C505.044 450.212 499.656 451.416 494.158 451.874C494.123 452.321 494.077 452.722 494.007 453.113C492.801 460.125 486.525 465.101 479.449 465.101H479.443ZM451.192 437.358C451.325 437.358 451.459 437.403 451.569 437.494C455.925 441.118 460.802 444.087 466.069 446.31C466.336 446.423 466.481 446.717 466.394 446.988C466.22 447.565 466.092 448.074 466.011 448.555C465.408 452.038 466.243 455.544 468.354 458.422C470.465 461.301 473.603 463.207 477.187 463.789C484.588 464.994 491.623 460.119 492.859 452.926C492.94 452.44 492.992 451.931 493.021 451.326C493.033 451.043 493.265 450.811 493.555 450.788C499.279 450.359 504.888 449.103 510.218 447.05C510.49 446.943 510.798 447.05 510.937 447.305C511.233 447.831 511.517 448.278 511.807 448.673C516.163 454.617 524.683 456.002 530.79 451.767C533.754 449.714 535.714 446.66 536.312 443.171C536.909 439.688 536.08 436.187 533.969 433.309C533.679 432.913 533.336 432.506 532.919 432.065C532.722 431.856 532.716 431.533 532.907 431.313C536.637 427.083 539.687 422.338 541.972 417.215C542.088 416.955 542.39 416.819 542.668 416.898C543.26 417.068 543.788 417.187 544.281 417.272C551.682 418.476 558.717 413.601 559.952 406.408C560.555 402.925 559.72 399.419 557.609 396.541C555.498 393.662 552.36 391.756 548.776 391.174C548.283 391.095 547.743 391.044 547.129 391.016C546.839 391.004 546.601 390.778 546.578 390.495C546.137 384.931 544.843 379.48 542.738 374.294C542.628 374.028 542.738 373.723 542.999 373.587C543.538 373.299 544.002 373.027 544.408 372.745C547.372 370.692 549.333 367.638 549.93 364.149C550.527 360.666 549.698 357.165 547.587 354.287C543.231 348.344 534.711 346.958 528.604 351.194C528.198 351.476 527.78 351.81 527.322 352.211C527.107 352.404 526.777 352.409 526.556 352.223C522.206 348.598 517.323 345.629 512.056 343.407C511.79 343.294 511.645 343 511.732 342.728C511.906 342.151 512.033 341.642 512.114 341.162C512.718 337.678 511.882 334.172 509.771 331.294C507.66 328.416 504.522 326.51 500.938 325.927C493.537 324.723 486.502 329.592 485.267 336.791C485.185 337.271 485.127 337.797 485.104 338.391C485.093 338.674 484.861 338.905 484.571 338.928C478.846 339.358 473.237 340.613 467.907 342.666C467.635 342.768 467.327 342.666 467.188 342.412C466.892 341.886 466.608 341.439 466.318 341.043C461.962 335.1 453.442 333.714 447.335 337.95C444.371 340.003 442.411 343.056 441.813 346.545C441.216 350.029 442.045 353.529 444.157 356.407C444.447 356.803 444.789 357.21 445.206 357.652C445.404 357.861 445.409 358.183 445.218 358.404C441.489 362.634 438.438 367.378 436.153 372.501C436.037 372.762 435.741 372.897 435.457 372.818C434.865 372.648 434.337 372.53 433.844 372.445C426.438 371.24 419.408 376.109 418.173 383.308C417.57 386.791 418.405 390.297 420.516 393.176C422.627 396.054 425.765 397.96 429.349 398.542C429.842 398.622 430.382 398.672 430.997 398.701C431.287 398.712 431.524 398.938 431.548 399.221C431.988 404.785 433.282 410.237 435.387 415.422C435.497 415.688 435.387 415.994 435.126 416.129C434.587 416.412 434.129 416.689 433.717 416.972C430.753 419.025 428.793 422.078 428.195 425.567C427.598 429.051 428.427 432.551 430.538 435.43C434.894 441.373 443.414 442.758 449.522 438.523C449.928 438.24 450.351 437.906 450.803 437.505C450.914 437.409 451.053 437.358 451.192 437.358ZM489.083 421.049C487.61 421.049 486.119 420.93 484.617 420.687C477.524 419.534 471.312 415.756 467.136 410.062C462.96 404.367 461.313 397.428 462.502 390.529C464.955 376.29 478.869 366.643 493.52 369.029C500.613 370.183 506.825 373.96 511.001 379.655C515.177 385.349 516.824 392.288 515.635 399.187C513.431 411.967 501.994 421.049 489.083 421.049ZM489.054 369.798C476.7 369.798 465.756 378.484 463.65 390.716C462.513 397.315 464.085 403.954 468.081 409.406C472.077 414.857 478.017 418.465 484.808 419.573C498.827 421.858 512.138 412.629 514.487 399C515.623 392.401 514.052 385.762 510.055 380.311C506.059 374.86 500.12 371.252 493.328 370.143C491.89 369.911 490.463 369.798 489.054 369.798Z" fill="#3D3D3D"/>
<path d="M565.886 283.22C565.839 283.48 565.816 283.74 565.804 284C563.067 284.204 560.416 284.809 557.928 285.764C557.801 285.538 557.661 285.312 557.505 285.097C555.376 282.191 551.229 281.518 548.242 283.587C545.255 285.657 544.559 289.689 546.688 292.596C546.845 292.81 547.019 293.014 547.198 293.201C545.458 295.174 544.008 297.414 542.912 299.868C542.657 299.794 542.396 299.732 542.123 299.687C538.504 299.099 535.082 301.468 534.473 304.986C533.864 308.503 536.306 311.834 539.925 312.422C540.192 312.467 540.465 312.49 540.731 312.501C540.946 315.164 541.567 317.743 542.547 320.158C542.315 320.282 542.083 320.418 541.862 320.571C538.875 322.64 538.179 326.672 540.308 329.579C542.437 332.486 546.583 333.158 549.57 331.089C549.791 330.936 550 330.766 550.197 330.591C552.227 332.282 554.529 333.696 557.052 334.759C556.977 335.008 556.913 335.262 556.867 335.522C556.258 339.04 558.7 342.37 562.319 342.958C565.938 343.547 569.36 341.177 569.969 337.654C570.015 337.394 570.038 337.134 570.05 336.874C572.788 336.67 575.438 336.065 577.926 335.109C578.054 335.336 578.193 335.562 578.35 335.777C580.478 338.683 584.625 339.356 587.612 337.287C590.599 335.217 591.295 331.185 589.167 328.278C589.01 328.063 588.836 327.86 588.656 327.673C590.396 325.7 591.846 323.46 592.942 321.006C593.198 321.079 593.459 321.142 593.731 321.187C597.35 321.775 600.772 319.406 601.381 315.883C601.99 312.365 599.548 309.034 595.929 308.446C595.657 308.401 595.39 308.379 595.123 308.367C594.914 305.704 594.288 303.125 593.308 300.71C593.54 300.586 593.772 300.45 593.992 300.298C596.979 298.228 597.675 294.196 595.547 291.289C593.418 288.383 589.271 287.71 586.284 289.779C586.064 289.932 585.855 290.102 585.658 290.277C583.628 288.586 581.325 287.173 578.802 286.109C578.878 285.861 578.941 285.606 578.988 285.346C579.597 281.829 577.155 278.498 573.536 277.91C569.917 277.322 566.495 279.697 565.886 283.214V283.22ZM580.09 312.422C578.965 318.953 572.602 323.364 565.886 322.267C559.169 321.17 554.634 314.989 555.759 308.458C556.884 301.926 563.247 297.515 569.963 298.612C576.679 299.71 581.215 305.89 580.09 312.422Z" fill="#F4EAE2"/>
<path d="M563.421 343.617C563.026 343.617 562.626 343.583 562.226 343.521C560.324 343.21 558.659 342.198 557.54 340.671C556.42 339.144 555.979 337.284 556.298 335.434C556.316 335.321 556.339 335.203 556.368 335.084C554.153 334.1 552.082 332.844 550.203 331.335C550.104 331.414 550.006 331.482 549.913 331.549C546.671 333.794 542.152 333.059 539.838 329.909C538.719 328.383 538.278 326.522 538.597 324.673C538.916 322.824 539.954 321.201 541.526 320.11C541.625 320.042 541.723 319.979 541.828 319.912C540.975 317.695 540.424 315.388 540.198 313.03C540.07 313.018 539.948 313.001 539.832 312.979C537.93 312.668 536.266 311.655 535.146 310.129C534.027 308.602 533.586 306.741 533.905 304.892C534.566 301.075 538.29 298.485 542.222 299.124C542.338 299.141 542.46 299.164 542.582 299.192C543.591 297.037 544.884 295.024 546.433 293.198C546.352 293.102 546.282 293.005 546.212 292.915C545.093 291.388 544.652 289.528 544.971 287.678C545.29 285.829 546.328 284.206 547.9 283.115C551.142 280.87 555.66 281.605 557.975 284.755C558.044 284.851 558.114 284.947 558.178 285.055C560.457 284.223 562.835 283.692 565.259 283.466C565.271 283.341 565.288 283.228 565.312 283.115C565.967 279.298 569.702 276.708 573.629 277.347C575.531 277.658 577.196 278.67 578.315 280.197C579.434 281.724 579.875 283.584 579.556 285.433C579.539 285.547 579.516 285.66 579.487 285.784C581.708 286.768 583.773 288.023 585.652 289.533C585.751 289.454 585.849 289.386 585.942 289.318C589.184 287.073 593.702 287.808 596.016 290.958C597.136 292.485 597.577 294.346 597.258 296.195C596.939 298.044 595.9 299.667 594.329 300.758C594.23 300.826 594.131 300.888 594.027 300.956C594.88 303.173 595.431 305.486 595.657 307.838C595.784 307.85 595.906 307.867 596.022 307.889C597.925 308.2 599.589 309.212 600.709 310.739C601.828 312.266 602.269 314.127 601.95 315.976C601.294 319.793 597.565 322.383 593.633 321.744C593.517 321.727 593.395 321.704 593.273 321.676C592.264 323.83 590.97 325.844 589.422 327.67C589.503 327.766 589.573 327.862 589.642 327.953C590.762 329.48 591.202 331.34 590.883 333.189C590.565 335.039 589.526 336.661 587.955 337.753C584.712 339.998 580.194 339.263 577.88 336.113C577.81 336.017 577.741 335.921 577.677 335.813C575.398 336.645 573.02 337.176 570.595 337.402C570.584 337.527 570.566 337.64 570.543 337.753C569.952 341.18 566.883 343.617 563.427 343.617H563.421ZM550.197 330.034C550.33 330.034 550.464 330.079 550.574 330.17C552.587 331.849 554.843 333.218 557.284 334.247C557.551 334.36 557.696 334.654 557.609 334.925C557.528 335.186 557.476 335.412 557.441 335.621C557.174 337.17 557.545 338.731 558.485 340.015C559.425 341.299 560.822 342.147 562.417 342.407C565.712 342.944 568.844 340.773 569.401 337.572C569.435 337.357 569.459 337.125 569.476 336.859C569.488 336.577 569.72 336.345 570.01 336.322C572.66 336.124 575.253 335.542 577.718 334.592C577.99 334.484 578.298 334.592 578.437 334.846C578.57 335.084 578.692 335.282 578.825 335.457C580.768 338.103 584.562 338.72 587.282 336.837C588.598 335.921 589.474 334.564 589.741 333.008C590.008 331.459 589.637 329.898 588.697 328.62C588.569 328.445 588.413 328.264 588.227 328.066C588.03 327.857 588.024 327.534 588.216 327.314C589.938 325.357 591.353 323.163 592.409 320.794C592.525 320.534 592.821 320.398 593.105 320.477C593.372 320.556 593.604 320.607 593.824 320.641C597.124 321.178 600.25 319.007 600.807 315.806C601.074 314.257 600.703 312.696 599.763 311.412C598.824 310.129 597.426 309.28 595.831 309.02C595.61 308.986 595.378 308.964 595.094 308.947C594.804 308.935 594.566 308.709 594.543 308.426C594.34 305.853 593.743 303.331 592.768 300.934C592.658 300.668 592.768 300.362 593.029 300.227C593.273 300.097 593.476 299.978 593.656 299.848C594.972 298.932 595.848 297.575 596.115 296.019C596.382 294.47 596.011 292.909 595.071 291.631C593.134 288.985 589.335 288.368 586.615 290.251C586.435 290.376 586.249 290.523 586.046 290.704C585.832 290.896 585.501 290.902 585.281 290.715C583.268 289.036 581.012 287.667 578.57 286.638C578.303 286.525 578.158 286.231 578.245 285.959C578.321 285.705 578.379 285.473 578.414 285.264C578.68 283.714 578.309 282.154 577.37 280.87C576.43 279.586 575.032 278.738 573.437 278.478C570.143 277.941 567.011 280.112 566.454 283.313C566.419 283.528 566.396 283.754 566.379 284.025C566.367 284.308 566.135 284.54 565.845 284.563C563.195 284.761 560.602 285.343 558.137 286.293C557.864 286.395 557.557 286.293 557.418 286.039C557.284 285.801 557.163 285.603 557.029 285.428C555.086 282.781 551.293 282.165 548.573 284.048C547.256 284.964 546.381 286.321 546.114 287.876C545.847 289.426 546.218 290.987 547.158 292.265C547.285 292.44 547.442 292.621 547.628 292.819C547.825 293.028 547.831 293.35 547.639 293.571C545.917 295.527 544.501 297.722 543.446 300.091C543.33 300.351 543.034 300.487 542.75 300.408C542.483 300.329 542.251 300.278 542.031 300.244C538.73 299.707 535.604 301.878 535.048 305.079C534.781 306.628 535.152 308.189 536.092 309.473C537.031 310.756 538.429 311.604 540.024 311.865C540.244 311.899 540.476 311.921 540.76 311.938C541.05 311.949 541.288 312.176 541.311 312.458C541.514 315.037 542.112 317.553 543.086 319.951C543.196 320.217 543.086 320.522 542.825 320.658C542.582 320.788 542.379 320.907 542.199 321.037C540.882 321.953 540.006 323.31 539.74 324.865C539.473 326.415 539.844 327.976 540.784 329.254C542.727 331.9 546.52 332.516 549.24 330.633C549.42 330.509 549.605 330.356 549.808 330.181C549.919 330.085 550.058 330.034 550.197 330.034ZM567.933 323.005C567.226 323.005 566.512 322.948 565.793 322.83C562.388 322.275 559.413 320.466 557.412 317.734C555.411 315.003 554.622 311.678 555.191 308.37C556.368 301.539 563.038 296.919 570.062 298.061C573.466 298.615 576.442 300.425 578.443 303.156C580.444 305.887 581.232 309.212 580.664 312.521C579.608 318.651 574.122 323.005 567.933 323.005ZM567.922 299.017C562.284 299.017 557.296 302.981 556.333 308.556C555.817 311.565 556.53 314.59 558.352 317.078C560.173 319.567 562.881 321.212 565.979 321.715C572.37 322.756 578.443 318.549 579.516 312.334C580.032 309.326 579.318 306.3 577.497 303.812C575.676 301.324 572.967 299.678 569.87 299.175C569.215 299.067 568.565 299.017 567.922 299.017Z" fill="#3D3D3D"/>
<path d="M620.927 100.797L434.239 225.884L372.725 264.971L358.462 196.575L306.872 189.5L620.927 100.797Z" fill="#F4EAE2"/>
<path d="M372.725 265.54C372.649 265.54 372.574 265.523 372.498 265.495C372.319 265.421 372.191 265.269 372.156 265.088L357.975 197.087L306.791 190.064C306.518 190.024 306.315 189.809 306.292 189.543C306.275 189.277 306.449 189.034 306.71 188.961L620.765 100.257C621.037 100.178 621.327 100.308 621.449 100.557C621.571 100.806 621.49 101.106 621.252 101.264L434.564 226.351L373.038 265.444C372.945 265.506 372.835 265.534 372.719 265.534L372.725 265.54ZM309.639 189.311L358.544 196.024C358.787 196.058 358.985 196.239 359.031 196.471L373.119 264.047L433.92 225.413L617.639 102.316L309.639 189.311Z" fill="#3D3D3D"/>
<path d="M364.709 195.604C364.477 195.604 364.257 195.463 364.164 195.236C364.054 194.942 364.205 194.62 364.5 194.507L620.718 100.262C621.02 100.154 621.35 100.301 621.466 100.59C621.577 100.884 621.426 101.206 621.13 101.319L364.912 195.564C364.843 195.587 364.773 195.598 364.709 195.598V195.604Z" fill="#3D3D3D"/>
<path d="M374.221 256.899C374.186 256.899 374.157 256.899 374.123 256.893C373.809 256.842 373.595 256.548 373.647 256.243L382.944 202.549C382.996 202.244 383.298 202.035 383.611 202.086C383.924 202.137 384.139 202.431 384.087 202.736L374.79 256.43C374.743 256.707 374.494 256.899 374.221 256.899Z" fill="#3D3D3D"/>
<path d="M474.548 140.469L463.795 176.445L405.407 195.514C405.407 195.514 412.93 176.27 432.998 150.512L474.548 140.474V140.469Z" fill="#F4EAE2"/>
<path d="M405.401 196.075C405.245 196.075 405.094 196.013 404.984 195.9C404.827 195.741 404.781 195.51 404.862 195.306C404.937 195.114 412.646 175.695 432.534 150.163C432.615 150.061 432.725 149.987 432.858 149.953L474.409 139.916C474.612 139.865 474.821 139.927 474.966 140.074C475.111 140.221 475.163 140.431 475.105 140.623L464.352 176.6C464.3 176.775 464.161 176.916 463.981 176.978L405.593 196.047C405.535 196.064 405.471 196.075 405.407 196.075H405.401ZM433.334 151.011C416.358 172.833 408.354 190.115 406.422 194.588L463.325 176.006L473.707 141.256L433.334 151.011Z" fill="#3D3D3D"/>
<path d="M466.735 160.027C469.96 158.97 473.023 157.364 476.381 156.866C479.745 156.369 483.671 157.341 485.295 160.248C474.786 164.037 464.259 167.831 454.155 172.553C452.265 173.435 450.339 174.368 448.251 174.555C446.163 174.742 443.843 174.018 442.782 172.259C446.424 168.651 450.229 165.202 454.19 161.922C454.857 161.373 456.011 159.999 456.893 159.914C457.653 159.835 458.964 160.695 459.787 160.83C462.107 161.215 464.537 160.751 466.735 160.027Z" fill="#F4EAE2"/>
<path d="M447.572 175.15C445.287 175.15 443.263 174.172 442.283 172.543C442.149 172.322 442.184 172.04 442.37 171.859C446.006 168.251 449.857 164.762 453.813 161.488C453.975 161.357 454.161 161.171 454.37 160.973C455.118 160.255 455.97 159.435 456.829 159.35C457.42 159.288 458.116 159.587 458.789 159.876C459.189 160.046 459.601 160.226 459.88 160.272C461.794 160.588 463.98 160.334 466.55 159.491C467.611 159.146 468.678 158.728 469.71 158.321C471.816 157.495 473.991 156.647 476.293 156.308C479.727 155.804 483.996 156.737 485.805 159.978C485.887 160.119 485.898 160.294 485.84 160.447C485.782 160.6 485.655 160.724 485.498 160.781C475.168 164.502 464.491 168.353 454.404 173.063L454.207 173.154C452.346 174.025 450.42 174.924 448.303 175.116C448.054 175.139 447.81 175.15 447.566 175.15H447.572ZM443.53 172.328C444.591 173.668 446.586 174.138 448.199 173.991C450.113 173.815 451.94 172.961 453.708 172.136L453.906 172.045C463.824 167.414 474.281 163.619 484.425 159.961C482.72 157.659 479.286 157.014 476.467 157.427C474.298 157.75 472.187 158.575 470.145 159.373C469.096 159.785 468.011 160.21 466.921 160.566C464.166 161.471 461.799 161.736 459.688 161.386C459.271 161.318 458.807 161.12 458.325 160.911C457.844 160.701 457.235 160.447 456.951 160.475C456.492 160.521 455.675 161.307 455.187 161.782C454.955 162.002 454.741 162.206 454.567 162.358C450.756 165.508 447.05 168.862 443.53 172.334V172.328Z" fill="#3D3D3D"/>
<path d="M462.623 164.175C462.211 164.175 461.799 164.147 461.382 164.091C461.063 164.045 460.842 163.757 460.889 163.452C460.935 163.141 461.225 162.926 461.544 162.971C463.737 163.276 465.969 162.558 467.86 161.817C468.295 161.648 468.73 161.467 469.165 161.291C470.83 160.607 472.552 159.9 474.385 159.595C477.117 159.143 479.681 159.787 481.241 161.32C481.467 161.54 481.467 161.902 481.241 162.117C481.014 162.338 480.649 162.338 480.423 162.117C479.13 160.845 476.949 160.324 474.588 160.709C472.883 160.992 471.224 161.67 469.623 162.332C469.183 162.513 468.742 162.694 468.301 162.869C466.613 163.531 464.659 164.175 462.629 164.175H462.623Z" fill="#3D3D3D"/>
<path d="M567.886 44.4608L568.211 42.7191C568.211 42.7191 589.833 31.7429 597.472 29.7976C605.11 27.8523 597.791 34.6608 590.541 37.3582C590.541 37.3582 597.448 38.0764 593.551 42.4703C593.551 42.4703 597.28 43.4938 592.785 48.1592C592.785 48.1592 594.009 52.2477 590.257 53.9102C586.504 55.5728 583.929 54.0686 583.813 52.8075C583.813 52.8075 576.789 58.2532 569.017 60.9393C561.239 63.6254 567.886 44.4608 567.886 44.4608Z" fill="#F4EAE2"/>
<path d="M567.666 61.7684C566.935 61.7684 566.326 61.5365 565.839 61.0672C562.719 58.0701 566.784 45.9007 567.324 44.3229L567.643 42.6208C567.678 42.4511 567.788 42.3041 567.944 42.2193C568.832 41.7725 589.711 31.1922 597.327 29.2525C598.817 28.8736 600.842 28.5117 601.242 29.7219C601.851 31.571 596.816 35.1789 592.437 37.1864C593.505 37.5257 594.723 38.1364 595.163 39.2222C595.529 40.1213 595.291 41.1505 594.456 42.2815C594.856 42.5416 595.308 42.9714 595.5 43.6387C595.854 44.8884 595.163 46.4605 593.435 48.321C593.812 49.9948 593.626 53.0485 590.506 54.4283C588.308 55.4009 586.092 55.4688 584.573 54.6092C584.138 54.3604 583.79 54.0551 583.564 53.7158C581.667 55.0956 575.67 59.252 569.215 61.4743C568.652 61.6666 568.136 61.7684 567.666 61.7684ZM568.733 43.0958L568.461 44.5604C568.461 44.5604 568.449 44.6113 568.437 44.6396C567.185 48.2531 564.418 58.1097 566.651 60.2529C566.819 60.4169 567.341 60.9145 568.826 60.3999C576.424 57.776 583.384 52.4151 583.453 52.3586C583.622 52.2285 583.848 52.2002 584.045 52.2794C584.242 52.3586 584.376 52.5395 584.393 52.7488C584.41 52.9637 584.625 53.3199 585.153 53.6196C585.599 53.8741 587.27 54.6036 590.025 53.3878C593.278 51.9458 592.281 48.4567 592.234 48.3097C592.176 48.1174 592.229 47.9082 592.368 47.7668C593.911 46.1608 594.624 44.8036 594.375 43.9327C594.177 43.2428 593.4 43.011 593.394 43.011C593.203 42.9601 593.052 42.8131 592.994 42.6321C592.936 42.4455 592.983 42.2476 593.11 42.1005C594.003 41.0883 594.328 40.2627 594.079 39.635C593.615 38.4927 591.266 38.0007 590.477 37.9215C590.21 37.8933 589.996 37.6897 589.961 37.4296C589.926 37.1694 590.077 36.9206 590.326 36.8301C595.906 34.7548 600.233 30.8811 600.122 30.0612C600.122 30.0668 600.006 30.0103 599.658 30.0103C599.293 30.0103 598.661 30.0725 597.611 30.3439C590.564 32.1365 571.163 41.863 568.727 43.0958H568.733Z" fill="#3D3D3D"/>
<path d="M575.032 51.2153C574.724 51.2153 574.469 50.9834 574.452 50.6781C574.434 50.3671 574.678 50.1013 575.003 50.0843C575.983 50.0334 576.731 49.1399 577.091 48.6084C577.305 48.2917 577.491 47.9637 577.694 47.6131C578.024 47.0306 578.367 46.4312 578.836 45.8997C580.077 44.4859 581.875 43.8921 583.61 43.3097C585.089 42.8177 586.492 42.3484 587.548 41.4209C587.96 41.059 588.261 40.4992 588.052 40.2334C587.89 40.0298 587.467 39.9959 586.759 40.1316L576.186 42.173C575.873 42.2353 575.565 42.0373 575.501 41.7263C575.438 41.4209 575.646 41.1212 575.96 41.059L586.533 39.0176C587.014 38.9271 588.29 38.6783 588.969 39.5435C589.653 40.4144 589.114 41.5623 588.319 42.2579C587.084 43.338 585.506 43.8695 583.981 44.3785C582.322 44.9327 580.75 45.4586 579.712 46.6348C579.318 47.0815 579.022 47.6074 578.703 48.1616C578.5 48.5122 578.291 48.8798 578.053 49.2304C577.224 50.4519 576.163 51.1531 575.061 51.2153C575.049 51.2153 575.037 51.2153 575.032 51.2153Z" fill="#3D3D3D"/>
<path d="M584.59 48.0063C584.457 48.0063 584.318 48.0006 584.178 47.9837C583.465 47.8932 582.868 47.5482 582.531 47.0336C582.178 46.4908 582.12 45.7726 582.381 45.0601C582.589 44.4946 582.955 44.0195 583.28 43.6067C583.471 43.3579 583.836 43.307 584.092 43.4993C584.347 43.6859 584.399 44.0422 584.202 44.291C583.918 44.6586 583.622 45.0431 583.471 45.4446C583.332 45.8178 583.349 46.1854 583.506 46.4286C583.657 46.6547 583.958 46.8187 584.323 46.864C584.724 46.9149 585.165 46.8357 585.576 46.7396C588.07 46.1741 590.964 44.3928 593.134 42.0969C593.348 41.865 593.719 41.8537 593.951 42.0629C594.189 42.2722 594.201 42.6341 593.986 42.8603C591.637 45.3541 588.592 47.2146 585.837 47.8366C585.443 47.9271 585.025 48.0063 584.59 48.0063Z" fill="#3D3D3D"/>
<path d="M585.57 51.7242C585.489 51.7242 585.408 51.7242 585.321 51.7242C584.259 51.6959 583.54 51.4075 583.117 50.842C582.722 50.3105 582.653 49.5697 582.925 48.8572C583.146 48.2917 583.528 47.8336 583.871 47.4265C584.074 47.1833 584.439 47.1494 584.688 47.3473C584.938 47.5452 584.973 47.9015 584.77 48.1446C584.474 48.4952 584.166 48.8572 584.016 49.253C583.882 49.598 583.9 49.9599 584.056 50.1804C584.248 50.4405 584.683 50.5819 585.35 50.5989C587.89 50.6667 590.703 49.5357 592.362 47.7827C592.582 47.5509 592.947 47.5396 593.179 47.7544C593.417 47.9693 593.429 48.3256 593.208 48.5518C591.358 50.4971 588.383 51.7299 585.564 51.7299L585.57 51.7242Z" fill="#3D3D3D"/>
<path d="M583.818 53.3722C583.552 53.3722 583.314 53.1913 583.25 52.9311C583.03 51.9642 583.534 51.0311 584.497 50.6183C584.793 50.4939 585.135 50.6183 585.263 50.9123C585.39 51.2007 585.257 51.5344 584.961 51.6588C584.601 51.8115 584.259 52.1621 584.381 52.688C584.451 52.9934 584.253 53.2931 583.94 53.3609C583.9 53.3722 583.853 53.3722 583.813 53.3722H583.818Z" fill="#3D3D3D"/>
<path d="M588.227 39.0009C588.012 39.0009 587.803 38.8822 587.705 38.6786C587.565 38.3959 587.693 38.0566 587.977 37.9265L590.297 36.8521C590.587 36.7163 590.935 36.8408 591.069 37.1178C591.208 37.4006 591.08 37.7399 590.796 37.8699L588.476 38.9444C588.395 38.984 588.314 39.0009 588.227 39.0009Z" fill="#3D3D3D"/>
<path d="M457.119 159.823C453.477 163.521 447.509 169.3 441.929 173.491C438.768 175.866 434.621 176.629 430.776 175.56C422.505 173.259 408.127 167.728 404.444 156.481C399.195 140.437 466.422 99.5353 477.61 91.0529C488.799 82.5705 566.744 42.6467 568.78 41.6797C568.78 41.6797 571.024 66.4653 563.49 73.2568C555.95 80.0484 506.303 99.7898 496.774 109.132C496.774 109.132 489.083 126.43 485.643 134.596C482.204 142.762 476.543 150.814 450.125 152.121L455.925 154.383C458.192 155.27 458.819 158.103 457.125 159.817L457.119 159.823Z" fill="#1890FF"/>
<path d="M497.58 108.142C497.51 108.142 497.44 108.131 497.371 108.103C497.075 107.989 496.924 107.661 497.04 107.373C497.997 104.97 498.989 102.487 500.474 100.259C502.162 97.7258 504.29 95.9049 506.633 94.9944C506.929 94.8757 507.271 95.0227 507.387 95.3111C507.503 95.5995 507.364 95.9275 507.062 96.0462C504.389 97.0868 502.533 99.2469 501.448 100.881C500.027 103.013 499.059 105.439 498.125 107.786C498.038 108.012 497.817 108.148 497.585 108.148L497.58 108.142Z" fill="#BAE7FF"/>
<path d="M448.321 152.166C448.274 152.166 448.228 152.166 448.181 152.149L433.809 148.745C432.974 148.547 432.029 148.321 431.257 147.716C430.451 147.077 429.906 145.883 430.422 144.849C430.561 144.566 430.909 144.453 431.199 144.588C431.489 144.724 431.605 145.064 431.466 145.346C431.222 145.833 431.541 146.489 431.988 146.839C432.551 147.286 433.363 147.478 434.082 147.648L448.454 151.052C448.767 151.126 448.959 151.431 448.883 151.736C448.819 151.996 448.582 152.166 448.321 152.166Z" fill="#BAE7FF"/>
<path d="M436.646 148.991C436.489 148.991 436.327 148.929 436.216 148.805C436.002 148.573 436.019 148.216 436.257 148.007L453.75 132.654C453.987 132.445 454.353 132.462 454.567 132.694C454.782 132.926 454.765 133.282 454.527 133.491L437.034 148.844C436.924 148.94 436.785 148.991 436.646 148.991Z" fill="#BAE7FF"/>
<path d="M487.459 60.1864C484.599 57.6304 480.081 58.5974 476.352 59.6718C457.572 65.0666 438.345 68.9911 418.921 71.4001C409.63 72.5538 400.06 73.419 391.667 77.4566C388.106 79.17 384.684 81.5847 382.967 85.0738C381.25 88.5572 381.732 93.2734 384.887 95.6259C387.514 97.5825 391.134 97.4807 394.445 97.4185C397.757 97.3563 401.463 97.5938 403.719 99.9463C405.361 101.66 405.842 104.12 407.025 106.161C409.258 110.012 413.904 112.087 418.44 112.381C422.975 112.67 427.464 111.437 431.768 110.023C446.83 105.092 461.005 97.8822 474.606 89.8861C477.895 87.9521 481.212 85.922 483.671 83.0493C485.603 80.793 486.954 77.9316 486.983 74.9628C487.001 73.2606 486.954 72.7517 487.743 71.2135C488.503 69.7206 489.164 68.1712 489.408 66.5143C489.738 64.2467 489.187 61.7359 487.453 60.1864H487.459Z" fill="#3D3D3D"/>
<path d="M476.259 85.2188L472.356 94.753L471.526 95.3128C470.598 95.9405 470.007 96.9414 469.943 98.0385C469.821 99.9951 470.587 102.902 475.673 104.112C483.683 106.018 484.338 100.272 483.422 99.1525L486.461 89.2111L476.259 85.2188Z" fill="#F4EAE2"/>
<path d="M471.526 95.8807C471.34 95.8807 471.161 95.7959 471.05 95.6375C470.871 95.3831 470.934 95.0268 471.195 94.8515L471.88 94.3878L475.719 85.0119C475.835 84.7235 476.172 84.5821 476.473 84.6952C476.769 84.8083 476.914 85.142 476.798 85.4304L472.895 94.9646C472.854 95.0664 472.779 95.1569 472.686 95.2191L471.857 95.7789C471.758 95.8468 471.642 95.8807 471.526 95.8807Z" fill="#3D3D3D"/>
<path d="M487.691 68.4453C487.691 68.4453 495.236 84.9747 490.098 89.5552C484.959 94.1357 477.813 90.1999 476.207 87.0218C476.207 87.0218 467.258 88.4468 469.183 81.9719C470.587 77.25 474.896 80.0266 475.499 82.1585C475.789 83.1764 479.582 83.7985 479.339 79.7835C479.095 75.7685 479.124 71.4537 487.691 68.4566V68.4453Z" fill="#F4EAE2"/>
<path d="M484.686 92.2046C480.835 92.2046 477.227 89.7956 475.888 87.6298C474.646 87.7655 470.946 87.9917 469.223 86.0973C468.29 85.0681 468.087 83.6261 468.626 81.8108C469.397 79.2096 470.981 78.8137 471.862 78.8137C471.868 78.8137 471.874 78.8137 471.88 78.8137C473.753 78.825 475.632 80.5046 476.056 82.0031C476.131 82.1671 476.792 82.4668 477.494 82.3028C478.393 82.0879 478.84 81.2058 478.759 79.809C478.538 76.1559 478.242 71.1513 487.493 67.9167C487.777 67.8149 488.096 67.9506 488.218 68.2164C488.363 68.5387 491.832 76.1898 492.394 82.5799C492.423 82.8909 492.185 83.1624 491.866 83.1907C491.536 83.2189 491.269 82.9871 491.24 82.6761C490.776 77.3717 488.149 70.959 487.377 69.1608C479.466 72.1013 479.704 76.1559 479.919 79.7411C480.098 82.7892 478.161 83.3433 477.558 83.4395C476.386 83.6261 475.163 83.1002 474.936 82.3028C474.635 81.2454 473.162 79.9504 471.868 79.9447H471.857C470.639 79.9447 470.03 81.1266 469.734 82.1219C469.31 83.5413 469.432 84.6214 470.088 85.3395C471.712 87.1265 476.067 86.4649 476.108 86.4536C476.357 86.414 476.607 86.5384 476.723 86.7589C477.807 88.9021 481.919 91.6052 485.898 90.9718C486.217 90.9209 486.513 91.1302 486.565 91.4356C486.617 91.7466 486.403 92.035 486.084 92.0859C485.614 92.1594 485.15 92.1933 484.686 92.1933V92.2046Z" fill="#3D3D3D"/>
<path d="M476.038 86.1182C475.824 86.1182 475.621 86.0051 475.522 85.8072C475.052 84.8967 473.956 84.3143 472.912 84.4274C472.599 84.4613 472.309 84.2351 472.274 83.9241C472.239 83.6131 472.471 83.336 472.79 83.302C474.316 83.138 475.87 83.958 476.566 85.2982C476.711 85.5753 476.595 85.9146 476.311 86.056C476.229 86.0956 476.137 86.1182 476.05 86.1182H476.038Z" fill="#3D3D3D"/>
<path d="M383.512 202.639L447.845 251.09L620.927 100.805L383.512 202.639Z" fill="#F4EAE2"/>
<path d="M447.845 251.656C447.718 251.656 447.596 251.617 447.492 251.538L383.164 203.086C383.002 202.962 382.921 202.769 382.944 202.572C382.967 202.374 383.101 202.204 383.286 202.125L620.701 100.291C620.962 100.178 621.269 100.268 621.42 100.5C621.577 100.732 621.53 101.043 621.316 101.229L448.234 251.521C448.124 251.617 447.985 251.662 447.851 251.662L447.845 251.656ZM384.643 202.775L447.822 250.361L617.801 102.768L384.643 202.775Z" fill="#3D3D3D"/>
<path d="M389.463 312.57L190.259 432.195L124.731 469.41L113.659 398.158L60.8276 388.262L389.463 312.57Z" fill="#F4EAE2"/>
<path d="M124.731 469.974C124.644 469.974 124.563 469.957 124.482 469.917C124.308 469.838 124.186 469.68 124.157 469.493L113.149 398.631L60.7174 388.809C60.4506 388.758 60.2534 388.532 60.2476 388.266C60.2476 388 60.4274 387.762 60.6942 387.706L389.33 312.015C389.608 311.952 389.893 312.094 389.997 312.348C390.107 312.603 390.009 312.902 389.765 313.044L190.555 432.668L125.015 469.895C124.923 469.946 124.824 469.974 124.725 469.974H124.731ZM63.5999 388.198L113.769 397.596C114.013 397.642 114.199 397.828 114.233 398.066L125.172 468.498L189.963 431.696L386.099 313.915L63.5999 388.198Z" fill="#3D3D3D"/>
<path d="M120.19 397.445C119.946 397.445 119.714 397.293 119.639 397.055C119.54 396.755 119.708 396.439 120.016 396.343L389.295 312.027C389.603 311.931 389.927 312.095 390.026 312.395C390.124 312.695 389.956 313.011 389.649 313.108L120.37 397.423C120.312 397.44 120.254 397.451 120.19 397.451V397.445Z" fill="#3D3D3D"/>
<path d="M126.732 461.139C126.692 461.139 126.651 461.139 126.605 461.127C126.291 461.059 126.094 460.76 126.164 460.454L138.611 405.545C138.68 405.24 138.988 405.047 139.301 405.115C139.614 405.183 139.811 405.483 139.742 405.788L127.295 460.698C127.237 460.963 126.993 461.139 126.726 461.139H126.732Z" fill="#3D3D3D"/>
<path d="M139.179 405.662L202.949 458.869L389.463 312.57L139.179 405.662Z" fill="#F4EAE2"/>
<path d="M202.949 459.434C202.816 459.434 202.682 459.389 202.572 459.298L138.802 406.085C138.645 405.955 138.576 405.757 138.61 405.56C138.645 405.362 138.784 405.198 138.976 405.13L389.26 312.038C389.527 311.936 389.829 312.044 389.968 312.287C390.113 312.53 390.049 312.836 389.829 313.011L203.314 459.315C203.21 459.4 203.077 459.44 202.949 459.44V459.434ZM140.298 405.848L202.961 458.133L386.239 314.374L140.298 405.848Z" fill="#3D3D3D"/>
<path d="M207.31 260.839C207.31 260.839 210.935 247.115 225.644 250.106C235.718 252.159 229.327 258.775 229.327 258.775C229.327 258.775 233.34 262.015 226.172 264.538C224.64 265.075 220.001 270.187 218.475 270.617C212.884 272.194 207.31 260.834 207.31 260.834V260.839Z" fill="#3D3D3D"/>
<path d="M233.718 276.065C232.523 271.049 225.795 259.875 225.795 259.875L225.087 260.322L222.547 263.296L213.163 269.257C213.163 269.257 207.612 284.491 220.795 286.176C231.705 287.567 234.936 281.171 233.718 276.065Z" fill="#F4EAE2"/>
<path d="M225.487 261.622C227.222 264.597 231.67 272.457 232.592 276.32C233.12 278.531 232.668 280.73 231.357 282.342C229.814 284.236 227.164 285.237 223.695 285.237C222.831 285.237 221.909 285.175 220.952 285.051C217.924 284.666 215.755 283.467 214.508 281.488C212.02 277.535 213.673 271.496 214.143 269.986L223.179 264.246C223.278 264.184 223.365 264.111 223.434 264.02L225.482 261.622H225.487ZM225.795 259.875L225.087 260.322L222.547 263.296L213.163 269.257C213.163 269.257 207.612 284.491 220.795 286.176C221.828 286.306 222.79 286.368 223.689 286.368C232.279 286.368 234.825 280.685 233.723 276.065C232.529 271.049 225.795 259.875 225.795 259.875Z" fill="#3D3D3D"/>
<path d="M209.636 278.748C208.743 279.399 208.853 280.835 209.607 281.638C210.355 282.441 211.521 282.735 212.623 282.865C214.328 283.069 216.062 282.967 217.744 282.627C218.783 282.413 219.85 282.079 220.557 281.31C221.427 280.366 221.561 278.986 221.549 277.713C221.526 274.982 221.039 272.251 220.122 269.666C219.722 268.535 219.16 267.348 218.063 266.811C216.793 266.189 211.283 259.171 209.862 259.131C201.406 258.899 199.335 265.199 199.562 268.326C199.857 272.352 202.705 274.581 205.472 276.124C206.812 276.876 208.221 278.279 209.636 278.748Z" fill="#3D3D3D"/>
<path d="M221.74 291.874C222.425 289.912 222.987 283.946 223.573 282.555C224.321 280.779 222.622 275.153 221.427 273.564C220.238 271.98 216.201 271.918 215.291 274.175C214.38 276.431 215.25 278.772 219.316 278.682L219.084 280.044C218.887 281.209 217.849 282.052 216.636 282.041C214.2 282.012 210.378 281.888 209.305 281.356L206.748 295.652C211.19 295.725 219.2 291.586 221.746 291.874H221.74Z" fill="#F4EAE2"/>
<path d="M206.475 296.09C206.435 296.09 206.394 296.09 206.353 296.079C206.04 296.016 205.837 295.717 205.907 295.411L209.074 280.652C209.137 280.347 209.451 280.149 209.758 280.216C210.071 280.279 210.274 280.578 210.205 280.884L207.038 295.643C206.98 295.909 206.742 296.096 206.469 296.096L206.475 296.09Z" fill="#3D3D3D"/>
<path d="M221.573 292.479C221.538 292.479 221.503 292.479 221.474 292.467C221.161 292.411 220.946 292.123 221.004 291.812L222.414 283.991C222.472 283.685 222.767 283.476 223.086 283.533C223.399 283.589 223.614 283.878 223.556 284.189L222.147 292.009C222.094 292.287 221.851 292.479 221.578 292.479H221.573Z" fill="#3D3D3D"/>
<path d="M220.876 278.031C220.679 278.031 220.488 277.934 220.378 277.759C220.001 277.154 219.293 276.741 218.574 276.702C218.255 276.685 218.005 276.419 218.023 276.108C218.04 275.797 218.313 275.559 218.632 275.571C219.745 275.627 220.795 276.238 221.369 277.171C221.538 277.437 221.445 277.787 221.172 277.946C221.079 278.002 220.975 278.025 220.871 278.025L220.876 278.031Z" fill="#3D3D3D"/>
<path d="M161.126 356.795C159.693 363.083 158.713 377.876 180.857 373.98L185.944 346.141L164.003 348.493C164.003 348.493 161.607 354.657 161.12 356.795H161.126Z" fill="#F4EAE2"/>
<path d="M174.175 375.188C169.286 375.188 165.603 373.955 163.184 371.495C158.945 367.192 159.722 360.361 160.563 356.668C161.056 354.514 163.37 348.542 163.469 348.287C163.544 348.089 163.73 347.948 163.95 347.926L185.891 345.573C186.077 345.556 186.251 345.618 186.378 345.748C186.506 345.878 186.558 346.059 186.523 346.235L181.437 374.074C181.396 374.306 181.205 374.487 180.967 374.532C178.496 374.967 176.234 375.182 174.181 375.182L174.175 375.188ZM164.426 349.011C163.927 350.306 162.1 355.119 161.694 356.911C160.905 360.378 160.157 366.785 164.02 370.709C167.117 373.853 172.615 374.786 180.358 373.486L185.242 346.778L164.426 349.011Z" fill="#3D3D3D"/>
<path d="M241.693 340.695C247.423 349.811 256.262 361.754 266.638 357.886C283.667 351.541 300.109 327.949 312.672 319.291C315.091 320.021 315.648 319.291 316.692 317.482C317.846 315.486 317.26 311.352 313.983 311.391C313.983 311.391 312.777 306.189 305.312 309.604C305.312 309.604 316.802 299.652 312.301 296.915C309.94 295.478 303.073 304.736 293.515 310.928C287.338 314.931 271.997 325.591 271.997 325.591L270.733 322.113L241.687 340.695H241.693Z" fill="#F4EAE2"/>
<path d="M262.613 359.191C253.78 359.191 246.298 349.102 241.194 340.988C241.026 340.722 241.113 340.371 241.385 340.207C241.658 340.043 242.017 340.128 242.186 340.394C247.869 349.436 256.558 361.029 266.429 357.353C276.852 353.468 287.234 342.859 296.398 333.5C302.11 327.665 307.504 322.151 312.336 318.826C312.481 318.724 312.672 318.696 312.84 318.747C314.841 319.352 315.184 318.928 316.181 317.197C316.831 316.072 316.802 314.24 316.111 313.109C315.636 312.328 314.917 311.944 313.989 311.949C313.699 311.961 313.478 311.769 313.415 311.508C313.403 311.452 313.043 310.055 311.593 309.371C310.143 308.687 308.113 308.935 305.556 310.106C305.295 310.225 304.981 310.14 304.825 309.908C304.668 309.676 304.709 309.36 304.923 309.173C307.185 307.211 313.009 301.482 312.759 298.576C312.713 298.055 312.469 297.676 311.994 297.388C311.089 296.834 308.055 299.593 305.126 302.263C302.052 305.062 298.23 308.545 293.84 311.39C287.738 315.342 272.496 325.94 272.339 326.042C272.194 326.143 272.003 326.172 271.829 326.121C271.655 326.07 271.516 325.94 271.458 325.77L270.193 322.292C270.089 321.998 270.246 321.676 270.547 321.569C270.849 321.461 271.179 321.619 271.29 321.913L272.299 324.684C275.245 322.637 287.796 313.946 293.202 310.445C297.517 307.652 301.298 304.202 304.338 301.431C308.461 297.676 310.95 295.409 312.614 296.421C313.391 296.896 313.844 297.603 313.919 298.474C314.169 301.341 310.283 305.639 307.742 308.121C309.459 307.703 310.926 307.782 312.127 308.353C313.536 309.026 314.168 310.196 314.418 310.83C315.566 310.937 316.517 311.531 317.121 312.526C318.025 314.014 318.06 316.259 317.202 317.746C316.175 319.527 315.392 320.602 312.782 319.9C308.102 323.18 302.824 328.575 297.244 334.275C287.999 343.719 277.519 354.429 266.853 358.405C265.414 358.942 263.999 359.185 262.619 359.185L262.613 359.191Z" fill="#3D3D3D"/>
<path d="M312.811 319.605C312.649 319.605 312.492 319.543 312.376 319.413C312.162 319.181 312.185 318.819 312.429 318.616C314.372 316.942 314.679 315.426 314.685 315.415C314.743 315.11 315.044 314.906 315.358 314.963C315.671 315.019 315.88 315.308 315.827 315.613C315.816 315.692 315.474 317.513 313.194 319.47C313.084 319.566 312.945 319.611 312.811 319.611V319.605Z" fill="#3D3D3D"/>
<path d="M274.207 331.882C273.975 331.882 273.754 331.741 273.662 331.515L271.429 325.741C271.318 325.447 271.469 325.125 271.765 325.012C272.067 324.904 272.397 325.051 272.513 325.34L274.746 331.113C274.856 331.407 274.706 331.73 274.41 331.843C274.34 331.866 274.271 331.877 274.207 331.877V331.882Z" fill="#3D3D3D"/>
<path d="M302.215 311.689C302.006 311.689 301.803 311.582 301.698 311.389C301.548 311.112 301.658 310.773 301.942 310.626C302.696 310.236 303.172 310.01 303.647 309.778C304.117 309.552 304.587 309.325 305.329 308.941C305.613 308.794 305.961 308.901 306.112 309.178C306.263 309.456 306.153 309.795 305.869 309.942C305.115 310.332 304.639 310.558 304.158 310.79C303.688 311.016 303.218 311.242 302.481 311.621C302.394 311.667 302.302 311.689 302.209 311.689H302.215Z" fill="#3D3D3D"/>
<path d="M307.87 314.774C307.725 314.774 307.574 314.717 307.464 314.61C307.237 314.389 307.237 314.033 307.464 313.813C309.198 312.11 311.599 311.002 314.052 310.776C314.371 310.748 314.656 310.974 314.685 311.285C314.714 311.596 314.482 311.873 314.163 311.901C311.976 312.105 309.836 313.089 308.287 314.61C308.171 314.723 308.026 314.78 307.875 314.78L307.87 314.774Z" fill="#3D3D3D"/>
<path d="M240.828 367.238L246.472 348.441L243.641 340.722L270.141 320.98C270.141 320.98 265.565 296.568 250.456 291.365C235.353 286.163 197.764 296.33 183.658 304.49C167.79 313.674 157.599 343.012 156.897 349.408L175.817 347.377L163.457 386.374L240.834 367.243L240.828 367.238Z" fill="#1890FF"/>
<path d="M175.805 347.927C175.759 347.927 175.712 347.921 175.66 347.91C175.347 347.83 175.161 347.525 175.243 347.22L179.024 332.681C179.163 331.182 179.007 329.842 178.566 328.705L178.143 327.608C178.032 327.314 178.183 326.992 178.479 326.879C178.781 326.771 179.111 326.919 179.227 327.207L179.651 328.304C180.155 329.616 180.329 331.137 180.173 332.828C180.173 332.856 180.167 332.884 180.155 332.913L176.362 347.497C176.298 347.751 176.06 347.921 175.799 347.921L175.805 347.927Z" fill="#1890FF"/>
<path d="M244.279 343.102C244.036 343.102 243.809 342.955 243.728 342.718C240.996 334.863 239.082 329.87 238.05 327.868C237.87 327.523 237.429 326.675 237.215 325.465C236.948 323.989 237.105 322.445 237.673 320.884C237.777 320.59 238.114 320.438 238.415 320.539C238.717 320.641 238.874 320.969 238.769 321.263C238.27 322.637 238.131 323.989 238.363 325.272C238.549 326.313 238.937 327.054 239.082 327.331C240.173 329.435 242.052 334.337 244.842 342.356C244.946 342.65 244.784 342.972 244.476 343.074C244.413 343.097 244.355 343.102 244.291 343.102H244.279Z" fill="#1890FF"/>
<path d="M163.66 385.72L159.618 398.054L238.247 368.812L240.828 367.234L163.66 385.72Z" fill="#3D3D3D"/>
<path d="M309.029 273.753C309.029 266.374 302.876 260.391 295.283 260.391C287.691 260.391 281.538 266.374 281.538 273.753C281.538 279.448 285.203 284.305 290.359 286.234V292.16H300.202V286.234C305.364 284.311 309.023 279.448 309.023 273.753H309.029Z" fill="#F4EAE2"/>
<path d="M300.208 292.723H290.365C290.046 292.723 289.785 292.468 289.785 292.157V286.616C284.49 284.472 280.964 279.349 280.964 273.756C280.964 266.077 287.39 259.828 295.289 259.828C303.189 259.828 309.615 266.077 309.615 273.756C309.615 279.355 306.083 284.472 300.794 286.616V292.157C300.794 292.468 300.533 292.723 300.214 292.723H300.208ZM290.945 291.592H299.628V286.231C299.628 285.999 299.779 285.784 299.999 285.705C305.057 283.822 308.45 279.015 308.45 273.756C308.45 266.699 302.545 260.959 295.284 260.959C288.022 260.959 282.118 266.699 282.118 273.756C282.118 279.015 285.517 283.822 290.568 285.705C290.795 285.79 290.94 285.999 290.94 286.231V291.592H290.945Z" fill="#3D3D3D"/>
<path d="M295.179 301.093C294.594 301.093 294.048 300.979 293.544 300.759C291.868 300.012 291.346 298.305 291.328 298.231C291.276 298.061 291.311 297.875 291.421 297.734C291.531 297.592 291.699 297.507 291.885 297.507H299.552V295.545H290.435C290.116 295.545 289.855 295.291 289.855 294.98C289.855 294.669 290.116 294.414 290.435 294.414H300.132C300.451 294.414 300.712 294.669 300.712 294.98V298.073C300.712 298.384 300.451 298.638 300.132 298.638H292.796C293.045 299.023 293.439 299.47 294.031 299.73C294.924 300.12 296.067 300.007 297.424 299.39C297.714 299.26 298.062 299.379 298.195 299.662C298.329 299.945 298.207 300.284 297.917 300.414C296.931 300.866 296.015 301.093 295.179 301.093Z" fill="#3D3D3D"/>
<path d="M294.501 288.931C294.228 288.931 293.991 288.744 293.933 288.478L290.07 270.077C290.006 269.772 290.209 269.472 290.522 269.41C290.835 269.348 291.143 269.546 291.207 269.851L295.069 288.252C295.133 288.557 294.93 288.857 294.617 288.919C294.576 288.925 294.542 288.931 294.501 288.931Z" fill="#3D3D3D"/>
<path d="M296.067 288.931C296.026 288.931 295.991 288.931 295.951 288.919C295.637 288.857 295.434 288.557 295.498 288.252L299.361 269.851C299.425 269.546 299.732 269.348 300.045 269.41C300.359 269.472 300.562 269.772 300.498 270.077L296.635 288.478C296.577 288.744 296.339 288.931 296.067 288.931Z" fill="#3D3D3D"/>
<path d="M294.837 272.124C294.837 272.124 294.791 272.124 294.767 272.124C294.512 272.096 294.303 271.904 294.263 271.655L293.95 269.789L293.607 270.462C293.509 270.654 293.306 270.773 293.085 270.773H291.972C291.653 270.773 291.392 270.518 291.392 270.207C291.392 269.896 291.653 269.642 291.972 269.642H292.726L293.706 267.719C293.816 267.498 294.06 267.374 294.309 267.414C294.559 267.447 294.756 267.64 294.796 267.883L295.081 269.551L295.695 268.143C295.788 267.928 295.997 267.787 296.246 267.798C296.484 267.804 296.693 267.956 296.774 268.177L297.308 269.653H298.45C298.769 269.653 299.03 269.907 299.03 270.218C299.03 270.529 298.769 270.784 298.45 270.784H296.902C296.658 270.784 296.438 270.631 296.357 270.405L296.183 269.924L295.371 271.79C295.278 272 295.069 272.135 294.837 272.135V272.124Z" fill="#3D3D3D"/>
<path d="M311.152 125.93L111.715 206.275L46.443 230.761L47.1622 164.321L0.577148 147.746L311.152 125.93Z" fill="#F4EAE2"/>
<path d="M46.4429 231.329C46.3269 231.329 46.2109 231.295 46.1123 231.227C45.9557 231.12 45.8629 230.945 45.8629 230.758L46.5821 164.72L0.37986 148.281C0.124663 148.19 -0.0319352 147.936 0.00286441 147.67C0.0434639 147.404 0.263861 147.201 0.536458 147.184L311.111 125.361C311.395 125.339 311.651 125.525 311.72 125.797C311.784 126.068 311.639 126.345 311.378 126.447L111.947 206.792L46.6575 231.289C46.5879 231.312 46.5183 231.329 46.4487 231.329H46.4429ZM3.32043 148.128L47.3593 163.798C47.5913 163.883 47.7421 164.098 47.7421 164.335L47.0287 229.944L111.507 205.752L307.602 126.752L3.32043 148.128Z" fill="#3D3D3D"/>
<path d="M53.2924 164.669C53.0082 164.669 52.7646 164.472 52.7182 164.189C52.6718 163.878 52.8864 163.589 53.2054 163.544L311.059 125.373C311.378 125.328 311.674 125.537 311.72 125.848C311.766 126.159 311.552 126.448 311.233 126.493L53.3794 164.664C53.3504 164.664 53.3214 164.669 53.2924 164.669Z" fill="#3D3D3D"/>
<path d="M49.6038 223.572C49.5342 223.572 49.4588 223.561 49.3892 223.532C49.0934 223.419 48.9484 223.086 49.0644 222.797L68.7088 174.6C68.8248 174.312 69.1612 174.165 69.4627 174.283C69.7585 174.397 69.9035 174.73 69.7875 175.019L50.1432 223.216C50.0504 223.436 49.8358 223.572 49.6038 223.572Z" fill="#3D3D3D"/>
<path d="M69.2483 174.821L119.226 232.388L311.152 125.945L69.2483 174.821Z" fill="#F4EAE2"/>
<path d="M119.232 232.951C119.064 232.951 118.901 232.884 118.791 232.753L68.8132 175.192C68.6798 175.039 68.6392 174.83 68.7088 174.643C68.7726 174.457 68.9408 174.315 69.138 174.276L311.036 125.395C311.314 125.338 311.593 125.491 311.697 125.751C311.796 126.011 311.691 126.305 311.442 126.441L119.522 232.884C119.429 232.934 119.331 232.957 119.238 232.957L119.232 232.951ZM70.3212 175.181L119.36 231.662L307.666 127.221L70.3212 175.181Z" fill="#3D3D3D"/>
<path d="M145.431 112.138L143.064 104.187L122.538 104.023L105.974 165.131L140.361 157.05L145.431 112.138Z" fill="#F4EAE2"/>
<path d="M132.595 162.598L143.11 103.945C143.11 103.945 179.198 114.384 175.486 153.997L132.595 162.598Z" fill="#FF4D4F"/>
<path d="M151.828 150.969C151.793 150.969 151.764 150.969 151.729 150.957C151.416 150.901 151.201 150.612 151.259 150.301L156.073 123.452C156.131 123.146 156.427 122.937 156.746 122.994C157.059 123.05 157.274 123.339 157.216 123.65L152.402 150.499C152.355 150.776 152.106 150.969 151.833 150.969H151.828Z" fill="#FF4D4F"/>
<path d="M122.538 104.02L111.257 165.783L97.0766 168.651C89.9079 170.098 83.4177 164.24 84.3689 157.182C85.5289 148.609 87.2051 137.859 89.2119 129.756C93.0688 114.188 101.45 103.738 121.529 103.981C121.865 103.981 122.196 104.003 122.532 104.02H122.538Z" fill="#FF4D4F"/>
<path d="M215.859 145.532L170.057 154.716L176.646 110.98L222.442 101.797L215.859 145.532Z" fill="#3D3D3D"/>
<path d="M155.18 152.629L216.81 140.273L215.935 145.883L153.98 158.307L155.18 152.629Z" fill="#3D3D3D"/>
<path d="M108.125 145.983L112.945 120.875L88.0575 134.385L84.3224 155.5C82.8376 163.898 90.4761 171.13 99.0774 169.468C111.617 167.042 127.213 164.011 139.039 161.624C138.575 153.25 140.692 144.349 142.038 139.655C124.719 142.873 108.125 145.989 108.125 145.989V145.983Z" fill="#FF4D4F"/>
<path d="M108.125 146.547C107.974 146.547 107.829 146.491 107.719 146.383C107.58 146.253 107.522 146.061 107.557 145.874L112.376 120.767C112.434 120.461 112.736 120.258 113.055 120.314C113.368 120.371 113.577 120.665 113.519 120.976L108.856 145.258L114.163 144.195C114.476 144.133 114.783 144.331 114.847 144.636C114.911 144.941 114.708 145.241 114.395 145.303L108.247 146.536C108.206 146.542 108.172 146.547 108.131 146.547H108.125Z" fill="#3D3D3D"/>
<path d="M167.604 134.99C162.471 135.878 152.489 137.71 142.037 139.655C140.686 144.349 138.569 153.25 139.039 161.625C148.748 159.668 155.917 158.147 156.781 157.757C159.565 156.502 158.822 153.312 158.822 153.312C162.929 151.661 159.849 148.805 159.849 148.805C165.626 144.049 159.373 142.839 159.373 142.839L168.839 139.639C169.889 139.282 170.567 138.287 170.498 137.207C170.405 135.776 169.048 134.741 167.598 134.99H167.604Z" fill="#F4EAE2"/>
<path d="M140.147 161.565C139.869 161.565 139.625 161.373 139.579 161.102C139.521 160.796 139.729 160.502 140.048 160.446C140.089 160.44 144.05 159.745 155.731 157.386C156.045 157.324 156.352 157.522 156.416 157.828C156.48 158.133 156.277 158.433 155.963 158.495C144.265 160.853 140.286 161.548 140.251 161.56C140.217 161.565 140.182 161.571 140.147 161.571V161.565Z" fill="#3D3D3D"/>
<path d="M102.244 148.127C101.983 148.127 101.745 147.951 101.681 147.697C101.606 147.392 101.797 147.086 102.105 147.013L106.31 146C106.623 145.927 106.936 146.114 107.012 146.413C107.087 146.719 106.896 147.024 106.588 147.097L102.383 148.11C102.337 148.121 102.29 148.127 102.244 148.127Z" fill="#3D3D3D"/>
<path d="M141.324 59.0844C136.742 57.0317 131.192 58.0213 126.842 60.4982C123.054 62.6527 114.349 73.7647 116.199 82.0378C113.589 82.0491 110.735 82.9539 108.212 84.7578C102.975 88.5014 101.13 94.7049 104.088 98.6181C107.046 102.526 113.687 102.661 118.925 98.9178C122.19 96.5823 124.139 93.2855 124.423 90.1922C136.069 94.2072 154.095 86.3016 150.876 73.0747C149.502 67.4311 146.741 61.5161 141.324 59.0844Z" fill="#3D3D3D"/>
<path d="M141.979 104.408L140.025 103.967L142.281 92.9115C142.281 92.9115 141.156 78.989 129.15 87.9012L124.875 104.221H123.599C123.599 104.221 134.874 115.599 141.985 104.402L141.979 104.408Z" fill="#F4EAE2"/>
<path d="M134.173 109.885C130.304 109.885 126.691 107.505 124.893 106.102C124.643 105.904 124.603 105.554 124.806 105.305C125.009 105.062 125.374 105.022 125.624 105.22C128.727 107.646 134.648 111.056 139.439 106.617C139.671 106.402 140.036 106.413 140.257 106.639C140.477 106.866 140.466 107.222 140.234 107.437C138.296 109.229 136.197 109.885 134.173 109.885Z" fill="#3D3D3D"/>
<path d="M141.979 104.975C141.939 104.975 141.892 104.975 141.846 104.958L139.891 104.517C139.584 104.449 139.392 104.155 139.45 103.855L141.689 92.8843C141.62 92.217 140.982 87.2068 137.844 85.8383C135.802 84.9504 133.047 85.7534 129.654 88.2303L125.426 104.358C125.362 104.607 125.119 104.799 124.864 104.782H123.234C122.915 104.771 122.654 104.517 122.654 104.205C122.654 103.894 122.915 103.64 123.234 103.64H124.411L128.576 87.7496C128.61 87.6252 128.68 87.5178 128.784 87.4386C132.612 84.5942 135.82 83.7063 138.314 84.7921C142.287 86.5282 142.826 92.5959 142.843 92.8504C142.843 92.9013 142.843 92.9522 142.832 93.0031L140.686 103.521L142.095 103.838C142.408 103.906 142.6 104.211 142.53 104.517C142.466 104.777 142.229 104.958 141.968 104.958L141.979 104.975Z" fill="#3D3D3D"/>
<path d="M151.444 80.0228C150.499 77.0257 148.916 74.2604 147.338 71.5234C145.262 73.3783 143.783 75.7533 142.17 77.9983C140.558 80.2433 138.702 82.4431 136.191 83.6815C135.164 84.1848 133.992 84.5185 132.873 84.2697C131.963 84.0661 131.185 83.4949 130.379 83.0312C129.573 82.5675 128.616 82.1999 127.711 82.4488C126.847 82.6863 126.215 83.4723 126.029 84.3262C125.849 85.1801 126.07 86.0792 126.487 86.854C127.183 88.1433 128.436 89.1386 129.88 89.5401C131.319 89.9416 132.925 89.7493 134.224 89.0198L134.05 87.5326C134.717 89.8172 136.011 91.9604 137.919 93.4476C139.821 94.9349 142.362 95.7096 144.769 95.3081C147.947 94.7709 150.522 92.2318 151.595 89.2743C152.668 86.3167 152.396 83.0256 151.45 80.0285L151.444 80.0228Z" fill="#F4EAE2"/>
<path d="M143.481 95.9782C141.417 95.9782 139.276 95.2374 137.548 93.8915C136.173 92.8171 135.037 91.3525 134.23 89.656C132.844 90.3459 131.215 90.5042 129.712 90.0858C128.112 89.639 126.743 88.5533 125.971 87.1169C125.449 86.1499 125.27 85.1207 125.461 84.2103C125.699 83.0906 126.522 82.1858 127.555 81.9031C128.46 81.6542 129.48 81.8635 130.669 82.5421C130.855 82.6495 131.041 82.7626 131.226 82.8701C131.824 83.232 132.386 83.5769 133.001 83.7126C133.836 83.8993 134.822 83.7126 135.93 83.1698C138.395 81.954 140.228 79.7089 141.695 77.6675C142.002 77.2377 142.31 76.8023 142.611 76.3725C143.893 74.5403 145.221 72.6459 146.95 71.1021C147.083 70.9834 147.257 70.9325 147.431 70.9608C147.605 70.989 147.756 71.0908 147.843 71.2435C149.409 73.9692 151.027 76.7853 151.996 79.8503C152.761 82.2819 153.411 85.9237 152.129 89.4524C150.917 92.8001 148.058 95.3166 144.856 95.8538C144.404 95.9273 143.945 95.9669 143.481 95.9669V95.9782ZM134.045 86.9642C134.3 86.9642 134.532 87.1282 134.602 87.377C135.274 89.6843 136.579 91.6861 138.273 93.0093C140.129 94.4627 142.519 95.113 144.659 94.7511C147.46 94.2817 149.96 92.0537 151.039 89.0848C152.21 85.8502 151.607 82.4629 150.888 80.1953C150.03 77.4809 148.614 74.9192 147.199 72.448C145.819 73.8109 144.676 75.4395 143.568 77.0229C143.261 77.4639 142.954 77.8994 142.64 78.3348C141.092 80.4893 139.143 82.8701 136.446 84.199C135.089 84.8663 133.836 85.0811 132.734 84.8323C131.934 84.6514 131.261 84.2442 130.606 83.8484C130.432 83.7409 130.252 83.6335 130.078 83.5317C129.173 83.0171 128.448 82.8418 127.856 83.0001C127.247 83.1641 126.737 83.7466 126.592 84.4478C126.453 85.0981 126.592 85.8615 126.992 86.5967C127.613 87.7446 128.75 88.6437 130.031 89.0057C131.197 89.3337 132.496 89.2206 133.592 88.706L133.465 87.6032C133.43 87.3092 133.633 87.0434 133.929 86.9868C133.969 86.9812 134.004 86.9755 134.045 86.9755V86.9642Z" fill="#3D3D3D"/>
<path d="M428.497 22.7167C428.178 22.7167 427.917 22.4679 427.917 22.1569C427.917 21.8459 428.172 21.5914 428.497 21.5857L527.374 21.0938C527.693 21.0938 527.954 21.3426 527.954 21.6536C527.954 21.9646 527.699 22.2191 527.374 22.2247L428.497 22.7167Z" fill="#3D3D3D"/>
<path d="M523.506 17.0547L522.717 17.886L526.928 21.6578L522.757 25.4749L523.552 26.3005L528.633 21.6521L523.506 17.0547Z" fill="#3D3D3D"/>
<path d="M355.563 35.1604L185.091 34.6628C184.772 34.6628 184.511 34.4083 184.511 34.0973C184.511 33.7863 184.772 33.5318 185.091 33.5318L354.246 34.0294C350.54 30.2633 335.321 16.7197 314.975 25.0664C314.737 25.1625 314.458 25.0947 314.296 24.8967C314.151 24.7158 299.268 6.71611 276.417 5.56816C260.305 4.7595 244.14 12.3484 228.358 28.12C228.132 28.3462 227.767 28.3462 227.541 28.1313C227.309 27.9108 227.309 27.5545 227.529 27.334C243.554 11.3136 260.026 3.6172 276.486 4.44283C298.12 5.53423 312.742 21.368 314.922 23.8675C338.882 14.3333 355.835 34.0464 356.009 34.2443C356.154 34.414 356.183 34.6458 356.085 34.8438C355.986 35.0417 355.783 35.1661 355.563 35.1661V35.1604Z" fill="#3D3D3D"/>
<path d="M565.793 245.998C565.683 245.998 565.567 245.964 565.468 245.902C565.201 245.727 565.132 245.376 565.311 245.116L630.352 151.827C630.532 151.567 630.891 151.499 631.158 151.68C631.425 151.855 631.495 152.206 631.315 152.466L566.274 245.755C566.164 245.914 565.978 246.004 565.793 246.004V245.998Z" fill="#3D3D3D"/>
<path d="M624.755 152.641L625.01 153.743L630.59 152.499L631.454 158.013L632.602 157.843L631.547 151.125L624.755 152.641Z" fill="#3D3D3D"/>
<path d="M653.175 216.429C653.111 216.429 653.047 216.417 652.983 216.395C652.682 216.293 652.519 215.971 652.624 215.676L686.814 119.91C686.896 119.684 687.11 119.531 687.354 119.531C687.609 119.531 687.818 119.673 687.905 119.899C688.16 120.566 694.018 136.066 685.364 144.792C686.345 145.957 688.983 149.508 690.236 155.225C691.634 161.598 691.46 171.975 682.714 185.202C682.54 185.462 682.18 185.541 681.913 185.372C681.647 185.202 681.565 184.851 681.739 184.591C698.026 159.958 684.291 145.301 684.146 145.154C683.926 144.928 683.938 144.571 684.164 144.356C691.211 137.746 688.595 126.102 687.33 121.878L653.708 216.05C653.627 216.282 653.401 216.429 653.163 216.429H653.175Z" fill="#3D3D3D"/>
</svg>
