<svg width="252" height="169" viewBox="0 0 252 169" fill="none" xmlns="http://www.w3.org/2000/svg">
<path d="M153.589 113.113H0.199219V3.90227C0.199219 1.85849 1.83926 0.203125 3.86211 0.203125H187.349C189.372 0.203125 191.012 1.85849 191.012 3.90227V109.264C191.012 111.389 189.305 113.113 187.2 113.113H153.591H153.589Z" fill="#F4EAE2"/>
<path d="M140.606 113.317H0.201479C0.0906656 113.317 0 113.225 0 113.114V3.9025C0 1.75094 1.73272 0 3.86437 0H187.351C189.481 0 191.216 1.75094 191.216 3.9025V59.5442C191.216 59.656 191.125 59.7475 191.014 59.7475C190.903 59.7475 190.813 59.656 190.813 59.5442V3.9025C190.813 1.97464 189.259 0.406722 187.351 0.406722H3.86437C1.95636 0.406722 0.402958 1.97464 0.402958 3.9025V112.91H140.606C140.717 112.91 140.808 113.002 140.808 113.114C140.808 113.225 140.717 113.317 140.606 113.317Z" fill="#3D3D3D"/>
<path d="M225.145 35.3893V10.8782C225.145 9.19802 223.795 7.83594 222.13 7.83594L178.444 7.83594C176.779 7.83594 175.43 9.19802 175.43 10.8782V35.3893C175.43 37.0696 176.779 38.4316 178.444 38.4316H222.13C223.795 38.4316 225.145 37.0696 225.145 35.3893Z" fill="#002766"/>
<path d="M217.963 34.4463H182.623C182.513 34.4463 182.422 34.3548 182.422 34.2429V12.0237C182.422 11.9118 182.513 11.8203 182.623 11.8203C182.734 11.8203 182.825 11.9118 182.825 12.0237V34.0416H217.963C218.074 34.0416 218.164 34.1331 218.164 34.245C218.164 34.3568 218.074 34.4483 217.963 34.4483V34.4463Z" fill="#F4EAE2"/>
<path d="M187.225 18.0312H184.098V32.962H187.225V18.0312Z" fill="#F4EAE2"/>
<path d="M192.139 24.9375H189.012V32.9601H192.139V24.9375Z" fill="#F4EAE2"/>
<path d="M197.061 21.8125H193.934V32.9567H197.061V21.8125Z" fill="#F4EAE2"/>
<path d="M201.982 16.9297H198.855V32.9586H201.982V16.9297Z" fill="#F4EAE2"/>
<path d="M206.823 13.5781H203.855V32.9605H206.823V13.5781Z" fill="#F4EAE2"/>
<path d="M211.826 12.5469H208.699V32.9562H211.826V12.5469Z" fill="#F4EAE2"/>
<path d="M216.744 15.0938H213.617V32.9611H216.744V15.0938Z" fill="#F4EAE2"/>
<path d="M76.6225 9.57812H9.50781V36.5459H76.6225V9.57812Z" fill="#F4EAE2"/>
<path d="M76.8262 36.7495H9.30859V9.375H76.8262V36.7495ZM9.71155 36.3427H76.4233V9.78172H9.71155V36.3427Z" fill="#3D3D3D"/>
<path d="M24.4609 12.8438C18.7873 12.8438 14.1875 17.4885 14.1875 23.2192C14.1875 28.95 18.7873 33.5947 24.4609 33.5947C30.1346 33.5947 34.7343 28.95 34.7343 23.2192C34.7343 17.4885 30.1346 12.8438 24.4609 12.8438ZM24.4609 30.1335C20.6792 30.1335 17.6147 27.0384 17.6147 23.2192C17.6147 19.4001 20.6792 16.305 24.4609 16.305C28.2427 16.305 31.3072 19.4001 31.3072 23.2192C31.3072 27.0384 28.2427 30.1335 24.4609 30.1335Z" fill="#3D3D3D"/>
<path d="M17.6225 23.4453H14.1953C14.3162 29.0296 18.8031 33.5259 24.3478 33.5869V30.1257C20.695 30.0647 17.7413 27.118 17.6225 23.4453Z" fill="#1890FF"/>
<path d="M49.0099 29.141H42.0609C41.95 29.141 41.8594 29.0495 41.8594 28.9377C41.8594 28.8259 41.95 28.7344 42.0609 28.7344H49.0099C49.1207 28.7344 49.2113 28.8259 49.2113 28.9377C49.2113 29.0495 49.1207 29.141 49.0099 29.141Z" fill="#3D3D3D"/>
<path d="M63.4356 29.141H53.0413C52.9305 29.141 52.8398 29.0495 52.8398 28.9377C52.8398 28.8259 52.9305 28.7344 53.0413 28.7344H63.4356C63.5464 28.7344 63.6371 28.8259 63.6371 28.9377C63.6371 29.0495 63.5464 29.141 63.4356 29.141Z" fill="#3D3D3D"/>
<path d="M60.8348 23.4145H42.0569C41.9461 23.4145 41.8555 23.323 41.8555 23.2111C41.8555 23.0993 41.9461 23.0078 42.0569 23.0078H60.8348C60.9456 23.0078 61.0363 23.0993 61.0363 23.2111C61.0363 23.323 60.9456 23.4145 60.8348 23.4145Z" fill="#3D3D3D"/>
<path d="M58.4533 17.6879H42.0569C41.9461 17.6879 41.8555 17.5964 41.8555 17.4846C41.8555 17.3727 41.9461 17.2812 42.0569 17.2812H58.4533C58.5641 17.2812 58.6548 17.3727 58.6548 17.4846C58.6548 17.5964 58.5641 17.6879 58.4533 17.6879Z" fill="#3D3D3D"/>
<path d="M69.474 17.6879H62.2913C62.1805 17.6879 62.0898 17.5964 62.0898 17.4846C62.0898 17.3727 62.1805 17.2812 62.2913 17.2812H69.474C69.5849 17.2812 69.6755 17.3727 69.6755 17.4846C69.6755 17.5964 69.5849 17.6879 69.474 17.6879Z" fill="#3D3D3D"/>
<path d="M107.24 26.0154H93.0374C92.9266 26.0154 92.8359 25.9239 92.8359 25.8121V11.469C92.8359 11.3571 92.9266 11.2656 93.0374 11.2656H106.426C106.537 11.2656 106.627 11.3571 106.627 11.469C106.627 11.5808 106.537 11.6723 106.426 11.6723H93.2389V25.6107H107.038V15.3227C107.038 15.2108 107.129 15.1193 107.24 15.1193C107.35 15.1193 107.441 15.2108 107.441 15.3227V25.8141C107.441 25.9259 107.35 26.0174 107.24 26.0174V26.0154Z" fill="#3D3D3D"/>
<path d="M100.141 23.5557C100.076 23.5557 100.014 23.5232 99.9775 23.4703L94.4127 15.6022C94.3482 15.5107 94.3683 15.3846 94.459 15.3196C94.5497 15.2545 94.6766 15.2748 94.7391 15.3663L100.141 23.0026L109.675 9.58479C109.739 9.49327 109.866 9.47294 109.957 9.53801C110.047 9.60309 110.068 9.73121 110.003 9.82272L100.306 23.4723C100.268 23.5252 100.207 23.5577 100.143 23.5577L100.141 23.5557Z" fill="#3D3D3D"/>
<path d="M146.013 13.7348H135.959C135.848 13.7348 135.758 13.6433 135.758 13.5315C135.758 13.4196 135.848 13.3281 135.959 13.3281H146.013C146.124 13.3281 146.215 13.4196 146.215 13.5315C146.215 13.6433 146.124 13.7348 146.013 13.7348Z" fill="#3D3D3D"/>
<path d="M134.021 13.7348H124.346C124.235 13.7348 124.145 13.6433 124.145 13.5315C124.145 13.4196 124.235 13.3281 124.346 13.3281H134.021C134.132 13.3281 134.223 13.4196 134.223 13.5315C134.223 13.6433 134.132 13.7348 134.021 13.7348Z" fill="#3D3D3D"/>
<path d="M122.411 13.7348H115.639C115.528 13.7348 115.438 13.6433 115.438 13.5315C115.438 13.4196 115.528 13.3281 115.639 13.3281H122.411C122.522 13.3281 122.612 13.4196 122.612 13.5315C122.612 13.6433 122.522 13.7348 122.411 13.7348Z" fill="#3D3D3D"/>
<path d="M144.074 18.6645H140.248C140.138 18.6645 140.047 18.573 140.047 18.4611C140.047 18.3493 140.138 18.2578 140.248 18.2578H144.074C144.185 18.2578 144.276 18.3493 144.276 18.4611C144.276 18.573 144.185 18.6645 144.074 18.6645Z" fill="#3D3D3D"/>
<path d="M138.316 18.6645H121.741C121.63 18.6645 121.539 18.573 121.539 18.4611C121.539 18.3493 121.63 18.2578 121.741 18.2578H138.316C138.427 18.2578 138.518 18.3493 138.518 18.4611C138.518 18.573 138.427 18.6645 138.316 18.6645Z" fill="#3D3D3D"/>
<path d="M119.802 18.6645H113.701C113.591 18.6645 113.5 18.573 113.5 18.4611C113.5 18.3493 113.591 18.2578 113.701 18.2578H119.802C119.913 18.2578 120.004 18.3493 120.004 18.4611C120.004 18.573 119.913 18.6645 119.802 18.6645Z" fill="#3D3D3D"/>
<path d="M146.013 23.5942H129.901C129.79 23.5942 129.699 23.5027 129.699 23.3908C129.699 23.279 129.79 23.1875 129.901 23.1875H146.013C146.124 23.1875 146.214 23.279 146.214 23.3908C146.214 23.5027 146.124 23.5942 146.013 23.5942Z" fill="#3D3D3D"/>
<path d="M127.964 23.5942H113.701C113.591 23.5942 113.5 23.5027 113.5 23.3908C113.5 23.279 113.591 23.1875 113.701 23.1875H127.964C128.075 23.1875 128.166 23.279 128.166 23.3908C128.166 23.5027 128.075 23.5942 127.964 23.5942Z" fill="#3D3D3D"/>
<path d="M107.24 50.6581H93.0374C92.9266 50.6581 92.8359 50.5666 92.8359 50.4547V36.1096C92.8359 35.9978 92.9266 35.9062 93.0374 35.9062H106.426C106.537 35.9062 106.627 35.9978 106.627 36.1096C106.627 36.2215 106.537 36.313 106.426 36.313H93.2389V50.2514H107.038V39.9633C107.038 39.8515 107.129 39.7599 107.24 39.7599C107.35 39.7599 107.441 39.8515 107.441 39.9633V50.4547C107.441 50.5666 107.35 50.6581 107.24 50.6581Z" fill="#3D3D3D"/>
<path d="M100.141 48.1963C100.076 48.1963 100.014 48.1638 99.9775 48.1109L94.4127 40.2429C94.3482 40.1514 94.3683 40.0253 94.459 39.9602C94.5497 39.8951 94.6766 39.9155 94.7391 40.007L100.141 47.6432L109.675 34.2254C109.739 34.1339 109.866 34.1136 109.957 34.1786C110.047 34.2437 110.068 34.3718 110.003 34.4633L100.306 48.1129C100.268 48.1658 100.207 48.1984 100.143 48.1984L100.141 48.1963Z" fill="#3D3D3D"/>
<path d="M146.013 38.3754H129.901C129.79 38.3754 129.699 38.2839 129.699 38.1721C129.699 38.0602 129.79 37.9688 129.901 37.9688H146.013C146.124 37.9688 146.214 38.0602 146.214 38.1721C146.214 38.2839 146.124 38.3754 146.013 38.3754Z" fill="#3D3D3D"/>
<path d="M127.964 38.3754H113.701C113.591 38.3754 113.5 38.2839 113.5 38.1721C113.5 38.0602 113.591 37.9688 113.701 37.9688H127.964C128.075 37.9688 128.166 38.0602 128.166 38.1721C128.166 38.2839 128.075 38.3754 127.964 38.3754Z" fill="#3D3D3D"/>
<path d="M146.011 43.3051H133.096C132.985 43.3051 132.895 43.2136 132.895 43.1018C132.895 42.9899 132.985 42.8984 133.096 42.8984H146.011C146.122 42.8984 146.212 42.9899 146.212 43.1018C146.212 43.2136 146.122 43.3051 146.011 43.3051Z" fill="#3D3D3D"/>
<path d="M131.164 43.3051H122.498C122.388 43.3051 122.297 43.2136 122.297 43.1018C122.297 42.9899 122.388 42.8984 122.498 42.8984H131.164C131.275 42.8984 131.365 42.9899 131.365 43.1018C131.365 43.2136 131.275 43.3051 131.164 43.3051Z" fill="#3D3D3D"/>
<path d="M120.56 43.3051H113.701C113.591 43.3051 113.5 43.2136 113.5 43.1018C113.5 42.9899 113.591 42.8984 113.701 42.8984H120.56C120.671 42.8984 120.761 42.9899 120.761 43.1018C120.761 43.2136 120.671 43.3051 120.56 43.3051Z" fill="#3D3D3D"/>
<path d="M134.393 48.2348H126.873C126.763 48.2348 126.672 48.1433 126.672 48.0315C126.672 47.9196 126.763 47.8281 126.873 47.8281H134.393C134.503 47.8281 134.594 47.9196 134.594 48.0315C134.594 48.1433 134.503 48.2348 134.393 48.2348Z" fill="#3D3D3D"/>
<path d="M124.934 48.2348H113.701C113.591 48.2348 113.5 48.1433 113.5 48.0315C113.5 47.9196 113.591 47.8281 113.701 47.8281H124.934C125.045 47.8281 125.135 47.9196 125.135 48.0315C125.135 48.1433 125.045 48.2348 124.934 48.2348Z" fill="#3D3D3D"/>
<path d="M107.24 75.8534H93.0374C92.9266 75.8534 92.8359 75.7619 92.8359 75.65V61.3049C92.8359 61.1931 92.9266 61.1016 93.0374 61.1016H106.426C106.537 61.1016 106.627 61.1931 106.627 61.3049C106.627 61.4168 106.537 61.5083 106.426 61.5083H93.2389V75.4467H107.038V65.1586C107.038 65.0468 107.129 64.9553 107.24 64.9553C107.35 64.9553 107.441 65.0468 107.441 65.1586V75.65C107.441 75.7619 107.35 75.8534 107.24 75.8534Z" fill="#3D3D3D"/>
<path d="M100.141 73.3916C100.076 73.3916 100.014 73.3591 99.9775 73.3062L94.4127 65.4382C94.3482 65.3467 94.3683 65.2206 94.459 65.1555C94.5497 65.0904 94.6766 65.1108 94.7391 65.2023L100.141 72.8385L109.675 59.4207C109.739 59.3292 109.866 59.3089 109.957 59.374C110.047 59.439 110.068 59.5671 110.003 59.6587L100.306 73.3083C100.268 73.3611 100.207 73.3937 100.143 73.3937L100.141 73.3916Z" fill="#3D3D3D"/>
<path d="M146.013 63.5707H129.901C129.79 63.5707 129.699 63.4792 129.699 63.3674C129.699 63.2556 129.79 63.1641 129.901 63.1641H146.013C146.124 63.1641 146.214 63.2556 146.214 63.3674C146.214 63.4792 146.124 63.5707 146.013 63.5707Z" fill="#3D3D3D"/>
<path d="M127.964 63.5707H113.701C113.591 63.5707 113.5 63.4792 113.5 63.3674C113.5 63.2556 113.591 63.1641 113.701 63.1641H127.964C128.075 63.1641 128.166 63.2556 128.166 63.3674C128.166 63.4792 128.075 63.5707 127.964 63.5707Z" fill="#3D3D3D"/>
<path d="M146.011 68.4926H133.096C132.985 68.4926 132.895 68.4011 132.895 68.2893C132.895 68.1774 132.985 68.0859 133.096 68.0859H146.011C146.122 68.0859 146.212 68.1774 146.212 68.2893C146.212 68.4011 146.122 68.4926 146.011 68.4926Z" fill="#3D3D3D"/>
<path d="M131.164 68.4926H122.498C122.388 68.4926 122.297 68.4011 122.297 68.2893C122.297 68.1774 122.388 68.0859 122.498 68.0859H131.164C131.275 68.0859 131.365 68.1774 131.365 68.2893C131.365 68.4011 131.275 68.4926 131.164 68.4926Z" fill="#3D3D3D"/>
<path d="M120.56 68.4926H113.701C113.591 68.4926 113.5 68.4011 113.5 68.2893C113.5 68.1774 113.591 68.0859 113.701 68.0859H120.56C120.671 68.0859 120.761 68.1774 120.761 68.2893C120.761 68.4011 120.671 68.4926 120.56 68.4926Z" fill="#3D3D3D"/>
<path d="M134.393 73.4301H126.873C126.763 73.4301 126.672 73.3386 126.672 73.2268C126.672 73.1149 126.763 73.0234 126.873 73.0234H134.393C134.503 73.0234 134.594 73.1149 134.594 73.2268C134.594 73.3386 134.503 73.4301 134.393 73.4301Z" fill="#3D3D3D"/>
<path d="M124.934 73.4301H113.701C113.591 73.4301 113.5 73.3386 113.5 73.2268C113.5 73.1149 113.591 73.0234 113.701 73.0234H124.934C125.045 73.0234 125.135 73.1149 125.135 73.2268C125.135 73.3386 125.045 73.4301 124.934 73.4301Z" fill="#3D3D3D"/>
<path d="M107.24 101.189H93.0374C92.9266 101.189 92.8359 101.098 92.8359 100.986V86.6409C92.8359 86.529 92.9266 86.4375 93.0374 86.4375H106.426C106.537 86.4375 106.627 86.529 106.627 86.6409C106.627 86.7527 106.537 86.8442 106.426 86.8442H93.2389V100.783H107.038V90.4946C107.038 90.3827 107.129 90.2912 107.24 90.2912C107.35 90.2912 107.441 90.3827 107.441 90.4946V100.986C107.441 101.098 107.35 101.189 107.24 101.189Z" fill="#3D3D3D"/>
<path d="M100.141 98.7276C100.076 98.7276 100.014 98.695 99.9775 98.6422L94.4127 90.7741C94.3482 90.6826 94.3683 90.5565 94.459 90.4914C94.5497 90.4264 94.6766 90.4467 94.7391 90.5382L100.141 98.1744L109.675 84.7567C109.739 84.6651 109.866 84.6448 109.957 84.7099C110.047 84.775 110.068 84.9031 110.003 84.9946L100.306 98.6442C100.268 98.6971 100.207 98.7296 100.143 98.7296L100.141 98.7276Z" fill="#3D3D3D"/>
<path d="M146.013 88.9067H129.901C129.79 88.9067 129.699 88.8152 129.699 88.7033C129.699 88.5915 129.79 88.5 129.901 88.5H146.013C146.124 88.5 146.214 88.5915 146.214 88.7033C146.214 88.8152 146.124 88.9067 146.013 88.9067Z" fill="#3D3D3D"/>
<path d="M127.964 88.9067H113.701C113.591 88.9067 113.5 88.8152 113.5 88.7033C113.5 88.5915 113.591 88.5 113.701 88.5H127.964C128.075 88.5 128.166 88.5915 128.166 88.7033C128.166 88.8152 128.075 88.9067 127.964 88.9067Z" fill="#3D3D3D"/>
<path d="M146.011 93.8285H133.096C132.985 93.8285 132.895 93.737 132.895 93.6252C132.895 93.5134 132.985 93.4219 133.096 93.4219H146.011C146.122 93.4219 146.212 93.5134 146.212 93.6252C146.212 93.737 146.122 93.8285 146.011 93.8285Z" fill="#3D3D3D"/>
<path d="M131.164 93.8285H122.498C122.388 93.8285 122.297 93.737 122.297 93.6252C122.297 93.5134 122.388 93.4219 122.498 93.4219H131.164C131.275 93.4219 131.365 93.5134 131.365 93.6252C131.365 93.737 131.275 93.8285 131.164 93.8285Z" fill="#3D3D3D"/>
<path d="M120.56 93.8285H113.701C113.591 93.8285 113.5 93.737 113.5 93.6252C113.5 93.5134 113.591 93.4219 113.701 93.4219H120.56C120.671 93.4219 120.761 93.5134 120.761 93.6252C120.761 93.737 120.671 93.8285 120.56 93.8285Z" fill="#3D3D3D"/>
<path d="M134.393 98.766H126.873C126.763 98.766 126.672 98.6745 126.672 98.5627C126.672 98.4509 126.763 98.3594 126.873 98.3594H134.393C134.503 98.3594 134.594 98.4509 134.594 98.5627C134.594 98.6745 134.503 98.766 134.393 98.766Z" fill="#3D3D3D"/>
<path d="M124.934 98.766H113.701C113.591 98.766 113.5 98.6745 113.5 98.5627C113.5 98.4509 113.591 98.3594 113.701 98.3594H124.934C125.045 98.3594 125.135 98.4509 125.135 98.5627C125.135 98.6745 125.045 98.766 124.934 98.766Z" fill="#3D3D3D"/>
<path d="M47.5287 73.2812H14.3633V86.636H47.5287V73.2812Z" fill="#002766"/>
<path d="M43.0627 78.235H38.7007C38.5334 78.235 38.3984 78.0988 38.3984 77.93C38.3984 77.7612 38.5334 77.625 38.7007 77.625H43.0627C43.2299 77.625 43.3649 77.7612 43.3649 77.93C43.3649 78.0988 43.2299 78.235 43.0627 78.235Z" fill="#F4EAE2"/>
<path d="M35.3307 78.235H18.8296C18.6623 78.235 18.5273 78.0988 18.5273 77.93C18.5273 77.7612 18.6623 77.625 18.8296 77.625H35.3307C35.4979 77.625 35.6329 77.7612 35.6329 77.93C35.6329 78.0988 35.4979 78.235 35.3307 78.235Z" fill="#F4EAE2"/>
<path d="M43.0589 82.2897H27.8452C27.678 82.2897 27.543 82.1534 27.543 81.9847C27.543 81.8159 27.678 81.6797 27.8452 81.6797H43.0589C43.2261 81.6797 43.3611 81.8159 43.3611 81.9847C43.3611 82.1534 43.2261 82.2897 43.0589 82.2897Z" fill="#F4EAE2"/>
<path d="M24.9222 82.2897H18.8335C18.6662 82.2897 18.5312 82.1534 18.5312 81.9847C18.5312 81.8159 18.6662 81.6797 18.8335 81.6797H24.9222C25.0894 81.6797 25.2244 81.8159 25.2244 81.9847C25.2244 82.1534 25.0894 82.2897 24.9222 82.2897Z" fill="#F4EAE2"/>
<path d="M13.3652 79.37H9.42023C9.30942 79.37 9.21875 79.2785 9.21875 79.1667V42.5393C9.21875 42.4275 9.30942 42.3359 9.42023 42.3359C9.53104 42.3359 9.62171 42.4275 9.62171 42.5393V78.9633H13.3652C13.476 78.9633 13.5667 79.0548 13.5667 79.1667C13.5667 79.2785 13.476 79.37 13.3652 79.37Z" fill="#3D3D3D"/>
<path d="M23.3829 64.8442H12.3499C12.2391 64.8442 12.1484 64.7527 12.1484 64.6408C12.1484 64.529 12.2391 64.4375 12.3499 64.4375H23.3829C23.4937 64.4375 23.5844 64.529 23.5844 64.6408C23.5844 64.7527 23.4937 64.8442 23.3829 64.8442Z" fill="#3D3D3D"/>
<path d="M20.0263 67.2113H12.3499C12.2391 67.2113 12.1484 67.1198 12.1484 67.008C12.1484 66.8962 12.2391 66.8047 12.3499 66.8047H20.0263C20.1371 66.8047 20.2277 66.8962 20.2277 67.008C20.2277 67.1198 20.1371 67.2113 20.0263 67.2113Z" fill="#3D3D3D"/>
<path d="M23.3829 52.8442H12.3499C12.2391 52.8442 12.1484 52.7527 12.1484 52.6408C12.1484 52.529 12.2391 52.4375 12.3499 52.4375H23.3829C23.4937 52.4375 23.5844 52.529 23.5844 52.6408C23.5844 52.7527 23.4937 52.8442 23.3829 52.8442Z" fill="#3D3D3D"/>
<path d="M20.0263 55.2113H12.3499C12.2391 55.2113 12.1484 55.1198 12.1484 55.008C12.1484 54.8962 12.2391 54.8047 12.3499 54.8047H20.0263C20.1371 54.8047 20.2277 54.8962 20.2277 55.008C20.2277 55.1198 20.1371 55.2113 20.0263 55.2113Z" fill="#3D3D3D"/>
<path d="M26.1087 150.344L22.9031 160.17C22.5808 161.049 21.9904 161.799 21.2168 162.316L14.6606 166.688C13.7701 167.282 14.1872 168.681 15.255 168.681H39.4446C40.8287 168.681 42.0537 167.774 42.4667 166.44L47.4614 150.344H26.1107H26.1087Z" fill="#F4EAE2"/>
<path d="M39.4426 168.879H15.253C14.6748 168.879 14.1953 168.519 14.0301 167.959C13.8628 167.402 14.0683 166.833 14.5499 166.512L21.106 162.139C21.8495 161.643 22.4056 160.935 22.7158 160.091L25.9193 150.273C25.9476 150.19 26.0241 150.133 26.1108 150.133H47.4615C47.526 150.133 47.5864 150.163 47.6247 150.216C47.663 150.269 47.673 150.336 47.6549 150.397L42.6602 166.493C42.217 167.919 40.9255 168.877 39.4446 168.877L39.4426 168.879ZM26.2538 150.544L23.0946 160.23C22.7521 161.161 22.1416 161.938 21.3276 162.481L14.7715 166.853C14.3706 167.12 14.3262 167.541 14.4149 167.844C14.5056 168.147 14.7735 168.472 15.253 168.472H39.4426C40.7462 168.472 41.8845 167.628 42.2734 166.373L47.1855 150.542H26.2538V150.544Z" fill="#3D3D3D"/>
<path d="M84.4977 162.812C83.869 162.086 83.4923 161.169 83.4298 160.207L83.2142 150.336H61.3376L60.8843 165.379C60.8299 167.18 62.2624 168.673 64.0495 168.673H87.2015C88.1263 168.673 88.6199 167.575 88.0114 166.871L84.4977 162.812Z" fill="#F4EAE2"/>
<path d="M87.2039 168.877H64.0519C63.1332 168.877 62.2729 168.511 61.6342 167.844C60.9935 167.179 60.657 166.3 60.6852 165.373L61.1386 150.33C61.1426 150.22 61.2312 150.133 61.34 150.133H83.2166C83.3254 150.133 83.4161 150.22 83.4181 150.332L83.6337 160.203C83.6941 161.108 84.0548 161.991 84.6532 162.68L88.167 166.739C88.5014 167.126 88.578 167.654 88.3684 168.122C88.1589 168.588 87.7136 168.879 87.2039 168.879V168.877ZM61.5355 150.542L61.0882 165.387C61.064 166.202 61.3602 166.975 61.9243 167.561C62.4885 168.147 63.244 168.47 64.054 168.47H87.2059C87.5545 168.47 87.8587 168.271 88.0017 167.951C88.1448 167.632 88.0924 167.27 87.8647 167.006L84.351 162.947C83.6961 162.19 83.2992 161.222 83.2327 160.222L83.0212 150.542H61.5375H61.5355Z" fill="#3D3D3D"/>
<path d="M45.853 160.406L62.4226 104.018L60.0472 160.523L84.4524 160.147L81.6055 76.8281L50.078 76.8403L21.1094 160.371L45.853 160.406Z" fill="#3D3D3D"/>
<path d="M60.0501 160.727C59.9957 160.727 59.9433 160.705 59.905 160.666C59.8667 160.625 59.8466 160.573 59.8486 160.516L62.1556 105.655L46.0493 160.465C46.0231 160.55 45.9446 160.611 45.8559 160.611L21.1123 160.577C21.0478 160.577 20.9853 160.544 20.9471 160.491C20.9088 160.438 20.9007 160.369 20.9209 160.306L49.8895 76.7735C49.9177 76.6921 49.9943 76.6372 50.0789 76.6372L81.6063 76.625C81.7151 76.625 81.8038 76.7124 81.8078 76.8223L84.6547 160.141C84.6547 160.196 84.6366 160.249 84.6003 160.288C84.562 160.326 84.5117 160.351 84.4573 160.351L60.0501 160.727ZM62.4255 103.814C62.4356 103.814 62.4477 103.814 62.4598 103.816C62.5605 103.833 62.6331 103.922 62.627 104.026L60.2596 160.314L84.2477 159.946L81.4149 77.0297L50.224 77.0419L21.3963 160.168L45.7048 160.202L62.2321 103.961C62.2583 103.873 62.3369 103.814 62.4255 103.814Z" fill="#3D3D3D"/>
<path d="M62.2015 163.419C62.0907 163.419 62 163.327 62 163.215C62 163.104 62.0907 163.012 62.2015 163.012L84.5757 162.953C84.6865 162.953 84.7772 163.045 84.7772 163.156C84.7772 163.268 84.6865 163.36 84.5757 163.36L62.2015 163.419Z" fill="#3D3D3D"/>
<path d="M40.1067 163.297H40.1046L20.6136 163.063C20.5027 163.063 20.4121 162.969 20.4141 162.858C20.4141 162.746 20.5048 162.656 20.6156 162.656H20.6176L40.1087 162.89C40.2195 162.89 40.3101 162.984 40.3081 163.095C40.3081 163.207 40.2175 163.297 40.1067 163.297Z" fill="#3D3D3D"/>
<path d="M62.4926 105.489H62.4865C62.3757 105.485 62.287 105.391 62.2911 105.279L62.5208 96.8559C62.555 95.772 62.0171 94.7329 61.1185 94.1431L59.6457 93.1771C59.553 93.1161 59.5268 92.99 59.5872 92.8965C59.6477 92.803 59.7726 92.7765 59.8653 92.8375L61.3381 93.8035C62.3556 94.4705 62.964 95.6459 62.9237 96.8702L62.696 105.291C62.692 105.401 62.6034 105.489 62.4946 105.489H62.4926Z" fill="#F4EAE2"/>
<path d="M37.3327 24.0944H46.2602L43.6752 16.5477C43.4576 15.9111 43.4334 15.2238 43.6027 14.573C44.0258 12.9604 44.6625 9.77777 43.4637 8.76706C42.148 7.65874 40.5886 8.84841 40.5886 8.84841C40.5886 8.84841 39.2044 6.11523 38.4791 6.0949C37.5644 6.07049 37.0828 6.43248 37.0627 7.48385C37.0627 7.48385 35.7188 6.69074 35.5012 8.3034C35.5012 8.3034 33.9156 8.24239 34.1936 10.1398C34.1936 10.1398 32.2594 11.4413 34.7618 14.5751C34.7618 14.5751 35.9203 18.866 37.3327 24.0924V24.0944Z" fill="#F4EAE2"/>
<path d="M46.2606 24.2977H37.3331C37.2424 24.2977 37.1618 24.2367 37.1396 24.1472C35.8058 19.2178 34.7017 15.12 34.5809 14.6706C33.5896 13.4199 33.1624 12.2933 33.3095 11.3253C33.4163 10.6278 33.7951 10.217 33.9804 10.0543C33.9099 9.42998 34.0288 8.93785 34.3351 8.59213C34.6534 8.23422 35.0886 8.1366 35.3304 8.11017C35.423 7.6465 35.6245 7.33536 35.9308 7.18487C36.2632 7.02218 36.6339 7.09539 36.8817 7.18284C36.9281 6.77408 37.0611 6.46701 37.2827 6.25348C37.5486 5.99521 37.9415 5.87929 38.4855 5.8915C39.2028 5.9098 40.2364 7.73598 40.6655 8.55553C41.1531 8.26269 42.4587 7.6526 43.593 8.61044C44.8603 9.67808 44.266 12.8363 43.7965 14.6238C43.6353 15.24 43.6595 15.8806 43.865 16.4805L46.45 24.0273C46.4721 24.0903 46.4621 24.1574 46.4238 24.2123C46.3855 24.2652 46.3251 24.2977 46.2606 24.2977ZM37.4862 23.891H45.9765L43.4822 16.6147C43.2505 15.9396 43.2243 15.2156 43.4056 14.5221C43.7623 13.1576 44.4694 9.88348 43.3331 8.92564C42.1524 7.93121 40.7219 9.00292 40.7078 9.01309C40.6595 9.0497 40.599 9.0619 40.5406 9.0497C40.4822 9.03546 40.4338 8.99682 40.4056 8.94395C39.7669 7.68107 38.8442 6.31245 38.4714 6.30228C38.0403 6.28805 37.7421 6.37143 37.5567 6.55039C37.3653 6.73341 37.2706 7.04252 37.2605 7.49195C37.2605 7.56312 37.2202 7.63023 37.1578 7.6648C37.0953 7.69938 37.0188 7.69938 36.9583 7.6648C36.9543 7.66277 36.4586 7.37807 36.102 7.55499C35.8885 7.66074 35.7535 7.92307 35.6971 8.3359C35.6829 8.43758 35.5983 8.51282 35.4976 8.51282C35.4956 8.51282 35.4915 8.51282 35.4895 8.51282C35.4855 8.51282 34.9536 8.50062 34.6272 8.87074C34.3874 9.14324 34.3068 9.56217 34.3895 10.1153C34.4015 10.1926 34.3673 10.2699 34.3028 10.3146C34.2827 10.3288 33.8092 10.6623 33.7004 11.4006C33.5775 12.2465 33.9966 13.302 34.9153 14.453C34.9334 14.4754 34.9455 14.4998 34.9536 14.5282C34.9536 14.5282 36.0899 18.7378 37.4842 23.8971L37.4862 23.891Z" fill="#3D3D3D"/>
<path d="M39.0567 12.9912C38.7646 12.9912 38.4604 12.916 38.2428 12.6761C37.9144 12.3141 37.9849 11.7895 38.0554 11.511C38.3435 10.3825 39.2643 9.5997 40.2636 8.83112C40.3523 8.76199 40.4792 8.78029 40.5457 8.86976C40.6122 8.95922 40.596 9.08732 40.5074 9.15442C39.5665 9.87623 38.7001 10.6082 38.4442 11.6106C38.404 11.7712 38.3314 12.1698 38.5389 12.3995C38.7565 12.6395 39.1796 12.5927 39.4134 12.5439C39.9876 12.4219 40.5275 12.1535 40.9728 11.7672C41.0574 11.694 41.1844 11.7042 41.2569 11.7895C41.3294 11.8749 41.3194 12.003 41.2347 12.0762C40.7371 12.5073 40.1367 12.8082 39.4939 12.9424C39.359 12.9709 39.2079 12.9912 39.0547 12.9912H39.0567Z" fill="#3D3D3D"/>
<path d="M39.4093 14.8818C39.3005 14.8818 39.2099 14.7944 39.2079 14.6825C39.1897 13.8794 39.4718 13.062 39.9775 12.4419C40.048 12.3544 40.175 12.3422 40.2616 12.4134C40.3482 12.4846 40.3603 12.6127 40.2898 12.7001C39.8445 13.247 39.5967 13.9648 39.6128 14.6744C39.6148 14.7862 39.5262 14.8798 39.4154 14.8818H39.4114H39.4093Z" fill="#3D3D3D"/>
<path d="M38.3945 11.1701C38.3502 11.1701 38.3038 11.1538 38.2655 11.1233C37.2037 10.2348 36.6739 8.77486 36.9116 7.40239C36.9317 7.2926 37.0345 7.21736 37.1453 7.2377C37.2541 7.25803 37.3287 7.36173 37.3085 7.47356C37.0949 8.70369 37.5704 10.0131 38.5214 10.8102C38.606 10.8813 38.6181 11.0094 38.5476 11.0969C38.5073 11.1457 38.4509 11.1701 38.3925 11.1701H38.3945Z" fill="#3D3D3D"/>
<path d="M37.2815 12.4705C36.9128 12.4705 36.5259 12.3099 36.2197 12.0252C35.9477 11.7711 35.7301 11.4234 35.5528 10.9618C35.2224 10.0977 35.1377 9.16034 35.309 8.25146C35.3292 8.14167 35.4359 8.0705 35.5447 8.0888C35.6535 8.10913 35.7261 8.21486 35.7059 8.3267C35.5528 9.15017 35.6314 10.0347 35.9316 10.8154C36.0847 11.218 36.2701 11.5169 36.4957 11.7263C36.7597 11.9724 37.0961 12.0944 37.3943 12.0557C37.7106 12.013 37.9786 11.769 38.0189 11.4864C38.035 11.3766 38.1337 11.2973 38.2466 11.3136C38.3574 11.3299 38.4339 11.4315 38.4178 11.5433C38.3534 12.0069 37.9464 12.3933 37.4487 12.4604C37.3943 12.4685 37.3399 12.4705 37.2835 12.4705H37.2815Z" fill="#3D3D3D"/>
<path d="M35.9963 13.2227C35.7727 13.2227 35.539 13.1576 35.3254 13.0336C35.0735 12.8872 34.8479 12.6635 34.6323 12.3504C34.1548 11.6489 33.9231 10.7949 33.9815 9.94705C33.9896 9.83522 34.0863 9.75389 34.1971 9.75796C34.3079 9.76609 34.3925 9.86369 34.3845 9.97552C34.3321 10.7339 34.5376 11.4944 34.9647 12.1206C35.1441 12.3829 35.3274 12.568 35.5249 12.6818C35.7505 12.814 36.0084 12.8506 36.2139 12.7835C36.4255 12.7143 36.5887 12.511 36.5947 12.3138C36.5967 12.204 36.6874 12.1166 36.7962 12.1166H36.8022C36.913 12.1186 37.0017 12.2121 36.9977 12.326C36.9876 12.6981 36.7176 13.0458 36.3408 13.1718C36.232 13.2084 36.1152 13.2267 35.9963 13.2267V13.2227Z" fill="#3D3D3D"/>
<path d="M35.2272 14.3124C34.9532 14.3124 34.6812 14.1985 34.4979 13.985C34.4253 13.8996 34.4354 13.7715 34.518 13.6983C34.6026 13.6251 34.7296 13.6332 34.8021 13.7186C34.9673 13.9118 35.2917 13.9626 35.5073 13.8284C35.7229 13.6922 35.8236 13.3791 35.7249 13.1412C35.6826 13.0375 35.7309 12.9196 35.8337 12.8748C35.9364 12.8321 36.0533 12.8809 36.0976 12.9846C36.2729 13.4096 36.1077 13.9321 35.7209 14.1741C35.5718 14.2676 35.3985 14.3124 35.2272 14.3124Z" fill="#3D3D3D"/>
<path d="M39.5657 9.64962C39.4831 9.64962 39.4065 9.59879 39.3763 9.51746L38.8484 8.07179C38.8102 7.96606 38.8625 7.85016 38.9673 7.8095C39.0721 7.77087 39.1869 7.82373 39.2272 7.92946L39.7551 9.37513C39.7934 9.48086 39.741 9.59675 39.6362 9.63742C39.6141 9.64555 39.5899 9.64962 39.5657 9.64962Z" fill="#3D3D3D"/>
<path d="M83.0641 9.51766C83.1205 10.8802 81.2105 12.2488 81.142 13.3592C81.0997 14.0424 81.142 15.0125 80.9949 15.6795L78.9922 24.723H87.9177C88.8929 18.3598 89.7612 12.6576 89.7612 12.6576C90.5974 11.3276 90.7968 10.3474 90.7304 9.64781L83.0641 9.51562V9.51766Z" fill="#F4EAE2"/>
<path d="M87.9201 24.9324H78.9946C78.9342 24.9324 78.8758 24.9039 78.8375 24.8551C78.7992 24.8063 78.7851 24.7432 78.7972 24.6843L80.7999 15.6408C80.8966 15.2036 80.9087 14.6016 80.9188 14.0708C80.9228 13.8126 80.9288 13.5706 80.9409 13.3509C80.9752 12.7836 81.4063 12.1999 81.8637 11.5837C82.3674 10.9025 82.8892 10.1988 82.863 9.53181C82.861 9.47487 82.8812 9.42199 82.9194 9.38132C82.9577 9.34268 83.0101 9.32031 83.0645 9.32031H83.0685L90.7348 9.4525C90.8376 9.4525 90.9222 9.53384 90.9323 9.63552C91.0169 10.5161 90.6905 11.5614 89.9571 12.7388C89.8765 13.2676 89.0464 18.7156 88.1196 24.7615C88.1035 24.8612 88.0189 24.9344 87.9201 24.9344V24.9324ZM79.2465 24.5256H87.7489C88.712 18.2316 89.5662 12.6331 89.5662 12.6331C89.5703 12.6046 89.5803 12.5782 89.5944 12.5558C90.2432 11.5247 90.5615 10.6178 90.5434 9.85515L83.262 9.7311C83.1995 10.4632 82.6857 11.1567 82.1881 11.8278C81.769 12.3951 81.3721 12.93 81.3439 13.3774C81.3318 13.5868 81.3257 13.8268 81.3217 14.079C81.3116 14.628 81.2996 15.2524 81.1928 15.7303L79.2465 24.5277V24.5256Z" fill="#3D3D3D"/>
<path d="M85.0898 13.5041C84.9871 13.5041 84.8984 13.4248 84.8884 13.319C84.8239 12.6033 84.4914 11.9039 83.9797 11.4037C83.8991 11.3264 83.8971 11.1963 83.9757 11.117C84.0522 11.0356 84.1812 11.0336 84.2598 11.1129C84.84 11.6802 85.2168 12.4711 85.2893 13.2824C85.2994 13.3943 85.2188 13.4939 85.108 13.5041C85.1019 13.5041 85.0959 13.5041 85.0898 13.5041Z" fill="#3D3D3D"/>
<path d="M83.6312 6.44785C84.2095 6.89728 84.552 7.61311 84.8341 8.30454C85.5251 10.0006 86.0127 11.7902 86.0671 13.5594L81.7071 15.3612C81.1692 14.8711 81.0201 14.0393 81.149 13.3601C81.276 12.6809 81.6245 12.1054 81.9167 11.5075C82.2088 10.9096 82.4506 10.2385 82.3458 9.52267C82.2692 9.00004 82.0134 8.5079 81.8401 8.00153C81.6668 7.49516 81.5822 6.90948 81.8341 6.50276C82.1846 5.93742 83.055 5.99639 83.6312 6.44582V6.44785Z" fill="#F4EAE2"/>
<path d="M81.7044 15.5658C81.6561 15.5658 81.6077 15.5475 81.5695 15.5129C80.9187 14.9191 80.828 13.9633 80.9469 13.3227C81.0537 12.7513 81.3075 12.253 81.5533 11.7731C81.6138 11.6551 81.6742 11.5372 81.7306 11.4192C81.9764 10.9169 82.2444 10.2499 82.1417 9.55442C82.0933 9.22091 81.9644 8.89756 81.8294 8.55592C81.7649 8.39526 81.7004 8.23257 81.646 8.06988C81.4808 7.58588 81.3478 6.90056 81.6601 6.39622C81.8193 6.13795 82.0732 5.9712 82.3935 5.91222C82.8327 5.83291 83.3546 5.97526 83.7515 6.28641C84.364 6.7643 84.7226 7.50047 85.0188 8.22647C85.7965 10.134 86.2176 11.9256 86.2679 13.5525C86.272 13.6644 86.1853 13.7579 86.0725 13.762C85.9597 13.7742 85.869 13.6786 85.865 13.5647C85.8146 11.9866 85.4056 10.2418 84.646 8.38103C84.372 7.7079 84.0436 7.02664 83.5057 6.60772C83.1994 6.36978 82.7904 6.25387 82.466 6.31284C82.323 6.33928 82.1255 6.41046 82.0026 6.61178C81.8253 6.89852 81.8334 7.37032 82.0268 7.93567C82.0812 8.09225 82.1417 8.24884 82.2041 8.4034C82.3431 8.75114 82.4862 9.11313 82.5426 9.49341C82.6615 10.3008 82.3653 11.041 82.0953 11.5982C82.0369 11.7182 81.9764 11.8382 81.914 11.9582C81.6702 12.434 81.4425 12.8834 81.3458 13.3979C81.2451 13.9348 81.3156 14.73 81.8415 15.2099C81.9241 15.2851 81.9301 15.4133 81.8556 15.4966C81.8153 15.5414 81.7609 15.5637 81.7065 15.5637L81.7044 15.5658Z" fill="#3D3D3D"/>
<path d="M63.5437 44.4463C62.6773 44.6395 61.3879 44.8876 59.8022 45.0422C57.3724 45.2801 56.0507 45.3919 54.8418 44.7066C53.5685 43.9847 53.0124 42.7137 52.6961 41.9511C50.367 36.3464 48.6685 28.6045 47.4878 24.5759C46.9277 22.6602 45.9908 19.9087 44.4072 16.6875C41.2903 17.3586 38.1755 18.0317 35.0586 18.7028C35.8484 23.5286 37.2809 30.9391 39.9424 39.8483C41.52 45.1316 42.4912 47.4642 43.9902 52.2655C45.7148 57.7929 47.2944 69.2604 47.6752 80.9761C47.6853 81.2994 47.9452 81.5557 48.2655 81.5557C58.267 81.5638 71.3349 81.881 81.4874 81.9054C82.2349 81.9054 82.8474 81.3096 82.8736 80.5551C83.2222 70.2244 82.8978 57.6668 83.8971 52.2025C85.0173 46.0773 86.2443 41.3166 87.5439 32.4521C88.3881 26.699 88.8595 21.9607 89.1275 18.8655C85.9401 18.4384 82.7527 18.0114 79.5673 17.5843C77.8447 22.3165 76.9481 26.2414 76.4484 28.9807C75.7271 32.9198 74.5586 36.7633 73.67 40.6679C73.263 42.4554 72.9709 43.7813 71.8285 44.7107C69.2858 46.7829 64.8452 45.0096 63.5477 44.4463H63.5437Z" fill="#1890FF"/>
<path d="M63.0776 76.0113C62.999 76.0113 62.9245 75.9645 62.8922 75.8893L56.8841 61.7882C56.8519 61.7109 56.87 61.6194 56.9305 61.5604L59.598 58.9818L55.6632 58.3717C55.6088 58.3636 55.5604 58.3331 55.5282 58.2884C55.4959 58.2436 55.4859 58.1867 55.4959 58.1318L57.8734 45.8366C57.8935 45.7267 58.0003 45.6535 58.1091 45.6759C58.2179 45.6983 58.2904 45.804 58.2683 45.9138L55.9311 58.0016L60.0635 58.6442C60.14 58.6565 60.2025 58.7093 60.2246 58.7846C60.2468 58.8578 60.2267 58.9391 60.1723 58.992L57.3113 61.7577L63.265 75.7286C63.3093 75.8323 63.2609 75.9523 63.1602 75.995C63.134 76.0052 63.1078 76.0113 63.0796 76.0113H63.0776Z" fill="#3D3D3D"/>
<path d="M65.6553 75.9849C65.6291 75.9849 65.6009 75.9788 65.5747 75.9686C65.4719 75.9239 65.4256 75.8039 65.4699 75.7022L71.4115 61.7577L68.5505 58.992C68.4941 58.9391 68.474 58.8578 68.4981 58.7846C68.5223 58.7114 68.5848 58.6565 68.6593 58.6442L72.7917 58.0016L70.4545 45.9138C70.4323 45.804 70.5049 45.6962 70.6137 45.6759C70.7225 45.6535 70.8293 45.7267 70.8494 45.8366L73.2269 58.1318C73.2369 58.1867 73.2269 58.2416 73.1946 58.2884C73.1624 58.3331 73.114 58.3636 73.0596 58.3717L69.1247 58.9818L71.7923 61.5604C71.8528 61.6194 71.8709 61.7089 71.8387 61.7882L65.8427 75.8628C65.8104 75.9401 65.7359 75.9849 65.6573 75.9849H65.6553Z" fill="#3D3D3D"/>
<path d="M81.0615 81.987L48.7503 81.6962C48.6395 81.6962 48.5488 81.6027 48.5508 81.4908C48.5508 81.379 48.6354 81.2814 48.7543 81.2895L81.0655 81.5803C81.1763 81.5803 81.267 81.6738 81.265 81.7857C81.265 81.8975 81.1743 81.987 81.0635 81.987H81.0615Z" fill="#3D3D3D"/>
<path d="M64.4628 81.0078L59.5508 44.9945L64.352 40.1484L69.1553 44.9945L64.4628 81.0078Z" fill="#F4EAE2"/>
<path d="M64.3698 51.7273L62.3711 49.265L64.3698 46.8047L66.3664 49.265L64.3698 51.7273Z" fill="#3D3D3D"/>
<path d="M63.6238 49.5391L62.4492 66.3103L64.4519 81.1251L66.366 66.414L65.141 49.5391H63.6238Z" fill="#3D3D3D"/>
<path d="M90.1117 11.6624C90.4925 11.7559 90.8834 11.5505 91.0265 11.1825L91.8566 9.02317C92.0439 8.53925 91.7639 8.00043 91.2642 7.8764C90.827 7.76864 90.3817 8.02076 90.2467 8.45385L89.5557 10.662C89.4207 11.0951 89.6765 11.5546 90.1138 11.6624H90.1117Z" fill="#F4EAE2"/>
<path d="M90.2963 11.8875C90.2197 11.8875 90.1411 11.8794 90.0645 11.8591C89.8026 11.794 89.575 11.6212 89.442 11.3833C89.309 11.1454 89.2808 10.8607 89.3614 10.6005L90.0525 8.39232C90.2197 7.8596 90.7738 7.54648 91.3117 7.67864C91.6059 7.75184 91.8557 7.94907 91.9967 8.22153C92.1378 8.49195 92.1539 8.81118 92.0451 9.09787L91.215 11.2572C91.0659 11.6435 90.6952 11.8896 90.2983 11.8896L90.2963 11.8875ZM90.1613 11.4646C90.4433 11.5337 90.7335 11.3812 90.8382 11.1088L91.6683 8.94944C91.7368 8.77255 91.7247 8.57532 91.6381 8.40859C91.5515 8.23983 91.3963 8.11783 91.215 8.0731C90.8826 7.99177 90.54 8.18493 90.4373 8.51432L89.7462 10.7225C89.6979 10.877 89.714 11.0417 89.7926 11.184C89.8711 11.3263 90.0021 11.426 90.1592 11.4646H90.1613Z" fill="#3D3D3D"/>
<path d="M88.1 12.4043C88.5674 12.5203 89.0429 12.2498 89.19 11.7882L90.2397 8.4632C90.4211 7.88972 90.0826 7.28167 89.5023 7.13932C88.9503 7.00307 88.3902 7.34471 88.2552 7.90192L87.4291 11.2899C87.3082 11.7841 87.6084 12.2844 88.1 12.4043Z" fill="#F4EAE2"/>
<path d="M88.3177 12.6361C88.231 12.6361 88.1424 12.6259 88.0537 12.6035C87.7636 12.5324 87.5198 12.3514 87.3647 12.0931C87.2095 11.8369 87.1652 11.5339 87.2357 11.241L88.0618 7.85301C88.223 7.18802 88.8919 6.77927 89.5527 6.94196C89.8832 7.0233 90.1672 7.2409 90.3345 7.54187C90.4997 7.84081 90.5359 8.19873 90.4332 8.52614L89.3835 11.8491C89.2344 12.3249 88.7931 12.634 88.3177 12.634V12.6361ZM88.1504 12.209C88.5131 12.2985 88.8878 12.087 89.0007 11.7291L90.0504 8.40616C90.1209 8.18246 90.0967 7.94859 89.9839 7.74523C89.8711 7.54187 89.6837 7.39748 89.458 7.34258C89.0148 7.23276 88.5635 7.5073 88.4547 7.95469L87.6286 11.3427C87.5843 11.5298 87.6125 11.7209 87.7112 11.8857C87.8099 12.0504 87.9671 12.1663 88.1504 12.211V12.209Z" fill="#3D3D3D"/>
<path d="M86.353 11.9769C86.8426 12.0989 87.3382 11.7959 87.4591 11.2997L88.2852 7.91169C88.4202 7.35448 88.0837 6.79117 87.5296 6.65492C86.9494 6.51256 86.3711 6.89285 86.2684 7.48463L85.67 10.9194C85.5874 11.3973 85.8856 11.8589 86.353 11.9728V11.9769Z" fill="#F4EAE2"/>
<path d="M86.5698 12.2041C86.4812 12.2041 86.3925 12.1939 86.3039 12.1716C85.7357 12.0313 85.369 11.4659 85.4698 10.8843L86.0682 7.44953C86.1266 7.11195 86.324 6.81097 86.6081 6.62388C86.8922 6.43679 87.2468 6.37578 87.5752 6.45713C87.8956 6.53644 88.1655 6.73573 88.3368 7.02044C88.5081 7.30311 88.5584 7.63865 88.4799 7.95997L87.6538 11.348C87.5289 11.8604 87.0715 12.2061 86.5698 12.2061V12.2041ZM86.3986 11.7771C86.7814 11.8706 87.1682 11.6347 87.2609 11.2503L88.087 7.86235C88.1394 7.64679 88.1051 7.42106 87.9923 7.2299C87.8774 7.03874 87.6961 6.90452 87.4805 6.85165C87.2549 6.79674 87.0232 6.83538 86.8297 6.9635C86.6363 7.09161 86.5074 7.28887 86.4671 7.51867L85.8687 10.9534C85.8042 11.3236 86.0379 11.6855 86.4006 11.775L86.3986 11.7771Z" fill="#3D3D3D"/>
<path d="M84.7597 10.9965C85.2171 11.1104 85.6764 10.8095 85.759 10.3418L86.2567 7.53385C86.3413 7.05399 86.0431 6.58837 85.5717 6.47247C85.0317 6.33828 84.4978 6.71647 84.4393 7.27359L84.1412 10.11C84.0989 10.5207 84.3628 10.8989 84.7597 10.9965Z" fill="#F4EAE2"/>
<path d="M84.9548 11.2243C84.8742 11.2243 84.7936 11.2141 84.713 11.1958C84.2194 11.0738 83.8889 10.5979 83.9433 10.0895L84.2415 7.25262C84.2758 6.92928 84.447 6.6344 84.711 6.44731C84.9749 6.26022 85.3074 6.19718 85.6217 6.27445C86.1939 6.41477 86.5606 6.98419 86.4578 7.56987L85.9601 10.3783C85.9098 10.6569 85.7486 10.905 85.5129 11.0575C85.3456 11.1673 85.1522 11.2243 84.9548 11.2243ZM84.8097 10.8013C84.9769 10.844 85.1482 10.8135 85.2933 10.7179C85.4363 10.6223 85.533 10.4779 85.5632 10.3071L86.0609 7.49869C86.1274 7.1245 85.8916 6.76049 85.527 6.67101C85.3255 6.6222 85.1139 6.66287 84.9427 6.78082C84.7734 6.90081 84.6646 7.0879 84.6425 7.29533L84.3443 10.1322C84.3121 10.4393 84.5115 10.726 84.8097 10.7992V10.8013Z" fill="#3D3D3D"/>
<path d="M61.3474 42.2696L60.9102 44.9921C61.1076 45.2158 62.3427 46.5781 64.3736 46.6045C66.614 46.635 67.9498 45.0145 68.111 44.8132C67.9982 43.8006 67.8874 42.788 67.7745 41.7734L61.3474 42.2696Z" fill="#F4EAE2"/>
<path d="M64.437 46.8095C64.4148 46.8095 64.3947 46.8095 64.3725 46.8095C62.3678 46.783 61.1025 45.5161 60.762 45.1277C60.7217 45.0829 60.7036 45.0199 60.7137 44.9609L61.1509 42.2379C61.165 42.1444 61.2415 42.0752 61.3342 42.0671L67.7614 41.5709C67.8682 41.5628 67.9649 41.6421 67.977 41.7519L68.3135 44.7921C68.3195 44.845 68.3034 44.8999 68.2711 44.9426C68.0213 45.2558 66.6714 46.8115 64.439 46.8115L64.437 46.8095ZM61.1267 44.9304C61.5135 45.3493 62.6459 46.3804 64.3766 46.4048C64.3967 46.4048 64.4169 46.4048 64.435 46.4048C66.3591 46.4048 67.572 45.1439 67.9004 44.7535L67.5942 41.9959L61.5196 42.4657L61.1247 44.9324L61.1267 44.9304Z" fill="#3D3D3D"/>
<path d="M55.8267 32.1848C55.7079 31.4629 55.6776 30.7003 55.9355 30.015C56.1934 29.3296 56.7918 28.7399 57.5131 28.6687C58.1337 28.6077 58.7522 28.9249 59.3687 28.8273C60.4406 28.6606 60.9584 27.3936 61.8872 26.8283C62.5461 26.4277 63.4205 26.4216 64.0854 26.812C64.5689 27.0967 64.99 27.5889 65.5501 27.5807C66.08 27.5746 66.495 27.115 67.0088 26.9808C67.5085 26.8486 68.0525 27.052 68.4413 27.3957C68.8302 27.7393 69.0901 28.2091 69.3057 28.6829C69.9 29.9906 70.2264 31.4202 70.2607 32.8579C70.2929 34.1676 70.0532 35.5464 69.2291 36.5591C68.4857 37.4722 67.3614 37.9745 66.2392 38.308C64.4319 38.8429 62.5199 39.0117 60.6481 38.8063C59.0504 38.6293 58.3533 37.8301 57.5554 36.5347C56.7354 35.2027 56.0826 33.7405 55.8247 32.1848H55.8267Z" fill="#3D3D3D"/>
<path d="M70.6514 35.1568C69.771 33.9895 68.9288 34.8192 68.4231 35.6021C68.3223 34.5426 68.1773 33.5827 67.9697 32.9015C67.1195 30.1093 65.9429 32.4033 64.6373 33.5197C63.3317 34.6362 61.1356 32.3646 60.0859 32.4887C59.3807 32.572 59.0462 33.3184 58.9052 33.7963C58.8367 34.024 58.8186 34.262 58.8407 34.4979C58.8851 34.9656 58.9797 35.9377 59.1026 37.109C58.47 36.4074 57.4546 35.6509 56.7695 37.0013C55.9052 38.7034 57.8777 40.3384 59.419 39.8991C59.4955 40.5296 59.5761 41.1539 59.6587 41.7396C59.8804 43.3055 61.2202 44.4605 62.7857 44.43C63.7931 44.4097 65.0201 44.2836 66.3539 43.9277C67.7098 43.5658 68.6427 42.311 68.6387 40.8936C68.6366 40.1798 68.6245 39.348 68.5943 38.4838C70.1739 38.5976 71.7858 36.6596 70.6474 35.1527L70.6514 35.1568Z" fill="#F4EAE2"/>
<path d="M62.7286 44.6343C61.0926 44.6343 59.6944 43.4121 59.4627 41.769C59.3942 41.285 59.3216 40.7399 59.2491 40.1461C58.4029 40.2864 57.4479 39.9102 56.8575 39.1822C56.3035 38.4989 56.2068 37.6692 56.5916 36.9086C56.8495 36.3982 57.1839 36.1135 57.5809 36.0586C57.9657 36.0057 58.3928 36.1765 58.8441 36.567C58.7494 35.6539 58.6769 34.9116 58.6406 34.5151C58.6144 34.2466 58.6406 33.9843 58.7132 33.7362C58.969 32.8719 59.4486 32.3574 60.0631 32.2842C60.5265 32.2293 61.0987 32.5343 61.7615 32.8861C62.7186 33.3925 63.8025 33.966 64.5057 33.364C64.7797 33.1281 65.0537 32.8353 65.3197 32.5506C65.9443 31.8795 66.5326 31.245 67.135 31.3874C67.5621 31.487 67.8885 31.9507 68.1605 32.8434C68.3237 33.3823 68.4607 34.1266 68.5675 35.0621C68.9362 34.6208 69.313 34.391 69.6958 34.3768C70.0826 34.3605 70.4675 34.5842 70.81 35.0357C71.3177 35.7068 71.3721 36.5304 70.9631 37.295C70.5239 38.1146 69.6595 38.6677 68.8032 38.6982C68.8254 39.3978 68.8375 40.138 68.8395 40.9006C68.8456 42.4197 67.8442 43.7477 66.4056 44.132C65.231 44.4452 64.0141 44.616 62.7891 44.6404C62.7669 44.6404 62.7468 44.6404 62.7246 44.6404L62.7286 44.6343ZM59.4204 39.6947C59.4607 39.6947 59.4989 39.7069 59.5312 39.7292C59.5795 39.7618 59.6118 39.8147 59.6198 39.8736C59.7024 40.5508 59.783 41.169 59.8596 41.71C60.0631 43.1538 61.2921 44.2276 62.7266 44.2276C62.7448 44.2276 62.7649 44.2276 62.783 44.2276C63.9758 44.2052 65.1605 44.0385 66.3049 43.7334C67.5662 43.3979 68.4446 42.2306 68.4386 40.8965C68.4345 40.0587 68.4204 39.2513 68.3962 38.4928C68.3962 38.4359 68.4164 38.3789 68.4587 38.3403C68.499 38.2996 68.5574 38.2793 68.6118 38.2833C69.3754 38.3342 70.2136 37.838 70.6105 37.0957C70.8039 36.7317 71.0477 36.0138 70.4916 35.2777C70.2337 34.9381 69.9698 34.7672 69.7119 34.7794C69.2727 34.7957 68.8597 35.296 68.5917 35.7129C68.5453 35.7861 68.4587 35.8206 68.3741 35.7983C68.2915 35.7779 68.229 35.7068 68.221 35.6193C68.1102 34.4622 67.9611 33.5674 67.7757 32.9573C67.5601 32.2476 67.3063 31.8409 67.0443 31.7798C66.6696 31.6924 66.1316 32.2679 65.6138 32.8251C65.3418 33.118 65.0598 33.421 64.7656 33.6711C63.8529 34.452 62.5896 33.783 61.5722 33.2441C60.9919 32.937 60.4439 32.6462 60.1074 32.6868C59.507 32.758 59.2169 33.4474 59.096 33.8521C59.0375 34.0494 59.0174 34.2609 59.0375 34.4764C59.0819 34.9503 59.1766 35.9203 59.2995 37.0876C59.3095 37.175 59.2612 37.2584 59.1826 37.295C59.104 37.3316 59.0093 37.3113 58.9509 37.2462C58.4533 36.6931 57.9838 36.4165 57.6312 36.4633C57.3713 36.4978 57.1416 36.7114 56.9482 37.0957C56.6379 37.7058 56.7185 38.3749 57.1658 38.928C57.7017 39.5889 58.6265 39.9163 59.3639 39.7069C59.3821 39.7028 59.4002 39.6987 59.4183 39.6987L59.4204 39.6947Z" fill="#3D3D3D"/>
<path d="M68.5981 38.5455C68.5981 38.5455 68.588 38.5455 68.5819 38.5455C68.471 38.5373 68.3882 38.4397 68.3963 38.3279C68.4326 37.8419 68.4084 37.3519 68.3237 36.8721C68.3035 36.7623 68.3761 36.6565 68.4871 36.6362C68.596 36.6159 68.7009 36.6891 68.7211 36.8009C68.8119 37.3153 68.8381 37.8379 68.7978 38.3584C68.7897 38.4662 68.7009 38.5455 68.596 38.5455H68.5981Z" fill="#3D3D3D"/>
<path d="M59.4663 40.1812C59.3654 40.1812 59.2767 40.104 59.2666 40.0003L59.091 38.3655C59.0789 38.2537 59.1596 38.154 59.2706 38.1418C59.3795 38.1296 59.4804 38.211 59.4925 38.3228L59.6681 39.9576C59.6802 40.0694 59.5995 40.169 59.4885 40.1812C59.4804 40.1812 59.4744 40.1812 59.4663 40.1812Z" fill="#3D3D3D"/>
<path d="M58.7814 36.2654C58.9587 36.485 59.136 36.7026 59.3133 36.9222C59.9258 39.7896 60.7277 40.5949 61.4067 40.719C62.2972 40.8837 62.7545 39.8384 64.3382 39.6778C65.8855 39.5192 66.5303 40.4079 67.2838 40.052C67.8479 39.7835 68.4242 38.8379 68.1522 35.5618C68.3134 35.5516 68.4745 35.5414 68.6357 35.5312C69.1797 37.5262 69.1555 39.1633 69.0528 40.2086C68.9238 41.5223 68.8251 42.4313 68.1481 43.2488C67.175 44.4283 65.6881 44.5971 64.5799 44.7252C63.4597 44.8533 61.5678 45.0709 60.3106 43.8792C59.6135 43.2183 59.4301 42.4252 59.0997 40.902C58.864 39.81 58.6424 38.2278 58.7814 36.2674V36.2654Z" fill="#3D3D3D"/>
<path d="M64.0502 168.868H0.201479C0.0906656 168.868 0 168.776 0 168.664C0 168.552 0.0906656 168.461 0.201479 168.461H64.0502C64.161 168.461 64.2517 168.552 64.2517 168.664C64.2517 168.776 64.161 168.868 64.0502 168.868Z" fill="#3D3D3D"/>
<path d="M205.837 142.828V140.304C205.837 139.623 206.385 139.07 207.06 139.07H216.85C217.525 139.07 218.073 139.623 218.073 140.304V142.828H219.582V140.304C219.582 138.783 218.355 137.547 216.85 137.547H207.06C205.553 137.547 204.328 138.785 204.328 140.304V142.828H205.837Z" fill="#3D3D3D"/>
<path d="M205.969 143.958H204.313C203.497 143.958 202.828 143.283 202.828 142.459C202.828 141.636 203.497 140.961 204.313 140.961H205.969C206.785 140.961 207.454 141.636 207.454 142.459C207.454 143.283 206.785 143.958 205.969 143.958Z" fill="#F4EAE2"/>
<path d="M205.968 144.162H204.311C203.381 144.162 202.625 143.397 202.625 142.46C202.625 141.522 203.383 140.758 204.311 140.758H205.968C206.898 140.758 207.654 141.522 207.654 142.46C207.654 143.397 206.896 144.162 205.968 144.162ZM204.311 141.164C203.604 141.164 203.028 141.746 203.028 142.46C203.028 143.173 203.604 143.755 204.311 143.755H205.968C206.675 143.755 207.251 143.173 207.251 142.46C207.251 141.746 206.675 141.164 205.968 141.164H204.311Z" fill="#3D3D3D"/>
<path d="M219.59 143.958H217.934C217.118 143.958 216.449 143.283 216.449 142.459C216.449 141.636 217.118 140.961 217.934 140.961H219.59C220.406 140.961 221.075 141.636 221.075 142.459C221.075 143.283 220.406 143.958 219.59 143.958Z" fill="#F4EAE2"/>
<path d="M219.593 144.162H217.936C217.006 144.162 216.25 143.397 216.25 142.46C216.25 141.522 217.008 140.758 217.936 140.758H219.593C220.523 140.758 221.279 141.522 221.279 142.46C221.279 143.397 220.521 144.162 219.593 144.162ZM217.936 141.164C217.229 141.164 216.653 141.746 216.653 142.46C216.653 143.173 217.229 143.755 217.936 143.755H219.593C220.3 143.755 220.876 143.173 220.876 142.46C220.876 141.746 220.3 141.164 219.593 141.164H217.936Z" fill="#3D3D3D"/>
<path d="M233.753 168.794H195.953L198.361 142.18H230.12L233.753 168.794Z" fill="#F4EAE2"/>
<path d="M233.754 168.997H195.952C195.896 168.997 195.841 168.973 195.803 168.93C195.765 168.887 195.747 168.83 195.751 168.776L198.158 142.162C198.168 142.058 198.255 141.977 198.36 141.977H230.119C230.22 141.977 230.304 142.052 230.318 142.151L233.953 168.765C233.961 168.824 233.943 168.883 233.905 168.926C233.866 168.971 233.812 168.995 233.754 168.995V168.997ZM196.176 168.59H233.524L229.946 142.383H198.547L196.176 168.59Z" fill="#3D3D3D"/>
<path d="M231.541 168.994C231.44 168.994 231.353 168.919 231.341 168.817L229.494 154.143C229.48 154.031 229.558 153.929 229.669 153.915C229.782 153.905 229.881 153.98 229.895 154.092L231.742 168.766C231.756 168.878 231.678 168.98 231.567 168.994C231.559 168.994 231.551 168.994 231.541 168.994Z" fill="#3D3D3D"/>
<path d="M229.108 168.794H191.309L194.313 142.18H226.702L229.108 168.794Z" fill="#F4EAE2"/>
<path d="M229.11 168.997H191.308C191.25 168.997 191.195 168.973 191.157 168.93C191.119 168.887 191.101 168.828 191.107 168.771L194.111 142.158C194.123 142.056 194.207 141.977 194.31 141.977H226.7C226.805 141.977 226.891 142.056 226.901 142.162L229.309 168.776C229.315 168.832 229.295 168.889 229.257 168.93C229.218 168.973 229.164 168.997 229.108 168.997H229.11ZM191.536 168.59H228.89L226.519 142.383H194.493L191.536 168.59Z" fill="#3D3D3D"/>
<path d="M226.005 154.856H193.186C193.075 154.856 192.984 154.764 192.984 154.652C192.984 154.541 193.075 154.449 193.186 154.449H225.789L225.388 148.82C225.38 148.708 225.465 148.611 225.576 148.602C225.688 148.592 225.783 148.678 225.791 148.792L226.206 154.638C226.21 154.695 226.19 154.75 226.154 154.791C226.116 154.831 226.061 154.856 226.007 154.856H226.005Z" fill="#3D3D3D"/>
<path d="M213.321 154.117H207.25V156.952H213.321V154.117Z" fill="#F4EAE2"/>
<path d="M213.323 157.155H207.252C207.141 157.155 207.051 157.064 207.051 156.952V154.117C207.051 154.006 207.141 153.914 207.252 153.914H213.323C213.434 153.914 213.524 154.006 213.524 154.117V156.952C213.524 157.064 213.434 157.155 213.323 157.155ZM207.454 156.748H213.121V154.321H207.454V156.748Z" fill="#3D3D3D"/>
<path d="M250.942 168.993H233.76C233.649 168.993 233.559 168.901 233.559 168.789C233.559 168.677 233.649 168.586 233.76 168.586H250.942C251.053 168.586 251.144 168.677 251.144 168.789C251.144 168.901 251.053 168.993 250.942 168.993Z" fill="#3D3D3D"/>
<path d="M203.704 102.333C199.589 107.171 193.859 110.677 187.642 112.192C187.104 112.324 186.646 111.809 186.858 111.307L187.517 109.741C181.241 112.684 174.592 114.846 167.786 116.159C166.635 116.381 165.308 116.544 164.528 115.521C164.286 115.202 164.149 114.817 164.105 114.421C163.99 113.388 164.417 112.436 164.858 111.521C167.768 105.495 171.594 99.9332 175.406 94.3977L172.192 95.5101C171.773 95.6565 171.398 95.2234 171.612 94.839C174.31 89.9766 179.127 84.9841 183.477 81.4375L203.704 102.331V102.333Z" fill="#1890FF"/>
<path d="M179.448 95.0699C179.398 95.0699 179.349 95.0516 179.309 95.015C179.229 94.9377 179.225 94.8096 179.301 94.7283L184.181 89.5324C184.257 89.451 184.384 89.447 184.465 89.5243C184.546 89.6015 184.55 89.7296 184.473 89.811L179.593 95.0048C179.553 95.0475 179.501 95.0679 179.446 95.0679L179.448 95.0699Z" fill="#3D3D3D"/>
<path d="M171.768 111.135C171.721 111.135 171.677 111.119 171.639 111.088C171.554 111.017 171.542 110.889 171.612 110.801C176.456 104.937 181.678 99.2831 187.136 94.0018C187.217 93.9245 187.344 93.9265 187.42 94.0079C187.497 94.0892 187.495 94.2173 187.414 94.2946C181.968 99.5657 176.756 105.207 171.923 111.06C171.882 111.109 171.826 111.133 171.768 111.133V111.135Z" fill="#3D3D3D"/>
<path d="M187.624 102.709C187.569 102.709 187.517 102.687 187.477 102.644C187.4 102.563 187.404 102.433 187.487 102.357L191.839 98.2584C191.919 98.1811 192.048 98.1852 192.123 98.2686C192.199 98.3499 192.193 98.48 192.113 98.5553L187.761 102.654C187.722 102.691 187.672 102.709 187.624 102.709Z" fill="#3D3D3D"/>
<path d="M203.172 99.9472L206.994 110.611C207.29 111.439 208.346 111.649 208.92 110.994C212.857 106.516 224.281 92.2215 220.954 80.5547L203.172 99.9472Z" fill="#F4EAE2"/>
<path d="M208.078 111.584C207.994 111.584 207.907 111.576 207.823 111.56C207.351 111.468 206.97 111.141 206.807 110.681L202.985 100.017C202.959 99.9456 202.975 99.8663 203.027 99.8093L220.81 80.4168C220.86 80.3619 220.933 80.3395 221.005 80.3578C221.076 80.3741 221.132 80.429 221.152 80.5002C222.595 85.5537 221.481 91.6322 217.844 98.5668C214.917 104.151 211.095 108.835 209.076 111.13C208.818 111.423 208.459 111.586 208.08 111.586L208.078 111.584ZM203.404 99.9944L207.184 110.543C207.299 110.866 207.567 111.096 207.897 111.159C208.223 111.222 208.55 111.11 208.771 110.858C212.388 106.746 223.848 92.5331 220.858 80.9598L203.406 99.9924L203.404 99.9944Z" fill="#3D3D3D"/>
<path d="M185.429 82.1347L174.894 78.3807C174.078 78.0899 173.858 77.0182 174.495 76.4264C178.851 72.3714 192.773 60.5825 204.287 63.8221L185.429 82.1347Z" fill="#F4EAE2"/>
<path d="M185.431 82.3338C185.409 82.3338 185.386 82.3297 185.364 82.3216L174.829 78.5676C174.378 78.4069 174.051 78.0266 173.954 77.5507C173.858 77.0769 174.009 76.597 174.361 76.2716C176.594 74.1933 181.155 70.2501 186.611 67.2058C193.389 63.4232 199.355 62.2173 204.346 63.6225C204.416 63.6429 204.468 63.6978 204.487 63.769C204.505 63.8401 204.483 63.9154 204.43 63.9642L185.574 82.2769C185.535 82.3135 185.485 82.3338 185.435 82.3338H185.431ZM200.141 63.468C189.611 63.468 178.202 73.2456 174.631 76.5705C174.386 76.8003 174.279 77.1359 174.347 77.4694C174.416 77.8029 174.646 78.0714 174.962 78.1832L185.38 81.8966L203.89 63.9215C202.663 63.6103 201.408 63.468 200.141 63.468Z" fill="#3D3D3D"/>
<path d="M203.501 102.597C204.317 102.442 205.088 102.043 205.705 101.423C214.844 92.2109 252.4 53.0333 250.893 32.807L250.883 32.7968C230.97 31.5136 192.891 70.1685 183.941 79.5699C182.734 80.8369 182.41 82.7261 183.127 84.3367C186.828 92.6582 192.794 98.6493 201.025 102.31C201.82 102.664 202.683 102.753 203.501 102.599V102.597Z" fill="#F4EAE2"/>
<path d="M244.058 53.8814C248.509 46.0621 251.33 38.6456 250.895 32.8071L250.884 32.7969C245.084 32.4227 237.742 35.4386 230.027 40.1321C230.027 40.1321 231.772 44.6447 235.929 48.5594C240.414 52.7832 244.058 53.8834 244.058 53.8834V53.8814Z" fill="#1890FF"/>
<path d="M203.605 102.78C203.512 102.78 203.427 102.715 203.407 102.619C203.383 102.51 203.453 102.402 203.562 102.377C204.32 102.215 205.013 101.834 205.563 101.279C211.696 95.0971 232.563 73.4249 243.6 54.1097C243.657 54.012 243.777 53.9795 243.876 54.0344C243.973 54.0913 244.005 54.2154 243.951 54.313C232.89 73.671 211.99 95.3757 205.849 101.568C205.243 102.178 204.481 102.597 203.647 102.776C203.633 102.78 203.619 102.78 203.605 102.78Z" fill="#3D3D3D"/>
<path d="M182.828 81.9647C182.816 81.9647 182.804 81.9647 182.79 81.9607C182.681 81.9403 182.608 81.8346 182.628 81.7227C182.79 80.8564 183.195 80.0654 183.797 79.4309C189.791 73.1348 210.809 51.6985 229.619 40.2248C229.714 40.1659 229.839 40.1984 229.895 40.294C229.954 40.3896 229.922 40.5157 229.827 40.5726C211.059 52.0218 190.071 73.4256 184.087 79.7135C183.539 80.2891 183.17 81.011 183.023 81.798C183.005 81.8956 182.921 81.9627 182.826 81.9627L182.828 81.9647Z" fill="#3D3D3D"/>
<path d="M221.758 75.6247C218.148 79.3402 212.248 79.3666 208.581 75.6837C204.915 72.0008 204.868 66.0037 208.479 62.2883C212.089 58.5729 217.989 58.5465 221.655 62.2293C225.322 65.9122 225.369 71.9093 221.758 75.6247Z" fill="#F4EAE2"/>
<path d="M215.146 78.6331C212.62 78.6331 210.238 77.6387 208.437 75.8288C204.697 72.0727 204.651 65.9352 208.332 62.1466C210.111 60.3143 212.489 59.2975 215.027 59.2812H215.086C217.612 59.2812 219.994 60.2757 221.795 62.0856C225.534 65.8417 225.581 71.9791 221.9 75.7677C220.119 77.6 217.743 78.6168 215.205 78.6331H215.146ZM215.086 59.688H215.029C212.601 59.7022 210.325 60.6763 208.62 62.4313C205.092 66.0613 205.139 71.9425 208.721 75.54C210.448 77.2726 212.726 78.2264 215.146 78.2264H215.203C217.632 78.2121 219.907 77.238 221.612 75.483C225.139 71.853 225.093 65.9718 221.511 62.3744C219.784 60.6417 217.505 59.688 215.086 59.688Z" fill="#3D3D3D"/>
<path d="M219.705 73.5687C217.21 76.1372 213.132 76.1555 210.598 73.6094C208.063 71.0654 208.031 66.9209 210.527 64.3524C213.022 61.784 217.1 61.7657 219.634 64.3117C222.169 66.8558 222.201 71.0003 219.705 73.5687Z" fill="#1890FF"/>
<path d="M208.384 96.8317C208.355 96.8317 208.327 96.8256 208.299 96.8134C199.653 92.791 192.364 85.472 188.296 76.7356C188.25 76.6339 188.292 76.5139 188.393 76.4651C188.494 76.4163 188.612 76.4611 188.661 76.5627C192.688 85.2137 199.907 92.4595 208.466 96.4433C208.567 96.4901 208.611 96.6121 208.565 96.7138C208.531 96.789 208.458 96.8317 208.382 96.8317H208.384Z" fill="#3D3D3D"/>
<path d="M154.15 137.158C154.098 137.158 154.045 137.137 154.007 137.097C153.928 137.017 153.93 136.887 154.011 136.81L167.941 123.05C168.022 122.971 168.149 122.973 168.225 123.054C168.304 123.134 168.302 123.264 168.221 123.341L154.291 137.101C154.253 137.139 154.2 137.16 154.15 137.16V137.158Z" fill="#3D3D3D"/>
<path d="M151.014 123.435C150.959 123.435 150.905 123.413 150.865 123.368C150.79 123.285 150.796 123.157 150.879 123.081L159.585 115.099C159.667 115.024 159.794 115.03 159.869 115.114C159.943 115.197 159.937 115.325 159.855 115.4L151.149 123.382C151.11 123.417 151.062 123.435 151.014 123.435Z" fill="#3D3D3D"/>
<path d="M154.596 109.464C154.542 109.464 154.49 109.442 154.449 109.399C154.373 109.318 154.377 109.187 154.459 109.112L163.435 100.618C163.516 100.541 163.645 100.545 163.719 100.628C163.796 100.709 163.792 100.839 163.709 100.915L154.733 109.409C154.695 109.446 154.645 109.464 154.596 109.464Z" fill="#3D3D3D"/>
<path d="M172.63 133.059C172.578 133.059 172.526 133.038 172.487 132.998C172.409 132.918 172.411 132.788 172.491 132.711L183.895 121.449C183.976 121.37 184.103 121.372 184.179 121.453C184.258 121.532 184.256 121.662 184.175 121.74L172.771 133.002C172.733 133.04 172.681 133.061 172.63 133.061V133.059Z" fill="#3D3D3D"/>
<path d="M167.489 159.492H116.852V168.66H167.489V159.492Z" fill="#3D3D3D"/>
</svg>
