<svg width="468" height="340" viewBox="0 0 468 340" fill="none" xmlns="http://www.w3.org/2000/svg">
<path d="M411.335 221.568L235.465 233.68L242.751 340.001L418.622 327.89L411.335 221.568Z" fill="#1890FF"/>
<path d="M347.328 217.809L351.646 237.446L353.323 237.422C353.323 237.422 350.342 249.532 340.583 251.849C330.825 254.165 331.075 242.714 331.075 242.714L336.678 239.693L333.61 223.839L347.328 217.813V217.809Z" fill="#F4EAE2"/>
<path d="M336.671 240.096C336.479 240.096 336.307 239.961 336.27 239.764L333.203 223.911C333.166 223.722 333.264 223.533 333.44 223.456L347.157 217.429C347.268 217.38 347.399 217.384 347.505 217.437C347.615 217.495 347.693 217.593 347.718 217.716L352.036 237.354C352.085 237.575 351.946 237.792 351.726 237.841C351.505 237.891 351.288 237.751 351.239 237.53L347.026 218.38L334.066 224.075L337.072 239.608C337.113 239.83 336.97 240.047 336.749 240.088C336.724 240.092 336.696 240.096 336.671 240.096Z" fill="#3D3D3D"/>
<path d="M322.44 206.154C320.502 205.014 318.923 203.157 318.412 200.964C317.802 198.332 318.813 195.478 320.678 193.531C322.547 191.584 325.172 190.485 327.839 190.108C330.505 189.727 333.229 190.018 335.875 190.53C338.533 191.043 341.188 191.797 343.498 193.22C345.805 194.642 347.752 196.799 348.476 199.414C349.69 199.004 350.983 199.787 351.895 200.693C354.438 203.219 355.633 207.044 354.974 210.574C354.316 214.103 351.825 217.236 348.541 218.671C344.709 220.343 340.104 219.659 336.525 217.486C333.605 215.715 331.323 213.054 329.63 210.11C328.824 208.712 328.796 207.942 327.131 207.692C325.483 207.441 323.884 207.003 322.436 206.154H322.44Z" fill="#F4EAE2"/>
<path d="M343.915 219.998C341.351 219.998 338.684 219.26 336.32 217.83C333.555 216.153 331.187 213.623 329.282 210.311C329.122 210.036 328.995 209.786 328.877 209.556C328.406 208.642 328.214 208.265 327.077 208.093C325.147 207.802 323.56 207.281 322.235 206.502C320.063 205.227 318.526 203.239 318.014 201.054C317.397 198.401 318.309 195.408 320.386 193.244C322.174 191.382 324.803 190.124 327.785 189.697C330.128 189.361 332.725 189.501 335.956 190.124C338.026 190.526 341.081 191.243 343.714 192.866C346.205 194.404 347.984 196.54 348.757 198.922C349.833 198.754 351.056 199.278 352.184 200.398C354.843 203.034 356.065 206.961 355.378 210.643C354.691 214.324 352.135 217.543 348.708 219.039C347.232 219.683 345.596 219.998 343.911 219.998H343.915ZM330.382 190.337C329.511 190.337 328.693 190.394 327.899 190.505C325.094 190.903 322.636 192.079 320.975 193.809C319.086 195.777 318.256 198.479 318.812 200.865C319.27 202.833 320.669 204.633 322.648 205.793C323.899 206.527 325.347 207.002 327.196 207.281C328.746 207.515 329.106 208.212 329.601 209.179C329.711 209.397 329.834 209.638 329.985 209.901C331.821 213.094 334.095 215.526 336.737 217.129C340.426 219.367 344.884 219.81 348.377 218.289C351.559 216.899 353.931 213.914 354.569 210.495C355.207 207.076 354.07 203.431 351.604 200.984C351.109 200.492 349.824 199.393 348.602 199.803C348.495 199.84 348.381 199.828 348.279 199.779C348.18 199.725 348.107 199.635 348.078 199.524C347.432 197.192 345.727 195.076 343.281 193.568C340.762 192.014 337.801 191.317 335.797 190.931C333.76 190.538 331.989 190.345 330.378 190.345L330.382 190.337Z" fill="#3D3D3D"/>
<path d="M346.904 215.334C347.309 214.182 348.822 213.698 349.951 214.158C351.079 214.617 351.799 215.785 352.041 216.982C352.368 218.598 351.893 220.389 350.699 221.521C349.501 222.648 347.579 222.992 346.135 222.205C343.767 225.112 340.274 227.076 336.565 227.584C334.479 227.871 332.226 227.67 330.504 226.453C329.306 225.604 328.459 224.325 327.931 222.951C327.404 221.578 327.179 220.11 327.036 218.643C326.619 214.424 326.856 210.14 327.735 205.991C327.878 205.319 328.042 204.634 328.43 204.072C328.978 203.273 329.895 202.818 330.802 202.482C332.872 201.715 335.134 201.387 337.305 201.781C339.477 202.174 341.542 203.326 342.843 205.114C344.086 206.827 344.56 209.004 344.597 211.124C344.63 213.276 344.111 215.65 342.376 216.917L346.908 215.334H346.904Z" fill="#F4EAE2"/>
<path d="M334.914 228.113C333.409 228.113 331.704 227.813 330.26 226.793C329.09 225.965 328.15 224.689 327.54 223.103C326.964 221.598 326.751 220.028 326.62 218.692C326.199 214.416 326.436 210.115 327.328 205.913C327.475 205.208 327.659 204.47 328.088 203.847C328.735 202.908 329.798 202.424 330.657 202.104C332.951 201.251 335.274 201.005 337.372 201.383C339.757 201.813 341.867 203.088 343.167 204.88C344.325 206.474 344.959 208.635 345 211.124C345.024 212.743 344.75 215.695 342.607 217.253C340.738 218.614 338.317 218.278 337.041 217.958C336.039 217.704 335.07 217.326 334.137 216.957C333.405 216.67 332.653 216.371 331.896 216.146C330.371 215.682 328.755 215.363 327.266 216.088C327.299 216.929 327.352 217.773 327.438 218.614C327.565 219.897 327.765 221.397 328.309 222.812C328.694 223.812 329.426 225.198 330.735 226.124C332.546 227.403 334.873 227.408 336.505 227.182C340.116 226.686 343.507 224.78 345.813 221.951C345.936 221.799 346.153 221.754 346.325 221.848C347.584 222.533 349.302 222.271 350.414 221.225C351.466 220.233 351.948 218.601 351.637 217.068C351.449 216.133 350.864 214.977 349.797 214.543C349.29 214.338 348.676 214.354 348.153 214.592C347.727 214.785 347.421 215.096 347.29 215.477C347.216 215.691 346.979 215.801 346.77 215.728C346.558 215.654 346.443 215.42 346.521 215.207C346.73 214.612 347.192 214.129 347.822 213.846C348.545 213.518 349.4 213.497 350.112 213.788C351.273 214.264 352.148 215.432 352.447 216.912C352.811 218.72 352.238 220.647 350.983 221.828C349.711 223.029 347.768 223.378 346.247 222.726C343.818 225.575 340.329 227.494 336.624 228.002C336.113 228.072 335.536 228.121 334.927 228.121L334.914 228.113ZM329.205 214.842C330.219 214.842 331.217 215.084 332.129 215.359C332.914 215.596 333.687 215.9 334.432 216.195C335.344 216.556 336.284 216.925 337.237 217.167C338.374 217.453 340.521 217.761 342.124 216.593C343.965 215.252 344.202 212.599 344.178 211.14C344.141 208.819 343.56 206.823 342.505 205.363C341.327 203.744 339.405 202.588 337.225 202.19C335.27 201.838 333.094 202.071 330.935 202.871C330.191 203.145 329.27 203.56 328.759 204.31C328.416 204.81 328.264 205.433 328.125 206.081C327.487 209.086 327.193 212.14 327.238 215.199C327.884 214.94 328.546 214.842 329.201 214.842H329.205Z" fill="#3D3D3D"/>
<path d="M345.955 219.91C345.828 219.91 345.706 219.853 345.628 219.746C345.493 219.566 345.53 219.307 345.714 219.172C346.667 218.463 347.984 218.307 349.076 218.775C349.284 218.865 349.378 219.107 349.288 219.312C349.198 219.521 348.961 219.615 348.753 219.525C347.939 219.176 346.912 219.295 346.205 219.824C346.131 219.877 346.045 219.906 345.959 219.906L345.955 219.91Z" fill="#3D3D3D"/>
<path d="M325.505 334.387C323.636 317.775 322.986 315.335 322.945 315.061L387.302 309.883L395.314 329.586L325.501 334.387H325.505Z" fill="#3D3D3D"/>
<path d="M388.116 281.941L387.306 309.885L363.68 311.787L388.116 281.941Z" fill="#F4EAE2"/>
<path d="M352.304 230.848L340.771 235.718L338.787 238.551L335.834 235.341L334.702 239.83L319.336 242.315C311.938 243.512 305.186 247.296 300.335 253.023C293.42 261.19 282.741 272.357 274.819 274.022C262.116 276.695 256.64 264.412 252.641 256.627C248.641 248.837 243.602 241.888 231.431 242.524C221.922 243.02 215.084 242.848 211.371 241.958C209.453 241.499 207.445 242.503 206.835 244.381C206.598 245.102 206.549 245.84 206.88 246.484C206.88 246.484 210.189 254.392 222.896 256.114C224.842 256.377 226.417 257.82 226.9 259.726C229.754 270.988 241.848 306.906 279.792 305.421L311.374 300.321C311.374 300.321 328.195 326.092 354.664 325.026C381.133 323.956 388.073 290.958 392.551 281.049C397.029 271.14 399.447 246 382.057 240.088C368.536 235.493 355.195 237.424 355.195 237.424L352.3 230.848H352.304Z" fill="#F4EAE2"/>
<path d="M352.313 230.859L340.78 235.73L338.793 238.563L335.844 235.353L334.711 239.842L352.313 230.859Z" fill="#F4EAE2"/>
<path d="M334.711 240.247C334.678 240.247 334.646 240.243 334.609 240.234C334.388 240.177 334.257 239.956 334.314 239.738L335.447 235.249C335.484 235.102 335.598 234.991 335.742 234.954C335.889 234.917 336.04 234.962 336.142 235.073L338.752 237.91L340.445 235.491C340.49 235.43 340.551 235.38 340.621 235.348L352.154 230.477C352.362 230.391 352.604 230.485 352.69 230.694C352.775 230.903 352.681 231.145 352.473 231.231L341.046 236.053L339.128 238.791C339.058 238.894 338.944 238.955 338.821 238.963C338.694 238.972 338.576 238.922 338.494 238.832L336.056 236.18L335.112 239.935C335.067 240.12 334.899 240.247 334.715 240.247H334.711Z" fill="#3D3D3D"/>
<path d="M343.218 245.206C343.059 245.206 342.908 245.112 342.842 244.956L341.619 242.066C341.529 241.857 341.628 241.615 341.836 241.529C342.045 241.439 342.286 241.537 342.372 241.746L343.443 244.276C347.533 242.747 351.418 240.713 355.005 238.221C355.189 238.093 355.447 238.139 355.574 238.323C355.7 238.508 355.655 238.766 355.471 238.893C351.721 241.5 347.648 243.616 343.362 245.182C343.317 245.198 343.268 245.206 343.223 245.206H343.218Z" fill="#3D3D3D"/>
<path d="M336.739 244.535C336.624 244.535 336.51 244.486 336.428 244.392L334.228 241.833C334.08 241.661 334.101 241.403 334.269 241.255C334.44 241.108 334.698 241.128 334.845 241.296L337.046 243.854C337.193 244.027 337.172 244.285 337.005 244.433C336.927 244.498 336.833 244.531 336.739 244.531V244.535Z" fill="#3D3D3D"/>
<path d="M331.066 281.34L337.553 243.623L337.442 239.695L338.87 239.712L340.861 239.736L340.088 243.898L336.837 284.472L331.066 281.34Z" fill="#002766"/>
<path d="M354.074 295.072C354.017 295.072 353.964 295.059 353.907 295.035C353.702 294.944 353.608 294.698 353.698 294.494L363.853 271.679C364.487 270.252 364.495 268.616 363.869 267.185C363.779 266.976 363.874 266.734 364.082 266.644C364.291 266.554 364.532 266.644 364.622 266.857C365.338 268.497 365.33 270.379 364.602 272.015L354.447 294.83C354.377 294.981 354.23 295.072 354.074 295.072Z" fill="#3D3D3D"/>
<path d="M356.449 296.485C356.449 296.485 335.69 282.194 321.801 278.09L356.449 296.485Z" fill="#F4EAE2"/>
<path d="M356.447 296.895C356.37 296.895 356.288 296.87 356.218 296.821C356.01 296.677 335.352 282.517 321.688 278.479C321.472 278.413 321.349 278.188 321.41 277.97C321.476 277.753 321.701 277.63 321.917 277.692C335.708 281.767 356.472 296.001 356.68 296.144C356.869 296.272 356.914 296.526 356.787 296.714C356.709 296.829 356.578 296.891 356.447 296.891V296.895Z" fill="#3D3D3D"/>
<path d="M379.887 309.914C379.83 309.914 379.768 309.902 379.711 309.873C379.506 309.775 379.421 309.533 379.515 309.328L389.154 288.899C389.252 288.694 389.494 288.608 389.698 288.702C389.903 288.801 389.988 289.042 389.894 289.247L380.255 309.676C380.185 309.824 380.038 309.91 379.887 309.91V309.914Z" fill="#3D3D3D"/>
<path d="M314.544 303.888C314.544 303.888 322.691 294.299 322.057 278.683C320.143 274.792 314.54 269.397 307.248 266.753C304.806 265.867 293.424 262.481 290.897 262.358C287.809 262.206 287.592 264.871 289.036 266.79C290.079 268.179 296.782 270.348 300.397 271.082C300.397 271.082 293.085 269.704 293.162 272.874C293.232 275.686 297.767 277.215 297.767 277.215C297.767 277.215 293.252 276.477 293.314 278.941C293.379 281.684 298.307 283.348 298.307 283.348C298.307 283.348 295.076 282.512 294.414 284.689C294.042 285.919 294.483 287.28 297.224 288.756C299.007 289.719 299.371 291.523 299.42 293.552C299.493 296.619 301.501 299.3 304.417 300.223C309.73 301.908 311.317 303.347 314.552 303.892L314.544 303.888Z" fill="#F4EAE2"/>
<path d="M314.546 304.294C314.522 304.294 314.502 304.294 314.477 304.29C312.686 303.987 311.393 303.421 309.753 302.703C308.33 302.08 306.719 301.375 304.289 300.604C301.21 299.629 299.083 296.792 299.005 293.553C298.96 291.774 298.69 290.007 297.022 289.105C294.486 287.735 293.501 286.247 294.016 284.558C294.347 283.472 295.226 282.992 296.167 282.832C294.695 282.029 292.944 280.708 292.899 278.941C292.883 278.339 293.104 277.822 293.529 277.449C294.081 276.965 294.928 276.777 295.721 276.715C294.372 275.94 292.793 274.657 292.748 272.874C292.732 272.226 292.969 271.685 293.451 271.275C294.089 270.73 295.112 270.488 296.179 270.406C292.985 269.442 289.509 268.106 288.703 267.032C287.754 265.769 287.497 264.281 288.049 263.24C288.323 262.719 289.059 261.854 290.912 261.944C293.574 262.075 305.193 265.572 307.381 266.364C314.628 268.991 320.432 274.456 322.419 278.499C322.444 278.552 322.46 278.605 322.46 278.663C323.094 294.258 314.935 304.052 314.853 304.151C314.776 304.245 314.661 304.294 314.542 304.294H314.546ZM296.948 283.591C296.106 283.591 295.1 283.812 294.801 284.796C294.556 285.599 294.564 286.846 297.41 288.383C299.451 289.486 299.774 291.605 299.823 293.532C299.893 296.423 301.791 298.952 304.535 299.821C307.009 300.604 308.71 301.35 310.08 301.949C311.594 302.613 312.804 303.142 314.379 303.437C315.459 302.056 322.194 292.848 321.65 278.782C319.7 274.895 314.105 269.668 307.107 267.134C304.625 266.236 293.304 262.883 290.875 262.764C289.824 262.711 289.096 263.01 288.773 263.621C288.376 264.371 288.613 265.544 289.358 266.536C290.278 267.762 296.74 269.914 300.474 270.672C300.694 270.717 300.838 270.931 300.793 271.152C300.748 271.373 300.539 271.517 300.314 271.476C298.985 271.226 295.251 270.816 293.979 271.898C293.689 272.144 293.554 272.46 293.562 272.853C293.623 275.346 297.844 276.801 297.889 276.814C298.089 276.883 298.208 277.092 298.155 277.302C298.102 277.511 297.901 277.642 297.693 277.609C296.965 277.49 294.891 277.343 294.061 278.068C293.816 278.281 293.701 278.56 293.709 278.921C293.758 280.938 297.128 282.512 298.425 282.947C298.633 283.017 298.748 283.242 298.686 283.451C298.625 283.664 298.404 283.787 298.192 283.73C298.179 283.73 297.611 283.586 296.94 283.586L296.948 283.591Z" fill="#3D3D3D"/>
<path d="M306.09 273.167C306.041 273.167 305.987 273.159 305.938 273.139C304.155 272.425 302.298 271.88 300.417 271.507C300.196 271.462 300.049 271.249 300.094 271.027C300.139 270.806 300.352 270.658 300.573 270.703C302.503 271.085 304.409 271.646 306.237 272.376C306.445 272.458 306.548 272.7 306.466 272.909C306.4 273.069 306.249 273.167 306.086 273.167H306.09Z" fill="#3D3D3D"/>
<path d="M305.722 279.332C305.689 279.332 305.652 279.328 305.62 279.32C303.068 278.655 300.45 278.106 297.845 277.692C297.62 277.655 297.469 277.446 297.506 277.225C297.542 277.003 297.751 276.847 297.972 276.884C300.606 277.302 303.248 277.856 305.824 278.528C306.041 278.586 306.172 278.811 306.119 279.028C306.069 279.213 305.906 279.336 305.722 279.336V279.332Z" fill="#3D3D3D"/>
<path d="M305.046 285.593C305.009 285.593 304.976 285.589 304.939 285.576C304.236 285.384 303.487 285.166 302.719 284.941C301.209 284.502 299.647 284.047 298.203 283.727C297.983 283.678 297.844 283.461 297.893 283.239C297.942 283.018 298.158 282.879 298.379 282.928C299.848 283.252 301.422 283.711 302.944 284.158C303.708 284.379 304.453 284.596 305.148 284.789C305.365 284.847 305.496 285.072 305.434 285.293C305.385 285.478 305.222 285.597 305.042 285.597L305.046 285.593Z" fill="#3D3D3D"/>
<path d="M320.264 308.818C320.162 308.818 320.059 308.781 319.978 308.699C319.818 308.539 319.814 308.281 319.97 308.121C326.37 301.566 329.989 292.542 329.899 283.367C329.899 283.142 330.079 282.957 330.304 282.953C330.529 282.953 330.709 283.134 330.713 283.359C330.807 292.747 327.102 301.984 320.55 308.695C320.468 308.777 320.362 308.818 320.26 308.818H320.264Z" fill="#3D3D3D"/>
<path d="M239.139 286.393C239.017 286.393 238.894 286.336 238.812 286.229C231.434 276.386 227.937 265.456 226.51 259.819C226.06 258.052 224.625 256.752 222.846 256.51C210.053 254.78 206.646 246.966 206.507 246.634C206.172 245.99 206.147 245.175 206.45 244.248C207.112 242.219 209.317 241.034 211.472 241.55C215.1 242.42 221.811 242.608 231.418 242.108C233.115 242.018 234.739 242.075 236.24 242.276C236.465 242.305 236.62 242.514 236.591 242.735C236.563 242.961 236.354 243.117 236.133 243.088C234.682 242.895 233.111 242.838 231.459 242.924C221.774 243.428 214.985 243.235 211.28 242.346C209.538 241.928 207.759 242.875 207.227 244.498C206.994 245.212 207.002 245.81 207.247 246.282C207.292 246.388 210.654 254.03 222.956 255.695C225.066 255.981 226.772 257.519 227.304 259.614C228.719 265.194 232.179 276.004 239.467 285.733C239.601 285.913 239.565 286.172 239.385 286.307C239.311 286.364 239.225 286.389 239.139 286.389V286.393Z" fill="#3D3D3D"/>
<path d="M230.208 266.967C230.085 266.967 229.966 266.914 229.885 266.811C229.746 266.635 229.774 266.377 229.954 266.237C236.236 261.273 243.054 256.943 250.215 253.368C250.415 253.266 250.661 253.348 250.763 253.553C250.865 253.754 250.783 254 250.579 254.102C243.467 257.653 236.698 261.953 230.461 266.881C230.388 266.938 230.298 266.967 230.208 266.967Z" fill="#3D3D3D"/>
<path d="M220.89 251.406C220.89 251.406 220.878 251.406 220.87 251.406C216.26 251.172 211.983 250.254 207.782 248.593C207.574 248.511 207.467 248.273 207.553 248.06C207.635 247.851 207.872 247.745 208.085 247.831C212.199 249.458 216.391 250.36 220.91 250.586C221.135 250.598 221.311 250.791 221.299 251.016C221.287 251.233 221.107 251.406 220.89 251.406Z" fill="#3D3D3D"/>
<path d="M235.833 276.206C235.718 276.206 235.604 276.157 235.522 276.067C235.375 275.895 235.391 275.636 235.563 275.489C241.293 270.508 247.505 266.014 254.02 262.132C254.212 262.017 254.466 262.078 254.58 262.275C254.695 262.468 254.633 262.722 254.437 262.837C247.959 266.695 241.792 271.159 236.095 276.108C236.017 276.173 235.923 276.206 235.829 276.206H235.833Z" fill="#3D3D3D"/>
<path d="M257.975 186.359C258.961 200.741 235.15 234.166 235.15 234.166C235.15 234.166 207.009 204.316 206.027 189.934C205.041 175.552 215.875 163.097 230.218 162.109C244.565 161.121 256.99 171.981 257.975 186.359Z" fill="#3D3D3D"/>
<path d="M241.876 197.566C246.599 192.133 246.034 183.89 240.614 179.155C235.194 174.42 226.971 174.986 222.248 180.42C217.524 185.853 218.089 194.096 223.509 198.831C228.93 203.566 237.153 203 241.876 197.566Z" fill="#F4EAE2"/>
<path d="M175.838 214.431L0 227.004L7.56412 333.306L183.402 320.733L175.838 214.431Z" fill="#002766"/>
<path d="M78.2291 259.218C77.2885 260.108 49.6172 267.155 49.6172 267.155C49.6172 267.155 54.3 218.988 57.5063 205.889C60.7168 192.79 80.5439 190.954 89.2756 200.309C98.0072 209.665 84.5724 217.504 84.5724 217.504L78.2251 259.222L78.2291 259.218Z" fill="#3D3D3D"/>
<path d="M53.965 330.236L108.195 326.357C108.195 326.357 101.733 305.969 100.204 290.858C102.564 277.854 102.568 259.958 91.9916 239.447L89.2147 236.008C89.2147 236.008 71.6001 236.672 63.5269 240.985C63.5269 240.985 61.1098 244.818 61.0567 248.856C61.0076 252.899 53.9609 330.232 53.9609 330.232L53.965 330.236Z" fill="#1890FF"/>
<path d="M108.36 326.337L133.59 324.533C125.169 296.389 112.012 255.244 106.168 244.798C101.093 235.729 91.1953 238.87 91.1953 238.87L97.8207 288.837L108.36 326.337Z" fill="#F4EAE2"/>
<path d="M69.7085 222.27L66.8906 242.826L82.7753 253.136L85.9121 227.915L69.7085 222.27Z" fill="#F4EAE2"/>
<path d="M87.9896 256.924C87.9119 256.924 87.8383 256.904 87.7688 256.859L82.5625 253.476C82.3744 253.353 82.3171 253.099 82.4398 252.911C82.5625 252.722 82.8161 252.665 83.0042 252.788L88.2105 256.17C88.3986 256.293 88.4559 256.547 88.3332 256.736C88.2555 256.859 88.1246 256.924 87.9896 256.924Z" fill="#3D3D3D"/>
<path d="M72.7369 222.092L69.0684 217.611C69.0684 217.611 65.9684 214.786 62.5289 218.078C59.0894 221.37 62.6148 229.344 71.0765 226.081C71.0765 226.081 77.6283 236.063 86.6094 232.804C95.5946 229.545 97.6517 218.426 89.9466 206.824C89.9466 206.824 86.18 208.608 81.992 207.566C81.992 207.566 82.4951 216.225 72.7369 222.096V222.092Z" fill="#F4EAE2"/>
<path d="M83.0087 233.86C76.5674 233.86 71.8969 227.919 70.9194 226.57C66.2407 228.255 63.108 226.558 61.7256 224.369C60.3351 222.167 60.5519 219.396 62.245 217.776C65.9176 214.259 69.308 217.272 69.3449 217.301C69.3612 217.313 69.3735 217.33 69.3858 217.346L72.8293 221.552C81.9331 215.895 81.5896 207.667 81.5855 207.585C81.5773 207.453 81.6346 207.33 81.7327 207.244C81.8309 207.162 81.9659 207.129 82.0926 207.162C86.0924 208.158 89.7364 206.465 89.7732 206.449C89.9572 206.363 90.174 206.424 90.2885 206.592C94.6564 213.172 96.1451 220.027 94.3783 225.402C93.1554 229.124 90.5175 231.818 86.7468 233.183C85.4503 233.655 84.1989 233.856 83.0128 233.856L83.0087 233.86ZM71.0748 225.668C71.2098 225.668 71.3407 225.734 71.4184 225.853C71.4838 225.951 77.9006 235.528 86.4728 232.416C89.9981 231.137 92.4643 228.624 93.6053 225.148C95.2658 220.089 93.8793 213.611 89.7977 207.33C88.8203 207.724 85.8102 208.757 82.4035 208.072C82.3176 210.085 81.4137 217.354 72.9561 222.442C72.7843 222.544 72.5594 222.507 72.4285 222.352L68.7805 217.895C68.5024 217.653 65.8277 215.493 62.8176 218.375C61.4066 219.724 61.243 222.065 62.425 223.934C63.6642 225.894 66.5515 227.386 70.9358 225.697C70.9848 225.681 71.0339 225.668 71.083 225.668H71.0748Z" fill="#3D3D3D"/>
<path d="M70.6458 224.126C70.5477 224.126 70.4495 224.089 70.3677 224.019C69.2103 222.953 67.6439 222.363 66.0735 222.404C65.8445 222.408 65.6604 222.232 65.6563 222.002C65.6522 221.776 65.8281 221.588 66.0571 221.584C67.8402 221.543 69.6111 222.207 70.9239 223.416C71.0916 223.568 71.0998 223.83 70.9485 223.994C70.8667 224.081 70.7562 224.126 70.6458 224.126Z" fill="#3D3D3D"/>
<path d="M66.3628 330.889C69.0538 307.73 71.7981 283.414 72.0475 278.384C72.5506 268.274 67.4138 250.445 60.9847 245.742C60.9847 245.742 42.4908 247.706 34.9084 280.155C30.9536 297.075 28.2626 317.782 26.5898 333.73L66.3628 330.885V330.889Z" fill="#F4EAE2"/>
<path d="M66.2338 329.031C66.5733 326.116 67.1418 322.459 67.4771 319.548L51.3676 250.324C45.6746 254.744 38.8365 263.374 34.9104 280.158C30.9556 297.077 28.1336 315.928 26.4609 331.876L66.2338 329.031Z" fill="#F4EAE2"/>
<path d="M34.9946 288.141C36.4792 274.325 62.4982 261.148 62.4982 261.148L61.6148 295.127L75.8472 291.265C77.0905 298.862 79.5893 306.249 83.1965 313.043C74.3053 317.38 64.0319 321.504 54.8708 322.734C33.2319 325.641 33.51 301.953 34.9946 288.137V288.141Z" fill="#F4EAE2"/>
<path d="M75.8518 291.273L89.2212 287.645C89.2212 287.645 85.25 279.589 89.7528 278.441C94.2557 277.293 97.1798 288.047 100.435 288.76C100.435 288.76 109.126 290.392 112.504 290.318C115.882 290.244 120.696 289.879 120.855 293.245C120.855 293.245 125.534 294.451 122.058 298.321C122.058 298.321 121.514 302.593 105.47 300.908C104.836 300.842 95.3067 307.143 83.197 313.051C79.5857 306.258 77.0909 298.87 75.8477 291.273H75.8518Z" fill="#F4EAE2"/>
<path d="M93.1965 308.247C93.0534 308.247 92.9143 308.169 92.8366 308.034C92.7262 307.837 92.7998 307.587 92.9961 307.476C96.2311 305.685 99.0367 304.041 101.086 302.84C104.537 300.818 105.175 300.462 105.523 300.499C120.745 302.098 121.657 298.305 121.665 298.268C121.678 298.186 121.71 298.109 121.768 298.047C122.733 296.973 123.109 296.046 122.884 295.296C122.532 294.115 120.782 293.648 120.766 293.644C120.594 293.599 120.467 293.447 120.459 293.267C120.422 292.476 120.124 291.856 119.551 291.377C117.85 289.946 114.369 290.212 112.954 290.393C103.425 291.606 97.454 286.141 97.2045 285.908C97.0409 285.752 97.0286 285.494 97.1841 285.33C97.3395 285.166 97.5971 285.153 97.7607 285.309C97.818 285.362 103.711 290.745 112.848 289.581C114.369 289.388 118.124 289.114 120.074 290.75C120.749 291.319 121.146 292.053 121.252 292.939C121.866 293.152 123.281 293.771 123.665 295.058C123.972 296.079 123.563 297.243 122.447 298.514C122.217 299.371 120.369 302.876 105.482 301.323C105.118 301.429 103.437 302.417 101.499 303.553C99.4457 304.754 96.636 306.402 93.3928 308.198C93.3315 308.231 93.262 308.247 93.1965 308.247Z" fill="#3D3D3D"/>
<path d="M121.444 297.848C121.301 297.848 121.162 297.77 121.084 297.635C120.651 296.848 119.747 296.241 118.61 295.971C117.73 295.761 116.831 295.749 115.878 295.733C115.686 295.733 115.493 295.729 115.301 295.72C112.07 295.643 108.876 295.085 105.809 294.06C104.696 293.687 103.551 293.224 102.721 292.342C102.566 292.178 102.574 291.92 102.737 291.764C102.901 291.608 103.159 291.617 103.314 291.781C104.017 292.527 105.052 292.945 106.066 293.281C109.056 294.277 112.168 294.823 115.317 294.901C115.506 294.905 115.698 294.909 115.886 294.913C116.843 294.929 117.829 294.942 118.794 295.171C119.595 295.36 121.051 295.88 121.8 297.237C121.91 297.434 121.837 297.684 121.64 297.795C121.579 297.828 121.509 297.844 121.444 297.844V297.848Z" fill="#3D3D3D"/>
<path d="M113.192 293.84C111.486 293.84 109.711 293.709 108.055 293.131C107.842 293.057 107.728 292.824 107.806 292.61C107.879 292.397 108.112 292.283 108.325 292.36C110.529 293.135 112.93 293.057 115.249 292.979L119.515 292.84C119.74 292.836 119.928 293.012 119.936 293.238C119.944 293.463 119.764 293.652 119.539 293.66L115.274 293.799C114.603 293.82 113.903 293.844 113.192 293.844V293.84Z" fill="#3D3D3D"/>
<path d="M51.4108 323.386C46.8221 323.386 43.0923 322.013 40.299 319.283C34.8555 313.965 32.9374 303.474 34.5896 288.092C34.6142 287.867 34.8146 287.707 35.0395 287.727C35.2645 287.752 35.428 287.953 35.4035 288.178C33.7758 303.294 35.6162 313.559 40.8674 318.692C44.1556 321.906 48.8506 323.128 54.8176 322.325C62.4368 321.3 71.7942 318.114 82.6402 312.858C79.168 306.225 76.7714 299.141 75.52 291.778L61.7252 295.521C61.6025 295.554 61.4676 295.529 61.3653 295.447C61.2631 295.365 61.2058 295.242 61.2099 295.115L62.0933 261.132C62.0974 260.907 62.2814 260.726 62.5145 260.735C62.7395 260.739 62.9194 260.927 62.9112 261.157L62.0442 294.586L75.7449 290.868C75.8553 290.839 75.9739 290.855 76.0721 290.917C76.1702 290.978 76.2357 291.081 76.2561 291.196C77.4953 298.768 79.9533 306.053 83.5645 312.846C83.6177 312.944 83.6259 313.059 83.5932 313.166C83.5604 313.272 83.4827 313.359 83.3846 313.408C72.3013 318.815 62.7272 322.091 54.9321 323.136C53.7093 323.3 52.5355 323.382 51.4149 323.382L51.4108 323.386Z" fill="#3D3D3D"/>
<path d="M154.182 275.325C167.267 262.208 167.267 240.941 154.182 227.823C141.096 214.706 119.88 214.706 106.795 227.823C93.7094 240.941 93.7094 262.208 106.795 275.325C119.88 288.443 141.096 288.443 154.182 275.325Z" fill="#F4EAE2"/>
<path d="M130.437 285.554C122.286 285.554 114.495 282.651 108.274 277.244C101.428 271.295 97.3057 263.03 96.6595 253.974C96.275 248.554 97.1952 243.073 99.326 238.12C99.416 237.911 99.6573 237.817 99.8618 237.907C100.07 237.997 100.164 238.239 100.074 238.444C97.9968 243.278 97.0971 248.628 97.4733 253.916C98.1032 262.755 102.127 270.824 108.81 276.625C115.493 282.43 124.028 285.279 132.846 284.648C141.663 284.016 149.712 279.982 155.499 273.283C161.29 266.589 164.132 258.028 163.503 249.189C162.202 230.942 146.338 217.154 128.134 218.454C127.909 218.47 127.713 218.298 127.697 218.073C127.68 217.847 127.852 217.65 128.077 217.634C146.726 216.301 162.991 230.429 164.32 249.128C164.967 258.188 162.051 266.953 156.116 273.816C150.182 280.679 141.937 284.812 132.903 285.46C132.077 285.517 131.255 285.55 130.437 285.55V285.554Z" fill="#3D3D3D"/>
<path d="M134.657 221.79C134.604 221.79 134.551 221.782 134.502 221.757L126.527 218.465C126.376 218.404 126.273 218.252 126.273 218.088C126.273 217.924 126.372 217.772 126.527 217.711L134.494 214.398C134.702 214.312 134.94 214.411 135.03 214.62C135.115 214.829 135.017 215.071 134.809 215.157L127.758 218.088L134.817 221.003C135.026 221.089 135.124 221.327 135.038 221.54C134.972 221.7 134.821 221.794 134.662 221.794L134.657 221.79Z" fill="#3D3D3D"/>
<path d="M130.484 251.97C130.484 251.97 130.443 251.97 130.423 251.966L113.961 249.47C113.736 249.437 113.585 249.228 113.618 249.002C113.65 248.777 113.863 248.625 114.084 248.658L130.095 251.085L130.946 230.152C130.954 229.926 131.146 229.75 131.371 229.758C131.596 229.766 131.772 229.959 131.764 230.184L130.897 251.577C130.893 251.692 130.84 251.802 130.75 251.876C130.676 251.938 130.582 251.97 130.488 251.97H130.484Z" fill="#3D3D3D"/>
<path d="M468.001 84.3772L294.562 52.75L275.535 157.601L448.974 189.229L468.001 84.3772Z" fill="#002766"/>
<path d="M253.304 30.2109L214.234 98.0448H292.377L262.273 45.7776L253.304 30.2109Z" fill="#F4EAE2"/>
<path d="M292.374 98.4639H214.235C214.088 98.4639 213.953 98.386 213.879 98.2589C213.806 98.1318 213.806 97.976 213.879 97.8489L252.949 30.0109C253.096 29.7568 253.513 29.7568 253.656 30.0109L292.726 97.8489C292.8 97.976 292.8 98.1318 292.726 98.2589C292.652 98.386 292.517 98.4639 292.37 98.4639H292.374ZM214.939 97.6439H291.663L253.301 31.0359L214.939 97.6439Z" fill="#3D3D3D"/>
<path d="M240.73 52.1046C240.73 52.1046 243.961 48.3656 247.323 49.6775C249.92 50.6902 250.517 52.7154 253.515 52.7154C256.513 52.7154 257.511 48.5665 259.306 49.78C261.106 50.9935 263.101 53.9289 266.099 52.7154L240.73 52.1087V52.1046Z" fill="#F4EAE2"/>
<path d="M264.681 53.4101C262.918 53.4101 261.52 52.1802 260.346 51.1512C259.9 50.7576 259.475 50.3886 259.074 50.1181C258.518 49.7409 258.105 50.0771 257.16 51.0651C256.281 51.9834 255.189 53.1231 253.512 53.1231C251.565 53.1231 250.559 52.3319 249.496 51.4956C248.833 50.9749 248.15 50.4378 247.173 50.0566C244.122 48.8676 241.071 52.336 241.038 52.3729C240.891 52.5451 240.633 52.5615 240.461 52.4139C240.29 52.2663 240.273 52.008 240.42 51.8358C240.56 51.6759 243.88 47.896 247.467 49.294C248.555 49.7204 249.324 50.3189 249.999 50.8519C250.992 51.6309 251.847 52.3032 253.512 52.3032C254.841 52.3032 255.761 51.3439 256.571 50.4993C257.446 49.5851 258.35 48.6422 259.536 49.4375C259.982 49.7368 260.419 50.1263 260.89 50.5362C262.362 51.8317 263.887 53.1682 265.945 52.3319C266.157 52.2458 266.39 52.3483 266.476 52.5574C266.562 52.7665 266.46 53.0043 266.251 53.0903C265.699 53.3158 265.18 53.4101 264.685 53.4101H264.681Z" fill="#3D3D3D"/>
<path d="M230.312 55.8359L203.504 102.38H257.117L236.463 66.5157L230.312 55.8359Z" fill="#F4EAE2"/>
<path d="M257.117 102.795H203.505C203.358 102.795 203.223 102.717 203.149 102.59C203.075 102.463 203.075 102.307 203.149 102.18L229.953 55.6359C230.1 55.3818 230.518 55.3818 230.661 55.6359L257.465 102.18C257.539 102.307 257.539 102.463 257.465 102.59C257.391 102.717 257.256 102.795 257.109 102.795H257.117ZM204.216 101.975H256.41L230.313 56.6609L204.216 101.975Z" fill="#3D3D3D"/>
<path d="M219.062 75.5193C219.062 75.5193 221.942 72.9529 224.935 73.8507C227.25 74.5436 227.782 75.9334 230.452 75.9334C233.123 75.9334 234.011 73.0882 235.614 73.9204C237.217 74.7526 238.996 76.7656 241.667 75.9334L219.062 75.5152V75.5193Z" fill="#F4EAE2"/>
<path d="M240.412 76.5423C238.849 76.5423 237.602 75.6978 236.555 74.9926C236.158 74.722 235.782 74.472 235.426 74.2834C234.886 74.0046 234.465 74.3121 233.696 74.927C232.911 75.5584 231.934 76.3414 230.453 76.3414C228.731 76.3414 227.836 75.8003 226.887 75.2263C226.298 74.8696 225.688 74.5007 224.817 74.2424C222.081 73.4224 219.362 75.8003 219.333 75.8208C219.165 75.9725 218.908 75.9561 218.756 75.788C218.605 75.6199 218.621 75.3616 218.789 75.2099C218.912 75.0992 221.877 72.5041 225.05 73.4552C226.02 73.7463 226.703 74.1604 227.308 74.5253C228.191 75.0623 228.956 75.5215 230.453 75.5215C231.647 75.5215 232.465 74.8655 233.185 74.2875C233.962 73.6643 234.768 73.0166 235.802 73.5536C236.199 73.7586 236.596 74.0251 237.013 74.308C238.33 75.1976 239.692 76.116 241.544 75.5379C241.761 75.4723 241.99 75.5912 242.056 75.8085C242.121 76.0258 242.003 76.2553 241.786 76.3209C241.299 76.4726 240.841 76.5382 240.408 76.5382L240.412 76.5423Z" fill="#3D3D3D"/>
<path d="M274.642 27.9332H253.02V14.1172H274.642L269.992 20.648L274.642 27.9332Z" fill="#3D3D3D"/>
<path d="M362.506 68.4015C357.672 77.7734 357.819 81.8855 361.361 86.9486C371.029 100.773 377.16 116.905 387.838 130.151C396.242 140.577 405.232 150.937 416.838 157.722C421.742 160.588 427.488 162.814 432.993 161.588C439.524 160.137 444.15 153.922 445.213 147.387C446.276 140.852 444.334 134.128 441.442 128.102C435.071 114.831 394.631 36.5303 368.964 52.2363C363.136 57.7258 364.489 64.5437 362.502 68.3974L362.506 68.4015Z" fill="#3D3D3D"/>
<path d="M285.788 39.5733C287.076 38.6058 295.096 37.0151 308.641 60.8017C309.357 62.0562 310.052 63.2574 310.743 64.4258C307.619 70.1367 301.828 77.5982 292.151 80.1318C289.395 72.4817 285.53 61.1788 283.636 58.4689C281.358 55.2055 283.968 52.9261 283.968 52.9261C282.966 50.2736 285.894 48.8346 285.894 48.8346C285.755 44.3454 291.256 47.2603 291.256 47.2603C291.656 44.8866 284.499 40.545 285.788 39.5774V39.5733Z" fill="#F4EAE2"/>
<path d="M292.147 80.5357C291.98 80.5357 291.824 80.4332 291.763 80.2651C291.35 79.1213 290.912 77.8955 290.462 76.6246C287.972 69.6428 284.876 60.9555 283.301 58.6965C281.24 55.7406 282.892 53.4817 283.502 52.8135C282.872 50.7267 284.393 49.2139 285.485 48.5825C285.501 47.4838 285.857 46.709 286.548 46.2785C287.779 45.5078 289.734 46.1391 290.765 46.5737C290.36 45.5119 288.818 44.0483 287.64 42.9249C286.07 41.4326 285.187 40.5553 285.227 39.8256C285.24 39.5878 285.35 39.3869 285.546 39.2393C286.099 38.8252 287.276 38.5095 288.937 38.8539C292.192 39.5304 299.129 43.257 309.001 60.5906C309.647 61.7221 310.334 62.9069 311.099 64.2107C311.214 64.4074 311.148 64.6575 310.956 64.7723C310.76 64.8871 310.51 64.8215 310.396 64.6288C309.627 63.321 308.94 62.1362 308.29 60.9965C298.576 43.9417 291.89 40.3052 288.769 39.6534C287.276 39.3418 286.348 39.6575 286.037 39.8952C286.009 40.2396 287.33 41.4941 288.205 42.3264C290.029 44.0565 291.91 45.848 291.665 47.3198C291.644 47.451 291.558 47.5617 291.444 47.6191C291.325 47.6765 291.186 47.6765 291.072 47.615C290.303 47.2091 288.066 46.299 286.986 46.9755C286.508 47.2747 286.283 47.8938 286.311 48.8162C286.315 48.9761 286.225 49.1278 286.082 49.1975C285.976 49.2508 283.506 50.5094 284.36 52.7766C284.422 52.9364 284.377 53.1168 284.246 53.2316C284.152 53.3136 281.947 55.3184 283.98 58.2292C285.62 60.5783 288.606 68.9581 291.243 76.3499C291.693 77.6167 292.131 78.8425 292.544 79.9864C292.622 80.1995 292.511 80.4332 292.299 80.5111C292.254 80.5275 292.205 80.5357 292.16 80.5357H292.147Z" fill="#3D3D3D"/>
<path d="M310.737 64.4258C323.1 85.4327 331.153 92.9106 331.153 92.9106C331.153 92.9106 344.559 86.7282 355.679 85.2974C366.799 83.8625 400.454 96.8217 400.454 96.8217C400.454 96.8217 387.211 144.243 344.158 130.144C301.105 116.049 296.288 91.0698 293.67 84.2766C293.224 83.1205 292.705 81.702 292.141 80.1318C301.817 77.6023 307.608 70.1367 310.733 64.4258H310.737Z" fill="#F4EAE2"/>
<path d="M292.145 80.5295C291.965 80.5295 291.797 80.4065 291.748 80.222C291.691 80.0047 291.821 79.7792 292.042 79.7218C301.543 77.2374 307.256 69.9194 310.377 64.2167C310.487 64.0199 310.732 63.9461 310.933 64.0527C311.129 64.1634 311.203 64.4094 311.096 64.6103C307.898 70.4524 302.034 77.9549 292.251 80.5131C292.218 80.5213 292.181 80.5254 292.149 80.5254L292.145 80.5295Z" fill="#3D3D3D"/>
<path d="M298.635 63.139C298.459 63.139 298.295 63.0242 298.242 62.8439C297.805 61.3516 296.316 60.3963 294.921 59.6584L294.582 59.4821C293.134 58.7236 291.637 57.9406 290.778 56.5016C290.337 55.7637 290.071 54.6731 290.644 53.8286C291.183 53.0332 292.23 52.7545 293.76 52.9922C295.617 53.2833 297.437 53.7917 299.175 54.5091C299.383 54.5952 299.486 54.833 299.4 55.0421C299.314 55.2512 299.077 55.3537 298.868 55.2676C297.191 54.5788 295.429 54.0869 293.637 53.804C292.447 53.6195 291.67 53.7794 291.327 54.2919C290.971 54.8166 291.192 55.5833 291.49 56.0834C292.23 57.3256 293.621 58.0554 294.97 58.7605L295.31 58.9409C296.856 59.7568 298.512 60.835 299.036 62.6225C299.101 62.8398 298.974 63.0693 298.758 63.1308C298.721 63.1431 298.68 63.1472 298.643 63.1472L298.635 63.139Z" fill="#3D3D3D"/>
<path d="M291.96 53.3899C291.755 53.3899 291.575 53.2342 291.555 53.0251C291.424 51.8361 291.089 50.6923 290.561 49.6182C290.463 49.4132 290.545 49.1713 290.749 49.0688C290.954 48.9704 291.195 49.0524 291.297 49.2574C291.866 50.4176 292.225 51.6517 292.369 52.9349C292.393 53.1604 292.234 53.3612 292.009 53.3858C291.992 53.3858 291.976 53.3858 291.964 53.3858L291.96 53.3899Z" fill="#3D3D3D"/>
<path d="M290.484 55.0511C290.431 55.0511 290.378 55.0388 290.324 55.0183C288.23 54.141 286.582 52.3125 285.924 50.1356C285.858 49.9183 285.981 49.6887 286.198 49.6231C286.415 49.5575 286.644 49.6805 286.709 49.8978C287.298 51.8452 288.77 53.4768 290.643 54.264C290.852 54.3501 290.95 54.592 290.864 54.801C290.799 54.9568 290.648 55.0511 290.488 55.0511H290.484Z" fill="#3D3D3D"/>
<path d="M288.842 58.7483H288.83C287.717 58.7483 286.568 58.203 285.668 57.2642C284.805 56.3622 284.278 55.2348 283.918 54.3534C283.832 54.1443 283.93 53.9024 284.139 53.8163C284.347 53.7302 284.589 53.8286 284.674 54.0377C285.01 54.8494 285.492 55.8867 286.261 56.6943C287.006 57.4732 287.942 57.9242 288.834 57.9283H288.842C289.811 57.9283 290.719 57.3421 291.005 56.5303C291.079 56.3171 291.312 56.2023 291.525 56.2802C291.737 56.354 291.852 56.5877 291.774 56.8009C291.373 57.9488 290.167 58.7483 288.842 58.7483Z" fill="#3D3D3D"/>
<path d="M287.199 60.7533C287.003 60.7533 286.803 60.7287 286.606 60.6754C285.903 60.4868 285.326 60.0112 284.905 59.6217C284.737 59.466 284.729 59.2077 284.885 59.0437C285.04 58.8756 285.298 58.8674 285.461 59.0232C285.838 59.3717 286.291 59.7447 286.819 59.8882C287.302 60.0194 287.813 59.8923 288.062 59.589C288.3 59.2979 288.34 58.8551 288.369 58.3508C288.381 58.1254 288.574 57.9532 288.799 57.9655C289.023 57.9778 289.195 58.1704 289.183 58.3959C289.154 58.9002 289.118 59.5889 288.692 60.1096C288.353 60.5278 287.792 60.7615 287.199 60.7615V60.7533Z" fill="#3D3D3D"/>
<path d="M333.943 97.4886C333.812 97.4886 333.686 97.4272 333.608 97.3124L331.408 94.1105C331.281 93.926 331.326 93.6677 331.514 93.5406C331.698 93.4135 331.956 93.4586 332.082 93.6472L334.283 96.8491C334.41 97.0336 334.365 97.2919 334.176 97.4189C334.107 97.4681 334.025 97.4927 333.943 97.4927V97.4886Z" fill="#3D3D3D"/>
<path d="M336.273 169.152L416.003 183.694C412.948 146.633 400.691 96.9154 400.691 96.9154C400.691 96.9154 403.44 97.8379 381.985 90.0484C360.526 82.2589 348.714 92.8977 348.007 101.983C347.557 107.751 341.001 143.681 336.278 169.152H336.273Z" fill="#F4EAE2"/>
<path d="M415.766 183.153C415.558 183.153 415.382 182.993 415.361 182.784C414.793 176.975 413.668 167.771 412.805 161.835C412.772 161.609 412.928 161.404 413.153 161.372C413.374 161.339 413.582 161.495 413.615 161.72C414.478 167.669 415.603 176.889 416.175 182.706C416.196 182.932 416.032 183.133 415.807 183.153C415.795 183.153 415.778 183.153 415.766 183.153Z" fill="#3D3D3D"/>
<path d="M370.837 71.1992L373.225 87.4177L368.988 87.9465C368.988 87.9465 376.493 100.434 393.801 94.3749L388.623 92.1857L383.127 71.2033H370.837V71.1992Z" fill="#F4EAE2"/>
<path d="M384.829 96.4413C373.77 96.4413 368.703 88.2665 368.641 88.1681C368.523 87.9754 368.588 87.7212 368.78 87.6064C368.973 87.4875 369.226 87.5531 369.341 87.7458C369.631 88.2255 376.604 99.4218 392.71 94.3176C392.926 94.248 393.155 94.3668 393.225 94.5841C393.295 94.8014 393.172 95.031 392.959 95.0966C389.957 96.0477 387.25 96.4413 384.833 96.4413H384.829Z" fill="#3D3D3D"/>
<path d="M382.05 74.2196C382.05 74.2196 375.518 78.9465 369.85 74.1704C364.182 69.3901 367.989 62.2525 369.965 60.0919C371.944 57.9314 373.38 57.3984 373.38 57.3984C373.38 57.3984 377.441 66.6556 382.655 65.4913C382.954 65.4257 382.05 74.2155 382.05 74.2155V74.2196Z" fill="#F4EAE2"/>
<path d="M375.546 76.6962C373.648 76.6962 371.567 76.1427 369.587 74.4782C367.677 72.8671 366.63 70.8623 366.479 68.5214C366.25 64.9341 368.258 61.3469 369.661 59.8095C371.681 57.6038 373.174 57.034 373.235 57.0094C373.44 56.9356 373.665 57.0299 373.751 57.2308C373.791 57.3209 377.734 66.164 382.564 65.0899C382.691 65.0612 382.842 65.1022 382.94 65.1883C383.132 65.3605 383.349 65.5532 382.454 74.2569C382.441 74.3717 382.38 74.4782 382.286 74.5479C382.241 74.5807 379.251 76.6962 375.542 76.6962H375.546ZM373.182 57.9441C372.663 58.227 371.587 58.9198 370.266 60.3629C368.953 61.7937 367.08 65.135 367.297 68.4681C367.432 70.5794 368.381 72.3874 370.115 73.851C375.071 78.0327 380.666 74.6504 381.664 73.9863C382 70.7065 382.306 67.1111 382.314 65.9672C377.615 66.5617 374.02 59.6906 373.186 57.9482L373.182 57.9441Z" fill="#3D3D3D"/>
<path d="M379.155 59.6562C379.155 59.6562 375.904 91.1789 392.201 93.0689L391.06 69.7825L379.155 59.6562Z" fill="#3D3D3D"/>
<path d="M339.011 125.596L365.623 136.005C367.14 136.6 368.788 135.513 368.845 133.882L370.076 98.3536C370.113 97.3492 369.508 96.4308 368.571 96.066L341.959 85.6568C340.442 85.0623 338.794 86.1488 338.736 87.7804L337.505 123.309C337.469 124.313 338.074 125.231 339.011 125.596Z" fill="#3D3D3D"/>
<path d="M353.572 96.9663C352.869 97.2779 352.546 98.1019 352.857 98.8071C353.167 99.5122 353.989 99.8361 354.693 99.5245C355.396 99.2129 355.719 98.3889 355.409 97.6837C355.098 96.9786 354.276 96.6547 353.572 96.9663Z" fill="#1890FF"/>
<path d="M362.124 115.204C362.124 115.204 360.451 114.089 361.883 112.568C363.171 111.199 374.136 110.985 387.084 125.744C388.405 127.249 389.591 128.622 390.654 129.873C387.828 133.554 381.939 140.397 375.003 143.722C372.884 137.896 370.295 132.267 365.662 129.631C357.474 124.974 365.551 126.015 365.551 126.015C365.551 126.015 359.093 123.407 359.678 121.915C360.451 119.927 365.751 121.817 367.968 122.706C368.565 122.965 368.941 123.116 368.941 123.116C368.941 123.116 368.565 122.948 367.968 122.706C365.535 121.657 359.363 118.824 359.363 117.069C359.359 114.88 362.128 115.2 362.128 115.2L362.124 115.204Z" fill="#F4EAE2"/>
<path d="M375.005 144.148C374.952 144.148 374.899 144.139 374.85 144.119C374.744 144.074 374.662 143.988 374.621 143.881C372.56 138.207 370.02 132.603 365.46 130.008C361.722 127.88 361.423 126.974 361.628 126.367C361.812 125.818 362.56 125.601 363.395 125.539C361.256 124.518 358.81 123.038 359.297 121.788C359.456 121.382 359.759 121.079 360.196 120.886C360.883 120.587 361.89 120.603 362.994 120.787C360.712 119.521 358.953 118.192 358.953 117.094C358.953 116.417 359.178 115.872 359.62 115.47C360.078 115.06 360.691 114.892 361.198 114.831C361.055 114.605 360.941 114.335 360.904 114.023C360.839 113.433 361.063 112.859 361.583 112.305C362.037 111.821 363.133 111.559 364.601 111.584C367.124 111.629 376.224 112.76 387.393 125.494C388.661 126.937 389.864 128.327 390.968 129.631C391.095 129.778 391.099 129.991 390.98 130.147C388.08 133.927 382.171 140.765 375.181 144.119C375.124 144.148 375.067 144.16 375.005 144.16V144.148ZM364.016 126.343C363.129 126.343 362.478 126.457 362.401 126.625C362.401 126.63 362.319 127.281 365.861 129.294C370.531 131.951 373.14 137.502 375.23 143.172C381.733 139.909 387.262 133.595 390.125 129.901C389.082 128.679 387.958 127.376 386.776 126.031C375.827 113.551 367.022 112.44 364.585 112.399C363.059 112.375 362.339 112.691 362.176 112.863C361.832 113.228 361.677 113.584 361.714 113.925C361.779 114.482 362.339 114.872 362.348 114.876C362.503 114.982 362.568 115.179 362.507 115.355C362.442 115.532 362.266 115.642 362.078 115.622C362.065 115.622 360.814 115.491 360.164 116.077C359.898 116.315 359.771 116.647 359.771 117.085C359.771 118.094 363.055 120.16 368.131 122.349C368.728 122.587 369.108 122.759 369.108 122.759C369.312 122.85 369.402 123.087 369.317 123.292C369.231 123.497 368.993 123.596 368.789 123.514C368.789 123.514 368.413 123.362 367.807 123.104C364.343 121.71 361.62 121.161 360.524 121.636C360.29 121.739 360.135 121.886 360.061 122.083C359.832 122.669 362.523 124.371 365.709 125.654C365.902 125.732 366.004 125.937 365.951 126.138C365.898 126.338 365.705 126.466 365.505 126.441C364.977 126.371 364.47 126.343 364.02 126.343H364.016Z" fill="#3D3D3D"/>
<path d="M371.534 119.647C371.46 119.647 371.387 119.626 371.317 119.585C369.002 118.146 365.964 116.851 362.528 115.838C362.311 115.773 362.189 115.547 362.25 115.33C362.316 115.112 362.541 114.989 362.757 115.051C365.203 115.773 368.745 117.023 371.747 118.888C371.939 119.007 371.996 119.261 371.877 119.454C371.8 119.581 371.665 119.647 371.53 119.647H371.534Z" fill="#3D3D3D"/>
<path d="M399.947 142.311L390.708 96.9187L400.45 96.8203C400.45 96.8203 414.793 101.416 422.257 131.037C429.721 160.657 430.289 176.265 414.372 181.123C398.454 185.985 383.874 164.183 379.764 156.233C377.981 152.786 376.631 148.198 375.008 143.733C381.944 140.408 387.833 133.566 390.659 129.884C399.546 140.343 399.951 142.307 399.951 142.307L399.947 142.311Z" fill="#F4EAE2"/>
<path d="M409.758 182.22C396.446 182.22 384.353 165.993 379.404 156.42C378.099 153.899 377.044 150.828 375.928 147.577C375.511 146.364 375.077 145.105 374.627 143.871C374.554 143.674 374.644 143.453 374.836 143.363C381.67 140.087 387.481 133.351 390.34 129.633C390.479 129.452 390.737 129.42 390.913 129.559C391.093 129.698 391.125 129.953 390.986 130.133C388.132 133.851 382.365 140.534 375.523 143.941C375.928 145.068 376.32 146.208 376.701 147.315C377.809 150.537 378.856 153.579 380.132 156.047C385.555 166.534 399.665 185.188 414.257 180.732C414.809 180.564 415.353 180.379 415.864 180.182C416.077 180.1 416.31 180.207 416.392 180.42C416.474 180.633 416.367 180.867 416.155 180.949C415.623 181.15 415.067 181.342 414.494 181.515C412.907 181.998 411.325 182.224 409.762 182.224L409.758 182.22Z" fill="#3D3D3D"/>
<path d="M406.16 152.244C406.026 152.244 405.895 152.178 405.817 152.059L405.702 151.883C399.543 142.437 394.374 135.123 390.341 130.142C390.198 129.966 390.227 129.708 390.403 129.564C390.579 129.421 390.836 129.449 390.979 129.626C395.032 134.627 400.214 141.966 406.39 151.432L406.504 151.608C406.627 151.797 406.574 152.051 406.385 152.174C406.316 152.219 406.238 152.24 406.16 152.24V152.244Z" fill="#3D3D3D"/>
<path d="M179.251 60.5688L18.2539 85.582L33.3027 182.916L194.3 157.902L179.251 60.5688Z" fill="#1890FF"/>
<path d="M113.836 75.3467L114.412 95.5624C114.412 95.5624 107.202 99.3095 99.7914 97.1941C92.3808 95.0786 91.8164 92.4343 91.8164 92.4343L98.6831 91.4012L98.5482 74.9531L113.836 75.3467Z" fill="#F4EAE2"/>
<path d="M112.924 56.9472C114.172 55.7829 115.145 54.3521 115.636 52.7204C113.755 52.2407 111.775 52.4293 109.841 52.622C106.97 52.909 104.099 53.196 101.244 53.6264C99.0152 53.9626 96.7372 54.4013 94.8191 55.5902C91.7476 57.4925 89.9972 61.2396 90.2508 64.8474C90.5044 68.4551 93.4204 71.9768 96.4345 73.9733C96.3241 74.1783 96.0215 74.5309 96.1973 75.3139C96.5449 76.8513 97.6246 78.2329 99.0806 78.8151C100.516 79.3891 102.283 79.1144 103.408 78.0525L103.469 78.1714C105.951 79.717 108.949 80.5124 111.837 80.086C114.728 79.6637 117.464 77.9419 118.85 75.3631C120.065 73.1083 120.184 70.3902 119.718 67.8689C118.92 63.5478 116.442 59.5628 112.92 56.9431L112.924 56.9472Z" fill="#F4EAE2"/>
<path d="M110.265 80.6152C107.901 80.6152 105.463 79.8936 103.259 78.5243C103.067 78.4054 103.009 78.1512 103.128 77.9585C103.247 77.7659 103.5 77.7085 103.692 77.8274C106.249 79.418 109.12 80.0781 111.786 79.6845C114.657 79.2623 117.23 77.5363 118.497 75.1748C119.827 72.7068 119.679 69.8821 119.324 67.9511C118.542 63.7243 116.121 59.8296 112.674 57.2714C112.494 57.1361 112.453 56.8778 112.588 56.6974C112.723 56.517 112.98 56.4761 113.16 56.6113C116.772 59.2926 119.311 63.3718 120.125 67.8036C120.505 69.8657 120.657 72.8872 119.217 75.5643C117.827 78.1512 115.025 80.0412 111.901 80.4963C111.361 80.5742 110.813 80.6152 110.261 80.6152H110.265Z" fill="#3D3D3D"/>
<path d="M100.627 79.5069C100.05 79.5069 99.4695 79.4003 98.9296 79.183C97.3837 78.5639 96.1854 77.1126 95.7969 75.3908C95.6374 74.6856 95.5556 73.6525 96.075 72.7506C96.6353 71.7789 97.8172 71.1763 99.085 71.2255C100.067 71.2624 101.101 71.6518 102.165 72.3898C102.349 72.5169 102.398 72.7751 102.267 72.9596C102.14 73.1441 101.882 73.1933 101.698 73.0621C100.766 72.4144 99.8784 72.07 99.0564 72.0413C98.1035 72.0085 97.1874 72.4554 96.7825 73.1564C96.4798 73.6812 96.4144 74.4109 96.5903 75.2063C96.9174 76.6658 97.9276 77.8957 99.2282 78.4164C100.574 78.9534 102.193 78.6582 103.171 77.6948C103.33 77.5349 103.592 77.539 103.747 77.6989C103.907 77.8588 103.903 78.1212 103.743 78.277C102.942 79.0682 101.788 79.4946 100.623 79.4946L100.627 79.5069Z" fill="#3D3D3D"/>
<path d="M102.611 75.7661C102.57 75.7661 102.533 75.762 102.492 75.7497C101.592 75.475 100.603 75.4709 99.6987 75.7333C99.4819 75.7948 99.2529 75.6718 99.1916 75.4545C99.1302 75.2373 99.2529 75.0118 99.4697 74.9462C100.521 74.6428 101.678 74.6469 102.725 74.9667C102.942 75.0323 103.065 75.2619 102.999 75.4791C102.946 75.6554 102.782 75.7702 102.607 75.7702L102.611 75.7661Z" fill="#3D3D3D"/>
<path d="M98.712 93.0854C98.4871 93.0854 98.3031 92.9009 98.3031 92.6754C98.3031 90.2935 98.2703 87.973 98.2376 85.7305C98.2049 83.4838 98.1681 81.1593 98.1722 78.7733C98.1722 78.5478 98.3562 78.3633 98.5812 78.3633C98.8061 78.3633 98.9901 78.5478 98.9901 78.7733C98.9901 81.1552 99.0229 83.4756 99.0556 85.7182C99.0883 87.9648 99.1251 90.2894 99.121 92.6754C99.121 92.9009 98.937 93.0854 98.712 93.0854Z" fill="#3D3D3D"/>
<path d="M114.316 91.7521C114.099 91.7521 113.92 91.5799 113.907 91.3626L113.376 79.8178C113.363 79.5923 113.539 79.3996 113.764 79.3873C113.985 79.375 114.181 79.5513 114.189 79.7768L114.721 91.3216C114.733 91.5471 114.558 91.7398 114.333 91.7521C114.324 91.7521 114.32 91.7521 114.312 91.7521H114.316Z" fill="#3D3D3D"/>
<path d="M90.2547 64.8451C90.0011 61.2373 91.7516 57.4902 94.823 55.5879C96.7411 54.399 99.0191 53.9603 101.248 53.6242C104.103 53.1978 106.974 52.9067 109.845 52.6197C111.779 52.4271 113.759 52.2344 115.64 52.7181C114.81 55.4772 112.593 57.6788 110.016 58.9579C107.44 60.237 104.524 60.6839 101.653 60.7782C102.839 62.5164 103.649 64.5786 103.591 66.6859C103.534 68.7931 102.516 70.9291 100.716 72.0196C97.9516 71.1668 96.3362 71.8597 95.6573 73.8194C92.6472 71.8228 90.5083 68.4569 90.2588 64.8451H90.2547Z" fill="#3D3D3D"/>
<path d="M62.6461 109.746C66.5436 103.256 79.1973 93.5316 91.8347 92.4206C92.7549 93.3512 93.761 94.1917 94.8529 94.9132C96.9224 96.2784 99.2535 97.2172 101.687 97.6641C104.186 98.1192 106.738 98.0044 109.22 97.4714C111.519 96.9795 113.69 96.0857 115.551 94.6303C116.623 93.7899 117.539 92.7895 118.353 91.7031C120.422 91.7113 122.5 91.7277 124.573 91.74C135.194 91.8056 143.55 94.1671 149.713 96.9385C156.396 99.9395 162.191 104.621 166.587 110.492C197.158 151.301 182.288 165.162 175.622 168.437C165.655 173.328 154.727 164.99 154.727 164.99L125.08 169.852C78.0277 194.11 72.073 176.944 65.8075 161.821C59.5379 146.697 55.7017 121.324 62.6461 109.754V109.746Z" fill="#F4EAE2"/>
<path d="M104.938 98.3462C96.6354 98.3462 91.106 93.0493 91.0324 92.9755C90.8729 92.8156 90.8688 92.5574 91.0242 92.3975C91.1837 92.2335 91.4413 92.2335 91.6009 92.3893C91.6949 92.4836 101.359 101.716 114.238 95.1894C114.438 95.0869 114.683 95.1689 114.786 95.3698C114.888 95.5707 114.806 95.8166 114.606 95.9191C111.117 97.6861 107.854 98.3421 104.933 98.3421L104.938 98.3462Z" fill="#3D3D3D"/>
<path d="M89.1771 181.815C83.116 181.815 78.2124 180.142 74.3231 176.817C74.1513 176.669 74.1308 176.411 74.2781 176.239C74.4253 176.067 74.683 176.046 74.8547 176.194C84.3593 184.319 100.26 182.188 124.897 169.483C125.097 169.38 125.343 169.458 125.449 169.659C125.551 169.86 125.474 170.106 125.273 170.212C110.227 177.969 98.3708 181.815 89.1771 181.815Z" fill="#3D3D3D"/>
<path d="M168.885 170.359C161.221 170.359 154.571 165.37 154.485 165.304C154.305 165.169 154.272 164.911 154.407 164.73C154.542 164.55 154.8 164.517 154.98 164.652C155.086 164.734 165.826 172.782 175.445 168.059C177.522 167.038 181.318 164.542 183.375 159.265C183.457 159.056 183.694 158.95 183.907 159.032C184.115 159.114 184.221 159.351 184.14 159.565C181.98 165.099 177.993 167.723 175.805 168.793C173.506 169.92 171.151 170.359 168.885 170.359Z" fill="#3D3D3D"/>
<path d="M135.851 131.465C135.703 131.465 135.556 131.383 135.487 131.239L131.021 122.441C130.918 122.24 131 121.994 131.201 121.892C131.401 121.789 131.651 121.871 131.749 122.072L136.215 130.87C136.317 131.071 136.235 131.317 136.035 131.42C135.973 131.448 135.912 131.465 135.851 131.465Z" fill="#3D3D3D"/>
<path d="M115.743 91.3143C115.743 91.3143 114.038 87.2638 117.821 87.8951C117.821 87.8951 117.367 82.914 121.457 85.1729L115.105 79.089C114.418 78.433 114.304 77.3753 114.831 76.584C115.453 75.6534 116.725 75.4279 117.62 76.0962C123.964 80.8108 133.464 86.5422 153.668 110.829C146.367 115.769 141.259 119.508 131.387 122.259C131.387 122.259 114.946 96.3201 113.878 93.8725C112.516 90.7485 115.743 91.3143 115.743 91.3143Z" fill="#F4EAE2"/>
<path d="M131.382 122.663C131.243 122.663 131.112 122.594 131.038 122.475C130.368 121.413 114.569 96.4826 113.501 94.035C113.027 92.9445 113.011 92.1041 113.452 91.5383C113.882 90.9889 114.614 90.8659 115.154 90.8618C114.945 90.128 114.741 88.9145 115.366 88.1191C115.779 87.5944 116.462 87.3607 117.395 87.4304C117.399 86.6391 117.55 85.1304 118.544 84.4786C118.908 84.2408 119.337 84.1424 119.828 84.1834L114.814 79.3827C113.984 78.5873 113.841 77.3123 114.483 76.353C114.847 75.8077 115.403 75.4469 116.045 75.3321C116.687 75.2214 117.333 75.3731 117.857 75.7626C118.524 76.2587 119.223 76.7629 119.967 77.3C126.298 81.8753 135.864 88.7874 153.978 110.561C154.051 110.651 154.084 110.766 154.068 110.881C154.051 110.996 153.986 111.098 153.892 111.164L152.518 112.094C145.97 116.542 140.796 120.056 131.488 122.651C131.451 122.659 131.414 122.667 131.378 122.667L131.382 122.663ZM115.219 91.6818C114.826 91.6818 114.323 91.7515 114.098 92.0426C113.796 92.4279 114.017 93.1577 114.254 93.7029C115.239 95.9619 129.852 119.064 131.57 121.778C140.567 119.228 145.647 115.776 152.068 111.418L153.066 110.741C135.206 89.3204 125.758 82.4902 119.497 77.9682C118.748 77.4271 118.049 76.9228 117.378 76.4227C117.035 76.1685 116.618 76.066 116.196 76.1398C115.775 76.2136 115.411 76.4514 115.174 76.808C114.757 77.4353 114.847 78.2675 115.391 78.7923L121.742 84.8763C121.889 85.0198 121.91 85.2493 121.791 85.4133C121.669 85.5773 121.444 85.6306 121.264 85.5281C120.249 84.9665 119.489 84.8435 119.002 85.1632C118.221 85.6716 118.184 87.2787 118.237 87.8568C118.25 87.9838 118.2 88.1068 118.106 88.1929C118.012 88.279 117.886 88.3159 117.763 88.2954C116.892 88.1519 116.307 88.2585 116.021 88.6234C115.509 89.2671 115.927 90.6692 116.131 91.1529C116.188 91.2923 116.168 91.4522 116.074 91.567C115.98 91.6859 115.828 91.7392 115.685 91.7146C115.587 91.6982 115.419 91.6818 115.231 91.6818H115.219Z" fill="#3D3D3D"/>
<path d="M125.115 168.305C125.078 168.305 125.041 168.301 125.004 168.289C124.894 168.256 124.8 168.182 124.751 168.076C124.665 167.904 116.256 150.808 115.778 138.254C115.77 138.078 115.88 137.914 116.048 137.853L135.65 130.719C135.834 130.653 136.038 130.727 136.141 130.895L141.466 139.804C141.466 139.804 141.478 139.829 141.486 139.841L147.952 153.698C148.038 153.887 147.972 154.112 147.797 154.219L125.336 168.24C125.27 168.281 125.196 168.301 125.119 168.301L125.115 168.305ZM116.604 138.525C117.144 149.795 124.023 164.669 125.282 167.305L147.052 153.714L140.746 140.206L135.605 131.605L116.604 138.521V138.525Z" fill="#3D3D3D"/>
<path d="M174.764 139.59C174.621 139.59 174.482 139.516 174.408 139.381C172.347 135.74 156.151 114.282 153.362 111.093C153.215 110.925 153.231 110.662 153.399 110.515C153.571 110.367 153.828 110.384 153.976 110.552C156.978 113.983 173.009 135.244 175.12 138.975C175.23 139.172 175.161 139.422 174.964 139.533C174.899 139.57 174.829 139.586 174.764 139.586V139.59Z" fill="#3D3D3D"/>
<path d="M93.9739 147.993C93.8307 147.993 93.6917 147.915 93.614 147.78C93.5036 147.583 93.5772 147.333 93.7735 147.222C100.526 143.475 107.683 140.401 115.048 138.088C115.265 138.023 115.494 138.142 115.56 138.359C115.625 138.576 115.506 138.806 115.29 138.871C107.977 141.167 100.869 144.221 94.1661 147.94C94.1048 147.973 94.0352 147.993 93.9698 147.993H93.9739Z" fill="#3D3D3D"/>
<path d="M97.4831 145.835C97.3318 145.835 97.1887 145.753 97.1151 145.605C93.6674 138.656 91.5816 133.302 89.4181 125.848C89.3568 125.631 89.4795 125.402 89.6962 125.34C89.913 125.279 90.1379 125.402 90.2034 125.619C92.3505 133.019 94.424 138.336 97.8471 145.24C97.9494 145.441 97.8635 145.687 97.6631 145.789C97.6058 145.818 97.5404 145.83 97.4831 145.83V145.835Z" fill="#3D3D3D"/>
<path d="M154.303 163.769C154.209 163.769 154.115 163.737 154.037 163.671C151.244 161.285 149.146 158.325 147.629 154.623C147.543 154.414 147.641 154.172 147.85 154.086C148.058 154 148.299 154.098 148.385 154.307C149.854 157.886 151.878 160.748 154.569 163.044C154.741 163.191 154.761 163.45 154.614 163.622C154.532 163.716 154.418 163.765 154.303 163.765V163.769Z" fill="#3D3D3D"/>
<path d="M140.946 56.613C140.946 58.38 142.373 59.8108 144.136 59.8108H164.466C166.229 59.8108 167.656 58.38 167.656 56.613C167.656 51.6811 169.513 46.9172 172.895 43.3382C177.246 38.7342 179.917 32.519 179.917 25.6766C179.913 11.4752 168.408 -0.036809 154.233 8.84485e-05C140.533 0.0328862 129.13 11.1144 128.697 24.8403C128.472 31.941 131.122 38.4144 135.568 43.1906C138.97 46.8475 140.946 51.6073 140.946 56.6089V56.613Z" fill="#3D3D3D"/>
<path d="M142.82 59.832V70.0567C142.82 76.4113 147.957 81.5605 154.296 81.5605C160.635 81.5605 165.772 76.4113 165.772 70.0567V59.832H142.82Z" fill="#F4EAE2"/>
<path d="M142.823 66.0476C142.598 66.0476 142.414 65.8631 142.414 65.6376V59.8201C142.414 59.5946 142.598 59.4102 142.823 59.4102H165.775C166 59.4102 166.184 59.5946 166.184 59.8201V62.6571C166.184 62.8826 166 63.0671 165.775 63.0671C165.55 63.0671 165.366 62.8826 165.366 62.6571V60.2301H143.232V65.6376C143.232 65.8631 143.048 66.0476 142.823 66.0476Z" fill="#3D3D3D"/>
<path d="M141.054 67.3039C140.861 67.3039 140.694 67.1686 140.653 66.976C140.608 66.7546 140.751 66.5373 140.972 66.4922L167.424 61.1216C167.645 61.0765 167.862 61.22 167.907 61.4413C167.952 61.6627 167.809 61.88 167.588 61.9251L141.135 67.2957C141.107 67.2998 141.082 67.3039 141.054 67.3039Z" fill="#3D3D3D"/>
<path d="M141.054 72.4563C140.861 72.4563 140.694 72.321 140.653 72.1283C140.608 71.9069 140.751 71.6896 140.972 71.6445L167.424 66.2739C167.645 66.2288 167.862 66.3723 167.907 66.5937C167.952 66.8151 167.809 67.0324 167.588 67.0775L141.135 72.4481C141.107 72.4522 141.082 72.4563 141.054 72.4563Z" fill="#3D3D3D"/>
<path d="M142.811 77.2518C142.619 77.2518 142.452 77.1165 142.411 76.9238C142.366 76.7024 142.509 76.4851 142.73 76.4401L167.011 71.5122C167.231 71.4671 167.448 71.6106 167.493 71.832C167.538 72.0534 167.395 72.2706 167.174 72.3157L142.893 77.2436C142.865 77.2477 142.84 77.2518 142.811 77.2518Z" fill="#3D3D3D"/>
<path d="M148.213 53.5603C148.016 53.5603 147.845 53.4168 147.808 53.22L142.986 24.5098C142.962 24.3581 143.019 24.2064 143.141 24.1162C143.264 24.0219 143.424 24.0055 143.563 24.0711L150.172 27.1418L153.988 23.4766C154.135 23.3372 154.356 23.3249 154.519 23.4479L159.19 26.9983L165.504 24.4032C165.643 24.3458 165.803 24.3704 165.921 24.4688C166.036 24.5671 166.093 24.7188 166.06 24.8664L160.2 53.2282C160.155 53.4496 159.938 53.5931 159.717 53.548C159.496 53.5029 159.353 53.2856 159.398 53.0643L165.103 25.4568L159.284 27.851C159.149 27.9043 158.997 27.8879 158.883 27.7977L154.307 24.3171L150.54 27.933C150.417 28.0519 150.237 28.0806 150.086 28.0109L143.927 25.1493L148.618 53.093C148.654 53.3143 148.503 53.5275 148.282 53.5644C148.258 53.5644 148.237 53.5685 148.213 53.5685V53.5603Z" fill="#F4EAE2"/>
</svg>
