<svg width="26" height="26" viewBox="0 0 26 26" fill="none" xmlns="http://www.w3.org/2000/svg">
<rect x="0.000488281" width="26" height="26" rx="13" fill="#1890FF"/>
<g clip-path="url(#clip0_4434_87099)">
<path d="M18.5005 8.87793H16.3755L15.8692 7.45918C15.8343 7.3621 15.7702 7.27818 15.6857 7.21889C15.6013 7.15961 15.5006 7.12784 15.3974 7.12793H10.6036C10.3927 7.12793 10.2036 7.26074 10.1333 7.45918L9.62549 8.87793H7.50049C6.80986 8.87793 6.25049 9.43731 6.25049 10.1279V17.2529C6.25049 17.9436 6.80986 18.5029 7.50049 18.5029H18.5005C19.1911 18.5029 19.7505 17.9436 19.7505 17.2529V10.1279C19.7505 9.43731 19.1911 8.87793 18.5005 8.87793ZM18.6255 17.2529C18.6255 17.3217 18.5692 17.3779 18.5005 17.3779H7.50049C7.43174 17.3779 7.37549 17.3217 7.37549 17.2529V10.1279C7.37549 10.0592 7.43174 10.0029 7.50049 10.0029H10.4177L10.6849 9.25606L11.0427 8.25293H14.9567L15.3146 9.25606L15.5817 10.0029H18.5005C18.5692 10.0029 18.6255 10.0592 18.6255 10.1279V17.2529ZM13.0005 11.0029C11.6192 11.0029 10.5005 12.1217 10.5005 13.5029C10.5005 14.8842 11.6192 16.0029 13.0005 16.0029C14.3817 16.0029 15.5005 14.8842 15.5005 13.5029C15.5005 12.1217 14.3817 11.0029 13.0005 11.0029ZM13.0005 15.0029C12.1724 15.0029 11.5005 14.3311 11.5005 13.5029C11.5005 12.6748 12.1724 12.0029 13.0005 12.0029C13.8286 12.0029 14.5005 12.6748 14.5005 13.5029C14.5005 14.3311 13.8286 15.0029 13.0005 15.0029Z" fill="white"/>
</g>
<defs>
<clipPath id="clip0_4434_87099">
<rect width="14" height="14" fill="white" transform="translate(6.00049 6)"/>
</clipPath>
</defs>
</svg>

